<svg id="Layer_1" data-name="Layer 1" xmlns="http://www.w3.org/2000/svg" viewBox="0 0 220.81 68"><defs><style>.cls-1{fill:#fff;}.cls-2{fill:#ea0029;}.cls-3{fill:#85754e;}</style></defs><path d="M4.16,41.79h1.5l3.1,9.4H7.46L6.76,49H3.16l-.7,2.2H1.26Zm.7,1.1h0l-1.5,5h3Z" transform="translate(-1.16 -0.69)"/><path d="M10.06,51.19v-9.4h3.1a2.06,2.06,0,0,1,2.1,1,3.14,3.14,0,0,1,.4,1.2,1.93,1.93,0,0,1-1.6,2.2v.1a2,2,0,0,1,1.9,2.2c0,2.4-1.8,2.6-2.8,2.6h-3.1Zm1.2-5.5H13a1.34,1.34,0,0,0,1.4-1.5,1.26,1.26,0,0,0-1.4-1.4h-1.7Zm0,4.4H13a1.54,1.54,0,0,0,1.7-1.6c0-1.5-.9-1.8-2.1-1.8h-1.3Z" transform="translate(-1.16 -0.69)"/><path d="M17.86,41.79h1.2v6c0,2.1.6,2.6,1.8,2.6s1.8-.5,1.8-2.6v-6h1.2v6c0,2.6-1,3.6-3,3.6s-3-1-3-3.6Z" transform="translate(-1.16 -0.69)"/><path d="M28.76,41.79h2.9a2.4,2.4,0,0,1,2.5,1.4,9.13,9.13,0,0,1,.4,3c0,2-.2,3.2-.6,3.8-.5.8-1.5,1.2-3.1,1.2h-2.2v-9.4Zm1.2,8.3h1.1c1.7,0,2.3-.6,2.3-2.8v-1.9c0-1.9-.6-2.6-1.8-2.6H30Z" transform="translate(-1.16 -0.69)"/><path d="M36.76,51.19v-9.4H38v4.1h3.3v-4.1h1.2v9.4h-1.2v-4.3H38v4.3Z" transform="translate(-1.16 -0.69)"/><path d="M46.76,41.79h1.5l3.1,9.4h-1.3l-.7-2.2h-3.6l-.7,2.2h-1.2Zm.7,1.1h0l-1.5,5h3Z" transform="translate(-1.16 -0.69)"/><path d="M52.66,51.19v-9.4h3.1a2.06,2.06,0,0,1,2.1,1,3.14,3.14,0,0,1,.4,1.2,1.93,1.93,0,0,1-1.6,2.2v.1a2,2,0,0,1,1.9,2.2c0,2.4-1.8,2.6-2.8,2.6h-3.1Zm1.2-5.5h1.7a1.34,1.34,0,0,0,1.4-1.5,1.26,1.26,0,0,0-1.4-1.4h-1.7Zm0,4.4h1.7a1.54,1.54,0,0,0,1.7-1.6c0-1.5-.9-1.8-2.1-1.8h-1.3Z" transform="translate(-1.16 -0.69)"/><path d="M61.86,51.19h-1.2v-9.4h1.2Z" transform="translate(-1.16 -0.69)"/><path d="M67.06,51.19v-9.4h4.8v1h-3.6v3h3.4v1h-3.4V50H72v1h-4.9Z" transform="translate(-1.16 -0.69)"/><path d="M79.56,51.19h-1.4l-2.2-4-2.1,4h-1.3l2.7-4.9-2.6-4.5h1.4l1.9,3.6,2-3.6h1.3l-2.5,4.5Z" transform="translate(-1.16 -0.69)"/><path d="M80.76,51.19v-9.4h4.8v1H82v3h3.4v1H82V50h3.7v1h-4.9Z" transform="translate(-1.16 -0.69)"/><path d="M91.36,44.39a2.09,2.09,0,0,0-.3-1.4,1.67,1.67,0,0,0-1.1-.4c-1,0-1.4.6-1.4.7a3.6,3.6,0,0,0-.3,1.9v2.5c0,2.3.8,2.6,1.7,2.6.4,0,1.5-.1,1.5-2h1.2c.1,3-2,3-2.7,3-1.2,0-3-.1-3-3.7V45c0-2.7,1.2-3.4,3-3.4s2.6,1,2.5,2.8Z" transform="translate(-1.16 -0.69)"/><path d="M94.46,41.79h1.2v6c0,2.1.6,2.6,1.8,2.6s1.8-.5,1.8-2.6v-6h1.2v6c0,2.6-1,3.6-3,3.6s-3-1-3-3.6Z" transform="translate(-1.16 -0.69)"/><path d="M107.66,41.79v1h-2.5v8.3H104v-8.3h-2.5v-1Z" transform="translate(-1.16 -0.69)"/><path d="M110.26,51.19h-1.2v-9.4h1.2Z" transform="translate(-1.16 -0.69)"/><path d="M115.76,51.19h-1.4l-2.7-9.4H113l2.1,8.3h0l2.2-8.3h1.2Z" transform="translate(-1.16 -0.69)"/><path d="M119.76,51.19v-9.4h4.8v1H121v3h3.4v1H121V50h3.7v1h-4.9Z" transform="translate(-1.16 -0.69)"/><path d="M129.16,47.69v-3.1a3,3,0,1,1,6,0v3.1c0,2.6-1,3.6-3,3.6S129.16,50.29,129.16,47.69Zm4.6.1v-3.2c0-2-1.4-2-1.7-2s-1.7.1-1.7,2v3.2c0,2.1.6,2.6,1.7,2.6S133.76,49.79,133.76,47.79Z" transform="translate(-1.16 -0.69)"/><path d="M137,51.19v-9.4h4.7v1h-3.5v3h3.3v1h-3.3v4.3H137Z" transform="translate(-1.16 -0.69)"/><path d="M142.76,51.19v-9.4h4.7v1H144v3h3.3v1H144v4.3h-1.2Z" transform="translate(-1.16 -0.69)"/><path d="M150,51.19h-1.2v-9.4H150Z" transform="translate(-1.16 -0.69)"/><path d="M156.36,44.39a2.09,2.09,0,0,0-.3-1.4,1.67,1.67,0,0,0-1.1-.4c-1,0-1.4.6-1.4.7a3.6,3.6,0,0,0-.3,1.9v2.5c0,2.3.8,2.6,1.7,2.6.4,0,1.5-.1,1.5-2h1.2c.1,3-2,3-2.7,3-1.2,0-3-.1-3-3.7V45c0-2.7,1.2-3.4,3-3.4s2.6,1,2.5,2.8Z" transform="translate(-1.16 -0.69)"/><path d="M159.46,51.19v-9.4h4.8v1h-3.6v3h3.4v1h-3.4V50h3.7v1h-4.9Z" transform="translate(-1.16 -0.69)"/><path class="cls-1" d="M221.86,34.59c.1-12.8-2.7-20-5.1-23.5a11.58,11.58,0,0,1,1.4-1.8,3.28,3.28,0,0,1,1.5-.8,20.74,20.74,0,0,1,.9-3.7,22.31,22.31,0,0,1-3.3,1.9,2.43,2.43,0,0,1-.3,1.7,15.07,15.07,0,0,1-1.1,1.4,15.8,15.8,0,0,0-4.1-3.4c-.4-.2-.9-.5-1.4-.7a2.41,2.41,0,0,0-.7-1.8,1.19,1.19,0,0,0-.8-1h0a1.9,1.9,0,0,0-1.4.4,3.25,3.25,0,0,0-1.8,1,34.93,34.93,0,0,0-5.1-.7,3,3,0,0,0-1.6-2,2.07,2.07,0,0,0-1.3-.9h0a1.54,1.54,0,0,0-1.3.9,3,3,0,0,0-1.6,2,34.93,34.93,0,0,0-5.1.7,3.25,3.25,0,0,0-1.8-1,1.57,1.57,0,0,0-1.3-.4h0a1.59,1.59,0,0,0-.8,1,2.41,2.41,0,0,0-.7,1.8c-.5.2-1,.5-1.4.7a14,14,0,0,0-4.1,3.4c-.6-.8-.9-1.2-1-1.3a2.43,2.43,0,0,1-.3-1.7,22.31,22.31,0,0,1-3.3-1.9s.6,2,.9,3.7a1.91,1.91,0,0,1,1.5.8s.5.6,1.2,1.6c-2.4,3.5-5.3,10.7-5.2,23.6,0,1.2-.5,12.4,3.1,19.9a17.4,17.4,0,0,0,3.5,4.7,12.77,12.77,0,0,0,5.8,3.2c.1,0,.2.1.3.1a9.34,9.34,0,0,0,6-.2l-.1.3c0,.1-.1.2-.1.3-.5,1.4-.2,2.8,1.7,3a6.78,6.78,0,0,1,1.7.4,4.79,4.79,0,0,1,1.5,1.1c.2.2.7.9,1,1.3h0a3.45,3.45,0,0,1,1-1.3,5.54,5.54,0,0,1,1.5-1.1,5.93,5.93,0,0,1,1.7-.4c1.9-.2,2.2-1.6,1.7-3,0-.1-.1-.2-.1-.3a1,1,0,0,0-.1-.3c1.3.8,5.3,1.3,9.1-1.1a16.28,16.28,0,0,0,6.1-6.6C222.36,47,221.86,35.69,221.86,34.59ZM205,24.29a.77.77,0,0,1-.3.2.66.66,0,0,1-.6.1.6.6,0,0,1-.6-.3,15.44,15.44,0,0,1-1.2-2.3c-.4-.9-.3-.8-.9-2.2a10,10,0,0,0-1.1-2.1,3.44,3.44,0,0,0-2.9-1.6,6.22,6.22,0,0,0-2.2.2,3,3,0,0,0-1.1.6l-.3.3a3.74,3.74,0,0,0-1,.6,1.38,1.38,0,0,0-.3,2h0c0-.2,0-.5.1-.5a1.78,1.78,0,0,0,1.1.2c.5-.1.8.6.8.6V20s.1.4.3.5l.1-.1c.1.2.4.3.4.6a1,1,0,0,1-.4.8c-.1.1-.9.7-1.7,1.5-.4.4-.6.7-1,1.1-.2.2-.4.4-.6.4h-.1a.76.76,0,0,1-.5-.2c-.1-.1-4.1-5.4-6-7.9,3.5-3.4,9.2-3.9,10.7-3.8.3,0,.7.3.3.8a2.75,2.75,0,0,0,1.9-.4,2.75,2.75,0,0,0,1.9.4c-.4-.6,0-.8.3-.8,1.4-.1,6.9.2,10.7,3.9C208.76,19.19,206.26,22.39,205,24.29Z" transform="translate(-1.16 -0.69)"/><path class="cls-2" d="M221.06,31.09a39.26,39.26,0,0,1-5.4,3.7l-.9.5v-.6a34.42,34.42,0,0,0-3.9-15.8c-.3.3-1.1,1.4-2,2.6a1.57,1.57,0,0,1,1.5.6,14.28,14.28,0,0,1,3,4.9,13.85,13.85,0,0,1,.7,4.6h0s-.5,8.6-1.5,16.9c-.9,7.5-1.4,8.5-1.4,8.5a4.57,4.57,0,0,1-.9-2.1l-.1.1a7.43,7.43,0,0,1-.8-2.2,32.84,32.84,0,0,1-.4-6.1h0a3.9,3.9,0,0,0-.3-1.2,4.18,4.18,0,0,1-.4-1h0a6.66,6.66,0,0,0-2.2-3.7,11.74,11.74,0,0,1-1.5-2.5h-.1c-.4.4-.7.7-.7.9a10.54,10.54,0,0,1,.1,3c-.1,0-.2-.2-.3-.2.1.9-.3,1.9-.1,2.7l-.5-.1c0,.1,0,.1.1.1s.1.2.3.2a.35.35,0,0,0,.2.1,4.2,4.2,0,0,0,.5.2,1.65,1.65,0,0,0-.2-1.7c-.3-.3.1-.7.6-.5a8,8,0,0,1,2.2,1.4c1.1,1,1.4,2.1,1.2,2.3s-.3.1-.5,0v.1a.7.7,0,0,1-.5.4h0c-.1.2-.3.2-.6.2a1.27,1.27,0,0,1-.6-.2c-.1,0-.1-.1-.2-.2s-.1.1-.2.2a48.45,48.45,0,0,1,3.7,5.2,10.77,10.77,0,0,1,1.2,2.8,3.38,3.38,0,0,1-1.1,0,5,5,0,0,1,.3,1.6,2.83,2.83,0,0,1-1.7-.4.37.37,0,0,0,.1.3c.5.4,1.1.8,1.4,1-2.6,1.2-6.4.7-6.5.7a.9.9,0,0,1-.5-.1.35.35,0,0,1-.1.2c.3.6.8,2,1,2.3a8.48,8.48,0,0,0,5.6.9,4.51,4.51,0,0,0,1.4-.4,14.44,14.44,0,0,0,4.5-2.9,19.15,19.15,0,0,0,3.4-4.3c2.9-5.6,3.4-14,3.4-17.4v-1.8C221.16,33.79,221.16,32,221.06,31.09Z" transform="translate(-1.16 -0.69)"/><path class="cls-2" d="M192.86,60.79c.1-.3.6-1.6.9-2.2,0-.1-.1-.2-.1-.3-.4.1-.7.1-1.1.2-.2,0-3.8.6-6.5-.6.3-.2.9-.7,1.7-1.2v-.2a2.83,2.83,0,0,1-1.7.4,6.13,6.13,0,0,1,.3-1.6,3.38,3.38,0,0,1-1.1,0,17.73,17.73,0,0,1,1.2-2.8,24.13,24.13,0,0,1,2.9-4,2,2,0,0,1,.5-.9l.2-.2-.3-.3c-.1.1-.2.2-.3.2a3.93,3.93,0,0,1-.6.2.85.85,0,0,1-.6-.2h0a1,1,0,0,1-.5-.4v-.1c-.2.1-.3.1-.5-.1s.1-1.2,1.2-2.2a6.16,6.16,0,0,1,2.2-1.4c.5-.2.8.2.6.5a1.65,1.65,0,0,0-.2,1.7c.3-.1.4-.2.5-.2a.54.54,0,0,0,.4-.3.1.1,0,0,1,.1-.1l-.5.1c.2-.6-.1-2,.1-2.9-.1,0-.2.2-.3.2a13.57,13.57,0,0,1-.1-2.8c0-.2-.2-.5-.6-.8a8.35,8.35,0,0,1-1.5,2.4,7.29,7.29,0,0,0-2.2,3.7h0a3,3,0,0,1-.4,1,1.88,1.88,0,0,0-.3,1.2h0a31.79,31.79,0,0,1-.4,6.1,6.13,6.13,0,0,1-.8,2.2L185,55a6,6,0,0,1-.9,2.1s-.5-1-1.4-8.5c-1-8.2-1.5-16.9-1.5-16.9h0a11.69,11.69,0,0,1,.7-4.6,16,16,0,0,1,3-4.9,1.85,1.85,0,0,1,1.7-.5,1.46,1.46,0,0,1-.3-.5c-.6-.8-1.2-1.6-1.8-2.3-4,7.1-3.9,15.6-3.9,15.6v.9l-.7-.4a43.44,43.44,0,0,1-5.6-3.7c0,.9-.1,3.8-.1,3.8v1.8c0,3.4.6,11.7,3.4,17.4a17.69,17.69,0,0,0,3.3,4.4,13.56,13.56,0,0,0,4.9,2.9c.1,0,.3.1.4.1a9.9,9.9,0,0,0,6.7-.9Z" transform="translate(-1.16 -0.69)"/><path class="cls-2" d="M194.66,62.89a29,29,0,0,1,.4-3.8,4.43,4.43,0,0,1-.6.5.35.35,0,0,0-.2-.1c-.6,1.5-1.5,3.7-1.5,3.7A1.93,1.93,0,0,1,194.66,62.89Z" transform="translate(-1.16 -0.69)"/><path class="cls-2" d="M200.76,63.89c0-1-.4-3.9-.6-5.5l-.1-.1-.2-.2a4.18,4.18,0,0,1-.4,1,6.13,6.13,0,0,1-.5.8,3.88,3.88,0,0,1-1.3-1.6,3.88,3.88,0,0,1-1.3,1.6c-.1,0-.3-.4-.5-.8a1.69,1.69,0,0,1-.2-.5c-.2,1.7-.6,4.4-.6,5.4-1.6-1-2.5,0-2.2.7,0,.1.1.1.1.2a1,1,0,0,0,.8.4,5,5,0,0,1,1.9.4,6.7,6.7,0,0,1,2.2,1.8,6.7,6.7,0,0,1,2.2-1.8,3.8,3.8,0,0,1,1.9-.4,1.23,1.23,0,0,0,.8-.4.35.35,0,0,0,.1-.2C203.26,63.89,202.26,62.89,200.76,63.89Z" transform="translate(-1.16 -0.69)"/><path class="cls-2" d="M201.26,59.59a2.22,2.22,0,0,1-.5-.4c.2,1.2.4,2.6.5,3.7a1.76,1.76,0,0,1,1.9.3s-1-2.5-1.5-3.9C201.46,59.49,201.36,59.59,201.26,59.59Z" transform="translate(-1.16 -0.69)"/><path class="cls-3" d="M195.36,28.39h0" transform="translate(-1.16 -0.69)"/><polyline class="cls-3" points="193.3 28 193.3 28 193.3 28"/><path class="cls-3" d="M208.66,32.89a1.33,1.33,0,0,1-.8,1.1c-.3-.8-.4-1.5.8-3.9-.8,2.4-.5,3.2-.5,3.2A1.08,1.08,0,0,0,208.66,32.89Zm-1.3-1.7s-.3-.5.4-2.6a3.81,3.81,0,0,0-.7,3.4,1.71,1.71,0,0,0,.9-1.1A1.55,1.55,0,0,1,207.36,31.19Zm4.7-3.5a7.07,7.07,0,0,1-.6,2.9c-.2-.1-.3-.6-.3-.6a1.31,1.31,0,0,0,.4,1.3A7.28,7.28,0,0,0,212.06,27.69Zm-.4-1.4c-.3,2.4-.7,2.9-1,3.3-.2-.1-.4-.7-.4-.7a1.74,1.74,0,0,0,.3,1.4A5.29,5.29,0,0,0,211.66,26.29Zm-1.8,2.2a4.76,4.76,0,0,1-.2-1.3,2.42,2.42,0,0,0,.1,2.1,6.44,6.44,0,0,0,1.2-3.9A6.07,6.07,0,0,1,209.86,28.49Zm-.8-1.3a5.54,5.54,0,0,1-.1-1.7,3.13,3.13,0,0,0-.1,2.5,5.82,5.82,0,0,0,1.5-3.7A6.3,6.3,0,0,1,209.06,27.19Zm2.8,4a1.08,1.08,0,0,0,.4.8,3.78,3.78,0,0,0,.4-2.7,4.07,4.07,0,0,1-.5,2.1A1.44,1.44,0,0,1,211.86,31.19Zm.8.7a1,1,0,0,0,.4.7,3.35,3.35,0,0,0,.3-2.4,4.76,4.76,0,0,1-.4,1.9A1.44,1.44,0,0,1,212.66,31.89Zm-28.6-1.3a7.07,7.07,0,0,1-.6-2.9c-.1,1.9.2,3.1.6,3.6a2,2,0,0,0,.4-1.3C184.36,30.09,184.16,30.49,184.06,30.59Zm.7-1c-.3-.4-.6-.9-1-3.3a5.85,5.85,0,0,0,1,4,1.82,1.82,0,0,0,.3-1.4C185.16,28.89,185,29.49,184.76,29.59Zm.8-1a7.48,7.48,0,0,1-1.2-3.2,6.2,6.2,0,0,0,1.2,3.9,2.38,2.38,0,0,0,.1-2.1A2.36,2.36,0,0,1,185.56,28.59Zm.9-1.3a6.29,6.29,0,0,1-1.3-2.8,6.37,6.37,0,0,0,1.5,3.7,3.13,3.13,0,0,0-.1-2.5A14.78,14.78,0,0,0,186.46,27.29Zm-3.2,4.2a4.07,4.07,0,0,1-.5-2.1,3.78,3.78,0,0,0,.4,2.7,1.08,1.08,0,0,0,.4-.8C183.56,31.39,183.26,31.49,183.26,31.49Zm-.7.7a4.76,4.76,0,0,1-.4-1.9,3.35,3.35,0,0,0,.3,2.4,1,1,0,0,0,.4-.7A1.44,1.44,0,0,1,182.56,32.19Zm4.8,1.2a1.08,1.08,0,0,1-.5-.4,1.33,1.33,0,0,0,.8,1.1c.3-.8.4-1.5-.8-3.9C187.66,32.59,187.36,33.39,187.36,33.39Zm.8-2.1a1.55,1.55,0,0,1-.6-.3,2.11,2.11,0,0,0,.9,1.1,3.81,3.81,0,0,0-.7-3.4A5.32,5.32,0,0,1,188.16,31.29Zm5.9,10.1a6.49,6.49,0,0,0-.6-2.5c-.1.1-.1.5-.1.5a3.28,3.28,0,0,1-.6-1.4c-.1.7-.4,1.1-.4,1.5.2,0,.3-.1.5-.2C193,40.19,193.76,40.39,194.06,41.39Zm7.8-1.9s0-.4-.1-.5a4.94,4.94,0,0,0-.5,2.5c.3-1,1-1.2,1.2-2.1.2.1.3.2.5.2a3.94,3.94,0,0,1-.4-1.5C202.36,38.39,202.26,39.09,201.86,39.49Zm-5.8-1.1a5,5,0,0,0-.8-2.1A2.4,2.4,0,0,0,196.06,38.39Zm3,1.2a4.17,4.17,0,0,0,.6-2.6A4,4,0,0,0,199.06,39.59Zm-1,.6a2.74,2.74,0,0,0,0-1.8A2.24,2.24,0,0,0,198.06,40.19Zm-.7-1.9a2.67,2.67,0,0,0-.1-2A2.74,2.74,0,0,0,197.36,38.29Zm5.2-6.6a9,9,0,0,0-.7,2.4C202,34,202.76,32,202.56,31.69Zm0-2.2s.7-1.3.3-2C202.36,27.59,202.56,29.49,202.56,29.49Zm-2.1,3.2a3.51,3.51,0,0,0,1.1-2.5,2.42,2.42,0,0,1-1.1,1.3,2,2,0,0,1-.6-.9A2.37,2.37,0,0,0,200.46,32.69Zm2.2-1.6c.3-.5.7-1.2.4-1.7C203,29.89,202.86,30.39,202.66,31.09Zm-3.6,5.4a4.53,4.53,0,0,0,.6-2.3A4.38,4.38,0,0,0,199.06,36.49Zm1.7-1.5a3,3,0,0,0,.8-2.8A5.23,5.23,0,0,0,200.76,35Zm-1.5-2.9a3.36,3.36,0,0,1-1,1.6,3.21,3.21,0,0,1-.7-1,2,2,0,0,0,.9,2A3.25,3.25,0,0,0,199.26,32.09Zm-3,2.8a3.69,3.69,0,0,1-1-1.1,4.58,4.58,0,0,0,1.4,2.1,4,4,0,0,0,.2-2.8A5.1,5.1,0,0,1,196.26,34.89Zm-4.1-7.6c-.1-.6.6-1.1.4-2A1.8,1.8,0,0,0,192.16,27.29Zm1.4,6.6a5.32,5.32,0,0,0,1,1.3c-.5-.7-.9-2.1-1.3-2.5A2.1,2.1,0,0,0,193.56,33.89Zm-.3-3.1c-.3,1.1.9,2.2.9,2.2A3.6,3.6,0,0,0,193.26,30.79Zm.8-2.1a8.08,8.08,0,0,1-.1,1.5,1.79,1.79,0,0,1-.7-.5,8.55,8.55,0,0,0,1.1,1.6A4.38,4.38,0,0,0,194.06,28.69Zm-.5-2.9a17.58,17.58,0,0,1,1.2-2.4A2.25,2.25,0,0,0,193.56,25.79Zm-1,5a7.05,7.05,0,0,0-.6-2.5A5.6,5.6,0,0,0,192.56,30.79Zm2.9-3.8c-.8,1,.4,2.1.4,2.2S196,27.39,195.46,27Zm.5-2.6a1.45,1.45,0,0,0-.4,2.1A4.64,4.64,0,0,0,196,24.39Zm.7,7.7a3.88,3.88,0,0,0,.5-2.6,2.33,2.33,0,0,1-.7,1.5,1.81,1.81,0,0,1-.7-.8A2.15,2.15,0,0,0,196.66,32.09Zm5.8-7.6c-.1.6.7,2.1.7,2.2A2.12,2.12,0,0,0,202.46,24.49Zm-1.6-2.5c-.1.5.8,1.4.8,1.4S201.76,22.29,200.86,22Zm1.3,4.2a3.83,3.83,0,0,1-.8,1.7,5,5,0,0,1-.8-.8,3.33,3.33,0,0,0,.8,1.9A2.88,2.88,0,0,0,202.16,26.19Zm-2.4-2.3c-.5.5,0,1.5.2,2.4C200.26,25.89,200.56,24.39,199.76,23.89Zm.4-1.4a1.17,1.17,0,0,0-1.1-1.3C199,21.69,199.86,22,200.16,22.49Zm-1.1-1.8c.2.2.9.4,1.3.8A.93.93,0,0,0,199.06,20.69Zm-1,2.8a1.17,1.17,0,0,0-.3,1.4C197.86,24.89,198.66,24,198.06,23.49Zm1.1,7.2a3.73,3.73,0,0,0,1-2.5,8,8,0,0,1-1,1.3,3.81,3.81,0,0,1-.9-.8A2.76,2.76,0,0,0,199.16,30.69Zm-1.3-4.6a2.26,2.26,0,0,0,0,2.4C197.86,28.39,198.36,26.79,197.86,26.09Zm.2-8.3c.2.2.9.5,1.3.9A1.08,1.08,0,0,0,198.06,17.79Zm.4.7a2.19,2.19,0,0,0-1.2-.7A1.39,1.39,0,0,0,198.46,18.49Zm1.4,1.1a1.18,1.18,0,0,0-1-.7,6.13,6.13,0,0,1,.4.6c-.1.1-.5.1-.6.1C198.86,19.79,199.26,19.89,199.86,19.59Zm-6.1-1.6c-.1,0-.1.2.1.2a.2.2,0,0,0,.2-.2S193.86,17.89,193.76,18Zm5.9-11.6a2.09,2.09,0,0,0-.6-.4c-.2.1-.4.3-.6.4.2.1.3.3.6.4A3.11,3.11,0,0,1,199.66,6.39Zm-3.6,11.1s.1.1,0,.4a.47.47,0,0,1-.5.5.62.62,0,0,1-.8-.5.37.37,0,0,1,.1-.3c-.1,0-.1.1-.2.3s-.2.1-.4.2a.87.87,0,0,1,.5-.7,4.17,4.17,0,0,1,2.8.3c-.4-.1-.7,0-1-.1A1.75,1.75,0,0,0,196.06,17.49Zm-.2,0h-.4c0,.1.2.2.3.2a.1.1,0,0,0,.1-.1Zm4.7-8.3a39.87,39.87,0,0,0-10.9.9,4.38,4.38,0,0,0-.5-.9c-.7-.8-1,.1-1,.2.9.1,1.1.5,1.1.5-.2.4-.4.5-.9.9a2.8,2.8,0,0,1-1.5.5c-1.7.1-1.2-1.7-.2-2.4-.1.2-.7,1.1-.4,1.5s2,.1,2.4-.4a1.23,1.23,0,0,0-1.1-.2,2.55,2.55,0,0,1,1-1.7,2.51,2.51,0,0,1,1.4,1.2c2.5-.7,7-.8,7.2-.9a20.62,20.62,0,0,1-.2-2.1.62.62,0,0,1,.3-.5,1.24,1.24,0,0,0,.8.6,1.76,1.76,0,0,1-.5.4c0,.3.1.9.1,1.1a13.78,13.78,0,0,1,1.6-.6,1.7,1.7,0,0,1,.7-.1,2.12,2.12,0,0,1,.7.3.85.85,0,0,1,.3.5C200.76,8.49,200.66,8.89,200.56,9.19Zm-.6-1.1c-.3-.6-1.6-.1-2.5.3H200A.19.19,0,0,0,200,8.09Zm-11.6,3c-.2-.1-.3-.1-.5-.2-.1.2-.3.4-.3.6a6.37,6.37,0,0,0,.7.2,1.38,1.38,0,0,1,.3-.4c.2.1.3.1.5.2a6.13,6.13,0,0,1,.4-.6c-.3-.1-.4-.1-.7-.2Zm20.6-2c.6,0,1.1.1,1.3-.2-.3-.1-.7-.2-.8-.4.1-.1.4,0,.5.1l.2-.2a.65.65,0,0,0-1,.2c.1.1.3.1.3.2A2.19,2.19,0,0,0,209,9.09Zm-.3,1a10.09,10.09,0,0,1-.7,1.5c.2.1.4-.1.5-.2a4.25,4.25,0,0,0,1.4-2.3,3.93,3.93,0,0,0-.6.2C208.86,9.49,208.86,9.59,208.66,10.09Zm-5.2.2.5.5c.3-.1.4-.2.7-.3l-.5-.5A4.88,4.88,0,0,0,203.46,10.29Zm4.6-.5a1.7,1.7,0,0,1-.6.8,19.78,19.78,0,0,0-4.2-1,3,3,0,0,1-1.3.9,6.87,6.87,0,0,1-1.7-.5h.6a3.45,3.45,0,0,0,1.8-.5c-1-.2-1.2-.4-.8-1.1.2-.3.6-.8,1.1-.7s.5.7.5,1.2a16.2,16.2,0,0,1,3.8.9c.1-.3-.1-.5-.3-.7a2.65,2.65,0,0,1,.6-.5A1,1,0,0,1,208.06,9.79Zm-5.5-1.5a.75.75,0,0,0-.3.3.76.76,0,0,0,.5.2h.1C203.06,8.59,202.76,8.19,202.56,8.29ZM190,10.69a4.88,4.88,0,0,0,.7.3l.5-.5c-.3-.1-.4-.2-.7-.3A1.21,1.21,0,0,0,190,10.69Zm28.8,43.9a16.24,16.24,0,0,1-6.1,6.6c-3.8,2.4-7.8,1.8-9.1,1.1l.1.3c0,.1.1.2.1.3.5,1.4.2,2.8-1.7,3a6.78,6.78,0,0,0-1.7.4,4.79,4.79,0,0,0-1.5,1.1c-.2.2-.7.9-1,1.3h0a3.45,3.45,0,0,0-1-1.3,5.54,5.54,0,0,0-1.5-1.1,5.93,5.93,0,0,0-1.7-.4c-1.9-.2-2.2-1.6-1.7-3,0-.1.1-.2.1-.3l.1-.3c-.9.6-3.3,1-6,.2-.1,0-.2-.1-.3-.1a13.77,13.77,0,0,1-5.8-3.2,17.4,17.4,0,0,1-3.5-4.7c-3.6-7.5-3.1-18.7-3.1-19.9-.1-12.9,2.7-20.1,5.2-23.6-.7-1-1.2-1.6-1.2-1.6a3.28,3.28,0,0,0-1.5-.8,20.74,20.74,0,0,0-.9-3.7,22.31,22.31,0,0,0,3.3,1.9,2.58,2.58,0,0,0,.3,1.7s.4.5,1,1.3a12.85,12.85,0,0,1,4.1-3.4c.4-.2.9-.5,1.4-.7a2.41,2.41,0,0,1,.7-1.8,1.19,1.19,0,0,1,.8-1h0a1.57,1.57,0,0,1,1.3.4,3.25,3.25,0,0,1,1.8,1,34.93,34.93,0,0,1,5.1-.7,3,3,0,0,1,1.6-2,2.07,2.07,0,0,1,1.3-.9h0a1.54,1.54,0,0,1,1.3.9,3,3,0,0,1,1.6,2,34.93,34.93,0,0,1,5.1.7,3.25,3.25,0,0,1,1.8-1,1.69,1.69,0,0,1,1.4-.4h0a1.37,1.37,0,0,1,.8,1,2.41,2.41,0,0,1,.7,1.8c.5.2,1,.5,1.4.7a14.29,14.29,0,0,1,4.1,3.4,5.34,5.34,0,0,1,1.1-1.4,2.43,2.43,0,0,0,.3-1.7,22.31,22.31,0,0,0,3.3-1.9s-.6,2-.9,3.7a1.91,1.91,0,0,0-1.5.8s-.5.7-1.4,1.8c2.4,3.5,5.3,10.7,5.1,23.5C221.86,35.69,222.36,47,218.76,54.59Zm-1.2-40.5a14.55,14.55,0,0,1-3.1.3,6.17,6.17,0,0,0-.7,3.1,3.16,3.16,0,0,1-1.3-.7c-.4.6-.7.9-1.1,1.5a34,34,0,0,1,4.1,15.8,43.72,43.72,0,0,0,5.5-3.8C220.66,23.49,219.56,18.49,217.56,14.09Zm-6.4,20.1a4.89,4.89,0,0,0,.1,2.1,5,5,0,0,0,.9-1.8,5.79,5.79,0,0,0,.3,1.7,12.67,12.67,0,0,0,.8-3.5s0,.1.3.2a11.31,11.31,0,0,0-.1-4.1,13.91,13.91,0,0,0-3.1-6.3c-1.1-1.3-2-.7-2.9.3-1.5,1.6-1.8,2.3-3.5,2.6h0c-.2,0,0,.1.3.1,2.1,0,2.8-1.4,3.4-2.1.4-.5,1-.9,1.4-.6.2.1.7.8.2,2.4a1.29,1.29,0,0,0-.2-.8,8.44,8.44,0,0,1-1.1,2.7,1.27,1.27,0,0,1-.1-.6c-.2,1.3-1.4,2.7-1.6,4.7a1.29,1.29,0,0,1-.2-.8c-.9,1.7-1.8,4.7-1.3,6.2a9.92,9.92,0,0,1,1.4-4.4c-.6,2-1.3,4.4-.7,5.9a10.91,10.91,0,0,1,1.3-4.2c-.9,3.2-1.2,4.9-.3,6.1a8.81,8.81,0,0,1,1-4.5c-.4,2.5-1.1,4.7.1,5.8a11.17,11.17,0,0,1,.8-4.6c-.4,2.4-.7,4.8.1,6a21.3,21.3,0,0,1,.3-2.5c.2-1.1.5-2.1.5-2.1s-.2,1.7-.4,3.8v1a5.7,5.7,0,0,0,.1,1.3,3,3,0,0,0,.4,1,28.52,28.52,0,0,1,.9-6.2s-.3,2.6-.5,6.5v.4c-.3,5.7.5,7.5.7,8,0,0-.1-.1-.1-.8v-1.3a7.35,7.35,0,0,1-.4-2.6,21.05,21.05,0,0,1,.2-2.5c.1-.7.1-1.5.2-2.2s.1-1.2.2-1.9a25.58,25.58,0,0,1,.5-2.7c.1-.7.1-.1,0,.1-.1.8-.2,2.6-.4,4.4a50.24,50.24,0,0,0-.3,5.4,10.08,10.08,0,0,0,.4,1.8,8.5,8.5,0,0,0,.5,3.9s.2-.8.4-1.8a.22.22,0,0,1-.2.2,6.8,6.8,0,0,1-.2-3.3A4.48,4.48,0,0,1,211,49a42.85,42.85,0,0,1,.5-4.9c.1-.5.1-1.1.2-1.6,0-.3.1-.6.1-1l.3-1.5v-.2a5.1,5.1,0,0,1-.1.9c-.2,2.2-.7,7.7-.7,8.2a4.48,4.48,0,0,0,.3,1.6,10.39,10.39,0,0,0,.1,2.6,8.14,8.14,0,0,0,.2-.9s.3-2.3.7-5.5c.1-.5.1-1,.2-1.5s.1-.9.1-1.4.1-1.1.2-1.7a1.7,1.7,0,0,1,.1-.7c.1-1.5.3-3.2.4-4.7,0,0,.2-2.4.2-3.2l-.1-.1s-.3,3-1.1,4.1a4.25,4.25,0,0,1-.5-1.7,5.49,5.49,0,0,1-.9,1.4,3.14,3.14,0,0,1-.2-1.6,2,2,0,0,1-.8.8,2.94,2.94,0,0,1-.3-1.7,2.17,2.17,0,0,1-.7.6c-.1-.2-.6-1.1.3-4.2-.4,2.9-.2,3.3-.1,3.5a1.38,1.38,0,0,0,.4-.3,10.4,10.4,0,0,1,.3-2.1c-.1,2.3,0,3,.2,3.5C210.36,35.69,210.76,35.19,211.16,34.19Zm-7.1,1a25.08,25.08,0,0,1,1.2-6.4C203.56,30.59,203.86,34.59,204.06,35.19Zm.3-6.5c.5-1.5.1-2.3-.2-2.4A13.64,13.64,0,0,0,204.36,28.69Zm1.3,1.2a11.09,11.09,0,0,0,.6-3.4A5.87,5.87,0,0,0,205.66,29.89Zm1.3-3a9.7,9.7,0,0,0,.1-1.7,6.16,6.16,0,0,0-.4,2.6A4.65,4.65,0,0,0,207,26.89Zm-3.6,11.4h0a.19.19,0,0,1,.3,0c.1,0,.1.1.2.1-.1-.3-.1-.7-.2-1.1a3.64,3.64,0,0,0-.2-1.4v-.1a2.09,2.09,0,0,1-.4.6,1.91,1.91,0,0,0-.5,1v.1l-.1-.1a4,4,0,0,0-.3-.4,9.1,9.1,0,0,1-1.6,2.4h0a4.72,4.72,0,0,0-.6,2.3,7.55,7.55,0,0,0,0,2.4l.4-.4v.9a1.38,1.38,0,0,1-.2.7,1.69,1.69,0,0,0,1.4-.6l.1.3c.1.3.2.6-.1.8,0,0-.4.4-.4.7,0,.1.1.2.2.3h0a.37.37,0,0,0,.2.3v-.3q.15-.3.3-.3h.2s.1.9.2,1.3a4.3,4.3,0,0,1,.2,1.2v.3c0,.3.2.3.4.4h.4c-.2.1-.2.2-.2.2a1.15,1.15,0,0,1,0,.6h0a.58.58,0,0,0,.3-.8h0c.3-.2.2-.7-.2-1.5-.2-.4-.3-1-.1-1.1h0c.1,0,.1,0,.3.3s.3.3.4.5a.91.91,0,0,1,.3.5v.1h-.4c.1.1.4.5.5.4.2-.3,0,.2.5.2a.47.47,0,0,0,.5-.5v-.3a5.94,5.94,0,0,0-.4-.8l-.1-.1c-.7-.8-.7-1-.6-1.1s.1-.2.3-.2h.6c.3.1.8.1.8.3a.1.1,0,0,1-.1.1,1,1,0,0,0-.3.1,1.24,1.24,0,0,0,.3.2.76.76,0,0,0,.8,0l.1-.1a.4.4,0,0,0,.4-.2.66.66,0,0,0-.4-.5,6.6,6.6,0,0,0-1.1-.4,4.33,4.33,0,0,1-.5-.1l-.9-.2a3.1,3.1,0,0,0-.7-.2.35.35,0,0,1-.2-.1c-.1-.1-.3-.2-.4-.3a3,3,0,0,1-.3-.9,2.39,2.39,0,0,0,.7.3,2.13,2.13,0,0,1,0-.8c.1-1.4.2-2.3.2-2.3l.3.3a9.89,9.89,0,0,0-.1-1.5h0A12.54,12.54,0,0,0,203.36,38.29Zm1,6.9.7.2c.1,0,.2.1.3.1a3.55,3.55,0,0,0,.2-1c0-.4.8.4,1.4,1,.2.2.3.1.1-.1a8.52,8.52,0,0,0-2-1.7c-.5-.3-.8-.3-.6,0A1.62,1.62,0,0,1,204.36,45.19Zm1,5.6c.6.8,1.7,2.3,2.1,2.7.8.9,1.2,1,1.9,1a11.14,11.14,0,0,0-1.4-2.8,24.78,24.78,0,0,0-2.3-3.2.9.9,0,0,1-.1.5v.1c-.1.1-.1.2-.2.3a.75.75,0,0,1-.5.1.52.52,0,0,1-.4-.2.37.37,0,0,1-.3-.1.84.84,0,0,1-.2.7,1.21,1.21,0,0,1-.3.9v.1c.2.4.1.6,0,.7s-1.1,1.2-1.3,1.5a.56.56,0,0,1-.6,0l-.2-.1-.5.5.1.1h0a3.46,3.46,0,0,0,1.2.7c.4.2,1.5.6,2.2.9-.2-.5-.4-1.2-.6-1.8.2.3.7,1.2,1.2,2h0l2,1a.44.44,0,0,0-.1-.3s-.5-.6-.9-1.1a13.45,13.45,0,0,1-1.5-2.9c.8,1.3,1.1,1.6,1.4,2.1a5.3,5.3,0,0,0,2.6,2.1,2.39,2.39,0,0,0-.4-1,7.13,7.13,0,0,1-1.1-1.2c.1.2.3.4,0,0s-.1-.2,0,0A19.57,19.57,0,0,1,205.36,50.79Zm-2.9,7.1a17.92,17.92,0,0,0,5.7-.3,24.78,24.78,0,0,0-4.9-2.6,9.82,9.82,0,0,1-1.8-.8c-.3-.2-.5-.4-.8-.6-.9-.8-3.2-3.3-3.7-3.7l-1.6,1.4a56.55,56.55,0,0,0,5.2,4.6,32.81,32.81,0,0,0,5.1,1.6,19.44,19.44,0,0,1-5.1-1.1c-1.3-.5-5.6-4.7-5.6-4.7l-1,.9a30.66,30.66,0,0,0,3.5,3.3A10.76,10.76,0,0,0,202.46,57.89Zm-4.4-.9a2.44,2.44,0,0,0,.8,1.7,3.9,3.9,0,0,0,.4-1.1A6.39,6.39,0,0,1,198.06,57Zm-7.1-5.1a8.05,8.05,0,0,1-1.5,2.9c-.4.5-.9,1.1-.9,1.1a.77.77,0,0,1-.1.3l-.1.1.6-.3c.1-.1.2-.1.3-.2.4-.2.9-.4,1.3-.6.4-.8,1-1.7,1.1-2-.1.2-.2.7-.6,1.8l.3-.1c.7-.3,1.3-.5,1.6-.6a5.76,5.76,0,0,0,.9-.5l.2-.2-.5-.5-.2.1a.42.42,0,0,1-.6,0,8.7,8.7,0,0,1-1.3-1.5c-.1-.1-.2-.3,0-.7h0a1.39,1.39,0,0,1-.4-.9,1.45,1.45,0,0,1-.2-.7.37.37,0,0,1-.3.1.76.76,0,0,1-.4.2h-.1a.9.9,0,0,1-.5-.1l-.3-.3h0a14.86,14.86,0,0,0-1.9,2.7,11.21,11.21,0,0,0-1.4,2.7c.6,0,1-.1,1.9-1,.4-.4,1.4-1.9,2.1-2.7a11.54,11.54,0,0,1-1.6,3,8.46,8.46,0,0,1-1.2,1.3,2.39,2.39,0,0,0-.4,1,4.42,4.42,0,0,0,2.6-2.1A14.31,14.31,0,0,0,191,51.89Zm-.6-4.3a1.74,1.74,0,0,0-.6,1.2.47.47,0,0,0,.5.5c.4,0,.2-.5.5-.2.1.1.4-.3.5-.4-.2,0-.5.1-.4-.2a.85.85,0,0,1,.3-.5c.1-.1.5-.8.7-.7s0,.7-.1,1.1c-.4.8-.5,1.4-.2,1.5h0a.83.83,0,0,0,.3.8h0a1.15,1.15,0,0,1,0-.6s0-.1-.2-.2h.4c.2,0,.3-.1.4-.4v-.3c.1-.5.1-.9.2-1.2s.2-1.3.2-1.3h.2a.32.32,0,0,1,.3.3v.3c.1,0,.2-.1.2-.3h0c.1-.1.2-.2.2-.3.1-.3-.3-.7-.4-.7a.75.75,0,0,1-.1-.8l.1-.3.4.4a1.51,1.51,0,0,0,1.1.3s-.1-.3-.2-.7a2.26,2.26,0,0,1,0-.9l.4.4a8.22,8.22,0,0,0,.1-2.3,10.67,10.67,0,0,0-.6-2.7,4.54,4.54,0,0,0-.3-.8s0,.2-.3.5a7.84,7.84,0,0,1-1.1-1.8,1.38,1.38,0,0,1-.3.4l-.1.1v-.1a3.13,3.13,0,0,0-.5-1,2.09,2.09,0,0,1-.4-.6,7.84,7.84,0,0,0-.2,1.4,3.59,3.59,0,0,1-.2,1.1.35.35,0,0,0,.2-.1.31.31,0,0,1,.2-.1h0v.1a15.47,15.47,0,0,0-.3,1.7v1.4l.5-.3a5.46,5.46,0,0,0-.1,2.3v.8c.3,0,.5-.2.6-.2a4.65,4.65,0,0,1-.3.9,3.37,3.37,0,0,1-1.7.8,11.69,11.69,0,0,0-2,.6.66.66,0,0,0-.4.5.4.4,0,0,0,.4.2l.1.1a.76.76,0,0,0,.8,0c.1-.1.2-.2.3-.2a.49.49,0,0,1-.3-.1l-.1-.1c0-.3,1.2-.3,1.4-.3s.3,0,.3.2C191.06,46.59,191.16,46.79,190.36,47.59Zm.4-3.9c.2-.3-.1-.4-.6,0a6.91,6.91,0,0,0-2,1.7c-.1.2-.1.3.1.1.6-.6,1.4-1.4,1.4-1a1.8,1.8,0,0,0,.2,1,.37.37,0,0,0,.3-.1l.7-.2A1.62,1.62,0,0,1,190.76,43.69Zm-1.3-11.4a9.92,9.92,0,0,1,1.4,4.4c.6-1.5-.4-4.5-1.3-6.2a1.29,1.29,0,0,1-.2.8c-.2-1.9-1.4-3.3-1.6-4.7,0,.2-.1.4-.1.6a13.75,13.75,0,0,1-1.1-2.7,1.29,1.29,0,0,0-.2.8c-.6-1.7,0-2.3.2-2.4.5-.3,1,.2,1.4.6.6.7,1.3,2.1,3.4,2.1.3,0,.5-.1.3-.1h0c-1.8-.3-2.1-1-3.5-2.6-.9-1-1.8-1.6-2.9-.3a12.93,12.93,0,0,0-3.1,6.3,11.25,11.25,0,0,0-.1,4.1,1.24,1.24,0,0,0,.3-.2,12.67,12.67,0,0,0,.8,3.5,5.79,5.79,0,0,0,.3-1.7,6,6,0,0,0,.9,1.8,5,5,0,0,0,.1-2.1,3.28,3.28,0,0,0,1,1.6c.2-.4.4-1.2.2-3.5a9.54,9.54,0,0,1,.3,2.1c.1.1.3.2.4.3.1-.2.3-.6-.1-3.5,1,3.2.4,4,.3,4.2a4.35,4.35,0,0,1-.7-.6,5.17,5.17,0,0,1-.3,1.7,2,2,0,0,1-.8-.8,5.53,5.53,0,0,1-.2,1.6,5.49,5.49,0,0,1-.9-1.4c0,.4-.2,1.5-.5,1.7-.8-1.1-1.1-4.1-1.1-4.1a.1.1,0,0,0-.1.1c0,.7.1,1.9.2,3.2h0c.1,1.5.3,3.2.4,4.7q.45,5.4,1.2,10.8a8.14,8.14,0,0,0,.2.9,19.34,19.34,0,0,0,.1-2.6,4.48,4.48,0,0,0,.3-1.6c0-.4-.5-6-.7-8.2a7.75,7.75,0,0,0-.1-.9v.2a21.66,21.66,0,0,1,.4,2.5c.1.5.1,1,.2,1.6.2,1.6.4,3.2.5,4.9a6.19,6.19,0,0,1-.3,1.6,8.47,8.47,0,0,1-.2,3.3.22.22,0,0,1-.2-.2c.2,1,.4,1.8.4,1.8.4-.8.6-1.7.5-3.9a10.08,10.08,0,0,0,.4-1.8c0-.3,0-1.4-.1-2.7-.2-2.4-.4-4.7-.6-7.1v-.4c0,.1.1.2.1.3a57.61,57.61,0,0,1,1.1,9.3,11.24,11.24,0,0,1-.4,2.6,2.85,2.85,0,0,1,0,1.3c0,.7-.1.8-.1.8.2-.5,1-2.4.7-8v-.4c-.2-3.9-.5-6.5-.5-6.5a29.61,29.61,0,0,1,.9,6.2l.1-.1a7.08,7.08,0,0,0,.4-3.2,33.6,33.6,0,0,0-.4-3.8s0,.2.1.2a8.62,8.62,0,0,1,.5,1.9c.1.7.2,1.5.3,2.2v.3h0c.8-1.2.4-3.5.1-6a11.51,11.51,0,0,1,.8,4.6c1.2-1.1.5-3.3.1-5.8a8.81,8.81,0,0,1,1,4.5c1-1.2.6-2.9-.3-6.1a12.94,12.94,0,0,1,1.3,4.2C190.86,36.69,190.16,34.29,189.46,32.29Zm10.7,7.2a3.79,3.79,0,0,0,.7-2.1.62.62,0,0,1,.3.5,9.87,9.87,0,0,0,1-3.3c.2.1,0,0,.3.2a10.85,10.85,0,0,0,.7-3.2.37.37,0,0,1,.3.1c.1-.8.2-2,.3-2.9a12.31,12.31,0,0,0-.3-3.2,10.72,10.72,0,0,0-1-2.2,1.44,1.44,0,0,0-.3.2,9.62,9.62,0,0,0-.7-1.8c-.5-.9-.7-1.6-1.2-1.9.2,0,.3.1.6.1l-.8-.8c.1-.1.3-.1.7,0a4.53,4.53,0,0,0-1.9-1.6h.7a3.09,3.09,0,0,0-1.2-.9c-1.3-.3-3.1-.3-4,.7-.1.1-.3.1-.5.2a.31.31,0,0,1-.2.1c-.1.1-.2.3.1.7a.69.69,0,0,1-.5-.4c-.1.1-.3.2-.4.4a2.54,2.54,0,0,0-.2.7s.3.2.4-.2c0-.1.6-.2.8-.2s.6.1.9.1a6.37,6.37,0,0,1-.7.2c-.2,0-.2.2,0,.2s.2-.1.4-.1,0,.2.1.3c1.1-.2,1.1.9,2.3.7a15.41,15.41,0,0,0-1.4-1.3c1.1.2,1.7,1.2,2.9,1.2,0-.1,0-.1-.1-.3.4,0,.7.3.8.3a1.88,1.88,0,0,1-1,.4c.1.2.5.2.7.2-.2.2-.5.3-1.1.2a4.81,4.81,0,0,1-1.2,1v-.4c-.5.3-.9.8-1.2,1,.1-.2.2-.5.3-.7a17.87,17.87,0,0,0-3.1,3.3,6.69,6.69,0,0,0-.6,3.7c.1.9.4,3.5.5,4,.1,0,.2-.1.3-.1a21.15,21.15,0,0,0,1.8,5.4c.1-.2.1-.3.3-.4a2,2,0,0,0,.8,1.4,1.45,1.45,0,0,1,.2-.7c.1.4,0,1.5.7,2.1a4.4,4.4,0,0,1,.2-1,5.27,5.27,0,0,0,.3,1.2,2.85,2.85,0,0,0,.7,1,10.53,10.53,0,0,1,.1-1.2,5.11,5.11,0,0,1,.5,1.5c.7-.5.9-2.2.9-2.2a1.36,1.36,0,0,1,.3.6,4.45,4.45,0,0,0,.9-2A3.23,3.23,0,0,0,200.16,39.49Zm.6,8.7a3.81,3.81,0,0,0,1.3-.1.37.37,0,0,0-.1-.3v-.2h0a3.25,3.25,0,0,1-1.5.1,4.17,4.17,0,0,1-.6-.2c-.2-.1-.6.3-.9.6a4.37,4.37,0,0,0-.7.8V49c.3.2,3.5,3.2,3.7,3.4.1,0,.1.1.2,0l.6-.6-3.3-3.1s-.1-.1,0-.1l.2-.2h.1a10,10,0,0,0,1.1,1l1.4,1.2.9.8.1-.1c.1-.1.1-.2-.3-.7l-2.3-2.2C200.36,48.29,200.56,48.19,200.76,48.19Zm-5,.7c-.1,0-3.3,3.1-3.3,3.1l.6.6c.1.1.1.1.2,0s3.5-3.2,3.7-3.4v-.1c-.1-.2-.5-.5-.7-.8s-.7-.7-.9-.6l-.6.2a3.25,3.25,0,0,1-1.5-.1h-.1v.4a4.18,4.18,0,0,0,1.4.1c.3,0,.4.1.2.3l-2.2,2.2c-.4.4-.5.5-.3.7l.1.1.9-.8,1.4-1.2,1.1-1c0-.1.1,0,.1,0l.2.2C195.86,48.79,195.86,48.79,195.76,48.89Zm.3-7.6a1,1,0,0,0-.1-.4l-.4-.4a.31.31,0,0,1-.1-.2c0,.1,0,.4.1.5a.54.54,0,0,0,.3.4A.31.31,0,0,0,196.06,41.29Zm0,6.2.3.3a8.64,8.64,0,0,0,.1-1.5A3.77,3.77,0,0,0,196.06,47.49Zm-1.3-.1c.1,0,.4-.2.6-.2h.1a4.87,4.87,0,0,1,.4-1.1C195.76,46,195,47.19,194.76,47.39Zm2.4,1.2a3.42,3.42,0,0,0-.1-1.1,6.89,6.89,0,0,0-.3.8C196.86,48.19,197.16,48.49,197.16,48.59Zm.2-2.9s-.1-.6-.5-.7C196.86,45.29,197.36,45.69,197.36,45.69Zm.3-1h0a.75.75,0,0,1,.3-.3,5.38,5.38,0,0,0,1.2-.9,1,1,0,0,0,.2-.6,2,2,0,0,1-.5.5,12.49,12.49,0,0,0-1.2.8.37.37,0,0,0-.1.3c0-.1,0-.1-.1-.2-.2-.5-.9-.6-1.3-1.1-.3-.3-.3-.4-.3-.4a1.45,1.45,0,0,0,.2.7,2.48,2.48,0,0,0,.9.7C197.56,44.49,197.66,44.69,197.66,44.69Zm-.4-1.6c0-.7-.8-.8-1-1.5C196.16,42.59,196.86,42.59,197.26,43.09Zm.4,2.9s.1,0,.3-.2a2.18,2.18,0,0,0,.5-.4,1.09,1.09,0,0,0,.1-.5s0,.2-.3.4l-.4.4A.36.36,0,0,0,197.66,46Zm.7.4a10.87,10.87,0,0,1,.1,1.8h0l.4-.4A3.39,3.39,0,0,0,198.36,46.39Zm-.7,2.6.4-.4h0a3.94,3.94,0,0,0-.4-1.5Zm0,.3v.5l.3-.3A1.44,1.44,0,0,1,197.66,49.29Zm.2.9,1.5,1.5.4-.4-1.6-1.4A.75.75,0,0,0,197.86,50.19Zm1.8,1.9,1,1c.2-.2.3-.4.4-.5l-1-.9Zm.3-4.9a9,9,0,0,0-1-1.1,3.59,3.59,0,0,1,.4,1.1h.6Zm-.3-5.8a4.35,4.35,0,0,1-.6.7,1.34,1.34,0,0,0,.1-.5,4.17,4.17,0,0,1-.6.8,2.2,2.2,0,0,0-.6.9s.1-.2.7-.5A2.31,2.31,0,0,0,199.66,41.39Zm-7.3-6.3a2.4,2.4,0,0,0,.9,1.7A4.47,4.47,0,0,0,192.36,35.09Zm11.7-10.4a1.27,1.27,0,0,0,.6-.1c.2-.1.2-.2.3-.2,1.3-1.9,3.8-5.1,5.7-7.5-3.8-3.8-9.3-4-10.7-3.9-.3,0-.7.3-.3.8a2.75,2.75,0,0,1-1.9-.4,2.75,2.75,0,0,1-1.9.4c.4-.6,0-.8-.3-.8-1.4-.1-7.2.5-10.7,3.8,1.9,2.5,5.9,7.8,6,7.9a.76.76,0,0,0,.5.2h.1c.2,0,.4-.2.6-.4a11,11,0,0,1,1-1.1,12.2,12.2,0,0,1,1.7-1.5,1.2,1.2,0,0,0,.4-.8c0-.3-.2-.4-.4-.6a.1.1,0,0,1-.1.1,3.21,3.21,0,0,1-.3-.5l-.1.2s-.3-.7-.8-.6a1.78,1.78,0,0,1-1.1-.2,1.21,1.21,0,0,0-.1.5h0a1.31,1.31,0,0,1,.3-2,3.74,3.74,0,0,1,1-.6q.3-.15.3-.3a3,3,0,0,1,1.1-.6,11,11,0,0,1,2.2-.2,3.19,3.19,0,0,1,1.4.3,4.17,4.17,0,0,1,1.5,1.3,20.14,20.14,0,0,1,1.1,2.1c.6,1.4.5,1.3.9,2.2a9.59,9.59,0,0,0,1.2,2.3A2.35,2.35,0,0,0,204.06,24.69Zm6.9-8.3c.1-.2.3-.3.4-.5a17,17,0,0,0-7.2-3.7,15.55,15.55,0,0,0-4.4-.4c-.8,0-1.3.3-1.3.8-.5-.1-.6-.7-.7-.8,0,.3-.3.8-.7.8,0-.5-.5-.8-1.3-.8a20.08,20.08,0,0,0-4.4.4,15.89,15.89,0,0,0-7.1,3.6c.1.2.3.3.4.5a15.55,15.55,0,0,1,5.9-3.3,22.63,22.63,0,0,1,5.2-.7c.9,0,1.1.6,1,.9a1.74,1.74,0,0,0,1.2-.6,1.71,1.71,0,0,0,1.2.6c-.1-.3,0-.8,1-.9a19.06,19.06,0,0,1,5.2.7A16.53,16.53,0,0,1,211,16.39Zm1-1.9a3.52,3.52,0,0,0,1,1.9c.1.1.2.1.3.2h0a5.47,5.47,0,0,1,.8-2.8h0a4.58,4.58,0,0,0,2.4,0c-1.2-.8-1-1.8-1.9-2.8l-.3-.3a1.74,1.74,0,0,0-.7-.3c-.2,0-.4.1-.4.2s-1.4,1.5-2.2,2.5C211.56,13,211.76,13.69,212,14.49Zm.9-4.6a13.82,13.82,0,0,0-3.9-2.5c-4.3-1.9-9.7-1.9-11.2-1.9h0c-1.5,0-7,0-11.2,1.9a15.46,15.46,0,0,0-3.9,2.5s1.9,2.2,2.4,2.8a.92.92,0,0,1,.2,1c3-2,6.3-3,12.4-3h.3c5.9.1,9.4,1.1,12.3,3a.75.75,0,0,1,.2-1C210.86,12.09,212.86,9.89,212.86,9.89Zm-30.4.7h0c-.1-.1-.4-.4-1.2.1-1.3,1.1-.9,2.2-2.3,3.1a5.74,5.74,0,0,0,1.2.1h.6c.2,0,.5-.1.6-.1h0a6.65,6.65,0,0,1,.8,2.8c1.6-.8.9-3.6,2.4-3.5C183.76,12.09,182.56,10.69,182.46,10.59Zm1,5.5c1.2,1.6,2,2.7,2.2,3,.4.6,1.8,2.2,1.8,2s-.9-1.3-1.4-2.1c-.8-1.1-1.6-2.2-2.4-3.2C183.56,15.89,183.46,16,183.46,16.09Zm5.8,10.5a11.62,11.62,0,0,0,.6,3.4A7.86,7.86,0,0,0,189.26,26.59Zm-.8-1.3a3.28,3.28,0,0,0,.1,1.7,4.18,4.18,0,0,0,.4,1A14.56,14.56,0,0,0,188.46,25.29Zm3,10c.2-.6.4-4.6-1.2-6.4A38.77,38.77,0,0,1,191.46,35.29Zm-4.4,22.3a17.59,17.59,0,0,0,5.7.3,10,10,0,0,0,4.5-1.6c-.3-.3-.7-.6-1.1-1a6.29,6.29,0,0,1-1.5,1,19.44,19.44,0,0,1-5.1,1.1,32.81,32.81,0,0,0,5.1-1.6,12,12,0,0,0,1.2-.9,15.83,15.83,0,0,1-1.3-1.3,4.35,4.35,0,0,1-.7.6,5.83,5.83,0,0,1-1.8.8A23.78,23.78,0,0,0,187.06,57.59Zm9.1,0c.1.4.3.8.4,1.1a3.23,3.23,0,0,0,.9-1.9c-.1.1-.4.3-.5.4A5.9,5.9,0,0,1,196.16,57.59ZM210,18.89c.2-.2,1-1.3,2.1-2.8-.1-.1-.2-.2-.2-.3-.7,1-1.5,2-2.2,3a14.69,14.69,0,0,0-1.4,2.1C208.16,21.19,209.56,19.49,210,18.89Zm6.3-7.1a2.74,2.74,0,0,1-.4.5,3.46,3.46,0,0,0,1.7,1.7A15.92,15.92,0,0,0,216.26,11.79Zm-.9-.6s.1.3.2.3c2.2-2.9,4.2-5.6,4.2-5.6a21.7,21.7,0,0,1-2.1,1.2,2.46,2.46,0,0,1-.5,1.7A24.61,24.61,0,0,1,215.36,11.19Zm-35.3-.8c.1.1.2.3.3.4a14.06,14.06,0,0,1,6.5-4.6,1.33,1.33,0,0,1,.3-1.8h0a1.44,1.44,0,0,1,1.5,1.2,30.64,30.64,0,0,1,7.3-1,2.35,2.35,0,0,1,1.4-2.3s0-.4.3-.5h0c.3.1.3.5.3.5a2.52,2.52,0,0,1,1.4,2.3,31.39,31.39,0,0,1,7.3,1,1.53,1.53,0,0,1,1.5-1.2h0a1.33,1.33,0,0,1,.3,1.8,15.1,15.1,0,0,1,6.6,4.7c.1-.2.2-.3.3-.5a15.62,15.62,0,0,0-6-4.4,1.86,1.86,0,0,0-.4-1.8.84.84,0,0,0-.4-.7h0a1.33,1.33,0,0,0-.8.3,2.07,2.07,0,0,0-1.7,1.2,31.24,31.24,0,0,0-6.1-.8,2.61,2.61,0,0,0-1.5-2.2.81.81,0,0,0-1.6,0,2.43,2.43,0,0,0-1.5,2.2,31.24,31.24,0,0,0-6.1.8,2.3,2.3,0,0,0-1.7-1.2,1.33,1.33,0,0,0-.8-.3h0a.84.84,0,0,0-.4.7A1.65,1.65,0,0,0,186,6,16.05,16.05,0,0,0,180.06,10.39Zm-.1,1c.1-.1.1-.2.2-.3a25,25,0,0,1-1.7-2.3,2.46,2.46,0,0,1-.5-1.7,21.7,21.7,0,0,1-2.1-1.2S177.76,8.59,180,11.39Zm-2.1,2.7a3.64,3.64,0,0,0,1.2-1.1c.2-.3.3-.5.5-.8l-.4-.5A13.57,13.57,0,0,0,177.86,14.09Zm-3.4,16.1A43.72,43.72,0,0,0,180,34a33.84,33.84,0,0,1,4.2-15.9,14.31,14.31,0,0,1-1.1-1.5,3.69,3.69,0,0,1-1.4.8,6.76,6.76,0,0,0-.7-3.1,14.55,14.55,0,0,1-3.1-.3C175.86,18.49,174.76,23.49,174.46,30.19Zm18.4,30.7h0c.1-.4.7-1.6.9-2.3,0-.1-.1-.2-.1-.3-.4.1-.7.1-1.1.2-.2,0-3.8.6-6.5-.6.3-.2.9-.7,1.7-1.2v-.2a2.83,2.83,0,0,1-1.7.4,6.13,6.13,0,0,1,.3-1.6,3.38,3.38,0,0,1-1.1,0,17.73,17.73,0,0,1,1.2-2.8,24.13,24.13,0,0,1,2.9-4,2,2,0,0,1,.5-.9l.2-.2-.3-.3c-.1.1-.2.2-.3.2a3.93,3.93,0,0,1-.6.2.85.85,0,0,1-.6-.2h0a1,1,0,0,1-.5-.4v-.1c-.2.1-.3.1-.5-.1s.1-1.2,1.2-2.2a6.16,6.16,0,0,1,2.2-1.4c.5-.2.8.2.6.5a1.65,1.65,0,0,0-.2,1.7c.3-.1.4-.2.5-.2a.54.54,0,0,0,.4-.3.1.1,0,0,1,.1-.1l-.5.1c.2-.6-.1-2,.1-2.9-.1,0-.2.2-.3.2a13.57,13.57,0,0,1-.1-2.8c0-.2-.2-.5-.6-.8a8.35,8.35,0,0,1-1.5,2.4,7.29,7.29,0,0,0-2.2,3.7h0a3,3,0,0,1-.4,1,1.88,1.88,0,0,0-.3,1.2h0a31.79,31.79,0,0,1-.4,6.1,6.13,6.13,0,0,1-.8,2.2L185,55a6,6,0,0,1-.9,2.1s-.5-1-1.4-8.5c-1-8.2-1.5-16.9-1.5-16.9h0a11.69,11.69,0,0,1,.7-4.6,16,16,0,0,1,3-4.9,1.85,1.85,0,0,1,1.7-.5,1.46,1.46,0,0,1-.3-.5c-.6-.8-1.2-1.6-1.8-2.3-4,7.1-3.9,15.6-3.9,15.6v.9l-.7-.4a43.44,43.44,0,0,1-5.6-3.7c0,.9-.1,3.8-.1,3.8v1.8c0,3.4.6,11.7,3.4,17.4a17.69,17.69,0,0,0,3.3,4.4,13.56,13.56,0,0,0,4.9,2.9c.1,0,.3.1.4.1A10.47,10.47,0,0,0,192.86,60.89Zm-.1,2.3a1.76,1.76,0,0,1,1.9-.3,29,29,0,0,1,.4-3.8,4.43,4.43,0,0,1-.6.5.35.35,0,0,0-.2-.1C193.66,61,192.76,63.19,192.76,63.19Zm8,.7c0-1-.4-3.9-.6-5.5l-.1-.1-.2-.2a4.18,4.18,0,0,1-.4,1,6.13,6.13,0,0,1-.5.8,3.88,3.88,0,0,1-1.3-1.6,3.88,3.88,0,0,1-1.3,1.6c-.1,0-.3-.4-.5-.8a1.69,1.69,0,0,1-.2-.5c-.2,1.7-.6,4.4-.6,5.4-1.6-1-2.5,0-2.2.7,0,.1.1.1.1.2a1,1,0,0,0,.8.4,5,5,0,0,1,1.9.4,6.7,6.7,0,0,1,2.2,1.8,6.7,6.7,0,0,1,2.2-1.8,3.8,3.8,0,0,1,1.9-.4,1.23,1.23,0,0,0,.8-.4.35.35,0,0,0,.1-.2C203.26,63.89,202.26,62.89,200.76,63.89Zm2.4-.7s-1-2.5-1.5-3.9a.75.75,0,0,1-.3.3,2.22,2.22,0,0,1-.5-.4c.2,1.2.4,2.6.5,3.7A1.84,1.84,0,0,1,203.16,63.19Zm18-28.2c0-1.1-.1-3-.1-3.9a39.26,39.26,0,0,1-5.4,3.7l-.9.5v-.6a34.42,34.42,0,0,0-3.9-15.8c-.3.3-1.1,1.4-2,2.6a1.57,1.57,0,0,1,1.5.6,14.28,14.28,0,0,1,3,4.9,13.85,13.85,0,0,1,.7,4.6h0s-.5,8.6-1.5,16.9c-.9,7.5-1.4,8.5-1.4,8.5a4.57,4.57,0,0,1-.9-2.1l-.1.1a7.43,7.43,0,0,1-.8-2.2,32.84,32.84,0,0,1-.4-6.1h0a3.9,3.9,0,0,0-.3-1.2,4.18,4.18,0,0,1-.4-1h0a6.66,6.66,0,0,0-2.2-3.7,11.74,11.74,0,0,1-1.5-2.5h-.1c-.4.4-.7.7-.7.9a10.54,10.54,0,0,1,.1,3c-.1,0-.2-.2-.3-.2.1.9-.3,1.9-.1,2.7l-.5-.1c0,.1,0,.1.1.1s.1.2.3.2a.35.35,0,0,0,.2.1,4.2,4.2,0,0,0,.5.2,1.65,1.65,0,0,0-.2-1.7c-.3-.3.1-.7.6-.5a8,8,0,0,1,2.2,1.4c1.1,1,1.4,2.1,1.2,2.3s-.3.1-.5,0v.1a.7.7,0,0,1-.5.4h0c-.1.2-.3.2-.6.2a1.27,1.27,0,0,1-.6-.2c-.1,0-.1-.1-.2-.2s-.1.1-.2.2a48.45,48.45,0,0,1,3.7,5.2,10.77,10.77,0,0,1,1.2,2.8,3.38,3.38,0,0,1-1.1,0,5,5,0,0,1,.3,1.6,2.83,2.83,0,0,1-1.7-.4.37.37,0,0,0,.1.3c.5.4,1.1.8,1.4,1-2.6,1.2-6.4.7-6.5.7a.9.9,0,0,1-.5-.1.35.35,0,0,1-.1.2c.3.6.8,2,1,2.3a8.48,8.48,0,0,0,5.6.9,4.51,4.51,0,0,0,1.4-.4,14.44,14.44,0,0,0,4.5-2.9,19.15,19.15,0,0,0,3.4-4.3c2.9-5.6,3.4-14,3.4-17.4A10.62,10.62,0,0,1,221.16,35Z" transform="translate(-1.16 -0.69)"/><path d="M3.46,36.89a.76.76,0,0,0-.5.2.73.73,0,0,0,0,1,.73.73,0,0,0,1,0,.72.72,0,0,0,0-1A.76.76,0,0,0,3.46,36.89Z" transform="translate(-1.16 -0.69)"/><path d="M6,36.89a.7.7,0,1,0,.5,1.2.7.7,0,0,0-.5-1.2Z" transform="translate(-1.16 -0.69)"/><path d="M7.56,31.09a5.5,5.5,0,0,1-.9-.7,3,3,0,0,1-.8-.8,2.36,2.36,0,0,1-.6-.9,3,3,0,0,1-.2-1,1.7,1.7,0,0,1,.1-.7,3.33,3.33,0,0,1,.3-.6c.1-.1.2-.3.3-.4s.2-.2.3-.2c.3,0,.5.3.8.9l.6,1.1,1-.5-.5-1a3.6,3.6,0,0,0-.8-1.2,1.61,1.61,0,0,0-1.1-.5,1.33,1.33,0,0,0-.8.3,2.7,2.7,0,0,0-.7.8,3.13,3.13,0,0,0-.5,1,3.55,3.55,0,0,0-.2,1,4.19,4.19,0,0,0,.4,1.6,14.63,14.63,0,0,0,.9,1.3c.4.3.7.7,1.1,1s.7.6,1,.8v.1c-.1.2-.1.4-.2.6a1.27,1.27,0,0,1-.4.7,7,7,0,0,1-.9.6,2.9,2.9,0,0,1-1.4.3,2,2,0,0,1-.7-.1,2.51,2.51,0,0,1-.7-.4,2.65,2.65,0,0,1-.5-.6,2.92,2.92,0,0,1-.2-.9v-1.6H1.16v1.6a3.19,3.19,0,0,0,.3,1.4,2.72,2.72,0,0,0,.8,1,3,3,0,0,0,1.1.6,5.16,5.16,0,0,0,1.1.2,4.88,4.88,0,0,0,1.9-.4,2.54,2.54,0,0,0,1.3-.9,3.75,3.75,0,0,0,.7-1.2,5.16,5.16,0,0,0,.2-1.1l-.5-.7C8.06,31.49,7.86,31.29,7.56,31.09Z" transform="translate(-1.16 -0.69)"/><path d="M12.86,23.39a.71.71,0,0,0,.5-1.2A.52.52,0,0,0,13,22c-.2,0-.5,0-.6.2a.7.7,0,0,0,.5,1.2Z" transform="translate(-1.16 -0.69)"/><path d="M21.66,34a.68.68,0,1,0,.5.2A.76.76,0,0,0,21.66,34Z" transform="translate(-1.16 -0.69)"/><path d="M24,34a.68.68,0,1,0,.5.2A.76.76,0,0,0,24,34Z" transform="translate(-1.16 -0.69)"/><path d="M32.26,23c.2,0,.3-.1.5-.2a.72.72,0,1,0-.5.2Z" transform="translate(-1.16 -0.69)"/><path d="M41.86,24a.68.68,0,1,0-.5-.2A.76.76,0,0,0,41.86,24Z" transform="translate(-1.16 -0.69)"/><path d="M47.66,24a.68.68,0,1,0-.5-.2A.76.76,0,0,0,47.66,24Z" transform="translate(-1.16 -0.69)"/><path d="M49.86,24a.68.68,0,1,0-.5-.2A.76.76,0,0,0,49.86,24Z" transform="translate(-1.16 -0.69)"/><path d="M57.46,32.29V20.69h-1v10.4h-6v-5.6h-1.1v5.6h-7v-5.6h-1.1v5.6h-6.9a3.38,3.38,0,0,0,.6-1.2,5.9,5.9,0,0,0,.2-1.4A6.8,6.8,0,0,0,35,27a2.28,2.28,0,0,0-.6-1.2,2.36,2.36,0,0,0-.9-.8,2.55,2.55,0,0,0-2.4,0,3.92,3.92,0,0,0-1,.8,3.37,3.37,0,0,0-.6,1.2,7.72,7.72,0,0,0-.2,1.5,5.9,5.9,0,0,0,.2,1.4,6.66,6.66,0,0,0,.6,1.2h-5.6v-5.6h-1.1v5.6H15.82a8,8,0,0,0,.24-.8,4.87,4.87,0,0,0,.1-1.2,7.77,7.77,0,0,0-.2-1.6,3,3,0,0,0-.6-1.4,3.46,3.46,0,0,0-1.1-1,2.41,2.41,0,0,0-1.5-.4,4.15,4.15,0,0,0-1.6.3,10.54,10.54,0,0,0-1.1.7l.6,1a4.07,4.07,0,0,1,1.1-.6,2.92,2.92,0,0,1,.9-.2,1.69,1.69,0,0,1,1,.3,2.34,2.34,0,0,1,.7.7,3.13,3.13,0,0,1,.5,1,5,5,0,0,1,.2,1.2,5.07,5.07,0,0,1-.2,1.3,3.1,3.1,0,0,1-.2.7H9.86v1.3Zm-23.9-2a1.62,1.62,0,0,1-1.1.9H32a1.86,1.86,0,0,1-1.1-.9,3.1,3.1,0,0,1-.5-1.7,3,3,0,0,1,.2-1,2,2,0,0,1,.4-.8,1.7,1.7,0,0,1,.6-.6,1.85,1.85,0,0,1,.7-.2,1,1,0,0,1,.7.2l.6.6a2,2,0,0,1,.4.8,3.08,3.08,0,0,1,.1,1A3.37,3.37,0,0,1,33.56,30.29Z" transform="translate(-1.16 -0.69)"/><rect x="58.2" y="20" width="1.1" height="11.5"/><path d="M67.16,36.89a.68.68,0,0,0-.7.7.55.55,0,0,0,.3.5.7.7,0,0,0,1.2-.5.85.85,0,0,0-.3-.5A.76.76,0,0,0,67.16,36.89Z" transform="translate(-1.16 -0.69)"/><path d="M69.76,36.89a.68.68,0,1,0,.5.2A.76.76,0,0,0,69.76,36.89Z" transform="translate(-1.16 -0.69)"/><path d="M82.66,34a.68.68,0,1,0,.5.2A.76.76,0,0,0,82.66,34Z" transform="translate(-1.16 -0.69)"/><path d="M93.46,23.89a.68.68,0,1,0-.5-.2A.76.76,0,0,0,93.46,23.89Z" transform="translate(-1.16 -0.69)"/><path d="M95.86,25.19a9.12,9.12,0,0,0-2.2.9,9.55,9.55,0,0,0-1.6,1.2,6.34,6.34,0,0,0-1.1,1.3v-7.9h-1.1v10.5h-6.6v-5.6h-1.1v5.5h-7.8l-2.1-6.8a7.49,7.49,0,0,0-1.6.5,2.73,2.73,0,0,0-1.2.9,3.46,3.46,0,0,0-.7,1.2,5.9,5.9,0,0,0-.2,1.4,3.19,3.19,0,0,0,.3,1.4,4.13,4.13,0,0,0,.7,1.1,6.47,6.47,0,0,0,.9.8,3.28,3.28,0,0,0,.8.6l.1.1c-.1.2-.1.4-.2.6a1.27,1.27,0,0,1-.4.7,7,7,0,0,1-.9.6,2.9,2.9,0,0,1-1.4.3,2,2,0,0,1-.7-.1,2.51,2.51,0,0,1-.7-.4,1.47,1.47,0,0,1-.5-.6,2.92,2.92,0,0,1-.2-.9V31h-1.1v1.5a3.19,3.19,0,0,0,.3,1.4,3.92,3.92,0,0,0,.8,1,3,3,0,0,0,1.1.6,4.25,4.25,0,0,0,1.1.2,4.88,4.88,0,0,0,1.9-.4,2.73,2.73,0,0,0,1.2-.9,3.75,3.75,0,0,0,.7-1.2,5.16,5.16,0,0,0,.2-1.1l-.3-.5-.2-.2c-.1,0-.2-.1-.3-.2a8.64,8.64,0,0,1-1.4-1.3,2.27,2.27,0,0,1-.6-1.6,2.2,2.2,0,0,1,.1-.8,1.14,1.14,0,0,1,.3-.8l.6-.6a3,3,0,0,1,.8-.4l2.1,6.6h7.1v0l.1,0h18.4v-7.5h-.6A11.8,11.8,0,0,0,95.86,25.19Zm-4.9,6c.1-.3.3-.8.5-1.3a8.35,8.35,0,0,1,1.2-1.6,8.53,8.53,0,0,1,2.1-1.4,9.69,9.69,0,0,1,3.2-.78v5.08Z" transform="translate(-1.16 -0.69)"/><path d="M114,34a.68.68,0,1,0,.5.2A.76.76,0,0,0,114,34Z" transform="translate(-1.16 -0.69)"/><path d="M114.56,32.39v-6.8h-1.1v5.6l-7.4.1v-6.5a12,12,0,0,0-2.2.5,5.85,5.85,0,0,0-1.7,1,4.86,4.86,0,0,0-1.1,1.4,3.29,3.29,0,0,0-.4,1.7,2.39,2.39,0,0,0,1,2.1,5.1,5.1,0,0,0,3,.8h.4v1.5a3.59,3.59,0,0,1-.2,1.1,1.49,1.49,0,0,1-1.6,1V37a3.31,3.31,0,0,0,1.5-.4,2,2,0,0,0,.9-.9,5,5,0,0,0,.4-1.3,7.57,7.57,0,0,0,.1-1.5l0-.5Zm-9.5-1.2h-.4a3.58,3.58,0,0,1-2.1-.5,1.36,1.36,0,0,1-.7-1.3,2.83,2.83,0,0,1,.9-2,4.65,4.65,0,0,1,2.3-1.3Z" transform="translate(-1.16 -0.69)"/><path d="M116.56,18.49c-.3.1-.4.4-.4.8a.9.9,0,0,0,.1.5c.1.2.1.3.2.3h-.9v.6h2.9v-.6H118a1.88,1.88,0,0,1-.8-.2.6.6,0,0,1-.3-.6c0-.2,0-.3.2-.4a.9.9,0,0,1,.5-.1,3.71,3.71,0,0,1,.9.2l.1-.5a5,5,0,0,0-1.2-.2A1.08,1.08,0,0,0,116.56,18.49Z" transform="translate(-1.16 -0.69)"/><rect x="115.3" y="20.9" width="1.1" height="10.7"/><path d="M130.06,34a.68.68,0,0,0-.7.7c0,.2,0,.4.2.5a.71.71,0,1,0,.5-1.2Z" transform="translate(-1.16 -0.69)"/><path d="M140.66,24a.68.68,0,1,0-.5-.2A.76.76,0,0,0,140.66,24Z" transform="translate(-1.16 -0.69)"/><path d="M138.46,24c.2,0,.3-.1.5-.2a.72.72,0,1,0-.5.2Z" transform="translate(-1.16 -0.69)"/><path d="M162.86,25a6.7,6.7,0,0,0-1.8.7,6.39,6.39,0,0,0-1.5,1.3,2.88,2.88,0,0,0-.6,1.9,4.44,4.44,0,0,0,.2,1.3,1.93,1.93,0,0,0,.5.9h-6.23a13,13,0,0,0-.67-2.11,6.12,6.12,0,0,0-2.6-2.6c-.6-.3-1.3-.6-2-.9a8.34,8.34,0,0,1,.8-1.2,5.24,5.24,0,0,1,1.1-1,7.63,7.63,0,0,1,1.1-.8,8.79,8.79,0,0,0,1-.6v1h1.1V20a16.37,16.37,0,0,0-1.5.7,10.59,10.59,0,0,0-2,1.2,10.08,10.08,0,0,0-1.9,1.7,7.55,7.55,0,0,0-1.3,2.3l-.2.5a10.38,10.38,0,0,0,1.2.3,3.1,3.1,0,0,1,1.3.6,5.24,5.24,0,0,1,1,1.1,2.86,2.86,0,0,1,.4,1.7,3.44,3.44,0,0,1-.13,1h-8.87v-5.6h-1.1v5.6h-6v-5.6h-1.1v5.6h-5.4a4.1,4.1,0,0,1-2.8-.9,3.34,3.34,0,0,1-1-2.7v-.8a2.49,2.49,0,0,1,.1-.8l-1.1-.2c0,.3-.1.6-.1.9v.9a4.46,4.46,0,0,0,1.3,3.5,5.22,5.22,0,0,0,3.6,1.2h23.4a3.46,3.46,0,0,0,.3-1.2,4.1,4.1,0,0,0,0-1.8,11.11,11.11,0,0,1,.7,1.6c.2.6.3,1.1.4,1.5h11.8v-7.5A5.21,5.21,0,0,1,162.86,25Zm.2,6.2a6,6,0,0,1-2.2-.5,1.88,1.88,0,0,1-.8-1.7,2,2,0,0,1,.3-1.1,3,3,0,0,1,.8-.8,2.66,2.66,0,0,1,1-.6l.9-.3Z" transform="translate(-1.16 -0.69)"/></svg>