<?xml version="1.0" encoding="utf-8"?>
<!-- Generator: Adobe Illustrator 24.3.0, SVG Export Plug-In . SVG Version: 6.00 Build 0)  -->
<svg version="1.1" id="Layer_1" xmlns="http://www.w3.org/2000/svg" xmlns:xlink="http://www.w3.org/1999/xlink" x="0px" y="0px"
	 viewBox="0 0 204.4 67.9" style="enable-background:new 0 0 204.4 67.9;" xml:space="preserve">
<style type="text/css">
	.st0{fill:#FFFFFF;fill-opacity:0;}
	.st1{fill:#FFFFFF;}
	.st2{fill:#EA0029;}
	.st3{fill:#13100D;}
</style>
<rect x="-18.9" y="-18.9" class="st0" width="241.9" height="105.7"/>
<path class="st1" d="M204.2,33.8c0.1-12.8-2.7-20-5.1-23.5c0.8-1.1,1.4-1.8,1.4-1.8c0.4-0.4,0.9-0.7,1.5-0.8
	c0.2-1.2,0.5-2.5,0.9-3.7c-1,0.7-2.1,1.4-3.3,1.9c0.1,0.6,0,1.2-0.3,1.7l-1.1,1.4c-1.2-1.4-2.6-2.5-4.1-3.4
	c-0.4-0.2-0.9-0.5-1.4-0.7c0-0.7-0.2-1.3-0.6-1.8c-0.1-0.4-0.4-0.8-0.8-1l0,0c-0.5-0.1-1,0.1-1.4,0.4c-0.7,0.1-1.4,0.5-1.8,1
	c-1.7-0.3-3.4-0.6-5.1-0.7c-0.2-0.9-0.8-1.6-1.6-2c-0.3-0.5-0.7-0.8-1.3-0.9l0,0c-0.5,0.1-1,0.4-1.3,0.9c-0.8,0.4-1.4,1.1-1.6,2
	c-1.7,0.1-3.4,0.3-5.1,0.7c-0.5-0.5-1.1-0.9-1.8-1c-0.4-0.3-0.9-0.5-1.4-0.4l0,0c-0.4,0.2-0.7,0.6-0.8,1c-0.5,0.5-0.7,1.1-0.7,1.8
	c-0.5,0.2-1,0.5-1.4,0.7c-1.6,0.9-2.9,2-4,3.4l-1-1.3c-0.3-0.5-0.4-1.1-0.3-1.7c-1.1-0.5-2.2-1.2-3.3-1.9c0.4,1.2,0.7,2.4,0.9,3.7
	c0.6,0.1,1.1,0.3,1.5,0.8l1.2,1.6c-2.4,3.5-5.3,10.7-5.2,23.6c0,1.2-0.5,12.4,3.1,19.9c0.9,1.7,2.1,3.3,3.5,4.7
	c1.6,1.6,3.6,2.7,5.8,3.2l0.3,0.1c2,0.6,4.1,0.6,6-0.2l-0.1,0.3c0,0.1-0.1,0.2-0.1,0.3c-0.5,1.4-0.2,2.8,1.7,3
	c0.6,0,1.2,0.1,1.7,0.4c0.6,0.3,1.1,0.7,1.5,1.1c0.4,0.4,0.7,0.9,1,1.3l0,0c0.3-0.5,0.6-0.9,1-1.3c0.4-0.5,0.9-0.8,1.5-1.1
	c0.5-0.2,1.1-0.4,1.7-0.4c1.9-0.2,2.2-1.6,1.7-3c0-0.1-0.1-0.2-0.1-0.3c0-0.1-0.1-0.3-0.1-0.3c1.3,0.8,5.3,1.3,9.1-1.1
	c2.6-1.6,4.7-3.9,6-6.6C204.7,46.2,204.2,34.9,204.2,33.8z M187.3,23.5c-0.1,0.1-0.2,0.2-0.3,0.2c-0.2,0.1-0.4,0.2-0.6,0.1
	c-0.2,0-0.5-0.1-0.6-0.3c-0.5-0.7-0.9-1.5-1.2-2.3l-0.9-2.3c-0.3-0.7-0.6-1.5-1.1-2.1c-0.4-0.5-0.9-1-1.5-1.3
	c-0.4-0.2-0.9-0.3-1.4-0.3c-0.8,0-1.5,0-2.2,0.2c-0.4,0.1-0.8,0.3-1.1,0.6c-0.1,0.1-0.2,0.2-0.3,0.3c-0.4,0.1-0.7,0.3-1,0.6
	c-0.6,0.3-0.8,1.1-0.5,1.7c0.1,0.1,0.1,0.2,0.2,0.3l0,0c0-0.2,0-0.5,0.1-0.5c0.3,0.2,0.7,0.3,1.1,0.2c0.5-0.1,0.8,0.7,0.8,0.7
	l0.1-0.2c0.1,0.2,0.2,0.4,0.3,0.5c0,0,0.1-0.1,0.1-0.1c0.1,0.2,0.4,0.3,0.4,0.6c0,0.3-0.2,0.7-0.5,0.9c-0.1,0.1-0.9,0.7-1.6,1.5
	c-0.4,0.4-0.6,0.7-1,1.1c-0.1,0.2-0.4,0.3-0.6,0.4h-0.1c-0.2,0-0.4-0.1-0.5-0.2l-6-7.9c3.5-3.4,9.2-4,10.7-3.8
	c0.3,0,0.7,0.3,0.3,0.8c0.7,0.1,1.3,0,1.9-0.4c0.6,0.4,1.3,0.5,1.9,0.4c-0.4-0.5,0-0.8,0.3-0.8c1.4-0.1,6.9,0.1,10.7,3.9
	C191.2,18.4,188.7,21.6,187.3,23.5z"/>
<path class="st2" d="M203.5,30.3c-1.7,1.4-3.5,2.6-5.4,3.7l-0.9,0.5v-0.6c0-5.5-1.3-10.9-3.9-15.8c-0.3,0.3-1.1,1.5-2,2.6
	c0.6-0.1,1.1,0.1,1.5,0.5c1.3,1.4,2.3,3.1,3,4.9c0.5,1.5,0.7,3,0.7,4.6l0,0c0,0-0.4,8.6-1.4,16.8c-0.9,7.5-1.4,8.5-1.4,8.5
	c-0.5-0.6-0.8-1.3-0.9-2.1l-0.1,0.1c-0.4-0.7-0.7-1.4-0.8-2.2c-0.3-2-0.4-4.1-0.4-6.1l0,0c0-0.4-0.1-0.8-0.3-1.2
	c-0.2-0.3-0.3-0.7-0.4-1l0,0c-0.3-1.4-1.1-2.7-2.2-3.7c-0.6-0.8-1.1-1.6-1.5-2.5l-0.1,0c-0.3,0.2-0.5,0.6-0.7,0.9c0.2,1,0.2,2,0,3
	c-0.1-0.1-0.2-0.1-0.2-0.2c0.1,0.9-0.3,1.9-0.1,2.7l-0.5-0.1c0,0,0,0.1,0.1,0.1c0.1,0.1,0.2,0.2,0.3,0.2l0.2,0.1l0.5,0.2
	c0.3-0.6,0.2-1.2-0.2-1.7c-0.2-0.3,0.1-0.7,0.6-0.5c0.8,0.4,1.5,0.8,2.2,1.5c1.1,1,1.4,2,1.2,2.2s-0.3,0.1-0.5,0c0,0,0,0.1,0,0.1
	c-0.1,0.2-0.3,0.4-0.5,0.4l0,0c-0.1,0.2-0.3,0.2-0.6,0.2c-0.2,0-0.4-0.1-0.6-0.2c-0.1,0-0.1-0.1-0.2-0.2l-0.2,0.2
	c1.4,1.7,2.6,3.4,3.7,5.2c0.5,0.9,0.9,1.8,1.2,2.8c-0.3,0.1-0.7,0.1-1.1,0c0.2,0.5,0.3,1,0.3,1.6c-0.6,0-1.2-0.1-1.7-0.4
	c0,0.1,0,0.2,0,0.3l1.4,1c-2.6,1.2-6.4,0.7-6.5,0.7l-0.5-0.1l-0.1,0.2c0.3,0.6,0.9,2,1,2.3c1.7,0.9,3.7,1.2,5.6,0.9
	c0.5-0.1,1-0.2,1.4-0.4c1.7-0.7,3.2-1.7,4.5-2.9c1.3-1.2,2.5-2.7,3.4-4.3c2.9-5.6,3.4-14,3.4-17.4c0-1.1,0-1.7,0-1.8
	C203.6,33.1,203.5,31.2,203.5,30.3z"/>
<path class="st2" d="M175.3,60.1c0.1-0.3,0.6-1.6,0.9-2.2c0-0.1-0.1-0.2-0.1-0.3c-0.4,0.1-0.7,0.1-1.1,0.2s-3.8,0.6-6.4-0.7
	c0.3-0.2,0.9-0.7,1.7-1.2v-0.2c-0.5,0.3-1.1,0.4-1.7,0.4c0-0.5,0.1-1.1,0.3-1.6c-0.3,0.1-0.7,0.1-1.1,0c0.3-1,0.8-1.9,1.3-2.8
	c0.8-1.4,1.8-2.7,2.9-4c0.1-0.3,0.3-0.6,0.5-0.9l0.2-0.2l-0.3-0.2c-0.1,0.1-0.2,0.1-0.3,0.2c-0.2,0.1-0.4,0.2-0.6,0.2
	c-0.3,0-0.5,0-0.6-0.2l0,0c-0.2,0-0.4-0.2-0.5-0.4c0,0,0-0.1,0-0.1c-0.2,0.1-0.3,0.1-0.5-0.1c-0.2-0.2,0.1-1.2,1.2-2.2
	c0.6-0.6,1.3-1.2,2.1-1.5c0.5-0.2,0.8,0.2,0.6,0.5c-0.4,0.5-0.5,1.1-0.2,1.7l0.5-0.2c0.2-0.1,0.3-0.2,0.4-0.3v-0.1l-0.5,0
	c0.2-0.6-0.1-2,0.1-2.9c-0.1,0.1-0.2,0.1-0.3,0.2c-0.1-0.9-0.2-1.9-0.1-2.8c-0.1-0.3-0.3-0.6-0.6-0.8c-0.4,0.9-0.9,1.7-1.5,2.4
	c-1.1,1-1.9,2.2-2.2,3.7l0,0c-0.1,0.4-0.2,0.7-0.4,1c-0.2,0.4-0.3,0.8-0.3,1.2l0,0c0.1,2.1-0.1,4.1-0.4,6.1
	c-0.1,0.8-0.4,1.5-0.8,2.2l-0.1-0.1c-0.2,0.7-0.5,1.5-0.9,2.1c0,0-0.5-1-1.4-8.5c-1-8.2-1.5-16.9-1.5-16.9l0,0
	c0-1.6,0.2-3.1,0.7-4.6c0.7-1.8,1.7-3.5,3-4.9c0.4-0.5,1.1-0.7,1.7-0.5l-0.3-0.5c-0.6-0.8-1.2-1.6-1.8-2.3c-4,7.1-3.9,15.6-3.9,15.6
	v0.9l-0.7-0.4c-2-1.1-3.8-2.3-5.6-3.7c0,0.9-0.1,3.8-0.1,3.8v1.8c0,3.4,0.6,11.7,3.4,17.4c0.9,1.6,2,3.1,3.3,4.4
	c1.4,1.3,3.1,2.3,4.9,2.9l0.4,0.1c2.2,0.7,4.6,0.5,6.7-0.6L175.3,60.1z"/>
<path class="st2" d="M177,62.2c0.1-1.3,0.2-2.5,0.4-3.8c-0.2,0.2-0.4,0.4-0.6,0.5c-0.1,0-0.1,0-0.2-0.1l-1.5,3.7
	C175.6,62,176.4,61.9,177,62.2z"/>
<path class="st2" d="M183.1,63.2c-0.1-1.8-0.3-3.7-0.6-5.5l-0.1-0.1c-0.1-0.1-0.1-0.1-0.1-0.2c-0.1,0.3-0.2,0.7-0.4,1
	c-0.1,0.3-0.3,0.6-0.5,0.8c-0.5-0.4-1-1-1.2-1.6c-0.3,0.6-0.7,1.2-1.3,1.6c-0.2-0.2-0.4-0.5-0.5-0.8c-0.1-0.2-0.1-0.4-0.2-0.5
	c-0.3,1.8-0.5,3.6-0.6,5.4c-1.6-1-2.5,0-2.2,0.7c0,0.1,0.1,0.1,0.1,0.2c0.2,0.2,0.5,0.4,0.8,0.4c0.7,0,1.3,0.2,1.9,0.4
	c0.9,0.4,1.6,1,2.2,1.8c0.6-0.8,1.3-1.4,2.2-1.8c0.6-0.3,1.3-0.4,1.9-0.4c0.3,0,0.6-0.2,0.8-0.4c0-0.1,0.1-0.1,0.1-0.2
	C185.6,63.2,184.7,62.1,183.1,63.2z"/>
<path class="st2" d="M183.7,58.8c-0.2-0.1-0.4-0.2-0.5-0.4c0.2,1.2,0.4,2.5,0.5,3.7c0.6-0.3,1.4-0.2,1.9,0.3c0,0-1-2.5-1.5-3.9
	C183.8,58.7,183.7,58.8,183.7,58.8z"/>
<path class="st3" d="M177.7,27.6L177.7,27.6"/>
<polyline class="st3" points="176.9,27.9 176.9,27.9 176.9,27.9 "/>
<path class="st3" d="M191,32.1c-0.1,0.5-0.4,0.9-0.8,1.2c-0.3-0.8-0.4-1.5,0.8-3.9c-0.8,2.4-0.5,3.2-0.5,3.2
	C190.7,32.4,190.9,32.2,191,32.1z M189.7,30.4c0,0-0.3-0.5,0.4-2.6c-1.3,2-0.7,3.4-0.7,3.4c0.4-0.2,0.7-0.6,0.9-1.1
	C190.1,30.2,189.9,30.4,189.7,30.4L189.7,30.4z M194.4,26.8c-0.2,2.1-0.4,2.5-0.6,2.9c-0.2-0.2-0.3-0.3-0.3-0.6
	c-0.1,0.5,0,0.9,0.4,1.3C194.3,29.9,194.6,28.8,194.4,26.8L194.4,26.8z M194,25.4c-0.3,2.3-0.7,2.9-1,3.3c-0.2-0.2-0.3-0.5-0.4-0.7
	c-0.1,0.5,0,1,0.3,1.4C193.8,28.3,194.2,26.9,194,25.4L194,25.4z M192.2,27.7c-0.1-0.4-0.2-0.8-0.2-1.3c-0.3,0.7-0.3,1.4,0.1,2.1
	c0.9-1.1,1.3-2.5,1.2-3.9C193.3,25.7,192.9,26.8,192.2,27.7L192.2,27.7z M191.4,26.4c-0.1-0.5-0.1-1.1-0.1-1.7
	c-0.4,0.8-0.4,1.7-0.1,2.5c0.9-1,1.4-2.3,1.5-3.7C192.6,24.6,192.1,25.6,191.4,26.4L191.4,26.4z M194.3,30.4c0,0.3,0.2,0.6,0.4,0.8
	c0.5-0.8,0.6-1.8,0.4-2.7c0,0.7-0.2,1.5-0.5,2.1C194.6,30.6,194.3,30.5,194.3,30.4L194.3,30.4z M195.1,31.1c0,0.3,0.2,0.5,0.4,0.7
	c0.4-0.7,0.5-1.6,0.3-2.4c0,0.7-0.1,1.3-0.4,1.9C195.2,31.3,195.2,31.2,195.1,31.1L195.1,31.1z M166.4,29.8
	c-0.2-0.4-0.4-0.8-0.6-2.9c-0.2,1.2,0,2.5,0.6,3.6c0.3-0.4,0.4-0.8,0.4-1.3C166.7,29.5,166.5,29.7,166.4,29.8L166.4,29.8z
	 M167.2,28.8c-0.3-0.4-0.6-0.9-1-3.3c-0.2,1.4,0.2,2.8,1,4c0.3-0.4,0.4-0.9,0.3-1.5C167.4,28.4,167.3,28.6,167.2,28.8L167.2,28.8z
	 M168,27.8c-0.7-0.9-1.1-2-1.2-3.2c-0.1,1.4,0.4,2.8,1.2,3.9c0.4-0.6,0.4-1.4,0.1-2.1C168.2,27,168.1,27.4,168,27.8L168,27.8z
	 M168.8,26.5c-0.7-0.8-1.2-1.8-1.3-2.8c0,1.4,0.6,2.7,1.5,3.7c0.3-0.8,0.3-1.7-0.1-2.5C168.9,25.4,168.9,25.9,168.8,26.5L168.8,26.5
	z M165.6,30.7c-0.3-0.7-0.5-1.4-0.5-2.2c-0.2,0.9,0,1.9,0.4,2.7c0.2-0.2,0.4-0.5,0.4-0.8C165.9,30.6,165.6,30.7,165.6,30.7
	L165.6,30.7z M164.9,31.4c-0.3-0.6-0.4-1.3-0.4-1.9c-0.2,0.8-0.1,1.6,0.3,2.4c0.2-0.2,0.4-0.4,0.4-0.7
	C165.1,31.3,165,31.4,164.9,31.4L164.9,31.4z M169.7,32.6c-0.2-0.1-0.4-0.2-0.5-0.4c0.1,0.5,0.4,0.9,0.8,1.2
	c0.3-0.8,0.4-1.5-0.8-3.9C170.1,31.8,169.7,32.6,169.7,32.6L169.7,32.6z M170.5,30.5c-0.2-0.1-0.4-0.2-0.6-0.3
	c0.1,0.5,0.4,0.9,0.9,1.1c0,0,0.6-1.4-0.7-3.4C170.8,29.9,170.5,30.5,170.5,30.5L170.5,30.5z M176.4,40.6c0-0.9-0.2-1.7-0.6-2.5
	c-0.1,0.2-0.1,0.3-0.1,0.5c-0.3-0.4-0.5-0.9-0.6-1.4c-0.1,0.5-0.2,1-0.4,1.5c0.2,0,0.3-0.1,0.5-0.2
	C175.4,39.4,176.1,39.6,176.4,40.6L176.4,40.6z M184.3,38.7c0-0.2,0-0.3-0.1-0.5c-0.4,0.8-0.5,1.6-0.6,2.5c0.3-1,1-1.2,1.2-2.1
	c0.1,0.1,0.3,0.2,0.5,0.2c-0.2-0.5-0.3-1-0.4-1.5C184.7,37.8,184.5,38.3,184.3,38.7L184.3,38.7z M178.4,37.7
	c-0.1-0.7-0.4-1.5-0.8-2.1C177.6,36.3,177.9,37.1,178.4,37.7L178.4,37.7z M181.4,38.9c0.5-0.8,0.7-1.7,0.6-2.6
	C181.6,37,181.4,37.9,181.4,38.9L181.4,38.9z M180.4,39.5c0.3-0.6,0.3-1.2,0-1.8C180.2,38.2,180.2,38.9,180.4,39.5L180.4,39.5z
	 M179.7,37.5c0.2-0.7,0.2-1.4-0.1-2C179.4,36.2,179.4,36.9,179.7,37.5L179.7,37.5z M184.9,30.9c-0.4,0.8-0.6,1.6-0.7,2.4
	C184.4,33.2,185.2,31.2,184.9,30.9L184.9,30.9z M184.9,28.7c0,0,0.8-1.3,0.3-2C184.8,26.8,185,28.7,184.9,28.7L184.9,28.7z
	 M182.8,31.9c0.7-0.7,1.1-1.6,1.1-2.5c-0.2,0.6-0.6,1-1.1,1.3c-0.3-0.2-0.5-0.5-0.6-0.9C182,30.6,182.3,31.3,182.8,31.9L182.8,31.9z
	 M185.1,30.3c0.3-0.5,0.8-1.2,0.4-1.7C185.3,29.1,185.2,29.7,185.1,30.3z M181.5,35.7c0.4-0.7,0.6-1.5,0.6-2.3
	C181.6,34.1,181.4,34.9,181.5,35.7L181.5,35.7z M183.2,34.2c0.7-0.7,1-1.8,0.8-2.8C183.4,32.3,183.2,33.3,183.2,34.2L183.2,34.2z
	 M181.7,31.2c-0.2,0.6-0.5,1.2-1,1.6c-0.3-0.3-0.5-0.6-0.7-1c-0.1,0.8,0.3,1.6,0.9,2C181.5,33.2,181.8,32.2,181.7,31.2L181.7,31.2z
	 M178.7,34.1c-0.4-0.3-0.7-0.6-1-1.1c0.3,0.8,0.7,1.6,1.4,2.1c0.5-0.9,0.5-1.9,0.2-2.8C179.2,33,178.9,33.6,178.7,34.1L178.7,34.1z
	 M174.6,26.4c-0.1-0.5,0.6-1.1,0.4-2C174.4,24.9,174.3,25.8,174.6,26.4L174.6,26.4z M176,33.1c0.3,0.5,0.6,0.9,1,1.3
	c-0.5-0.7-0.9-2.1-1.4-2.5C175.6,32.3,175.8,32.7,176,33.1z M175.6,30.1c-0.3,1.1,0.9,2.2,0.9,2.2C176.5,31.5,176.2,30.7,175.6,30.1
	z M176.4,27.9c0,0.5,0,1-0.1,1.5c-0.3-0.1-0.5-0.3-0.7-0.5c0.3,0.6,0.7,1.1,1.1,1.6C176.9,29.6,176.8,28.7,176.4,27.9L176.4,27.9z
	 M175.9,25c0.3-0.8,0.7-1.7,1.2-2.5C176.3,23,175.8,24,175.9,25L175.9,25z M174.9,30c0-0.8-0.2-1.7-0.6-2.5
	C174.4,28.4,174.6,29.2,174.9,30L174.9,30z M177.8,26.3c-0.8,1,0.4,2.1,0.4,2.2S178.3,26.6,177.8,26.3L177.8,26.3z M178.3,23.7
	c-0.7,0.4-0.9,1.3-0.5,1.9c0,0.1,0.1,0.1,0.1,0.2C178.2,25.1,178.3,24.3,178.3,23.7L178.3,23.7z M179,31.3c0.5-0.8,0.6-1.7,0.5-2.6
	c0,0.6-0.3,1.1-0.7,1.5c-0.3-0.2-0.5-0.5-0.7-0.8C178.1,30.1,178.4,30.8,179,31.3L179,31.3z M184.8,23.8c0.1,0.8,0.3,1.5,0.7,2.2
	C185.7,25.2,185.5,24.3,184.8,23.8L184.8,23.8z M183.3,21.3c-0.1,0.5,0.8,1.4,0.8,1.4C184.1,22.1,183.8,21.5,183.3,21.3L183.3,21.3z
	 M184.5,25.4c-0.1,0.6-0.4,1.2-0.8,1.7c-0.3-0.2-0.5-0.5-0.8-0.8c0.1,0.7,0.3,1.4,0.8,1.9C184.5,27.5,184.8,26.4,184.5,25.4
	L184.5,25.4z M182.1,23.1c-0.4,0.5,0,1.5,0.2,2.3C182.6,25.1,182.9,23.6,182.1,23.1z M182.5,21.8c0.1-0.7-0.4-1.3-1.1-1.3
	c0,0,0,0,0,0C181.3,20.9,182.2,21.2,182.5,21.8L182.5,21.8z M181.4,19.9c0.2,0.2,0.9,0.4,1.4,0.8c-0.1-0.5-0.6-0.9-1.2-0.8
	C181.6,19.9,181.5,19.9,181.4,19.9L181.4,19.9z M180.4,22.7c-0.4,0.3-0.5,0.9-0.3,1.4C180.2,24.1,181,23.2,180.4,22.7L180.4,22.7z
	 M181.4,29.9c0.6-0.7,1-1.6,1-2.5c-0.3,0.5-0.6,0.9-1,1.3c-0.3-0.2-0.6-0.5-0.9-0.8C180.7,28.6,181,29.3,181.4,29.9L181.4,29.9z
	 M180.1,25.3c-0.4,0.7-0.4,1.6,0,2.4C180.1,27.6,180.7,26.1,180.1,25.3L180.1,25.3z M180.4,17c0.2,0.2,0.9,0.5,1.3,0.8
	C181.7,17.3,181.2,16.9,180.4,17L180.4,17z M180.8,17.7c-0.3-0.4-0.7-0.6-1.2-0.7C179.8,17.4,180.3,17.7,180.8,17.7L180.8,17.7z
	 M182.2,18.8c-0.2-0.4-0.6-0.7-1-0.7c0.2,0.2,0.3,0.4,0.4,0.6c-0.2,0.1-0.4,0.1-0.6,0.1C181.3,19.1,181.8,19.1,182.2,18.8
	L182.2,18.8z M176.1,17.2c-0.1,0-0.1,0.2,0.1,0.2c0.1,0,0.2-0.1,0.2-0.2C176.4,17.2,176.2,17.1,176.1,17.2z M182,5.6l-0.6-0.4
	c-0.2,0.1-0.4,0.3-0.6,0.4l0.6,0.4L182,5.6z M178.4,16.7c0,0.1,0,0.2,0,0.4c0,0.3-0.2,0.5-0.5,0.5c-0.3,0.1-0.7-0.1-0.7-0.4
	c0,0,0-0.1,0-0.1c0-0.1,0-0.2,0.1-0.3c-0.1,0-0.1,0.1-0.2,0.2s-0.2,0.1-0.4,0.2c0.1-0.3,0.2-0.6,0.5-0.7c1-0.2,2-0.1,2.8,0.3
	c-0.3,0-0.7-0.1-1-0.1L178.4,16.7z M178.2,16.7c0,0-0.4,0-0.4,0s0.2,0.2,0.3,0.2c0.1,0,0.1,0,0.1-0.1
	C178.3,16.8,178.3,16.7,178.2,16.7L178.2,16.7z M182.9,8.4c-3.7-0.2-7.3,0.1-10.9,0.9c-0.1-0.4-0.3-0.7-0.5-1c-0.7-0.8-1,0.1-1,0.2
	c0.9,0,1.1,0.5,1.1,0.5c-0.2,0.4-0.5,0.7-0.9,0.9c-0.5,0.3-1,0.5-1.5,0.5c-1.7,0.1-1.2-1.7-0.2-2.4c-0.1,0.2-0.7,1.1-0.4,1.5
	s2,0.1,2.4-0.4c-0.3-0.2-0.7-0.3-1.1-0.2c0.1-0.7,0.5-1.3,1-1.7c0.6,0.2,1.1,0.6,1.4,1.2c2.4-0.5,4.8-0.8,7.2-0.9
	c-0.1-0.4-0.2-2-0.2-2.1c0-0.3,0.1-0.4,0.3-0.5c0.2,0.3,0.4,0.5,0.8,0.6c-0.1,0.2-0.3,0.3-0.5,0.4c0,0.3,0.1,0.9,0.1,1.1
	c0.5-0.2,1.1-0.4,1.6-0.6c0.2-0.1,0.5-0.1,0.8-0.1c0.2,0,0.5,0.1,0.6,0.3c0.2,0.1,0.3,0.3,0.3,0.5C183.2,7.7,183.1,8,182.9,8.4
	L182.9,8.4z M182.4,7.3c-0.4-0.6-1.6-0.1-2.5,0.3c0.5,0,0.9,0,1.4,0h1.1C182.4,7.5,182.4,7.4,182.4,7.3L182.4,7.3z M170.8,10.3
	l-0.5-0.1c-0.1,0.2-0.3,0.4-0.4,0.6l0.7,0.2c0.1-0.2,0.2-0.3,0.2-0.4l0.5,0.1l0.4-0.6L171,9.9C170.9,10.1,170.8,10.2,170.8,10.3
	L170.8,10.3z M191.3,8.2c0.6,0,1.1,0.1,1.3-0.2c-0.3,0-0.6-0.2-0.8-0.4c0.1-0.1,0.4,0,0.5,0.1l0.2-0.2c-0.3-0.2-0.8-0.2-1,0.2
	c0,0,0,0,0,0c0.1,0.1,0.3,0.1,0.3,0.2C191.6,8.1,191.5,8.2,191.3,8.2L191.3,8.2z M191,9.2c-0.2,0.5-0.4,1-0.7,1.5
	c0.2,0.1,0.4-0.1,0.5-0.1c0.7-0.6,1.2-1.4,1.4-2.3c-0.2,0-0.4,0.1-0.6,0.2C191.3,8.6,191.1,8.9,191,9.2L191,9.2z M185.8,9.5l0.5,0.5
	l0.7-0.4c-0.2-0.2-0.3-0.3-0.5-0.5C186.3,9.3,186,9.4,185.8,9.5L185.8,9.5z M190.5,8.9c-0.1,0.3-0.3,0.6-0.6,0.8
	c-1.4-0.5-2.8-0.8-4.2-1c-0.3,0.4-0.8,0.7-1.3,0.9c-0.6-0.1-1.1-0.2-1.7-0.5c0.2,0,0.4,0,0.6,0c0.6,0,1.3-0.2,1.8-0.5
	c-1-0.2-1.2-0.4-0.8-1.1c0.2-0.3,0.6-0.8,1.1-0.7s0.5,0.7,0.5,1.1c1.3,0.2,2.6,0.5,3.8,0.9c0.1-0.3-0.1-0.5-0.3-0.7
	c0.2-0.2,0.4-0.4,0.6-0.5C190.5,8.1,190.6,8.6,190.5,8.9L190.5,8.9z M184.9,7.4c-0.1,0.1-0.2,0.2-0.3,0.3c0.1,0.1,0.3,0.2,0.5,0.2
	h0.1C185.4,7.8,185.1,7.4,184.9,7.4L184.9,7.4z M172.4,9.8c0.2,0.1,0.4,0.2,0.6,0.3l0.5-0.5c-0.2-0.1-0.4-0.2-0.7-0.3
	C172.6,9.5,172.5,9.7,172.4,9.8L172.4,9.8z M201.1,53.8c-1.3,2.7-3.5,5-6.1,6.6c-3.8,2.4-7.8,1.8-9.1,1.1c0,0,0.1,0.3,0.1,0.3
	c0,0.1,0.1,0.2,0.1,0.3c0.5,1.4,0.2,2.8-1.7,3c-0.6,0-1.2,0.2-1.7,0.4c-0.6,0.3-1.1,0.7-1.5,1.1c-0.4,0.4-0.7,0.9-1,1.3l0,0
	c-0.3-0.5-0.6-0.9-1-1.3c-0.4-0.5-0.9-0.8-1.5-1.1c-0.5-0.2-1.1-0.4-1.7-0.4c-1.9-0.2-2.2-1.7-1.7-3c0-0.1,0.1-0.2,0.1-0.3l0.1-0.3
	c-1.9,0.8-4,0.9-6,0.2l-0.3-0.1c-2.2-0.6-4.2-1.7-5.8-3.2c-1.4-1.4-2.6-2.9-3.5-4.6c-3.6-7.5-3.1-18.7-3.1-19.9
	c-0.1-12.9,2.7-20.1,5.2-23.6l-1.2-1.6c-0.4-0.4-1-0.7-1.5-0.8c-0.2-1.3-0.5-2.5-0.9-3.7c1,0.7,2.1,1.4,3.3,1.9
	c-0.1,0.6,0,1.2,0.3,1.7l1,1.3c1.1-1.4,2.5-2.5,4-3.4c0.4-0.2,0.9-0.5,1.4-0.7c0-0.7,0.2-1.3,0.7-1.8c0.1-0.4,0.3-0.8,0.8-1l0,0
	c0.5-0.1,1,0.1,1.4,0.4c0.7,0.1,1.3,0.5,1.8,1c1.7-0.3,3.4-0.6,5.1-0.7c0.2-0.9,0.8-1.6,1.6-2c0.3-0.5,0.7-0.8,1.3-0.9l0,0
	c0.5,0.1,1,0.4,1.3,0.9c0.8,0.4,1.4,1.1,1.6,2c1.7,0.1,3.4,0.3,5.1,0.7c0.5-0.5,1.1-0.9,1.8-1c0.4-0.3,0.9-0.5,1.4-0.4l0,0
	c0.4,0.2,0.7,0.6,0.8,1c0.5,0.5,0.7,1.1,0.6,1.8c0.5,0.2,1,0.5,1.4,0.7c1.6,0.9,3,2,4.2,3.4l1.1-1.4c0.3-0.5,0.4-1.1,0.3-1.7
	c1.1-0.5,2.2-1.2,3.3-1.9c-0.4,1.2-0.7,2.4-0.9,3.7c-0.6,0.1-1.1,0.3-1.5,0.8c0,0-0.6,0.7-1.4,1.8c2.4,3.5,5.3,10.7,5.1,23.5
	C204.2,34.9,204.7,46.2,201.1,53.8z M200,13.3c-1,0.2-2,0.3-3.1,0.3c-0.5,0.9-0.7,2-0.7,3.1c-0.5-0.1-0.9-0.4-1.3-0.7l-1.1,1.5
	c2.7,4.8,4.1,10.3,4.1,15.8c2-1.1,3.8-2.4,5.5-3.8C203,22.7,202,17.7,200,13.3L200,13.3z M193.6,33.4c-0.1,0.7-0.1,1.4,0.1,2.1
	c0.4-0.5,0.7-1.1,0.9-1.8c0,0.6,0.1,1.2,0.3,1.7c0.4-1.1,0.7-2.3,0.8-3.5c0,0,0,0.1,0.3,0.2c0.2-1.3,0.2-2.7-0.1-4.1
	c-0.5-2.3-1.6-4.5-3.1-6.3c-1.1-1.3-2-0.7-2.9,0.3c-1.5,1.6-1.8,2.3-3.5,2.6l0,0c-0.2,0,0,0.1,0.3,0.1c2.1,0,2.8-1.4,3.4-2.1
	c0.4-0.5,1-0.9,1.4-0.6c0.2,0.1,0.8,0.8,0.1,2.4c0-0.3-0.1-0.6-0.2-0.8c-0.3,1-0.6,1.9-1.2,2.7c-0.1-0.2-0.1-0.4-0.1-0.6
	c-0.2,1.3-1.4,2.7-1.6,4.7c-0.2-0.2-0.3-0.5-0.2-0.8c-0.9,1.7-1.9,4.7-1.3,6.2c0.1-1.6,0.6-3.1,1.4-4.4c-0.6,2-1.4,4.4-0.7,5.9
	c0.1-1.5,0.6-2.9,1.3-4.2c-0.9,3.2-1.2,4.9-0.3,6.1c0-1.6,0.3-3.1,1-4.5c-0.4,2.5-1.1,4.7,0.1,5.8c-0.1-1.6,0.2-3.2,0.8-4.6
	c-0.4,2.4-0.7,4.8,0.1,6c0-0.9,0.1-1.7,0.3-2.5c0.2-1.1,0.5-2.1,0.5-2.1s-0.2,1.7-0.4,3.8c0,0.3,0,0.7,0,1c0,0.4,0,0.9,0.1,1.3
	c0.1,0.4,0.2,0.7,0.4,1c0.1-2.1,0.4-4.2,0.9-6.2c0,0-0.3,2.6-0.5,6.5c0,0.1,0,0.3,0,0.4c-0.3,5.7,0.5,7.5,0.8,8
	c-0.1-0.3-0.1-0.6-0.1-0.8c0-0.4,0-0.8,0.1-1.3c-0.3-0.9-0.4-1.7-0.4-2.6c0-0.8,0.1-1.7,0.2-2.5s0.1-1.5,0.2-2.2s0.1-1.2,0.2-1.9
	c0.1-0.9,0.3-1.8,0.5-2.7c0.1-0.7,0.1-0.1,0,0.1c-0.1,0.8-0.2,2.6-0.4,4.4c-0.1,1.4-0.4,4.1-0.3,5.4c0.1,0.6,0.2,1.2,0.4,1.8
	c-0.2,1.3,0,2.7,0.5,3.9c0.2-0.6,0.3-1.2,0.4-1.8c0,0.1-0.1,0.2-0.2,0.2c-0.3-1.1-0.4-2.2-0.2-3.3c-0.2-0.5-0.3-1-0.3-1.6
	c0-1.6,0.3-3.2,0.5-4.9c0.1-0.5,0.1-1.1,0.2-1.6l0.1-1c0.1-0.5,0.2-1,0.3-1.5c0-0.1,0-0.2,0.1-0.2s0,0.4-0.1,0.9
	c-0.2,2.2-0.7,7.7-0.7,8.2c0,0.6,0.1,1.1,0.3,1.6c-0.1,0.9-0.1,1.7,0.1,2.6c0.1-0.3,0.1-0.6,0.2-0.9c0,0,0.3-2.3,0.7-5.5
	c0.1-0.5,0.1-1,0.2-1.5s0.1-0.9,0.1-1.4s0.1-1.1,0.2-1.7c0-0.2,0-0.5,0.1-0.7c0.1-1.5,0.3-3.2,0.4-4.7c0,0,0.2-2.5,0.2-3.2l-0.1-0.1
	c0,0-0.3,3-1.1,4.1c-0.3-0.5-0.4-1.1-0.5-1.7c-0.2,0.5-0.5,1-0.9,1.4c-0.2-0.5-0.3-1.1-0.2-1.6c-0.2,0.3-0.5,0.6-0.8,0.8
	c-0.2-0.5-0.3-1-0.3-1.6c-0.2,0.2-0.4,0.4-0.7,0.6c-0.1-0.2-0.6-1.1,0.3-4.2c-0.4,2.9-0.2,3.3-0.1,3.5c0.2-0.1,0.3-0.2,0.4-0.3
	c0.1-0.7,0.2-1.4,0.3-2.1c-0.1,2.3,0,3,0.2,3.5C193,34.6,193.3,34,193.6,33.4L193.6,33.4z M186.4,34.4c0.2-2.2,0.5-4.3,1.1-6.4
	C186,29.8,186.2,33.8,186.4,34.4L186.4,34.4z M186.7,27.9c0.5-1.5,0.1-2.3-0.2-2.4C186.5,26.1,186.7,26.5,186.7,27.9L186.7,27.9z
	 M188,29.1c0.4-1.1,0.6-2.2,0.6-3.3C188.1,26.8,187.9,28,188,29.1L188,29.1z M189.4,26.1c0.1-0.6,0.1-1.1,0.1-1.7
	c-0.3,0.8-0.5,1.7-0.4,2.6C189.1,26.8,189.3,26.5,189.4,26.1L189.4,26.1z M185.7,37.5C185.7,37.4,185.7,37.4,185.7,37.5L185.7,37.5
	c0.1-0.1,0.2,0,0.2,0l0.2,0.1c-0.1-0.4-0.2-0.7-0.2-1.1c0-0.5-0.1-0.9-0.2-1.4v-0.1c-0.1,0.2-0.2,0.4-0.4,0.6
	c-0.3,0.3-0.4,0.6-0.5,1v0.1l-0.1-0.1c0.1,0.1-0.3-0.4-0.3-0.4c-0.4,0.9-0.9,1.7-1.6,2.4l0,0c-0.4,0.7-0.6,1.5-0.6,2.3
	c-0.1,0.8-0.1,1.6,0,2.4l0.4-0.4c0,0.3,0,0.6,0,0.9c0,0.2-0.1,0.5-0.2,0.7c0.5,0.1,1.1-0.2,1.4-0.6l0.1,0.3c0.1,0.3,0.2,0.6-0.1,0.8
	c0,0-0.4,0.4-0.4,0.7c0,0.1,0.1,0.3,0.2,0.3l0,0l0,0c0,0.1,0.1,0.3,0.2,0.3c0-0.1,0-0.2,0-0.3c0-0.2,0.2-0.3,0.4-0.3
	c0.1,0,0.1,0,0.2,0c0,0,0.1,0.9,0.2,1.3c0.1,0.4,0.2,0.8,0.2,1.2c0,0.1,0,0.2,0,0.3c0,0.3,0.2,0.3,0.4,0.4c0.1,0,0.3,0,0.4,0l0,0
	c-0.2,0.1-0.2,0.2-0.2,0.2c0.1,0.2,0.1,0.4,0,0.6l0,0c0.3-0.2,0.4-0.5,0.3-0.8l0,0l0,0c0.3-0.2,0.2-0.7-0.2-1.5
	c-0.2-0.4-0.3-1-0.1-1.1l0,0c0.1,0,0.1,0,0.3,0.3c0.1,0.2,0.3,0.4,0.4,0.6c0.1,0.1,0.2,0.3,0.2,0.5c0,0,0,0.1-0.1,0.1
	c0,0-0.1,0-0.1,0c-0.1,0-0.2,0-0.3,0c0.1,0.1,0.4,0.5,0.5,0.4c0.2-0.3,0,0.2,0.5,0.2c0.3,0,0.5-0.2,0.5-0.5c0-0.1,0-0.2,0-0.3
	c-0.1-0.3-0.2-0.6-0.4-0.8l-0.1-0.1c-0.7-0.8-0.7-1-0.6-1.1s0.1-0.2,0.3-0.2c0.2,0,0.4,0,0.6,0c0.3,0.1,0.8,0.1,0.8,0.3
	c0,0,0,0.1-0.1,0.1c-0.1,0-0.3,0.1-0.3,0.1c0.1,0.1,0.2,0.1,0.3,0.2c0.1,0.1,0.6,0.2,0.8,0l0.1-0.1c0.1,0,0.3,0,0.4-0.2
	s-0.2-0.4-0.4-0.5c-0.4-0.2-0.7-0.3-1.1-0.4c-0.2,0-0.4-0.1-0.5-0.1l-0.9-0.2c-0.2-0.1-0.4-0.1-0.6-0.2l-0.2-0.1
	c-0.1-0.1-0.3-0.2-0.4-0.3c-0.1-0.3-0.2-0.6-0.3-0.9c0.2,0.1,0.4,0.2,0.7,0.3c0-0.3,0-0.5,0-0.8c0.1-1.5,0.2-2.3,0.2-2.3l0.3,0.3
	c0-0.5,0-1-0.1-1.5l0,0C185.9,38.5,185.8,38,185.7,37.5L185.7,37.5z M186.7,44.4l0.7,0.2l0.3,0.1c0.1-0.3,0.2-0.7,0.2-1
	c0-0.4,0.9,0.4,1.4,1c0.2,0.2,0.3,0.1,0.1,0c-0.6-0.7-1.2-1.3-2-1.7c-0.6-0.3-0.8-0.3-0.6,0C187.1,43.3,187,43.9,186.7,44.4
	L186.7,44.4z M187.7,50c0.6,0.8,1.7,2.3,2.1,2.7c0.9,0.9,1.2,1,1.9,1c-0.3-1-0.8-1.9-1.4-2.7c-0.7-1.1-1.5-2.2-2.3-3.2
	c0,0.2,0,0.3-0.1,0.4c0,0,0,0.1-0.1,0.1c-0.1,0.3-0.4,0.4-0.7,0.4c-0.2,0-0.3-0.1-0.4-0.2c-0.1,0-0.2,0-0.3-0.1
	c0.1,0.2,0,0.5-0.2,0.7c0,0.3-0.1,0.6-0.3,0.9l0.1,0.1c0.2,0.4,0.1,0.6,0,0.7s-1.1,1.2-1.4,1.4c-0.2,0.1-0.4,0.1-0.6,0l-0.2-0.1
	l-0.5,0.5l0,0l0,0c0.3,0.3,0.7,0.5,1.2,0.7c0.4,0.2,1.5,0.6,2.2,0.9c-0.2-0.6-0.4-1.2-0.6-1.8c0.2,0.3,0.7,1.2,1.2,2l0,0
	c0.7,0.3,1.4,0.6,2,1c-0.1-0.2-0.1-0.3-0.1-0.3c-0.3-0.3-0.6-0.7-0.9-1.1c-0.6-0.9-1.1-1.9-1.5-2.9c0.8,1.3,1.1,1.6,1.4,2.1
	c0.6,1,1.5,1.7,2.6,2.1c-0.1-0.8-0.4-1-0.4-1c-0.4-0.4-0.8-0.8-1.1-1.2c0.1,0.2,0.3,0.4,0,0s-0.1-0.2,0,0
	C188.8,52.1,188.2,51.1,187.7,50L187.7,50z M184.8,57c1.9,0.2,3.8,0.1,5.7-0.3c-1.5-1-3.2-1.9-4.9-2.6c-0.6-0.2-1.2-0.5-1.8-0.8
	c-0.3-0.2-0.6-0.4-0.8-0.7c-0.9-0.8-3.2-3.3-3.6-3.7l-1.6,1.4c1.6,1.7,3.4,3.2,5.2,4.7c1.6,0.7,3.4,1.2,5.1,1.6
	c-1.8-0.2-3.5-0.5-5.1-1.1c-1.3-0.5-5.6-4.7-5.6-4.7l-1,0.9c1.1,1.2,2.2,2.3,3.5,3.3C181.3,56.2,183.1,56.9,184.8,57L184.8,57z
	 M180.4,56.1c0.1,0.6,0.3,1.3,0.8,1.7c0.2-0.3,0.3-0.7,0.4-1.1C181.1,56.6,180.8,56.4,180.4,56.1L180.4,56.1z M173.4,51
	c-0.3,1.1-0.8,2.1-1.5,3c-0.3,0.4-0.6,0.7-0.9,1.1c0,0,0,0.1-0.1,0.3l-0.1,0.1l0.6-0.3l0.3-0.2c0.4-0.2,0.9-0.4,1.3-0.6
	c0.4-0.8,1-1.7,1.1-2c-0.2,0.6-0.4,1.2-0.6,1.8l0.3-0.1c0.7-0.3,1.3-0.5,1.6-0.6c0.3-0.1,0.6-0.3,0.9-0.5l0.2-0.2l-0.5-0.5l-0.2,0.1
	c-0.2,0.1-0.4,0.1-0.6,0c-0.2-0.2-1.2-1.3-1.3-1.4s-0.2-0.3,0-0.7l0,0c-0.2-0.2-0.4-0.6-0.4-0.9c-0.2-0.2-0.2-0.5-0.2-0.7
	c-0.1,0.1-0.2,0.1-0.3,0.1c-0.1,0.1-0.3,0.2-0.4,0.2h-0.1c-0.2,0-0.3,0-0.5-0.1c-0.1-0.1-0.2-0.2-0.2-0.3l0,0
	c-0.7,0.8-1.4,1.7-1.9,2.7c-0.6,0.8-1.1,1.8-1.4,2.7c0.6,0,1-0.1,1.9-1c0.4-0.4,1.4-1.9,2.1-2.7c-0.4,1.1-1,2.1-1.6,3
	c-0.3,0.5-0.7,0.9-1.2,1.3c0,0-0.2,0.2-0.4,1c1.1-0.4,2-1.1,2.6-2.1C172.3,52.7,172.5,52.4,173.4,51L173.4,51z M172.8,46.7
	c-0.3,0.3-0.5,0.7-0.6,1.2c0,0.3,0.2,0.5,0.4,0.5c0,0,0,0,0.1,0c0.4,0,0.2-0.5,0.4-0.2c0.1,0.1,0.4-0.3,0.5-0.4
	c-0.2,0-0.5,0.1-0.4-0.2c0.1-0.2,0.2-0.4,0.3-0.5c0.1-0.1,0.5-0.8,0.7-0.7s0.1,0.7-0.1,1.1c-0.4,0.8-0.4,1.4-0.2,1.5l0,0l0,0
	c-0.1,0.3,0,0.7,0.3,0.8l0,0c-0.1-0.2-0.1-0.4,0-0.6c0,0,0-0.1-0.2-0.2l0,0c0.1,0,0.3,0,0.4,0c0.2,0,0.3-0.1,0.4-0.4v-0.3
	c0-0.4,0.1-0.8,0.2-1.2c0.1-0.4,0.2-1.3,0.2-1.3c0.1,0,0.1,0,0.2,0c0.2,0,0.3,0.1,0.4,0.3c0,0.1,0,0.2,0,0.3
	c0.1-0.1,0.2-0.2,0.2-0.3l0,0l0,0c0.1-0.1,0.2-0.2,0.2-0.3c0.1-0.3-0.3-0.7-0.4-0.7c-0.2-0.2-0.1-0.5-0.1-0.8l0.1-0.3
	c0.1,0.2,0.3,0.3,0.4,0.4c0.3,0.2,0.7,0.3,1.1,0.3c-0.1-0.2-0.1-0.4-0.2-0.7c0-0.3,0-0.6,0-0.9l0.4,0.4c0.2-0.8,0.2-1.5,0.1-2.3
	c-0.1-0.9-0.3-1.8-0.6-2.7c-0.1-0.3-0.2-0.5-0.3-0.8c-0.1,0.2-0.2,0.3-0.3,0.5c-0.5-0.5-0.8-1.1-1.1-1.8c-0.1,0.2-0.2,0.3-0.3,0.4
	l-0.1,0.1v-0.1c-0.1-0.4-0.3-0.7-0.5-1c-0.1-0.2-0.3-0.5-0.3-0.7c-0.1,0.5-0.2,0.9-0.2,1.4c0,0.4-0.1,0.7-0.2,1.1l0.2-0.1
	c0.1-0.1,0.1-0.1,0.2-0.1l0,0c0,0,0,0.1,0,0.1c-0.1,0.6-0.2,1.1-0.3,1.7c-0.1,0.5-0.1,0.9,0,1.4c0.1-0.1,0.3-0.2,0.4-0.3
	c-0.2,0.8-0.2,1.5-0.1,2.3c0,0.3,0,0.5,0,0.8c0.2,0,0.4-0.1,0.6-0.2c-0.1,0.3-0.2,0.6-0.3,0.9c-0.5,0.4-1.1,0.7-1.7,0.8
	c-0.7,0.1-1.4,0.4-2,0.6c-0.2,0.1-0.4,0.3-0.4,0.5s0.3,0.2,0.4,0.2v0.1c0.2,0.2,0.7,0.1,0.8,0c0.2,0,0.3,0,0.5-0.1
	c0,0-0.2,0-0.3-0.1c0,0-0.1,0-0.1-0.1c0-0.3,1.2-0.3,1.4-0.3s0.2,0,0.3,0.2S173.5,46.1,172.8,46.7L172.8,46.7z M173.1,42.8
	c0.2-0.3-0.1-0.4-0.6,0c-0.8,0.5-1.4,1.1-2,1.7c-0.1,0.2-0.1,0.3,0.1,0c0.6-0.6,1.4-1.4,1.4-1c0,0.3,0,0.7,0.2,1l0.3-0.1l0.8-0.2
	C173,43.8,173,43.3,173.1,42.8L173.1,42.8z M171.9,31.4c0.8,1.3,1.3,2.9,1.4,4.4c0.6-1.5-0.4-4.5-1.3-6.2c0,0.3-0.1,0.6-0.2,0.8
	c-0.2-1.9-1.4-3.3-1.6-4.7c0,0.2-0.1,0.4-0.1,0.6c-0.5-0.9-0.9-1.8-1.1-2.7c-0.1,0.2-0.2,0.5-0.2,0.8c-0.6-1.7,0-2.3,0.1-2.4
	c0.5-0.3,1,0.2,1.4,0.6c0.6,0.7,1.3,2.1,3.4,2.2c0.3,0,0.5-0.1,0.3-0.1l0,0c-1.8-0.3-2.1-1-3.5-2.6c-0.9-1-1.8-1.6-2.9-0.3
	c-1.6,1.8-2.7,3.9-3.1,6.3c-0.3,1.3-0.3,2.7-0.1,4.1c0.2-0.1,0.3-0.2,0.3-0.2c0.1,1.2,0.3,2.4,0.8,3.5c0.2-0.5,0.3-1.1,0.3-1.7
	c0.2,0.6,0.5,1.2,0.9,1.8c0.2-0.7,0.2-1.4,0.1-2.1c0.2,0.6,0.5,1.2,1,1.6c0.2-0.5,0.4-1.2,0.2-3.5c0.1,0.7,0.2,1.4,0.3,2.1
	c0.1,0.1,0.3,0.2,0.4,0.3c0.1-0.2,0.3-0.6-0.1-3.5c1,3.2,0.4,4,0.3,4.2c-0.3-0.2-0.5-0.4-0.7-0.6c0,0.6-0.1,1.1-0.3,1.7
	c-0.3-0.2-0.6-0.5-0.8-0.8c0,0.5,0,1.1-0.2,1.6c-0.4-0.4-0.7-0.9-0.9-1.4c0,0.6-0.2,1.2-0.5,1.7c-0.8-1.1-1.1-4.1-1.1-4.1l-0.1,0.1
	c0.1,0.7,0.1,1.9,0.2,3.2l0,0c0.1,1.5,0.3,3.2,0.4,4.7c0.3,3.6,0.7,7.2,1.2,10.8c0,0.3,0.1,0.6,0.2,0.9c0.1-0.9,0.1-1.7,0.1-2.6
	c0.2-0.5,0.3-1.1,0.3-1.6c0-0.4-0.5-6-0.7-8.2c0-0.3,0-0.9,0-0.9s0,0.2,0,0.2c0.2,0.8,0.3,1.7,0.4,2.5c0.1,0.5,0.1,1,0.2,1.6
	c0.2,1.6,0.4,3.2,0.5,4.9c0,0.5-0.1,1.1-0.3,1.6c0.2,1.1,0.1,2.2-0.2,3.3c-0.1,0-0.2-0.1-0.2-0.2c0.1,0.6,0.2,1.2,0.4,1.8
	c0.5-1.2,0.7-2.6,0.5-3.9c0.2-0.6,0.3-1.2,0.4-1.7c0-0.3-0.1-1.4-0.1-2.7c-0.2-2.4-0.4-4.7-0.6-7.1c0-0.1,0-0.4,0-0.4s0,0.2,0.1,0.3
	c0.6,3.1,1,6.2,1.1,9.3c0,0.9-0.2,1.8-0.5,2.6c0.1,0.4,0.1,0.8,0.1,1.3c0,0.3,0,0.6-0.1,0.8c0.2-0.5,1-2.4,0.7-8c0-0.1,0-0.3,0-0.4
	c-0.2-3.9-0.5-6.5-0.5-6.5c0.5,2,0.8,4.1,0.9,6.2l0.1-0.1c0.4-1,0.5-2.1,0.4-3.2c-0.1-2.1-0.4-3.8-0.4-3.8l0.1,0.2
	c0.2,0.6,0.3,1.3,0.5,1.9c0.1,0.7,0.3,1.5,0.3,2.2c0,0.1,0,0.2,0,0.3l0,0c0.8-1.2,0.4-3.5,0.1-6c0.6,1.5,0.9,3,0.8,4.6
	c1.2-1.1,0.5-3.3,0.1-5.8c0.7,1.4,1,3,1,4.5c1-1.2,0.6-2.9-0.3-6.1c0.7,1.3,1.1,2.7,1.3,4.2C173.2,35.9,172.5,33.5,171.9,31.4
	L171.9,31.4z M182.5,38.7c0.4-0.6,0.7-1.3,0.7-2.1c0.1,0.1,0.3,0.3,0.3,0.5c0.5-1,0.8-2.1,1-3.3c0.2,0.1,0,0,0.3,0.2
	c0.4-1,0.6-2.1,0.7-3.2c0.1,0,0.2,0,0.3,0.1c0.1-0.8,0.2-2,0.3-2.9c0.1-1.1,0-2.1-0.3-3.2c-0.2-0.8-0.6-1.5-1-2.2
	c-0.1,0.1-0.2,0.1-0.3,0.2c-0.2-0.6-0.4-1.2-0.7-1.8c-0.5-0.9-0.7-1.5-1.2-1.9c0.2,0,0.4,0.1,0.6,0c-0.3-0.3-0.5-0.6-0.8-0.8
	c0.1-0.1,0.3-0.1,0.7,0c-0.5-0.5-0.7-1.1-2-1.6c0.2,0,0.5,0,0.7,0c-0.3-0.4-0.7-0.7-1.2-0.8c-1.3-0.3-3.1-0.3-3.9,0.7
	c-0.2,0.1-0.3,0.2-0.5,0.2c-0.1,0-0.2,0.1-0.2,0.1c-0.1,0.1-0.2,0.3,0.1,0.7c-0.4,0-0.5-0.4-0.5-0.4c-0.2,0.1-0.3,0.2-0.4,0.4
	c-0.1,0.2-0.2,0.5-0.2,0.7c0.1,0.1,0.3,0.1,0.4,0c0,0,0.1-0.1,0.1-0.2c0-0.1,0.6-0.2,0.8-0.2s0.6,0.1,0.9,0l-0.7,0.2
	c-0.2,0-0.2,0.2,0,0.2s0.2,0,0.4-0.1s0,0.2,0,0.3c1.1-0.2,1.1,0.9,2.3,0.7c-0.5-0.4-1-1.1-1.4-1.3c1.1,0.2,1.7,1.2,2.9,1.2
	c0-0.1-0.1-0.2-0.1-0.3c0.4,0,0.7,0.3,0.8,0.3c-0.3,0.2-0.6,0.3-1,0.4c0.1,0.2,0.5,0.2,0.7,0.2c-0.3,0.3-0.7,0.3-1.1,0.2
	c-0.3,0.4-0.7,0.7-1.2,1c0-0.2,0-0.2,0-0.4c-0.5,0.3-0.9,0.8-1.2,1c0.1-0.2,0.2-0.5,0.3-0.7c-1.2,0.9-2.2,2.1-3.1,3.3
	c-0.6,1.1-0.8,2.4-0.6,3.7c0.1,0.9,0.4,3.5,0.5,4l0.3-0.1c0.4,1.9,1,3.7,1.8,5.4c0.1-0.2,0.2-0.3,0.3-0.4c0.1,0.5,0.3,1,0.8,1.4
	c0-0.2,0.1-0.4,0.2-0.7c0.1,0.4,0,1.5,0.7,2.1c0-0.3,0.1-0.7,0.2-1c0.1,0.4,0.2,0.8,0.3,1.2c0.1,0.4,0.4,0.7,0.7,1
	c0-0.4,0-0.8,0.1-1.2c0.3,0.5,0.5,1,0.5,1.5c0.7-0.5,0.9-2.2,0.9-2.2c0.2,0.2,0.3,0.4,0.3,0.6c0.5-0.6,0.8-1.3,0.9-2
	C182.4,38,182.5,38.3,182.5,38.7z M183.2,47.4c0.4,0,0.9,0,1.3-0.1c0-0.1,0-0.2-0.1-0.2c0-0.1,0-0.1,0-0.2l0,0
	c-0.5,0.1-1,0.2-1.5,0.1c-0.3-0.1-0.4-0.1-0.6-0.2s-0.6,0.3-0.9,0.6l-0.7,0.8c0,0,0,0,0,0.1l3.7,3.4c0.1,0,0.1,0,0.1,0
	s0.4-0.4,0.6-0.6l-3.3-3.1c0,0,0-0.1,0-0.1l0.2-0.2c0,0,0.1,0,0.1,0c0,0,0,0,0,0l1.1,1l1.3,1.3l0.9,0.8l0.1-0.1
	c0.1-0.1,0.1-0.2-0.4-0.7l-2.2-2.2C182.8,47.5,182.9,47.4,183.2,47.4L183.2,47.4z M178.1,48.1l-3.3,3.1l0.6,0.6
	c0.1,0.1,0.1,0.1,0.1,0l3.7-3.4c0,0,0,0,0-0.1c0,0,0,0,0,0c-0.1-0.2-0.5-0.5-0.7-0.8s-0.7-0.7-0.9-0.6c-0.2,0.1-0.4,0.1-0.6,0.2
	c-0.5,0.1-1,0.1-1.5-0.1h-0.1v0.2c0,0.1,0,0.1,0,0.2c0.4,0.1,0.9,0.1,1.4,0.1c0.2,0,0.4,0.1,0.2,0.3l-2.2,2.2
	c-0.4,0.4-0.5,0.5-0.3,0.7s0,0,0.1,0.1l0.9-0.8l1.4-1.2c0,0,1-0.9,1.1-1c0,0,0.1,0,0.1,0l0.2,0.2C178.2,47.9,178.2,48.1,178.1,48.1z
	 M178.4,40.5c0-0.2,0-0.3-0.1-0.4c-0.1-0.1-0.2-0.3-0.4-0.4c0,0-0.1-0.1-0.1-0.2c0,0.2,0,0.4,0.1,0.5c0,0.2,0.1,0.3,0.3,0.4
	C178.3,40.4,178.4,40.5,178.4,40.5L178.4,40.5z M178.4,46.6l0.3,0.3c0.1-0.5,0.1-1,0.1-1.5C178.6,45.8,178.5,46.2,178.4,46.6
	L178.4,46.6z M177.1,46.6c0.2-0.1,0.4-0.2,0.6-0.2h0.1l0,0c0.1-0.4,0.2-0.7,0.4-1.1C177.8,45.7,177.4,46.1,177.1,46.6z M179.5,47.8
	c0-0.4,0-0.9-0.1-1.1c-0.1,0.2-0.2,0.5-0.3,0.8L179.5,47.8z M179.7,44.9c0-0.3-0.2-0.6-0.5-0.8C179.3,44.4,179.5,44.7,179.7,44.9
	L179.7,44.9z M180.1,43.9L180.1,43.9c0.1-0.1,0.2-0.2,0.3-0.3c0.4-0.3,0.9-0.6,1.2-0.9c0.1-0.2,0.2-0.4,0.2-0.6
	c-0.1,0.2-0.3,0.4-0.5,0.5c-0.4,0.2-0.8,0.5-1.1,0.8c-0.1,0.1-0.1,0.2-0.1,0.3c0-0.1,0-0.1-0.1-0.2c-0.2-0.5-0.9-0.7-1.3-1.1
	c-0.3-0.3-0.3-0.4-0.3-0.4c0,0.3,0,0.5,0.2,0.7c0.3,0.3,0.6,0.5,0.9,0.7C179.8,43.6,180,43.7,180.1,43.9L180.1,43.9z M179.6,42.3
	c0-0.7-0.8-0.8-1-1.5C178.6,41.8,179.3,41.8,179.6,42.3L179.6,42.3z M180,45.2c0.1-0.1,0.2-0.1,0.3-0.2c0.2-0.1,0.4-0.3,0.5-0.5
	c0.1-0.2,0.1-0.3,0.1-0.5c-0.1,0.2-0.2,0.3-0.3,0.4c-0.1,0.1-0.3,0.3-0.4,0.4C180.1,45,180.1,45.1,180,45.2L180,45.2z M180.7,45.6
	c0.1,0.4,0.1,1.4,0.1,1.8l0,0l0.4-0.4C181.1,46.5,181,46,180.7,45.6L180.7,45.6z M180.1,48.2c0,0,0.3-0.3,0.4-0.4l0,0
	c0-0.5-0.2-1.1-0.4-1.5C180,46.5,180.1,47.5,180.1,48.2z M180.1,48.5c0,0.2,0,0.4,0,0.5l0.2-0.3C180.4,48.8,180.1,48.6,180.1,48.5z
	 M180.3,49.4c0.4,0.5,1.1,1.1,1.5,1.5l0.4-0.4l-1.6-1.4L180.3,49.4z M182.1,51.3c0.3,0.3,0.7,0.7,1,1c0.2-0.2,0.3-0.3,0.4-0.5
	l-1-0.9L182.1,51.3z M182.4,46.4c-0.3-0.4-0.6-0.8-1-1.1c0.2,0.4,0.3,0.7,0.4,1.1l0,0h0.1c0.1,0,0.1,0,0.2,0c0.1,0,0.1,0,0.2,0
	C182.3,46.4,182.4,46.4,182.4,46.4L182.4,46.4z M182,40.6c-0.2,0.3-0.4,0.5-0.6,0.7c0.1-0.2,0.1-0.3,0.1-0.5
	c-0.2,0.3-0.4,0.6-0.6,0.8c-0.3,0.2-0.5,0.6-0.6,0.9c0.2-0.2,0.4-0.4,0.7-0.5C181.5,41.7,181.9,41.2,182,40.6L182,40.6z M174.8,34.3
	c0,0.7,0.4,1.3,0.9,1.7C175.5,35.3,175.1,34.8,174.8,34.3L174.8,34.3z M186.5,23.9c0.2,0,0.4,0,0.6-0.1c0.1-0.1,0.2-0.1,0.3-0.2
	c1.3-2,3.8-5.1,5.7-7.5c-3.8-3.8-9.3-4-10.7-3.9c-0.3,0-0.7,0.3-0.3,0.8c-0.7,0.1-1.4,0-1.9-0.4c-0.6,0.4-1.2,0.5-1.9,0.4
	c0.4-0.5,0-0.8-0.3-0.8c-1.4-0.1-7.2,0.5-10.7,3.8l6,7.9c0.1,0.1,0.3,0.2,0.5,0.2h0.1c0.2,0,0.5-0.2,0.6-0.4c0.4-0.5,0.6-0.7,1-1.1
	c0.8-0.8,1.5-1.4,1.6-1.5c0.3-0.2,0.4-0.5,0.4-0.8c0-0.3-0.2-0.4-0.4-0.6c0,0,0,0.1-0.1,0.1c-0.1-0.2-0.2-0.4-0.3-0.5l-0.1,0.2
	c0,0-0.3-0.7-0.8-0.7c-0.4,0.1-0.8,0-1.1-0.2c0,0-0.1,0.2-0.1,0.5l0,0c-0.5-0.5-0.5-1.3,0-1.8c0.1-0.1,0.2-0.2,0.3-0.2
	c0.3-0.2,0.6-0.4,1-0.6c0.1-0.1,0.2-0.2,0.3-0.3c0.3-0.3,0.7-0.5,1.1-0.6c0.7-0.2,1.5-0.2,2.2-0.2c0.5,0,0.9,0.1,1.4,0.3
	c0.6,0.3,1.1,0.8,1.5,1.3c0.4,0.7,0.8,1.4,1,2.1l0.9,2.2c0.3,0.8,0.7,1.6,1.2,2.3C186,23.8,186.2,23.9,186.5,23.9L186.5,23.9z
	 M193.4,15.6l0.4-0.5c-2.1-1.8-4.5-3.1-7.2-3.7c-1.5-0.3-2.9-0.5-4.4-0.4c-0.8,0-1.3,0.3-1.3,0.8c-0.5-0.1-0.6-0.7-0.7-0.8
	c-0.1,0.3-0.3,0.8-0.7,0.8c0-0.5-0.5-0.8-1.3-0.8c-1.5,0-3,0.1-4.4,0.4c-2.7,0.6-5.1,1.8-7.1,3.6l0.4,0.5c1.7-1.5,3.7-2.7,5.9-3.3
	c1.7-0.5,3.4-0.7,5.2-0.7c0.9,0,1.1,0.6,1,0.9c0.5,0,0.9-0.2,1.2-0.6c0.3,0.4,0.7,0.6,1.2,0.6c-0.1-0.3,0-0.8,1-0.9
	c1.7,0,3.5,0.2,5.2,0.7C189.7,12.9,191.7,14.1,193.4,15.6L193.4,15.6z M194.4,13.7c0.1,0.7,0.5,1.4,1,1.9c0.1,0.1,0.2,0.1,0.3,0.2
	l0,0c0-1,0.3-1.9,0.8-2.8l0,0c0.8,0.2,1.6,0.2,2.4,0c-1.2-0.8-1-1.8-1.9-2.8c-0.1-0.1-0.2-0.2-0.3-0.3c-0.2-0.2-0.5-0.3-0.8-0.3
	c-0.2,0-0.3,0.1-0.4,0.2c-0.1,0.1-1.4,1.5-2.2,2.5C193.9,12.2,194.1,12.9,194.4,13.7L194.4,13.7z M195.2,9.2
	c-1.1-1.1-2.4-1.9-3.9-2.5c-4.3-1.9-9.7-1.9-11.2-1.9l0,0c-1.6,0-7,0-11.2,1.9c-1.4,0.6-2.7,1.4-3.9,2.5c0,0,1.9,2.2,2.4,2.8
	c0.3,0.3,0.3,0.7,0.2,1c3-2,6.3-3,12.4-3h0.3c5.9,0.1,9.4,1,12.3,3c-0.1-0.3-0.1-0.7,0.2-1C193.3,11.3,195.2,9.2,195.2,9.2
	L195.2,9.2z M164.8,9.8L164.8,9.8c-0.1-0.1-0.4-0.4-1.2,0.1c-1.3,1.1-0.9,2.2-2.3,3.1c0.4,0.1,0.8,0.1,1.2,0.1c0.2,0,0.4,0,0.6,0
	l0.6-0.1l0,0c0.5,0.8,0.7,1.8,0.8,2.8c1.6-0.8,0.9-3.6,2.4-3.5L164.8,9.8z M165.8,15.3c1.2,1.5,2.1,2.7,2.2,3c0.5,0.7,1.1,1.4,1.8,2
	c-0.4-0.7-0.9-1.4-1.4-2.1c-0.8-1.1-1.6-2.2-2.4-3.2C166,15.1,165.9,15.2,165.8,15.3L165.8,15.3z M171.6,25.8c0,1.1,0.2,2.3,0.6,3.4
	C172.3,28,172.1,26.9,171.6,25.8L171.6,25.8z M170.8,24.5c-0.1,0.6-0.1,1.1,0.1,1.7c0.1,0.3,0.2,0.7,0.4,1
	C171.2,26.3,171.1,25.4,170.8,24.5L170.8,24.5z M173.8,34.5c0.2-0.6,0.4-4.6-1.1-6.4C173.2,30.2,173.6,32.3,173.8,34.5L173.8,34.5z
	 M169.4,56.8c1.9,0.4,3.8,0.5,5.7,0.3c1.6-0.2,3.1-0.7,4.5-1.6c-0.3-0.3-0.7-0.6-1.1-1c-0.5,0.4-1,0.7-1.5,1c-1.7,0.6-3.4,1-5.1,1.1
	c1.8-0.4,3.5-0.9,5.2-1.6c0.4-0.3,0.8-0.6,1.2-0.9l-1.3-1.3c-0.2,0.2-0.4,0.4-0.7,0.6c-0.6,0.3-1.2,0.6-1.8,0.8
	C172.6,54.9,171,55.8,169.4,56.8L169.4,56.8z M178.4,56.8c0.1,0.4,0.3,0.7,0.4,1.1c0.5-0.5,0.9-1.2,0.9-1.9
	c-0.1,0.1-0.4,0.3-0.5,0.4C179,56.6,178.7,56.7,178.4,56.8L178.4,56.8z M192.4,18.2l2.1-2.8c-0.1-0.1-0.2-0.2-0.2-0.3
	c-0.8,1-1.5,2-2.2,3c-0.5,0.6-1,1.3-1.4,2C191.2,19.5,191.8,18.9,192.4,18.2z M198.6,11c-0.1,0.2-0.4,0.5-0.4,0.5
	c0.3,0.8,0.9,1.4,1.7,1.8C199.5,12.4,199.1,11.7,198.6,11z M197.7,10.4l0.2,0.3l4.2-5.6c-0.6,0.5-1.3,0.8-2.1,1.2
	c0,0.6-0.1,1.2-0.4,1.7C199.6,8.1,198.8,9.1,197.7,10.4z M162.5,9.6l0.3,0.4c1.7-2.1,3.9-3.7,6.5-4.6c-0.4-0.6-0.3-1.3,0.3-1.8l0,0
	c0.7,0,1.4,0.5,1.5,1.2c2.4-0.6,4.8-0.9,7.3-1c0-1,0.5-1.9,1.4-2.3c0-0.2,0.1-0.3,0.3-0.4l0,0c0.2,0.1,0.3,0.3,0.3,0.5
	c0.9,0.4,1.5,1.3,1.4,2.3c2.5,0.1,4.9,0.4,7.3,1c0.2-0.7,0.8-1.2,1.5-1.2l0,0c0.5,0.4,0.7,1.2,0.3,1.8c2.6,0.9,4.9,2.5,6.6,4.6
	l0.3-0.5c-1.6-1.9-3.7-3.5-6-4.4c0.2-0.6,0.1-1.4-0.4-1.8c0-0.3-0.1-0.5-0.4-0.7l0,0c-0.3,0-0.6,0.1-0.8,0.3
	c-0.7,0.1-1.3,0.5-1.7,1.1c-2-0.5-4.1-0.7-6.1-0.8c0-1-0.6-1.8-1.5-2.2c-0.1-0.3-0.4-0.6-0.8-0.7c-0.4,0.1-0.7,0.3-0.8,0.7
	c-0.9,0.4-1.5,1.3-1.5,2.2c-2.1,0.1-4.1,0.3-6.1,0.8c-0.3-0.6-1-1-1.7-1.1c-0.2-0.2-0.5-0.3-0.8-0.3l0,0c-0.2,0.1-0.4,0.4-0.4,0.7
	c-0.5,0.5-0.7,1.2-0.4,1.8C166.1,6.2,164.1,7.7,162.5,9.6L162.5,9.6z M162.3,10.6c0.1-0.1,0.1-0.2,0.2-0.3l-1.7-2.3
	c-0.3-0.5-0.5-1.1-0.5-1.7c-0.7-0.3-1.4-0.7-2.1-1.2L162.3,10.6z M160.3,13.3c0.5-0.3,0.9-0.6,1.2-1.1c0.2-0.2,0.3-0.5,0.5-0.8
	l-0.4-0.5C161.1,11.6,160.7,12.4,160.3,13.3L160.3,13.3z M156.8,29.4c1.7,1.4,3.6,2.7,5.5,3.8c0.1-5.6,1.5-11,4.2-15.9l-1.1-1.5
	c-0.4,0.4-0.9,0.6-1.4,0.8c0-1.1-0.2-2.1-0.7-3.1c-1,0-2.1-0.1-3.1-0.3C158.2,17.7,157.2,22.7,156.8,29.4z M175.3,60.1L175.3,60.1
	c0.1-0.4,0.6-1.6,0.9-2.2c0-0.1-0.1-0.2-0.1-0.3c-0.4,0.1-0.7,0.1-1.1,0.2s-3.8,0.6-6.4-0.7c0.3-0.2,0.9-0.7,1.7-1.2v-0.2
	c-0.5,0.3-1.1,0.4-1.7,0.4c0-0.5,0.1-1.1,0.3-1.6c-0.3,0.1-0.7,0.1-1.1,0c0.4-1,0.8-1.9,1.3-2.8c0.8-1.4,1.8-2.7,2.9-4
	c0.1-0.3,0.3-0.6,0.5-0.9l0.2-0.2l-0.3-0.2c-0.1,0.1-0.2,0.1-0.3,0.2c-0.2,0.1-0.4,0.2-0.6,0.2c-0.3,0-0.5,0-0.6-0.2l0,0
	c-0.2,0-0.4-0.2-0.5-0.4c0,0,0-0.1,0-0.1c-0.2,0.1-0.3,0.1-0.5-0.1c-0.2-0.2,0.1-1.2,1.2-2.2c0.6-0.6,1.3-1.2,2.1-1.5
	c0.5-0.2,0.8,0.2,0.6,0.5c-0.4,0.5-0.5,1.1-0.2,1.7l0.5-0.2c0.2-0.1,0.3-0.2,0.4-0.3v-0.1l-0.5,0c0.2-0.6-0.1-2,0.1-2.9
	c-0.1,0.1-0.2,0.1-0.3,0.2c-0.1-0.9-0.2-1.9-0.1-2.8c-0.1-0.3-0.3-0.6-0.6-0.8c-0.4,0.9-0.9,1.7-1.5,2.4c-1.1,1-1.9,2.2-2.2,3.7l0,0
	c-0.1,0.4-0.2,0.7-0.4,1c-0.2,0.4-0.3,0.8-0.3,1.2l0,0c0.1,2.1-0.1,4.1-0.4,6.1c-0.1,0.8-0.4,1.5-0.8,2.2l-0.1-0.1
	c-0.2,0.7-0.5,1.5-0.9,2.1c0,0-0.5-1-1.4-8.5c-1-8.2-1.5-16.9-1.5-16.9l0,0c0-1.6,0.2-3.1,0.7-4.6c0.7-1.8,1.7-3.5,3-4.9
	c0.4-0.5,1.1-0.7,1.7-0.5l-0.3-0.5c-0.6-0.8-1.2-1.6-1.8-2.3c-4,7.1-3.9,15.6-3.9,15.6v0.9l-0.7-0.4c-2-1.1-3.8-2.3-5.6-3.7
	c0,0.9-0.1,3.8-0.1,3.8v1.8c0,3.4,0.6,11.7,3.4,17.4c0.9,1.6,2,3.1,3.3,4.4c1.4,1.3,3.1,2.3,4.9,2.9l0.4,0.1
	C170.7,61.4,173.2,61.2,175.3,60.1z M175.1,62.4c0.5-0.5,1.3-0.6,1.9-0.3c0.1-1.3,0.2-2.5,0.4-3.8c-0.2,0.2-0.4,0.4-0.6,0.5
	c-0.1,0-0.1,0-0.2-0.1L175.1,62.4z M183.1,63.2c-0.1-1.8-0.3-3.7-0.6-5.5l-0.1-0.1c-0.1-0.1-0.1-0.1-0.1-0.2c-0.1,0.3-0.2,0.7-0.4,1
	c-0.1,0.3-0.3,0.6-0.5,0.8c-0.5-0.4-1-1-1.2-1.6c-0.3,0.6-0.7,1.2-1.3,1.6c-0.2-0.2-0.4-0.5-0.5-0.8c-0.1-0.2-0.1-0.4-0.2-0.5
	c-0.3,1.8-0.5,3.6-0.6,5.4c-1.6-1-2.5,0-2.2,0.7c0,0.1,0.1,0.1,0.1,0.2c0.2,0.2,0.5,0.4,0.8,0.4c0.7,0,1.3,0.2,1.9,0.4
	c0.9,0.4,1.6,1,2.2,1.8c0.6-0.8,1.3-1.4,2.2-1.8c0.6-0.3,1.3-0.4,1.9-0.4c0.3,0,0.6-0.2,0.8-0.4c0-0.1,0.1-0.1,0.1-0.2
	C185.6,63.2,184.7,62.1,183.1,63.2z M185.5,62.4c0,0-1-2.5-1.5-3.9c-0.1,0.2-0.3,0.3-0.3,0.3c-0.2-0.1-0.4-0.2-0.5-0.4
	c0.2,1.2,0.4,2.5,0.5,3.7C184.2,61.9,185,62,185.5,62.4L185.5,62.4z M203.6,34.2c0-1.1-0.1-3-0.1-3.8c-1.7,1.4-3.5,2.6-5.4,3.7
	l-0.9,0.5v-0.6c0-5.5-1.3-10.9-3.9-15.8c-0.3,0.3-1.1,1.5-2,2.6c0.6-0.1,1.1,0.1,1.5,0.5c1.3,1.4,2.3,3.1,3,4.9
	c0.5,1.5,0.7,3,0.7,4.6l0,0c0,0-0.4,8.6-1.4,16.8c-0.9,7.5-1.4,8.5-1.4,8.5c-0.5-0.6-0.8-1.3-0.9-2.1l-0.1,0.1
	c-0.4-0.7-0.7-1.4-0.8-2.2c-0.3-2-0.4-4.1-0.4-6.1l0,0c0-0.4-0.1-0.8-0.3-1.2c-0.2-0.3-0.3-0.7-0.4-1l0,0c-0.3-1.4-1.1-2.7-2.2-3.7
	c-0.6-0.8-1.1-1.6-1.5-2.5l-0.1,0c-0.3,0.2-0.5,0.6-0.7,0.9c0.2,1,0.2,2,0,3c-0.1-0.1-0.2-0.1-0.2-0.2c0.1,0.9-0.3,1.9-0.1,2.7
	l-0.5-0.1c0,0,0,0.1,0.1,0.1c0.1,0.1,0.2,0.2,0.3,0.2l0.2,0.1l0.5,0.2c0.3-0.6,0.2-1.2-0.2-1.7c-0.2-0.3,0.1-0.7,0.6-0.5
	c0.8,0.4,1.5,0.8,2.2,1.5c1.1,1,1.4,2,1.2,2.2s-0.3,0.1-0.5,0c0,0,0,0.1,0,0.1c-0.1,0.2-0.3,0.4-0.5,0.4l0,0
	c-0.1,0.2-0.3,0.2-0.6,0.2c-0.2,0-0.4-0.1-0.6-0.2c-0.1,0-0.1-0.1-0.2-0.2l-0.2,0.2c1.4,1.7,2.6,3.4,3.7,5.2
	c0.5,0.9,0.9,1.8,1.2,2.8c-0.3,0.1-0.7,0.1-1.1,0c0.2,0.5,0.3,1,0.3,1.6c-0.6,0-1.2-0.1-1.7-0.4c0,0.1,0,0.2,0,0.3l1.4,1
	c-2.6,1.2-6.4,0.7-6.5,0.7l-0.5-0.1l-0.1,0.2c0.3,0.6,0.9,2,1,2.3c1.7,0.9,3.7,1.2,5.6,0.9c0.5-0.1,1-0.2,1.4-0.4
	c1.7-0.7,3.2-1.7,4.5-2.9c1.3-1.2,2.5-2.7,3.4-4.3c2.9-5.6,3.4-14,3.4-17.4C203.6,34.8,203.6,34.2,203.6,34.2L203.6,34.2z"/>
<path class="st3" d="M0.2,39.7h2.9c1.1-0.1,2.1,0.4,2.5,1.4c0.3,1,0.4,2,0.4,3c0,2-0.2,3.2-0.6,3.8C4.9,48.7,4,49,2.3,49H0.2V39.7z
	 M1.4,48.1h1.1c1.7,0,2.3-0.6,2.3-2.8v-1.9c0-1.9-0.6-2.6-1.8-2.6H1.4V48.1z"/>
<path class="st3" d="M8.1,49.1v-9.4h4.8v1H9.3v3h3.4v1H9.3v3.4H13v1H8.1z"/>
<path class="st3" d="M14.7,49.1v-9.4h2.8c1.3,0,2.6,0.5,2.6,2.7c0.1,1.3-0.9,2.5-2.3,2.6c-0.1,0-0.2,0-0.4,0h-1.6v4.1H14.7z
	 M15.9,43.9h1.3c0.8,0.1,1.6-0.5,1.7-1.3c0-0.1,0-0.2,0-0.3c0-1.4-1.1-1.6-1.3-1.6h-1.7V43.9z"/>
<path class="st3" d="M23.3,39.7h1.5l3,9.4h-1.3l-0.7-2.2h-3.6l-0.7,2.2h-1.2L23.3,39.7z M24,40.8L24,40.8l-1.5,5h3L24,40.8z"/>
<path class="st3" d="M30.3,44.7v4.3h-1.2v-9.4h3.2c1.2-0.1,2.2,0.8,2.2,2c0,0.1,0,0.3,0,0.4c0.1,1.1-0.7,2-1.7,2.1l0,0
	c1.1,0.2,1.5,0.5,1.5,2.4c0,0.8,0.1,1.6,0.3,2.4h-1.2c-0.3-1-0.4-2.1-0.3-3.1c0-0.7-0.6-1.2-1.3-1.2c-0.1,0-0.1,0-0.2,0L30.3,44.7z
	 M30.3,43.7h1.8c0.9,0,1.3-0.7,1.3-1.6c0.1-0.7-0.4-1.3-1.1-1.5c-0.1,0-0.2,0-0.2,0h-1.8V43.7z"/>
<path class="st3" d="M41.6,39.7v1h-2.5v8.4h-1.2v-8.3h-2.5v-1L41.6,39.7z"/>
<path class="st3" d="M44,49.1h-1.1v-9.4h1.9l2.3,7.9l0,0l2.4-7.9h2v9.4h-1.2v-8.3l0,0l-2.6,8.3h-1.1L44,40.7l0,0L44,49.1z"/>
<path class="st3" d="M53.7,49.1v-9.4h4.8v1h-3.6v3h3.4v1h-3.4v3.4h3.7v1H53.7z"/>
<path class="st3" d="M66.7,39.7v9.4H65l-3.7-8.1l0,0v8.1h-1.1v-9.4h1.7l3.7,8l0,0v-8H66.7z"/>
<path class="st3" d="M74.1,39.7v1h-2.5v8.4h-1.2v-8.3H68v-1L74.1,39.7z"/>
<path class="st3" d="M78.2,45.6v-3.1c0-1.9,1-3.1,3-3.1c1.5-0.2,2.8,0.9,3,2.4c0,0.2,0,0.4,0,0.6v3.1c0,2.6-1,3.6-3,3.6
	S78.2,48.2,78.2,45.6z M82.9,45.6v-3.1c0-2-1.3-2-1.7-2s-1.7,0.1-1.7,2v3.2c0,2.1,0.6,2.6,1.7,2.6S82.9,47.7,82.9,45.6L82.9,45.6z"
	/>
<path class="st3" d="M86.1,49.1v-9.4h4.7v1h-3.5v3h3.3v1h-3.3v4.4H86.1z"/>
<path class="st3" d="M94.8,49.1v-9.4h4.8v1H96v3h3.4v1H96v3.4h3.7v1H94.8z"/>
<path class="st3" d="M107.8,39.7v9.4h-1.6l-3.7-8.1l0,0v8.1h-1.1v-9.4h1.7l3.7,8l0,0v-8H107.8z"/>
<path class="st3" d="M110,49.1v-9.4h4.8v1h-3.6v3h3.4v1h-3.4v3.4h3.7v1H110z"/>
<path class="st3" d="M117.7,44.7v4.3h-1.2v-9.4h3.2c1.2-0.1,2.2,0.8,2.3,2c0,0.1,0,0.3,0,0.4c0.1,1.1-0.7,2-1.7,2.1l0,0
	c1.1,0.2,1.5,0.5,1.5,2.4c0,0.8,0.2,1.6,0.3,2.4h-1.2c-0.3-1-0.4-2.1-0.4-3.1c0-0.7-0.6-1.2-1.3-1.2c0,0-0.1,0-0.1,0H117.7z
	 M117.7,43.7h1.8c0.9,0,1.3-0.7,1.3-1.6c0.1-0.7-0.4-1.3-1.1-1.4c-0.1,0-0.1,0-0.2,0h-1.8L117.7,43.7z"/>
<path class="st3" d="M128.2,42.2c0-1.1-0.5-1.7-1.7-1.7c-0.4,0-1.7,0.1-1.7,2v3.2c0,2.1,0.6,2.6,1.7,2.6c0.6,0,1.2-0.1,1.7-0.4v-2.7
	h-1.7v-1h2.9v4.6c-0.9,0.5-1.9,0.7-2.9,0.7c-2,0-3-1-3-3.6v-3.2c-0.2-1.5,0.9-2.9,2.4-3.1c0.2,0,0.4,0,0.6,0c2,0,3,0.7,2.9,2.7
	H128.2z"/>
<path class="st3" d="M135.8,39.7h1.2l-2.6,5.8v3.6h-1.2v-3.6l-2.5-5.8h1.3l1.8,4.5L135.8,39.7z"/>
<path class="st3" d="M5.4,28.8c0,0.2,0.1,0.3,0.3,0.3h0.7v1.1H5.5c-0.3,0-0.7-0.1-0.9-0.4c-0.2-0.3-0.4-0.7-0.4-1.1V24
	c-0.3,0.1-0.6,0.3-0.9,0.5c-0.4,0.2-0.7,0.4-1,0.7c-0.3,0.3-0.6,0.6-0.8,1c-0.2,0.4-0.4,0.8-0.4,1.2c-0.1,0.5,0.2,1,0.6,1.3
	c0.6,0.3,1.2,0.5,1.9,0.5l-0.1,1.1c-0.6,0-1.2-0.1-1.8-0.4c-0.4-0.2-0.8-0.4-1.1-0.7c-0.2-0.3-0.4-0.6-0.5-0.9C0,28.1,0,27.7,0,27.4
	c0-0.7,0.2-1.5,0.6-2.1c0.4-0.6,0.9-1.1,1.5-1.5c0.6-0.4,1.1-0.7,1.8-1c0.5-0.2,1-0.4,1.5-0.5L5.4,28.8z M2.8,20.5
	c0,0.2-0.1,0.4-0.2,0.5c-0.3,0.3-0.8,0.3-1.1,0c-0.1-0.1-0.2-0.3-0.2-0.5c0-0.2,0.1-0.4,0.2-0.5c0.3-0.3,0.8-0.3,1,0c0,0,0,0,0,0
	C2.8,20.1,2.8,20.3,2.8,20.5z M5.3,20.5c0,0.2-0.1,0.4-0.2,0.6c-0.1,0.1-0.3,0.2-0.5,0.2c-0.4,0-0.8-0.3-0.8-0.8
	c0-0.2,0.1-0.4,0.2-0.5c0.1-0.1,0.3-0.2,0.5-0.2C5,19.8,5.3,20.1,5.3,20.5L5.3,20.5z"/>
<path class="st3" d="M10.3,30.3h-4c-0.2,0-0.4-0.1-0.5-0.2c-0.1-0.1-0.2-0.2-0.2-0.4c0-0.2,0.1-0.3,0.2-0.4c0.2-0.1,0.3-0.2,0.5-0.2
	h4V30.3z"/>
<path class="st3" d="M14.3,30.3h-4c-0.2,0-0.4-0.1-0.5-0.2c-0.1-0.1-0.2-0.2-0.2-0.4c0-0.2,0.1-0.3,0.2-0.4c0.2-0.1,0.3-0.2,0.5-0.2
	h4V30.3z"/>
<path class="st3" d="M18.2,30.3h-4c-0.2,0-0.4-0.1-0.5-0.2c-0.1-0.1-0.2-0.2-0.2-0.4c0-0.2,0.1-0.3,0.2-0.4c0.2-0.1,0.3-0.2,0.5-0.2
	h4V30.3z"/>
<path class="st3" d="M22.2,30.3h-4c-0.2,0-0.4-0.1-0.5-0.2c-0.1-0.1-0.2-0.2-0.2-0.4c0-0.2,0.1-0.3,0.2-0.4c0.2-0.1,0.3-0.2,0.5-0.2
	h4V30.3z"/>
<path class="st3" d="M22.2,30.3c-0.2,0-0.4-0.1-0.5-0.2c-0.1-0.1-0.2-0.2-0.2-0.4c0-0.2,0.1-0.3,0.2-0.4c0.2-0.1,0.3-0.2,0.5-0.2
	h2.2c-0.9-0.6-1.5-1.6-1.4-2.8c0-0.5,0.1-1,0.3-1.5c0.2-0.4,0.5-0.8,0.9-1.1c0.4-0.3,0.9-0.5,1.4-0.7c0.6-0.2,1.2-0.2,1.8-0.2h0.7
	c0.2,0,0.5,0,0.7,0.1v7.3L22.2,30.3z M24.1,26.4c0,0.7,0.3,1.4,0.9,1.8c0.8,0.6,1.7,0.9,2.7,1v-5.2h-0.2c-0.4,0-0.8,0-1.2,0.1
	c-0.4,0.1-0.7,0.2-1.1,0.4c-0.3,0.2-0.6,0.4-0.8,0.7C24.2,25.6,24.1,26,24.1,26.4z M26.3,20.2c0,0.2-0.1,0.4-0.2,0.5
	c-0.1,0.1-0.3,0.2-0.5,0.2c-0.4,0-0.8-0.3-0.8-0.8c0-0.2,0.1-0.4,0.2-0.5c0.1-0.1,0.3-0.2,0.5-0.2C26,19.4,26.3,19.8,26.3,20.2z
	 M28.8,20.2c0,0.2-0.1,0.4-0.2,0.5c-0.1,0.1-0.3,0.2-0.5,0.2c-0.4,0-0.8-0.3-0.8-0.8c0-0.2,0.1-0.4,0.2-0.5c0.1-0.1,0.3-0.2,0.5-0.2
	c0.2,0,0.4,0.1,0.5,0.2C28.7,19.8,28.8,20,28.8,20.2z"/>
<path class="st3" d="M30.5,30.3V18.7h1.1v10.4h1v1.1H30.5z"/>
<path class="st3" d="M36.6,30.3h-4c-0.2,0-0.4-0.1-0.5-0.2c-0.1-0.1-0.2-0.2-0.2-0.4c0-0.2,0.1-0.3,0.2-0.4c0.2-0.1,0.3-0.2,0.5-0.2
	h4L36.6,30.3z"/>
<path class="st3" d="M40.6,30.3h-4c-0.2,0-0.3-0.1-0.5-0.2c-0.1-0.1-0.2-0.2-0.2-0.4c0-0.2,0.1-0.3,0.2-0.4c0.2-0.1,0.3-0.2,0.5-0.2
	h4L40.6,30.3z"/>
<path class="st3" d="M44.5,30.3h-4c-0.2,0-0.4-0.1-0.6-0.2c-0.1-0.1-0.2-0.2-0.2-0.4c0-0.2,0.1-0.3,0.2-0.4c0.2-0.1,0.4-0.2,0.6-0.2
	h4V30.3z"/>
<path class="st3" d="M48.5,30.3h-4c-0.2,0-0.4-0.1-0.5-0.2c-0.1-0.1-0.2-0.2-0.2-0.4c0-0.2,0.1-0.3,0.2-0.4c0.1-0.1,0.3-0.2,0.5-0.2
	h4V30.3z"/>
<path class="st3" d="M48.5,30.3c-0.2,0-0.4-0.1-0.6-0.2c-0.1-0.1-0.2-0.2-0.2-0.4c0-0.2,0.1-0.3,0.2-0.4c0.2-0.1,0.4-0.2,0.6-0.2
	h1.1V18.7h1.2v8c0.3-0.5,0.7-0.9,1.1-1.3c0.5-0.5,1-0.9,1.6-1.2c0.7-0.4,1.4-0.7,2.2-0.9c0.9-0.2,1.9-0.4,2.8-0.3H59v6.3h1v1.1H48.5
	z M57.8,24.1c-1.1,0.1-2.2,0.3-3.3,0.8c-0.8,0.4-1.5,0.8-2.1,1.4c-0.5,0.5-0.9,1-1.2,1.6c-0.2,0.4-0.4,0.8-0.5,1.3h7V24.1z"/>
<path class="st3" d="M63.9,30.3h-4c-0.2,0-0.4-0.1-0.6-0.2c-0.1-0.1-0.2-0.2-0.2-0.4c0-0.2,0.1-0.3,0.2-0.4c0.2-0.1,0.3-0.2,0.6-0.2
	h4V30.3z"/>
<path class="st3" d="M67.9,30.3h-4c-0.2,0-0.4-0.1-0.6-0.2c-0.1-0.1-0.2-0.2-0.2-0.4c0-0.2,0.1-0.3,0.2-0.4c0.2-0.1,0.3-0.2,0.6-0.2
	h4V30.3z"/>
<path class="st3" d="M71.8,30.3h-4c-0.2,0-0.4-0.1-0.6-0.2c-0.1-0.1-0.2-0.2-0.2-0.4c0-0.2,0.1-0.3,0.2-0.4c0.2-0.1,0.3-0.2,0.6-0.2
	h4V30.3z"/>
<path class="st3" d="M75.8,30.3h-4c-0.2,0-0.4-0.1-0.6-0.2C71.1,30,71,29.9,71,29.7c0-0.2,0.1-0.3,0.2-0.4c0.2-0.1,0.3-0.2,0.6-0.2
	h4V30.3z"/>
<path class="st3" d="M76.8,18.7h1.2v11.6h-2.1c-0.2,0-0.4-0.1-0.6-0.2C75.1,30,75,29.9,75,29.7c0-0.2,0.1-0.3,0.2-0.4
	c0.2-0.1,0.3-0.2,0.6-0.2h1L76.8,18.7z"/>
<path class="st3" d="M79.7,18.7h1.1v11.6h-1.1V18.7z"/>
<path class="st3" d="M91.2,30.3H90c-0.4,0-0.9-0.1-1.3-0.2c-0.5-0.1-0.9-0.3-1.3-0.5c-0.4-0.2-0.8-0.6-1.1-0.9
	c-0.3-0.4-0.5-0.9-0.4-1.4c0-0.5,0.1-1,0.3-1.4c0.2-0.4,0.5-0.8,0.8-1.2c0.3-0.3,0.7-0.7,1.1-0.9c0.4-0.2,0.8-0.5,1.2-0.7
	c0.4-0.2,0.7-0.3,1.1-0.4c0.3-0.1,0.6-0.2,0.8-0.2V30.3z M90.1,29.1V24c-0.3,0.1-0.6,0.3-0.9,0.5c-0.4,0.2-0.7,0.4-1,0.7
	c-0.3,0.3-0.6,0.6-0.8,0.9c-0.2,0.4-0.3,0.8-0.3,1.2c0,0.3,0.1,0.6,0.3,0.8c0.2,0.2,0.4,0.4,0.7,0.6c0.3,0.1,0.6,0.2,0.9,0.3
	c0.3,0.1,0.6,0.1,0.9,0.1L90.1,29.1z M88.9,20.5c0,0.4-0.2,0.8-0.7,0.8c-0.4,0-0.8-0.2-0.8-0.7c0-0.1,0-0.1,0-0.2
	c0-0.2,0.1-0.4,0.2-0.5c0.3-0.3,0.8-0.3,1,0c0,0,0,0,0,0C88.8,20.1,88.9,20.3,88.9,20.5L88.9,20.5z M91.4,20.5
	c0,0.2-0.1,0.5-0.3,0.6c-0.1,0.1-0.3,0.2-0.5,0.2c-0.4,0-0.8-0.3-0.8-0.8c0-0.2,0.1-0.4,0.2-0.5c0.1-0.1,0.3-0.2,0.5-0.2
	C91,19.8,91.3,20.1,91.4,20.5L91.4,20.5z"/>
<path class="st3" d="M94.3,30.8c0,0.5,0,1-0.1,1.5c-0.1,0.5-0.2,0.9-0.4,1.4c-0.2,0.4-0.5,0.8-0.9,1c-0.5,0.3-1,0.4-1.6,0.4v-1.1
	c0.4,0,0.7-0.1,1-0.3c0.2-0.2,0.4-0.4,0.6-0.7c0.1-0.3,0.2-0.7,0.2-1c0-0.4,0-0.8,0-1.1v-7.3h1.2v5.6h1v1.1h-1L94.3,30.8z"/>
<path class="st3" d="M99.3,30.3h-4c-0.2,0-0.4-0.1-0.6-0.2c-0.1-0.1-0.2-0.2-0.2-0.4c0-0.2,0.1-0.3,0.2-0.4c0.2-0.1,0.3-0.2,0.6-0.2
	h4V30.3z"/>
<path class="st3" d="M103.2,30.3h-4c-0.2,0-0.4-0.1-0.6-0.2c-0.1-0.1-0.2-0.2-0.2-0.4c0-0.2,0.1-0.3,0.2-0.4
	c0.2-0.1,0.3-0.2,0.6-0.2h4V30.3z"/>
<path class="st3" d="M107.2,30.3h-4c-0.2,0-0.4-0.1-0.6-0.2c-0.1-0.1-0.2-0.2-0.2-0.4c0-0.2,0.1-0.3,0.2-0.4
	c0.2-0.1,0.3-0.2,0.6-0.2h4V30.3z"/>
<path class="st3" d="M111.2,30.3h-4c-0.2,0-0.4-0.1-0.6-0.2c-0.1-0.1-0.2-0.2-0.2-0.4c0-0.2,0.1-0.3,0.2-0.4
	c0.2-0.1,0.3-0.2,0.6-0.2h4V30.3z"/>
<path class="st3" d="M115.1,30.3h-4c-0.2,0-0.4-0.1-0.6-0.2c-0.1-0.1-0.2-0.2-0.2-0.4c0-0.2,0.1-0.3,0.2-0.4
	c0.2-0.1,0.3-0.2,0.6-0.2h4V30.3z"/>
<path class="st3" d="M119.1,30.3h-4c-0.2,0-0.4-0.1-0.6-0.2c-0.1-0.1-0.2-0.2-0.2-0.4c0-0.2,0.1-0.3,0.2-0.4
	c0.2-0.1,0.3-0.2,0.6-0.2h4V30.3z"/>
<path class="st3" d="M123,30.3h-4c-0.2,0-0.4-0.1-0.6-0.2c-0.1-0.1-0.2-0.2-0.2-0.4c0-0.2,0.1-0.3,0.2-0.4c0.2-0.1,0.3-0.2,0.6-0.2
	h4V30.3z"/>
<path class="st3" d="M125.2,23.5h1.1v6.8H123c-0.2,0-0.4-0.1-0.6-0.2c-0.1-0.1-0.2-0.2-0.2-0.4c0-0.2,0.1-0.3,0.2-0.4
	c0.2-0.1,0.3-0.2,0.6-0.2h2.2V23.5z M126.6,20.8c-0.3-0.1-0.6-0.2-0.9-0.2c-0.2,0-0.3,0-0.5,0.1c-0.1,0.1-0.2,0.2-0.2,0.4
	c0,0.3,0.1,0.5,0.3,0.6c0.2,0.1,0.5,0.2,0.8,0.2h0.6v0.6h-2.9v-0.6h0.9c-0.1-0.1-0.1-0.2-0.2-0.3c-0.1-0.2-0.1-0.3-0.1-0.5
	c0-0.3,0.1-0.6,0.4-0.8c0.2-0.2,0.5-0.3,0.8-0.2c0.4,0,0.8,0.1,1.2,0.2L126.6,20.8z"/>
<path class="st3" d="M128.2,18.7h1.1v11.6h-1.1V18.7z"/>
<path class="st3" d="M130.8,23.7c0.3-0.3,0.7-0.5,1.1-0.7c0.5-0.2,1.1-0.3,1.6-0.3c0.5,0,1.1,0.1,1.6,0.4c0.4,0.2,0.8,0.6,1.1,1
	c0.3,0.4,0.5,0.9,0.6,1.3c0.1,0.5,0.2,1,0.2,1.5c0,0.4,0,0.8-0.1,1.2c-0.1,0.3-0.1,0.7-0.2,1c-0.1,0.3-0.2,0.5-0.3,0.8
	c-0.1,0.2-0.2,0.4-0.2,0.5h-5.4v-1.2h4.7c0.1-0.3,0.2-0.6,0.3-0.9c0.1-0.4,0.2-0.9,0.2-1.3c0-0.4-0.1-0.8-0.2-1.2
	c-0.1-0.4-0.2-0.7-0.5-1c-0.2-0.3-0.5-0.5-0.8-0.7c-0.3-0.2-0.6-0.3-1-0.3c-0.3,0-0.6,0.1-0.9,0.2c-0.4,0.1-0.8,0.3-1.1,0.6
	L130.8,23.7z"/>
</svg>
