<?xml version="1.0" encoding="utf-8"?>
<!-- Generator: Adobe Illustrator 24.2.3, SVG Export Plug-In . SVG Version: 6.00 Build 0)  -->
<svg version="1.1" id="Layer_1" xmlns="http://www.w3.org/2000/svg" xmlns:xlink="http://www.w3.org/1999/xlink" x="0px" y="0px"
	 viewBox="0 0 978.4 333.5" style="enable-background:new 0 0 978.4 333.5;" xml:space="preserve">
<style type="text/css">
	.st0{fill:#FFFFFF;}
	.st1{fill:#E40D2C;}
</style>
<g>
	<path d="M2.3,155.8h14.2c5.9,0,10.1,2.1,12.4,7c1.8,3.9,2.1,13.1,2.1,14.5c0,9.9-0.9,15.5-2.8,18.6c-2.5,3.9-7.1,6-15.2,6H2.3
		V155.8z M8.1,196.8h5.5c8.1,0,11.1-3.1,11.1-13.8v-9.3c0-9.3-2.9-12.7-9-12.7H8.1C8.1,160.9,8.1,196.8,8.1,196.8z"/>
	<polygon points="41.1,201.8 41.1,155.8 64.8,155.8 64.8,160.9 47,160.9 47,175.7 63.5,175.7 63.5,180.8 47,180.8 47,196.8 
		65.2,196.8 65.2,201.8 	"/>
	<path d="M73.7,201.8v-46.1h13.6c6.2,0,12.8,2.3,12.8,13.1c0,10.4-8.1,12.6-12.8,12.6h-7.7v20.3L73.7,201.8L73.7,201.8z M79.6,176.5
		H86c2.4,0,8.1-0.6,8.1-7.8c0-7-5.2-7.7-6.5-7.7h-8.1C79.6,160.9,79.6,176.5,79.6,176.5z"/>
	<path d="M115.6,155.8h7.5l15,46.1h-6.5l-3.3-11h-17.8l-3.4,11h-6L115.6,155.8z M119.2,161.2h-0.1l-7.2,24.5h14.7L119.2,161.2z"/>
	<path d="M149.9,180.7v21.2H144v-46.1h15.9c8.1,0,11,5.7,11,11.5c0,5.4-3,9.6-8.4,10.5v0.1c5.3,0.8,7.2,2.6,7.5,11.9
		c0.1,2,0.7,9.2,1.6,12h-6.1c-1.6-3.2-1.3-9.2-1.8-15.3c-0.5-5.6-4.9-5.8-7-5.8H149.9z M149.9,175.6h8.8c4.2,0,6.2-3.7,6.2-7.7
		c0-3.3-1.6-7-6.2-7h-8.8L149.9,175.6L149.9,175.6z"/>
	<polygon points="205.5,155.8 205.5,160.9 193.3,160.9 193.3,201.8 187.5,201.8 187.5,160.9 175.3,160.9 175.3,155.8 	"/>
	<polygon points="217.1,201.8 211.6,201.8 211.6,155.8 221.1,155.8 232.6,194.5 232.8,194.5 244.6,155.8 254.2,155.8 254.2,201.8 
		248.3,201.8 248.3,160.9 248.2,160.9 235.4,201.8 229.8,201.8 217.2,160.9 217.1,160.9 	"/>
	<polygon points="264.6,201.8 264.6,155.8 288.3,155.8 288.3,160.9 270.5,160.9 270.5,175.7 287.1,175.7 287.1,180.8 270.5,180.8 
		270.5,196.8 288.7,196.8 288.7,201.8 	"/>
	<polygon points="328.3,155.8 328.3,201.8 320.3,201.8 302.2,161.9 302,161.9 302,201.8 296.8,201.8 296.8,155.8 305.1,155.8 
		323,195.2 323.1,195.2 323.1,155.8 	"/>
	<polygon points="364.8,155.8 364.8,160.9 352.7,160.9 352.7,201.8 346.9,201.8 346.9,160.9 334.7,160.9 334.7,155.8 	"/>
	<path d="M384.8,185v-15.1c0-9.2,4.7-15,14.5-15s14.5,5.9,14.5,15V185c0,12.7-4.7,17.8-14.5,17.8C389.5,202.8,384.8,197.8,384.8,185
		 M407.8,185.3v-15.6c0-9.6-6.6-10-8.5-10c-1.8,0-8.5,0.3-8.5,10v15.6c0,10.1,3,12.6,8.5,12.6C404.9,197.9,407.8,195.3,407.8,185.3"
		/>
	<polygon points="423.5,201.8 423.5,155.8 446.3,155.8 446.3,160.9 429.4,160.9 429.4,175.7 445.4,175.7 445.4,180.8 429.4,180.8 
		429.4,201.8 	"/>
	<path d="M486.7,168.5c0.1-2.6-0.1-5.2-1.4-6.7s-4-2-5.2-2c-4.8,0-6.8,2.9-7,3.6c-0.2,0.5-1.4,1.6-1.4,9.6v12.3
		c0,11.3,3.7,12.6,8.2,12.6c1.8,0,7.2-0.6,7.2-9.6h6.1c0.2,14.6-10,14.6-13,14.6c-5.7,0-14.6-0.4-14.6-18.2v-13
		c0-13,5.7-16.7,14.8-16.7c9.1,0,12.6,4.7,12,13.6H486.7z"/>
	<path d="M501.7,155.8h5.9v29.4c0,10.1,3.1,12.6,8.6,12.6s8.6-2.5,8.6-12.6v-29.4h5.9V185c0,12.7-4.7,17.8-14.5,17.8
		c-9.7,0-14.5-5-14.5-17.8v-29.2H501.7z"/>
	<polygon points="540.8,201.8 540.8,155.8 546.7,155.8 546.7,196.8 563.6,196.8 563.6,201.8 	"/>
	<polygon points="591.1,155.8 591.1,160.9 579,160.9 579,201.8 573.1,201.8 573.1,160.9 561.1,160.9 561.1,155.8 	"/>
	<path d="M597,155.8h5.9v29.4c0,10.1,3.1,12.6,8.6,12.6s8.6-2.5,8.6-12.6v-29.4h5.9V185c0,12.7-4.7,17.8-14.5,17.8
		s-14.5-5-14.5-17.8v-29.2H597z"/>
	<path d="M641.8,180.7v21.2h-5.9v-46.1h15.9c8.1,0,11,5.7,11,11.5c0,5.4-3,9.6-8.4,10.5v0.1c5.3,0.8,7.2,2.6,7.5,11.9
		c0.1,2,0.7,9.2,1.6,12h-6.1c-1.7-3.2-1.3-9.2-1.8-15.3c-0.5-5.6-5-5.8-7-5.8C648.6,180.7,641.8,180.7,641.8,180.7z M641.8,175.6
		h8.8c4.2,0,6.2-3.7,6.2-7.7c0-3.3-1.7-7-6.2-7h-8.8C641.8,160.9,641.8,175.6,641.8,175.6z"/>
	<polygon points="671.5,201.8 671.5,155.8 695.3,155.8 695.3,160.9 677.4,160.9 677.4,175.7 694,175.7 694,180.8 677.4,180.8 
		677.4,196.8 695.7,196.8 695.7,201.8 	"/>
	<path d="M330.3,233.7h7.4l15,46h-6.5l-3.3-11h-17.8l-3.4,11h-6L330.3,233.7z M333.9,239.1h-0.1l-7.2,24.5h14.7L333.9,239.1z"/>
	<polygon points="390.7,233.7 390.7,279.6 382.7,279.6 364.5,239.8 364.4,239.8 364.4,279.6 359.2,279.6 359.2,233.7 367.5,233.7 
		385.4,273 385.5,273 385.5,233.7 	"/>
	<path d="M401.5,233.7h14.1c5.8,0,10.1,2.1,12.4,7c1.8,3.9,2.1,13.1,2.1,14.5c0,9.8-0.9,15.5-2.8,18.6c-2.5,4-7.1,6-15.1,6h-10.5
		L401.5,233.7L401.5,233.7z M407.4,274.6h5.5c8.1,0,11.1-3.1,11.1-13.8v-9.3c0-9.3-2.9-12.7-9-12.7h-7.7
		C407.4,238.7,407.4,274.6,407.4,274.6z"/>
	<polygon points="480.3,233.7 480.3,238.7 468.2,238.7 468.2,279.6 462.4,279.6 462.4,238.7 450.2,238.7 450.2,233.7 	"/>
	<path d="M486.2,262.8v-15.1c0-9.2,4.7-15,14.5-15c9.7,0,14.5,5.9,14.5,15v15.1c0,12.7-4.7,17.8-14.5,17.8S486.2,275.6,486.2,262.8
		 M509.1,263.1v-15.6c0-9.6-6.6-10-8.5-10c-1.8,0-8.5,0.3-8.5,10v15.6c0,10.1,3,12.6,8.5,12.6S509.1,273.2,509.1,263.1"/>
	<path d="M525.1,233.7h5.9v29.5c0,10.1,3.1,12.6,8.6,12.6s8.6-2.5,8.6-12.6v-29.5h5.8v29.2c0,12.7-4.7,17.8-14.5,17.8
		c-9.7,0-14.5-5-14.5-17.8L525.1,233.7L525.1,233.7L525.1,233.7z"/>
	<path d="M570,258.5v21.2h-5.9v-46H580c8.1,0,11,5.7,11,11.5c0,5.4-3,9.5-8.4,10.5v0.1c5.3,0.8,7.2,2.6,7.5,11.8
		c0.1,2,0.7,9.2,1.6,12h-6.1c-1.7-3.2-1.3-9.2-1.8-15.3c-0.5-5.6-5-5.9-7-5.9L570,258.5L570,258.5L570,258.5z M570,253.4h8.8
		c4.2,0,6.2-3.7,6.2-7.7c0-3.3-1.7-7-6.2-7H570C570,238.7,570,253.4,570,253.4z"/>
	<rect x="600.4" y="233.7" width="5.9" height="46.1"/>
	<path d="M622,266v1.4c0,6.2,4,8.2,7.7,8.2c4.7,0,8.2-2,8.2-7.4c0-10.2-20.6-9-20.6-22.9c0-8.1,5.8-12.5,13.5-12.5
		c8.4,0,13.2,4.1,12.7,13.4h-6.1c0.1-5-1.5-8.4-7.1-8.4c-3.5,0-7.1,1.8-7.1,6.8c0,10.1,20.6,8.7,20.6,23.3c0,9.7-6.7,12.8-14.3,12.8
		c-13.6,0.1-13.6-10.3-13.4-14.7C616.1,266,622,266,622,266z"/>
	<polygon points="658.4,279.6 652.9,279.6 652.9,233.7 662.4,233.7 674,272.3 674.1,272.3 685.9,233.7 695.6,233.7 695.6,279.6 
		689.7,279.6 689.7,238.7 689.6,238.7 676.7,279.6 671.1,279.6 658.5,238.7 658.4,238.7 	"/>
	<path d="M28.4,102.7c0,1,0.4,1.5,1.3,1.5h3.5v5.6h-4.3c-1.8,0-3.3-0.6-4.5-1.8c-1.1-1.2-1.7-3-1.7-5.3l-0.1-23.6
		c-1.3,0.7-2.8,1.5-4.5,2.4c-1.8,0.9-3.4,2.1-4.9,3.5c-1.5,1.4-2.8,2.9-3.9,4.8c-1.1,1.8-1.6,3.8-1.6,6.1c0,3.2,0.9,5.4,2.9,6.6
		s5,2.1,9.2,2.4l-0.4,5.6c-3.7-0.2-6.6-0.8-8.9-1.8c-2.2-1-4-2.2-5.2-3.6c-1.2-1.4-2.1-2.9-2.5-4.5c-0.4-1.6-0.6-3.2-0.6-4.7
		c0-3.9,1.1-7.4,3.1-10.3c2.1-2.9,4.5-5.4,7.4-7.4s5.7-3.6,8.7-4.8c3-1.2,5.3-2,7.1-2.5L28.4,102.7L28.4,102.7L28.4,102.7z M16,61.8
		c0,1-0.4,1.9-1.1,2.6c-0.7,0.7-1.6,1.1-2.6,1.1s-1.9-0.4-2.6-1.1c-0.7-0.7-1.1-1.6-1.1-2.6s0.4-1.9,1.1-2.6
		c0.7-0.7,1.6-1.1,2.6-1.1s1.9,0.3,2.6,1.1C15.6,60,16,60.8,16,61.8 M28.2,61.8c0,1-0.3,1.9-1.1,2.6c-0.7,0.7-1.6,1.1-2.6,1.1
		s-1.9-0.3-2.6-1.1c-0.7-0.7-1.1-1.6-1.1-2.6s0.4-1.9,1.1-2.6c0.7-0.7,1.6-1.1,2.6-1.1s1.9,0.3,2.6,1.1S28.2,60.8,28.2,61.8"/>
	<path d="M47.7,109.8H33.2c-1.1,0-2-0.4-2.7-0.9c-0.7-0.7-1.1-1.2-1.1-1.8s0.3-1.2,1.1-1.8c0.7-0.7,1.6-0.9,2.7-0.9h14.5
		C47.7,104.3,47.7,109.8,47.7,109.8z"/>
	<path d="M47.7,109.8c-1.1,0-2-0.4-2.7-0.9c-0.7-0.7-1.1-1.2-1.1-1.8s0.3-1.2,1.1-1.8c0.7-0.7,1.6-0.9,2.7-0.9H76
		c-0.7-1.4-1.3-3.3-1.7-5.7c-0.4-2.4-0.7-5.4-0.9-9c-0.2-2.7-0.7-4.8-1.3-6.2c-0.7-1.5-1.4-2.7-2.4-3.4c-0.9-0.8-1.9-1.2-3-1.5
		c-1.1-0.2-2.2-0.3-3.2-0.3c-2.5,0-5.1,0.9-7.8,2.6l-3.5-4.4c1.4-1,3-1.9,5-2.6c1.9-0.8,4.1-1.1,6.4-1.1c4.8,0,8.4,1.4,10.9,4.1
		c2.5,2.8,4,6.9,4.5,12.4c0.4,4.9,0.9,8.4,1.3,10.6c0.4,2.2,1.4,3.5,2.8,3.9l3,0.9l-0.2,5.4C85.9,109.8,47.7,109.8,47.7,109.8z"/>
	<polygon points="93.9,109.8 93.9,53.2 99.5,53.2 99.5,104.2 104.3,104.2 104.3,109.8 	"/>
	<path d="M113.9,109.8h-9.6c-1.1,0-2-0.4-2.7-0.9c-0.7-0.7-1.1-1.2-1.1-1.8s0.3-1.2,1.1-1.8c0.7-0.7,1.6-0.9,2.7-0.9h9.6V109.8z"/>
	<path d="M113.9,109.8c-1.1,0-2-0.4-2.7-0.9c-0.7-0.7-1.1-1.2-1.1-1.8s0.3-1.2,1.1-1.8c0.7-0.7,1.6-0.9,2.7-0.9h14.6V76.8h5.6v27.5
		h4.8v5.6L113.9,109.8L113.9,109.8L113.9,109.8z M120.1,125.1c-1,0-1.9-0.4-2.6-1.1s-1.1-1.6-1.1-2.6s0.3-1.9,1.1-2.6
		s1.6-1.1,2.6-1.1s1.9,0.4,2.6,1.1c0.7,0.7,1.1,1.6,1.1,2.6s-0.4,1.9-1.1,2.6C122,124.8,121.2,125.1,120.1,125.1 M131.2,125.1
		c-1,0-1.9-0.4-2.6-1.1s-1.1-1.6-1.1-2.6s0.4-1.9,1.1-2.6s1.6-1.1,2.6-1.1s1.9,0.4,2.6,1.1c0.7,0.7,1.1,1.6,1.1,2.6
		s-0.4,1.9-1.1,2.6C133,124.8,132.2,125.1,131.2,125.1"/>
	<path d="M150.8,109.8H139c-1.1,0-2-0.4-2.7-0.9c-0.7-0.7-1.1-1.2-1.1-1.8s0.4-1.2,1.1-1.8c0.7-0.7,1.6-0.9,2.7-0.9h11.8V109.8z"/>
	<path d="M196.3,104.2v5.6h-45.4c-1.1,0-2-0.3-2.7-0.9c-0.7-0.6-1.1-1.2-1.1-1.8c0-0.6,0.4-1.2,1.1-1.8c0.7-0.6,1.6-0.9,2.7-0.9h1.5
		c2.4,0,3.8-0.3,4.2-0.8c0.5-0.5,0.7-1.4,0.7-2.6V76.3h5.6v27.9h9V76.3h5.6v27.9h8.1V76.3h5.8v27.9L196.3,104.2L196.3,104.2
		L196.3,104.2z"/>
	<path d="M215.7,109.8h-19.4c-1.1,0-2-0.4-2.7-0.9c-0.7-0.7-1.1-1.2-1.1-1.8s0.4-1.2,1.1-1.8c0.7-0.7,1.6-0.9,2.7-0.9h19.4V109.8z"
		/>
	<path d="M220.5,52.8h5.6v57h-10.4c-1.1,0-2-0.4-2.7-1c-0.7-0.7-1.1-1.2-1.1-1.8c0-0.6,0.4-1.2,1.1-1.8c0.7-0.7,1.6-0.9,2.7-0.9h4.8
		L220.5,52.8L220.5,52.8z"/>
	<rect x="234.8" y="53.2" width="5.6" height="56.7"/>
	<path d="M274.7,112.6c0,2.6-0.2,5.1-0.5,7.6s-1.1,4.6-2.1,6.5c-1,1.9-2.5,3.5-4.4,4.7c-1.9,1.2-4.4,1.8-7.6,1.8v-5.6
		c2.2,0,4-0.5,5.2-1.4c1.2-0.9,2.1-2.1,2.7-3.7s0.9-3.3,1-5.2c0.1-2,0.2-4.1,0.2-6.2v-1.2h-3c-5.8,0-10.4-1.3-13.6-3.9
		s-4.8-6.1-4.8-10.4c0-3,0.6-5.8,2-8.5c1.3-2.6,3.2-5,5.6-7.1c2.4-2.1,5.2-3.7,8.5-5s6.9-2.1,10.9-2.5L274.7,112.6L274.7,112.6
		L274.7,112.6z M269.1,104.2v-25c-4.8,1.3-8.6,3.4-11.4,6.2c-2.9,2.8-4.3,6.2-4.3,10c0,2.7,1.1,4.9,3.2,6.5
		c2.2,1.6,5.6,2.4,10.3,2.4H269.1z"/>
	<path d="M325.8,102.7c0,1,0.4,1.5,1.3,1.5h3.5v5.6h-4.3c-1.8,0-3.3-0.6-4.5-1.8c-1.1-1.2-1.7-3-1.7-5.3L320,79.1
		c-1.3,0.7-2.8,1.5-4.5,2.4c-1.8,0.9-3.4,2.1-4.9,3.5c-1.5,1.4-2.8,2.9-3.9,4.8c-1.1,1.8-1.6,3.8-1.6,6.1c0,3.2,0.9,5.4,2.9,6.6
		s5,2.1,9.2,2.4l-0.4,5.6c-3.7-0.2-6.6-0.8-8.9-1.8c-2.2-1-4-2.2-5.2-3.6c-1.2-1.4-2.1-2.9-2.5-4.5c-0.4-1.6-0.6-3.2-0.6-4.7
		c0-3.9,1.1-7.4,3.1-10.3c2.1-2.9,4.5-5.4,7.4-7.4s5.7-3.6,8.7-4.8c3-1.2,5.3-2,7.1-2.5L325.8,102.7L325.8,102.7L325.8,102.7z
		 M313.4,61.8c0,1-0.4,1.9-1.1,2.6c-0.7,0.7-1.6,1.1-2.6,1.1s-1.9-0.4-2.6-1.1c-0.7-0.7-1.1-1.6-1.1-2.6s0.4-1.9,1.1-2.6
		s1.6-1.1,2.6-1.1s1.9,0.3,2.6,1.1C313,60,313.4,60.8,313.4,61.8 M325.6,61.8c0,1-0.4,1.9-1.1,2.6c-0.7,0.7-1.6,1.1-2.6,1.1
		s-1.9-0.4-2.6-1.1c-0.7-0.7-1.1-1.6-1.1-2.6s0.4-1.9,1.1-2.6s1.6-1.1,2.6-1.1s1.9,0.3,2.6,1.1C325.2,60,325.6,60.8,325.6,61.8"/>
	<path d="M345.1,109.8h-14.5c-1.1,0-2-0.4-2.7-0.9c-0.7-0.7-1.1-1.2-1.1-1.8s0.4-1.2,1.1-1.8c0.7-0.7,1.6-0.9,2.7-0.9h14.5V109.8z"
		/>
	<path d="M345.1,109.8c-1.1,0-2-0.4-2.7-0.9c-0.7-0.7-1.1-1.2-1.1-1.8s0.4-1.2,1.1-1.8c0.7-0.7,1.6-0.9,2.7-0.9h10.8
		c-4.7-3.2-7-7.7-7-13.5c0-2.7,0.5-5.2,1.6-7.3c1.1-2.1,2.5-3.9,4.5-5.4c2-1.5,4.2-2.6,6.9-3.4c2.6-0.8,5.6-1.1,8.8-1.1
		c1.2,0,2.3,0.1,3.2,0.1s2.1,0.2,3.5,0.4v35.7L345.1,109.8L345.1,109.8L345.1,109.8z M354.5,90.9c0,3.5,1.4,6.5,4.2,8.8
		s7.1,3.9,13,4.7V79.2h-0.4c-0.1,0-0.2,0-0.4-0.1c-0.1-0.1-0.2-0.1-0.3-0.1c-2,0-3.9,0.2-5.8,0.5c-2,0.3-3.7,0.9-5.2,1.8
		c-1.5,0.9-2.8,2.1-3.7,3.6C355,86.4,354.5,88.4,354.5,90.9 M372.1,60.3c0,1-0.4,1.9-1.1,2.6c-0.7,0.7-1.6,1.1-2.6,1.1
		s-1.9-0.3-2.6-1.1c-0.7-0.7-1.1-1.6-1.1-2.6s0.4-1.9,1.1-2.6c0.7-0.7,1.6-1.1,2.6-1.1s1.9,0.3,2.6,1.1
		C371.8,58.4,372.1,59.3,372.1,60.3"/>
	<polygon points="386.1,109.8 386.1,53.2 391.7,53.2 391.7,104.2 396.5,104.2 396.5,109.8 	"/>
	<path d="M415.9,109.8h-19.4c-1.1,0-2-0.4-2.7-0.9c-0.7-0.7-1.1-1.2-1.1-1.8s0.4-1.2,1.1-1.8c0.7-0.7,1.6-0.9,2.7-0.9h19.4V109.8z"
		/>
	<path d="M415.9,109.8c-1.1,0-2-0.4-2.7-0.9c-0.7-0.7-1.1-1.2-1.1-1.8s0.4-1.2,1.1-1.8c0.7-0.7,1.6-0.9,2.7-0.9h7.8
		c-1.2-1.7-2.2-3.5-2.9-5.7c-0.7-2.2-1.1-4.5-1.1-6.9c0-2.5,0.4-4.9,1.1-7.1c0.8-2.2,1.8-4.2,3.1-5.9c1.4-1.7,2.9-3,4.7-4
		c1.8-0.9,3.7-1.5,5.7-1.5c2,0,3.9,0.5,5.7,1.5c1.8,0.9,3.3,2.3,4.7,4c1.4,1.7,2.4,3.7,3.1,5.9c0.8,2.2,1.1,4.6,1.1,7.1
		c0,2.5-0.4,4.8-1.1,6.9c-0.7,2.2-1.7,4.1-2.9,5.7h7.8v5.6L415.9,109.8L415.9,109.8L415.9,109.8z M431.9,63c0,1-0.4,1.9-1.1,2.6
		c-0.7,0.7-1.6,1.1-2.6,1.1s-1.9-0.3-2.6-1.1c-0.7-0.7-1.1-1.5-1.1-2.6c0-1,0.4-1.9,1.1-2.7c0.7-0.7,1.6-1.1,2.6-1.1
		s1.9,0.3,2.6,1.1C431.5,61,431.9,61.9,431.9,63 M425.3,91.5c0,3.2,0.8,6.1,2.2,8.4c1.5,2.4,3.4,3.8,5.6,4.2h2.2
		c2.2-0.4,4.1-1.8,5.6-4.2c1.5-2.4,2.2-5.2,2.2-8.4c0-1.7-0.2-3.4-0.7-4.9c-0.5-1.5-1.1-2.9-2-4.1c-0.8-1.2-1.8-2.1-2.8-2.8
		c-1.1-0.7-2.2-1-3.5-1c-1.2,0-2.4,0.4-3.5,1c-1.1,0.7-2.1,1.6-2.9,2.8c-0.8,1.2-1.5,2.5-2,4.1C425.6,88.1,425.3,89.8,425.3,91.5
		 M444.1,63c0,1-0.4,1.9-1.1,2.6c-0.7,0.7-1.6,1.1-2.6,1.1s-1.9-0.3-2.6-1.1c-0.7-0.7-1.1-1.5-1.1-2.6c0-1,0.4-1.9,1.1-2.7
		c0.7-0.7,1.6-1.1,2.6-1.1s1.9,0.3,2.6,1.1C443.7,61,444.1,61.9,444.1,63"/>
	<path d="M462.3,109.8h-9.6c-1.1,0-2-0.4-2.7-0.9c-0.7-0.7-1.1-1.2-1.1-1.8s0.4-1.2,1.1-1.8c0.7-0.7,1.6-0.9,2.7-0.9h9.6V109.8z"/>
	<path d="M462.3,109.8c-1.1,0-2-0.4-2.7-0.9c-0.7-0.7-1.1-1.2-1.1-1.8s0.4-1.2,1.1-1.8c0.7-0.7,1.6-0.9,2.7-0.9h14.6V76.8h5.6v27.5
		h4.8v5.6L462.3,109.8L462.3,109.8L462.3,109.8z M468.5,70.6c-1,0-1.9-0.3-2.6-1.1c-0.7-0.7-1.1-1.6-1.1-2.6s0.4-1.9,1.1-2.6
		c0.7-0.7,1.6-1.1,2.6-1.1s1.9,0.3,2.6,1.1c0.7,0.7,1.1,1.6,1.1,2.6s-0.4,1.9-1.1,2.6C470.4,70.3,469.6,70.6,468.5,70.6 M477.7,58.1
		c0,1-0.4,1.9-1.1,2.7c-0.7,0.8-1.6,1.1-2.6,1.1s-1.9-0.3-2.6-1.1c-0.7-0.8-1.1-1.7-1.1-2.7s0.4-1.8,1.1-2.5s1.6-1,2.6-1
		s1.9,0.3,2.6,1C477.4,56.3,477.7,57.1,477.7,58.1 M479.6,70.6c-1,0-1.9-0.3-2.6-1.1c-0.7-0.7-1.1-1.6-1.1-2.6s0.4-1.9,1.1-2.6
		c0.7-0.7,1.6-1.1,2.6-1.1s1.9,0.3,2.6,1.1c0.7,0.7,1.1,1.6,1.1,2.6s-0.4,1.9-1.1,2.6C481.5,70.3,480.6,70.6,479.6,70.6"/>
	<path d="M506.9,109.8h-19.4c-1.1,0-2-0.4-2.7-0.9c-0.7-0.7-1.1-1.2-1.1-1.8s0.4-1.2,1.1-1.8c0.7-0.7,1.6-0.9,2.7-0.9h19.4V109.8z"
		/>
	<path d="M511.7,52.8h5.6v57h-10.4c-1.1,0-2-0.4-2.7-1c-0.7-0.7-1.1-1.2-1.1-1.8c0-0.6,0.3-1.2,1.1-1.8c0.7-0.7,1.6-0.9,2.7-0.9h4.8
		L511.7,52.8L511.7,52.8z"/>
	<rect x="526" y="53.2" width="5.6" height="56.7"/>
	<path d="M582.5,109.8h-6c-1.9,0-4-0.2-6.3-0.8s-4.5-1.3-6.6-2.5c-2.1-1.1-3.8-2.7-5.2-4.6c-1.4-1.9-2.1-4.2-2.1-7.1
		c0-2.6,0.5-4.9,1.5-7.1c1-2.1,2.3-4,3.9-5.7c1.6-1.7,3.4-3.2,5.4-4.5c2-1.3,4-2.4,5.9-3.3s3.8-1.6,5.4-2.2c1.7-0.5,3.1-0.9,4.1-1.1
		C582.5,71.1,582.5,109.8,582.5,109.8z M576.9,104V79c-1.3,0.6-2.8,1.4-4.5,2.2c-1.7,0.9-3.4,2.1-4.8,3.4c-1.5,1.4-2.8,2.8-3.9,4.6
		c-1.1,1.7-1.6,3.7-1.6,5.8c0,1.6,0.5,3.1,1.4,4.2c0.9,1.2,2.1,2.1,3.5,2.8c1.4,0.7,3,1.2,4.7,1.5c1.7,0.3,3.2,0.4,4.7,0.4
		L576.9,104L576.9,104L576.9,104z M571.1,61.8c0,1-0.3,1.9-1.1,2.6c-0.7,0.7-1.6,1.1-2.6,1.1s-1.9-0.4-2.6-1.1
		c-0.7-0.7-1.1-1.6-1.1-2.6s0.3-1.9,1.1-2.6c0.7-0.7,1.6-1.1,2.6-1.1s1.9,0.3,2.6,1.1C570.7,60,571.1,60.8,571.1,61.8 M583.2,61.8
		c0,1-0.3,1.9-1.1,2.6c-0.7,0.7-1.6,1.1-2.6,1.1s-1.9-0.4-2.6-1.1c-0.7-0.7-1.1-1.6-1.1-2.6s0.3-1.9,1.1-2.6
		c0.7-0.7,1.6-1.1,2.6-1.1s1.9,0.3,2.6,1.1C582.9,60,583.2,60.8,583.2,61.8"/>
	<path d="M597.8,112.3c0,2.4-0.1,4.8-0.4,7.2c-0.3,2.4-0.9,4.7-2,6.7c-1,2-2.5,3.7-4.4,4.9c-2,1.2-4.5,1.9-7.9,1.9v-5.6
		c2.1,0,3.7-0.4,5-1.3c1.2-0.9,2.1-2,2.8-3.4c0.6-1.4,1-3,1.1-4.8c0.1-1.8,0.2-3.7,0.2-5.6V76.6h5.6v27.6h4.8v5.6h-4.8V112.3z"/>
	<path d="M612.3,109.8h-9.6c-1.1,0-2-0.4-2.7-0.9c-0.7-0.7-1.1-1.2-1.1-1.8s0.3-1.2,1.1-1.8c0.7-0.7,1.6-0.9,2.7-0.9h9.6V109.8z"/>
	<path d="M626.8,109.8h-14.5c-1.1,0-2-0.4-2.7-0.9c-0.7-0.7-1.1-1.2-1.1-1.8s0.3-1.2,1.1-1.8c0.7-0.7,1.6-0.9,2.7-0.9h14.5V109.8z"
		/>
	<path d="M637.6,76.6h5.6v33.2h-16.4c-1.1,0-2-0.3-2.7-0.9c-0.7-0.7-1.1-1.2-1.1-1.8c0-0.6,0.3-1.2,1.1-1.8c0.7-0.7,1.6-0.9,2.7-0.9
		h10.8L637.6,76.6L637.6,76.6z M644.4,63.3c-1.7-0.7-3.2-1.1-4.7-1.1c-0.9,0-1.7,0.2-2.2,0.5c-0.6,0.3-0.9,1-0.9,2
		c0,1.4,0.5,2.4,1.6,3c1.1,0.6,2.4,0.9,4,0.9h2.7v2.8h-14.5v-2.8h4.7c-0.3-0.1-0.6-0.6-0.9-1.4s-0.4-1.6-0.4-2.5
		c0-2,0.6-3.4,1.8-4.1c1.2-0.8,2.5-1.2,4-1.2c2,0,3.9,0.4,5.8,1.2L644.4,63.3z"/>
	<rect x="651.9" y="53.2" width="5.6" height="56.7"/>
	<path d="M664.9,77.7c1.4-1.2,3.2-2.4,5.5-3.5c2.2-1.1,4.9-1.6,8-1.6c2.9,0,5.4,0.6,7.5,1.8c2.2,1.2,4,2.8,5.4,4.7
		c1.4,1.9,2.5,4.1,3.2,6.6c0.7,2.5,1.1,5,1.1,7.6c0,1.9-0.2,3.8-0.5,5.6c-0.3,1.8-0.7,3.4-1.2,4.8s-0.9,2.6-1.4,3.7
		c-0.5,1.1-0.9,1.8-1.2,2.3h-26.7v-5.6h23.2c0.4-1.1,0.9-2.5,1.4-4.3c0.5-1.8,0.8-4,0.8-6.6c0-2-0.3-3.9-0.8-5.8
		c-0.5-1.8-1.3-3.4-2.2-4.8s-2.2-2.5-3.7-3.3c-1.5-0.8-3.1-1.2-4.9-1.2c-1.5,0-3.1,0.3-4.7,0.8c-1.6,0.5-3.4,1.5-5.4,2.9L664.9,77.7
		z"/>
	<path class="st0" d="M978.4,166.2c0.6-62.8-13.2-97.9-25.2-115.2c4.1-5.4,6.6-8.7,6.8-8.8c1.2-1.2,3.3-3.1,7.5-3.7
		c1.2-8.3,4.2-18.1,4.2-18.1s-8.2,6-16,9.3c0.6,4.2-0.5,6.7-1.5,8.2c-0.2,0.2-2.1,2.8-5.2,7c-5.2-6.1-11.4-11.7-20.3-16.9
		c-2.1-1.2-4.4-2.4-6.9-3.5c0.2-3.4-1-6.5-3.2-8.8c-0.1-2-1.7-4.4-3.7-5.1l0,0c-2.1-0.5-5.1,0.4-6.6,1.8c-3.4,0.5-6.5,2.2-9,4.8
		c-7.3-1.5-15.6-2.7-25.2-3.3c-1.1-4.7-4.1-8-7.8-9.9c-0.9-2-3.8-4.1-6.1-4.2l0,0l0,0l0,0c-2.4,0.1-5.2,2.2-6.1,4.2
		c-3.7,1.8-6.7,5.2-7.8,9.9c-9.5,0.6-17.9,1.8-25.2,3.3c-2.4-2.6-5.6-4.4-9-4.8c-1.5-1.4-4.5-2.4-6.6-1.8l0,0
		c-2,0.8-3.6,3.2-3.7,5.1c-2.2,2.2-3.4,5.4-3.2,8.8c-2.5,1.1-4.8,2.3-6.9,3.5c-8.9,5.1-14.6,10-19.9,16.6c-2.9-3.8-4.6-6.1-4.8-6.4
		c-1.1-1.5-2.1-4.1-1.5-8.2c-7.7-3.4-16-9.3-16-9.3s3.1,9.9,4.2,18.1c4.2,0.6,6.4,2.5,7.5,3.7c0.2,0.2,2.4,3.1,6,7.8
		c-12,17.2-26,52.6-25.4,115.7c0.1,5.8-2.4,60.6,15.4,97.5c2,3.7,7.4,13.7,17.1,22.8c8.1,7.6,17.6,13,28.4,15.9
		c0.3,0.1,1,0.2,1.3,0.4c13.4,3.7,24.9,1.5,29.6-1.1l-0.7,1.6c-0.2,0.4-0.5,1.1-0.6,1.5c-2.5,6.8-0.8,13.8,8.3,14.9
		c2.4,0.3,5.1,0.4,8.3,1.9c2.2,1.1,4.7,2.7,7.4,5.5c1.2,1.2,3.5,4.2,4.7,6.6l0,0l0,0c1.2-2.4,3.5-5.4,4.7-6.6
		c2.7-2.8,5.2-4.5,7.4-5.5c3.2-1.5,5.9-1.6,8.3-1.9c9.2-1.1,10.9-8.1,8.4-14.9c-0.1-0.4-0.4-1.1-0.6-1.5c-0.2-0.4-0.7-1.6-0.7-1.6
		c6.4,3.7,25.9,6.5,44.7-5.4c12.8-8.1,22.2-17.4,29.8-32.2C980.9,227,978.4,171.2,978.4,166.2 M895.5,115.6
		c-0.2,0.3-0.4,0.7-1.3,1.2c-0.9,0.6-2,0.8-3.1,0.7c-1.4-0.1-2.2-0.5-3-1.5c-2.1-3-3.5-6-5.7-11.2c-2-4.7-1.6-3.9-4.5-10.9
		c-1.4-3.4-3.8-8.6-5.2-10.4c-2.1-2.8-6-5.7-7.4-6.2c-1.7-0.7-4.1-1.3-6.7-1.4c-4.5-0.2-9.1,0.4-11,0.9c-1.5,0.4-4.2,1.3-5.5,2.9
		c-0.2,0.2-0.8,1.1-1.7,1.4c-2,0.9-2.4,0.9-5,2.7c-4.1,3-3.5,7.7-1.4,9.6c0,0,0.1,0.1,0.1,0.1c-0.1-1.2,0.1-2.2,0.2-2.2
		c0.2,0.1,2.2,1.4,5.4,1c2.3-0.3,3.7,3.2,3.7,3.2l0.3-1c0,0,0.7,2.2,1.4,2.7c0.1-0.1,0.3-0.4,0.3-0.5c0.7,0.9,1.8,1.4,1.9,2.8
		c-0.1,1.2-0.6,2.5-2.2,3.9c-0.6,0.6-4.2,3.5-8.1,7.5c-2,2.1-3,3.3-5,5.5c-1.1,1.1-2,1.8-3.1,1.9c-0.2,0-0.3,0-0.5,0
		c-1.2,0-2.2-0.6-2.5-1.1c-0.4-0.5-20-26.4-29.4-38.9c17-16.6,45.3-19.3,52.3-18.9c1.7,0.1,3.5,1.4,1.4,4.1c1.5,0.7,7.2,0.2,9.4-1.8
		c2.1,2,7.8,2.5,9.4,1.8c-2.1-2.7-0.2-4,1.5-4.1c7-0.5,33.8,0.8,52.5,19.3C914.3,90.7,902.1,106,895.5,115.6"/>
	<path class="st1" d="M974.6,149c-5.2,4.2-10.2,8.6-26.5,17.9l-4.2,2.3v-3.1c0-0.4,1.2-41.8-19-77.6c-1.3,1.7-5.5,7.1-9.8,12.6
		c2.6-0.3,5.2,0.4,7.5,2.7c4.2,4.1,11,14,14.9,24.1c2.1,6.4,3.8,15.1,3.4,22.6l0,0c0,0-2.4,42.2-7.2,82.7
		c-4.4,36.7-6.8,41.6-6.8,41.6c-2.8-3.4-4-7.7-4.7-10.1l-0.4,0.4c0,0-2.6-3.7-4.1-10.9c-1.8-8.2-2.1-23-1.9-30.1v0.1
		c0,0,0.1-2.1-1.6-5.7c-0.8-1.7-1.4-3.4-1.9-5.1v-0.1c-2.7-11.3-7.8-14.5-10.7-18c-3.4-4.2-6-8.6-7.5-12.3c-0.1,0.1-0.2,0.1-0.3,0.2
		c-1.9,1.8-3.3,3.7-3.4,4.7c0.7,6.6,1.2,11.3,0.3,14.7c-0.4-0.2-1.1-0.9-1.4-1.1c0.5,4.4-1.6,9.4-0.3,13.4l-2.6-0.4
		c0.1,0.3,0.2,0.5,0.3,0.6c0.3,0.5,0.7,0.8,1.3,1.1c0.1,0.1,0.7,0.3,0.8,0.4c0.2,0.1,0.9,0.4,2.7,0.9c1.5-3.3,0.3-6.4-1.1-8.2
		c-1.2-1.5,0.2-3.7,2.8-2.5c3.3,1.5,6.8,3.5,10.6,7.1c5.4,5.1,7,10.1,5.8,11c-0.9,0.8-1.5,0.6-2.7,0.2c0,0.2,0,0.4-0.1,0.6
		c-0.3,1-1.1,1.6-2.3,2l-0.1,0.2c-0.6,0.8-1.5,1.1-3.1,1.1c-1.4,0-3-0.8-3.1-0.9c-0.3-0.1-0.7-0.4-1.1-0.8c-0.3,0.2-0.7,0.5-0.9,0.8
		c4.2,5.7,12.4,15.2,18.3,25.7c4.2,7.4,6.1,13.7,6.1,13.7s-2.2,0.7-5.1,0.1c1.1,3,1.6,5.6,1.4,7.6c-2.2,0.1-5.2-0.2-8.3-2
		c0.1,0.5,0.2,0.9,0.2,1.5c2.7,1.9,5.5,4.1,6.8,5c-12.8,6-31.4,3.2-31.7,3.2c-0.9-0.1-1.7-0.2-2.4-0.4c-0.1,0.4-0.3,0.8-0.5,1.2
		c1.2,3,4.2,9.9,4.8,11.3c8.1,3.7,15.7,6.1,27.4,4.2c0,0,2-0.2,7-1.9c5.1-1.7,14.7-7.3,22-14.2c9.1-8.6,14.7-17.6,16.5-21.2
		c14.2-27.6,16.5-68.7,16.5-85.4c0-5.4,0-8.4,0-8.6C975.1,162.3,974.8,153.2,974.6,149"/>
	<path class="st1" d="M836.5,294.5c0.5-1.5,3.1-7.7,4.4-10.8c-0.2-0.5-0.3-1.1-0.5-1.6c-1.8,0.3-3.5,0.5-5.3,0.8
		c-1.2,0.1-18.9,2.8-31.7-3.2c1.5-1.1,4.5-3.5,8.4-6.1c0.1-0.3,0.1-0.5,0.1-0.8c-3.1,1.7-6,2-8.3,2c-0.2-2,0.3-4.7,1.4-7.6
		c-2.9,0.6-5.1-0.1-5.1-0.1s2-6.2,6.1-13.7c3.9-7,9.4-14,14-19.8c0.5-2.3,2.2-4.2,2.5-4.4c0.1-0.1,0.7-0.7,0.8-0.8
		c-0.5-0.5-1.1-0.9-1.5-1.2c-0.5,0.5-0.9,0.8-1.2,1c-1.5,0.6-2.4,0.9-3.1,0.9c-1.7,0.1-2.6-0.2-3.1-1.1l-0.1-0.2c-1.2-0.3-2-1-2.3-2
		c-0.1-0.2-0.1-0.4-0.1-0.6c-0.9,0.3-1.5,0.4-2.4-0.3c-1.1-1,0.4-5.9,5.8-11c3.8-3.6,7.3-5.7,10.6-7.1c2.5-1.1,4,1.1,2.8,2.5
		c-1.5,1.8-2.7,4.9-1.1,8.2c1.5-0.5,2.2-0.8,2.4-0.9c0.6-0.2,1.3-0.4,2.1-1.5c0.1-0.1,0.2-0.3,0.2-0.5L830,215
		c1.1-2.8-0.7-9.8,0.5-14.3c-0.3,0.2-1.1,0.7-1.5,0.9c-0.8-4.1-0.7-10.6-0.4-13.7c-0.1-0.8-1.2-2.2-2.8-3.8
		c-1.2,3.2-3.5,7.1-7.2,11.7c-2.8,3.5-8,6.7-10.7,18v0.1c-0.4,1.8-1.1,3.5-1.9,5.1c-1.7,3.6-1.6,5.7-1.6,5.7v-0.1
		c0.2,7.1-0.1,21.9-1.9,30.1c-1.5,7.2-4.1,10.9-4.1,10.9l-0.4-0.4c-0.7,2.5-1.8,6.8-4.7,10.1c0,0-2.4-4.8-6.8-41.6
		c-4.8-40.4-7.2-82.7-7.2-82.7l0,0c-0.5-7.5,1.2-16.2,3.4-22.6c4-10.2,10.7-20.1,14.9-24.1c2.6-2.5,5.5-3.1,8.3-2.6
		c-0.8-1.1-1.7-2.2-1.7-2.2c-2.8-3.7-6-7.7-8.7-11.4c-19.8,34.8-19.3,76.4-19.3,76.7v4.4l-3.5-1.8c-15.6-8.8-22.3-14.1-27.4-18.3
		c-0.2,4.2-0.7,18.5-0.7,18.5c0,0.2,0,3.2,0,8.7c0,16.6,3,57.4,16.5,85.4c1.9,3.5,7,12.9,16.1,21.4c7,6.5,15,11.2,24,14
		c0.5,0.2,1.5,0.5,2.1,0.7c10.4,3.3,21.6,2.6,32.7-3L836.5,294.5z"/>
	<path class="st1" d="M844.8,305.1c0.2-4.9,1-12.2,2.1-18.6c-1.6,1.6-3,2.3-3.1,2.3c-0.2,0-0.5-0.3-0.8-0.7
		c-3.1,7.5-7.4,18.2-7.5,18.3C837.6,304.6,840.8,303.4,844.8,305.1"/>
	<path class="st1" d="M874.9,309.9c0.2-5.1-1.9-19-3.1-26.8c-0.1-0.2-0.3-0.4-0.4-0.6c-0.2-0.4-0.5-0.7-0.8-1.1
		c-0.5,1.6-1,3.2-1.8,4.9c-0.9,2-2.3,4-2.5,4s-4-2.6-6.3-7.8c-2.4,5.1-6,7.6-6.2,7.7c-0.3,0-1.7-2-2.5-4c-0.4-0.9-0.8-1.8-1.1-2.6
		c-1.2,8.2-3,21.5-2.8,26.4c-7.7-5.1-12.3,0-10.7,3.5c0.2,0.3,0.3,0.6,0.5,0.8c0.9,1.2,2.1,1.9,3.8,2c2.5,0.2,5.7,0.4,9.4,2.2
		c3.4,1.6,7.1,4.2,10.8,8.8c3.7-4.7,7.4-7.2,10.7-8.8c3.7-1.7,7-2,9.4-2.2c1.7-0.1,2.9-0.9,3.8-2c0.2-0.2,0.3-0.5,0.5-0.8
		C887.2,309.9,882.6,304.9,874.9,309.9"/>
	<path class="st1" d="M877.6,288.7c-0.1,0-1.2-0.6-2.5-1.8c1.1,5.7,2,12.8,2.3,18.2c4-1.6,7.2-0.4,9.3,1.3c-0.1-0.1-4.7-12-7.5-19.3
		C878.4,288,877.8,288.7,877.6,288.7"/>
	<path d="M848.5,135.4L848.5,135.4L848.5,135.4"/>
	<polyline points="844.2,137.3 844.2,137.3 844.2,137.3 	"/>
	<path d="M913.6,157.6c-0.5,2.7-1.5,3.9-4,5.7c-1.3-4.1-2.1-7.3,3.7-19.3c-4,11.7-2.2,15.7-2.2,15.7S912.7,159,913.6,157.6
		 M907.3,149.4c0,0-1.4-2.6,2.2-12.9c-6.4,9.7-3.7,16.5-3.7,16.5s3.4-1.7,4.2-5.4C909,148.9,907.3,149.4,907.3,149.4 M930.3,132
		c-1.1,10.3-1.9,12.4-3,14.2c-0.9-0.6-1.7-2.7-1.7-2.7c-0.3,1.9,0.1,4.7,1.7,6.2C929.6,147.1,931.1,141.3,930.3,132 M928.3,125.1
		c-1.7,11.6-3.5,14.1-4.8,16.2c-0.9-0.7-1.8-3.5-1.8-3.5c-0.4,2.1-0.1,5.3,1.7,7.1C925.9,141.9,928.7,135.6,928.3,125.1
		 M919.7,136.3c-1.1-3.2-0.8-6.2-0.8-6.2c-1.5,4.5-1.1,8.2,0.5,10.1c2.7-2.8,6.5-11.3,6-19.3C923.7,130.4,921,134.4,919.7,136.3
		 M915.5,129.7c-0.8-3.2-0.3-8.1-0.3-8.1c-2,4.4-1.7,10.3-0.3,12.3c3-2.5,7-10,7.2-17.9C919.5,125.4,917.1,127.9,915.5,129.7
		 M929.6,149.2c-0.2,2.4,2,3.9,2,3.9s3.4-4.8,2.1-13.1c-0.7,7.8-2.4,10.4-2.4,10.4S929.7,149.8,929.6,149.2 M933.5,152.8
		c-0.1,2.1,1.8,3.4,1.8,3.4s2.8-4.3,1.4-11.6c-0.3,6.8-2,9.4-2,9.4S933.7,153.2,933.5,152.8 M792.9,146.6c-1.1-1.8-2-3.9-3-14.2
		c-0.7,9.3,0.8,15,3,17.7c1.6-1.5,2.1-4.4,1.7-6.2C794.5,143.8,793.8,145.9,792.9,146.6 M796.7,141.6c-1.3-1.9-3.1-4.6-4.7-16.2
		c-0.4,10.5,2.4,16.7,4.9,19.6c1.7-1.8,2.1-5,1.7-7.1C798.4,138,797.6,140.9,796.7,141.6 M800.6,136.6c-1.4-1.9-4.1-5.9-5.7-15.4
		c-0.5,8,3.4,16.6,6,19.3c1.6-1.9,2.1-5.6,0.5-10.1C801.4,130.4,801.7,133.5,800.6,136.6 M804.7,130.1c-1.5-1.8-4-4.4-6.5-13.7
		c0.3,8,4.3,15.4,7.2,17.9c1.4-2,1.7-8-0.3-12.3C805.1,121.9,805.5,126.8,804.7,130.1 M789.1,150.8c0,0-1.7-2.6-2.4-10.4
		c-1.3,8.3,2.1,13.1,2.1,13.1s2.1-1.5,2-3.9C790.5,150.1,789.1,150.8,789.1,150.8 M785.6,154.2c0,0-1.7-2.5-2-9.4
		c-1.4,7.3,1.4,11.6,1.4,11.6s1.9-1.2,1.8-3.4C786.6,153.6,785.6,154.2,785.6,154.2 M809.2,160c0,0-1.6-0.6-2.5-2
		c0.5,2.7,1.5,3.9,4,5.7c1.3-4.1,2.1-7.3-3.7-19.3C810.8,156.1,809.2,160,809.2,160 M813,149.8c0,0-1.8-0.5-2.8-1.7
		c0.9,3.7,4.2,5.4,4.2,5.4s2.8-6.8-3.7-16.5C814.4,147.1,813,149.8,813,149.8 M841.9,199.4c0.7-5.3-2.2-9.9-2.7-12.1
		c-0.6,0.6-0.6,2.4-0.6,2.4c-1.9-2-2.4-5.6-2.8-6.8c-0.4,3.7-1.7,5.4-2.2,7.2c0.8-0.1,1.5-0.3,2.3-0.8
		C836.9,193.7,840.6,194.6,841.9,199.4 M880.4,190c0,0,0-1.8-0.6-2.4c-0.5,2.2-3.4,6.8-2.7,12.1c1.3-4.8,5-5.7,6-10.1
		c0.8,0.5,1.5,0.8,2.3,0.8c-0.5-1.8-1.8-3.5-2.2-7.2C882.9,184.4,882.4,188,880.4,190 M851.9,184.8c-0.5-1.8-1.5-7.8-3.8-10.4
		C847.2,178.8,850,182.9,851.9,184.8 M866.5,190.6c1-2.5,3.2-4.9,3.1-12.8C867.2,180.2,866.2,187.6,866.5,190.6 M861.8,193.7
		c1.2-3.2,1.1-7.1-0.2-8.8C860.6,188.2,860.5,191.2,861.8,193.7 M858.3,184.2c1.2-3.7,0.9-8.1-0.7-10
		C856.6,177.9,856.7,181.3,858.3,184.2 M883.6,151.8c-2.2,2.9-2.8,9.7-3.5,11.9C880.9,163,884.9,153.5,883.6,151.8 M883.8,141
		c-0.1-0.1,3.7-6.4,1.6-9.9C883,131.7,883.9,141,883.8,141 M873.3,156.5c0-0.1,5.7-5.5,5.5-12.3c-1.6,4.6-5.5,6.5-5.5,6.5
		s-2.2-1.4-3.1-4.3C869.4,153.3,873.4,156.5,873.3,156.5 M884.5,148.6c1.5-2.4,3.7-5.9,1.9-8.1C885.6,142.7,885.2,145.3,884.5,148.6
		 M866.8,175.5c1-2.3,3.5-6.5,3-11.5C867.6,165.9,866.6,172.6,866.8,175.5 M875,168.2c3.4-4.2,5.1-9,3.7-13.9
		C875.7,159,875.6,163.8,875,168.2 M867.7,153.6c-0.9,3.3-2.4,5.5-4.9,8c-1.1-0.9-2.1-2.1-3.5-4.9c-0.5,5.5,2.6,8.7,4.4,9.9
		C864.8,165.7,868.5,160.4,867.7,153.6 M852.9,167.6c-0.7-0.2-4.1-3.3-5.1-5.2c0.5,3.1,4.8,9.3,6.8,10.5c0.7-1.1,3.2-6.1,1-14
		C854.7,163.7,853.8,166.1,852.9,167.6 M833,130c-0.4-2.7,3-5.2,1.8-9.7C831.4,124.2,832.1,127.8,833,130 M839.8,162.4
		c1.9,3.2,3.4,4.7,4.9,6.2c-2.4-3.6-4.2-10.3-6.6-12.1C837.9,157.5,838.8,160.6,839.8,162.4 M838.2,147.6c-1.3,5.5,4.2,10.9,4.3,11
		C842.5,158.6,842.5,151.9,838.2,147.6 M842.1,137.1c-0.1,2.4-0.1,4.5-0.6,7.1c-1.6-0.4-2.3-1.5-3.5-2.4c0.9,3.1,4.8,6.8,5.4,7.7
		C844.1,145.2,844.2,140,842.1,137.1 M839.6,122.8c1.5-5.5,4.7-8.7,5.7-12C839.8,114.7,838.7,120.8,839.6,122.8 M834.9,147.2
		c-0.8-4.7-0.4-7.9-2.8-12C831.4,140.1,834.4,146.4,834.9,147.2 M848.8,128.8c-3.8,4.7,2,10.5,2,10.6
		C850.8,139.3,851.3,130.5,848.8,128.8 M851.6,116c-5.5,4.2-3,8.1-2,10.2C850.8,122.2,851.2,121.1,851.6,116 M854.8,153.5
		c0.9-2.1,3.7-6.1,2.2-12.7c-0.5,4.9-3.7,7.2-3.7,7.2s-1.8-1-3.2-4C850.7,150.1,852.9,151.9,854.8,153.5 M883.2,116.7
		c-0.4,3.1,3.2,10.3,3.4,10.9C886.6,127,888.6,121,883.2,116.7 M875.6,104.2c-0.5,2.6,3.8,6.7,3.8,6.7
		C879.4,111,880,105.9,875.6,104.2 M881.9,124.7c-1.3,5.9-3.8,8.1-3.8,8.1s-2.1-1.6-3.8-3.9c-0.1,4.8,4,9.4,3.9,9.4
		C878.2,138.3,883.2,134.3,881.9,124.7 M870.1,113.7c-2.2,2.4-0.1,7.2,1.1,11.6C872.4,123.1,873.8,116,870.1,113.7 M872,106.9
		c0-2.1-0.7-5.8-5.5-6.5C866.2,102.9,870.4,104.4,872,106.9 M866.7,97.9c1.1,1.1,4.7,1.9,6.6,3.8C873,98.6,870,96.8,866.7,97.9
		 M861.9,111.6c-3.4,3.7-1.3,6.7-1.3,6.7C860.6,118.3,864.7,113.9,861.9,111.6 M866.9,146.8c0,0,4.3-4,4.7-12.2
		c-2.4,4.1-5.1,6.4-5.1,6.3c0,0-2.3-1.5-4.2-3.8C862.4,142.3,867,146.8,866.9,146.8 M860.6,124.2c-3.8,5.7,0,11.6,0,11.6
		C860.6,135.7,863.2,127.9,860.6,124.2 M861.9,83.5c1.1,1.1,4.4,2.5,6.2,4.2C867.8,84.9,865.4,83.4,861.9,83.5 M863.6,86.9
		c-2-2.3-4.5-3.1-5.8-3.4C859.3,85.4,860.9,87,863.6,86.9 M870.5,92.7c-0.1-0.7-1.7-2.8-5.1-3.5c0.9,0.8,1.5,2.4,1.8,2.9
		c-0.7,0.4-2.4,0.5-3,0.7C865.5,93.6,867.7,93.7,870.5,92.7 M840.5,84.4c-0.3,0.2-0.6,1.1,0.5,1.2c0.9,0,1.1-1,1.1-1
		S841,84.1,840.5,84.4 M869.5,27.6c-1.1-0.8-1.8-1.4-2.8-2.1c-0.9,0.7-2.1,1.5-2.8,2.1c0.9,0.7,1.7,1.3,2.7,2.1
		C867.8,28.9,868.3,28.5,869.5,27.6 M851.8,82c0,0,0.4,0.6,0.2,1.8c-0.2,1.1-0.7,2.2-2.4,2.6c-1.8,0.4-3.7-0.7-3.8-2.6
		c0-0.5,0.1-1.1,0.3-1.5c-0.6,0.1-0.7,0.5-1.2,1.2c-0.3,0.4-0.9,0.4-1.8,0.9c0-1.1,1.2-2.8,2.6-3.4c2-0.9,9-1.2,13.9,1.4
		c-1.7-0.3-3.2-0.2-4.9-0.3C852.9,82,851.8,82,851.8,82 M850.9,82c-0.2-0.1-1.8-0.1-2,0.2c-0.2,0.3,0.9,0.8,1.3,0.9
		c0.2,0.1,0.5-0.1,0.7-0.3C851.1,82.5,851.1,82.1,850.9,82 M874,41.3c-13.7-0.8-40.3,0.7-53.5,4.3c0,0-1.4-3.4-2.5-4.7
		c-3.5-3.8-5,0.3-5,0.8c4.4,0.2,5.2,2.5,5.2,2.5c-1.1,1.9-1.8,2.5-4.2,4.2c-0.8,0.5-3.6,2.3-7.5,2.6c-8.2,0.4-6-8.2-1-11.7
		c-0.7,0.8-3.6,5.2-1.8,7.6c2.1,2.6,9.7,0.5,11.6-1.8c-1-0.9-2.9-1.2-5.6-1c0.1-1.4,0.8-4.8,4.7-8.2c1.4,0.3,5.5,2.5,6.8,6
		c12-3.2,34.1-4.1,35.2-4.2c-0.2-2.1-1-10-1-10.5c-0.1-1.3,0.8-1.9,1.6-2.4c0.9,1.6,1.8,2.4,3.8,3.1c-0.8,0.9-1.5,1.4-2.5,2.1
		c0.1,1.6,0.3,4.5,0.3,5.7c2-0.8,4.7-2,8-2.8c1.2-0.3,2.7-0.5,3.7-0.3c1.2,0.1,2.5,0.8,3.2,1.4c0.6,0.5,1.3,1.4,1.3,2.5
		C874.9,38.3,874.5,40,874,41.3 M871.2,36.1c-1.7-2.8-8-0.3-12,1.4c2.4,0,4.3-0.1,6.8-0.1c1,0,3.6,0.1,5.4,0.1
		C871.5,37.1,871.5,36.7,871.2,36.1 M814.2,50.9c-0.8-0.2-1.5-0.5-2.4-0.7c-0.7,0.9-1.3,2.1-1.7,2.9c1.2,0.3,2.1,0.7,3.4,1.1
		c0.5-0.8,0.8-1.3,1.2-2c0.8,0.2,1.5,0.5,2.4,0.8c0.7-1.1,1.1-1.7,1.8-2.8c-1.3-0.4-2.2-0.7-3.5-1.1C815,49.6,814.6,50.3,814.2,50.9
		 M915.1,40.7c2.7-0.2,5.2,0.4,6.4-0.8c-1.7-0.5-3.4-0.9-4-1.8c0.7-0.6,1.8,0.2,2.3,0.7c0.3-0.3,0.6-0.5,1-0.9
		c-1.8-1.5-4.5-0.6-5.1,0.9c0.5,0.2,1.2,0.5,1.5,0.9C916.6,39.9,915.6,40.4,915.1,40.7 M913.6,45.8c-1.1,2.5-2.1,5.1-3.3,7.4
		c0.8,0.3,1.8-0.3,2.5-0.8c3.4-2.1,5.8-7.7,7.1-11.1c0-0.1-2,0.4-3,0.9C914.8,43.1,914.5,43.6,913.6,45.8 M888.2,47
		c0.8,0.8,1.5,1.5,2.4,2.4c1.2-0.7,1.8-1,3.2-1.7c-0.9-0.9-1.5-1.5-2.5-2.4C890.3,45.8,889.1,46.5,888.2,47 M910.9,44.3
		c-0.5,1.8-2,3-2.8,4.1c-4.7-1.8-15-4.4-20.6-5c-1.5,1.7-3.8,4-6.2,4.5c-3.5-0.4-5.8-1.4-8.2-2.4c1.4,0.1,1.8,0.1,2.7,0.1
		c3.5-0.1,6.6-1.2,8.8-2.6c-5-0.8-6.1-2.1-3.7-5.2c1.1-1.4,2.9-4,5.5-3.4c2.1,0.5,2.5,3.4,2.3,5.7c5.8,0.7,13.2,2.7,18.8,4.6
		c0.3-1.6-0.7-2.4-1.3-3.6c0.8-0.9,2.1-2,3.1-2.6C910.6,39.4,911.4,42.6,910.9,44.3 M883.6,37c-0.1,0-1,0.5-1.5,1.5
		c0.4,0.7,1.3,0.9,2.7,1.1c0.2,0,0.5,0.1,0.7,0.1C886.2,38.4,884.8,36.6,883.6,37 M822.1,48.7c1.1,0.5,2,0.9,3.2,1.4
		c0.9-1.1,1.2-1.5,2.2-2.7c-1.2-0.5-2.1-0.9-3.4-1.4C823.5,46.9,822.7,48,822.1,48.7 M963,263.9c-7.5,14.9-16.9,24.1-29.8,32.2
		c-18.8,11.9-38.3,9.1-44.7,5.4c0,0,0.5,1.2,0.7,1.6s0.5,1.1,0.6,1.5c2.5,6.8,0.8,13.8-8.4,14.9c-2.4,0.3-5.1,0.4-8.3,1.8
		c-2.2,1.1-4.7,2.7-7.4,5.5c-1.1,1.2-3.5,4.2-4.7,6.6l0,0l0,0c-1.2-2.4-3.5-5.4-4.7-6.6c-2.7-2.8-5.2-4.5-7.4-5.5
		c-3.2-1.5-5.9-1.6-8.3-1.8c-9.1-1.1-10.8-8.1-8.3-14.9c0.1-0.4,0.4-1.1,0.6-1.5l0.7-1.6c-4.7,2.7-16.2,4.8-29.6,1.1
		c-0.3-0.1-1-0.2-1.3-0.4c-10.8-2.8-20.3-8.2-28.4-15.9c-9.7-9.1-15.1-19.1-17.1-22.8c-17.8-36.9-15.3-91.6-15.4-97.5
		c-0.6-63.2,13.4-98.6,25.4-115.7c-3.6-4.8-5.8-7.7-6-7.8c-1.2-1.2-3.3-3.1-7.5-3.7c-1.2-8.3-4.2-18.1-4.2-18.1s8.3,6,16,9.3
		c-0.6,4.2,0.5,6.7,1.5,8.2c0.1,0.2,1.9,2.5,4.8,6.4c5.3-6.7,11-11.4,19.9-16.6c2.1-1.2,4.4-2.4,6.9-3.5c-0.2-3.4,1-6.5,3.2-8.8
		c0.1-2,1.7-4.4,3.7-5.1l0,0c2.1-0.5,5.1,0.4,6.6,1.8c3.4,0.5,6.5,2.2,9,4.8c7.3-1.5,15.6-2.7,25.2-3.3c1.1-4.7,4.1-8,7.8-9.9
		c0.9-2,3.8-4.1,6.1-4.2l0,0l0,0l0,0c2.4,0.1,5.2,2.2,6.1,4.2c3.7,1.8,6.7,5.2,7.8,9.9c9.5,0.6,17.9,1.8,25.2,3.3
		c2.4-2.6,5.6-4.4,9-4.8c1.5-1.4,4.6-2.4,6.6-1.8l0,0c2,0.7,3.6,3.2,3.7,5.1c2.2,2.2,3.4,5.4,3.2,8.8c2.5,1.1,4.8,2.3,6.9,3.5
		c8.9,5.1,15.1,10.7,20.3,16.9c3.2-4.2,5.1-6.8,5.2-7c1.1-1.5,2.1-4.1,1.5-8.2c7.7-3.4,16-9.3,16-9.3s-3.1,9.9-4.2,18.1
		c-4.2,0.6-6.4,2.5-7.5,3.7c-0.2,0.2-2.7,3.5-6.8,8.8c12,17.3,25.8,52.4,25.2,115.2C978.4,171.2,980.9,227,963,263.9 M957.4,65.4
		c-7.5,1.6-12.3,1.5-15.2,1.4c-2,4.1-3.5,8-3.4,15c-3.1-0.9-4.7-1.8-6.3-3.5c-2.2,2.9-3.4,4.5-5.6,7.4
		c19.9,35.4,19.8,68.1,20.2,77.3c15.5-8.8,25.2-17,27.1-18.7C972.5,111.6,967.4,86.9,957.4,65.4 M926,164.1c-0.5,3.8-0.5,7,0.5,10.4
		c1.8-2.4,3-4.5,4.3-8.6c0,3.3,1,6.9,1.7,8.4c2.4-3.4,3.7-17.3,3.7-17.3s0.1,0.4,1.3,0.8c1.3-4.9,0.6-15.1-0.5-19.9
		c-1.8-8.4-5.1-18.6-15.5-30.8c-5.3-6.2-9.8-3.4-14.3,1.5c-7.2,7.8-8.7,11.3-17.4,12.9c-0.1,0-0.1,0,0,0c-0.9,0.2-0.2,0.6,1.5,0.5
		c10.4-0.2,13.7-7.1,16.7-10.5c2.1-2.3,4.7-4.4,7-3.1c0.8,0.5,3.7,3.8,0.7,11.9c0-1.9-0.7-3.5-1.1-3.9c-1.4,5.4-3.2,9.7-5.4,13.4
		c-0.3-0.9-0.5-1.7-0.7-2.9c-1,6.6-6.9,13.4-7.8,22.8c-0.6-1-1.1-1.7-1.2-4.1c-4.4,8.2-9.1,22.9-6.2,30.3
		c-0.1-7.5,4.5-18.3,6.9-21.7c-3.1,9.6-6.6,21.6-3.5,28.8c0.2-6.1,3.7-16.2,6.3-20.3c-4.2,15.9-6,23.9-1.2,30.1
		c-0.8-5.9,1.6-14.9,4.9-22.3c-2.2,12.4-5.3,23.2,0.5,28.6c-0.8-8.1,2.2-18.9,4-22.7c-1.9,12-3.5,23.5,0.3,29.2
		c0-4.1,0.8-8.4,1.6-12.4c1-5.2,2.5-10.3,2.5-10.3s-1.2,8.4-1.9,18.5c-0.1,1.7-0.2,3.4-0.1,5.1c0.1,2.1,0.2,4.2,0.7,6.2
		c0.3,1.8,0.8,3.6,1.8,5.1c1.1-13.5,2.6-25.1,4.4-30.5c0,0-1.5,12.6-2.5,32c-0.1,0.7-0.1,1.4-0.1,2.1c-1.2,27.8,2.5,36.7,3.7,39.3
		c0,0-0.2-0.5-0.3-4.1c-0.1-3-0.1-2.8,0.2-6.2c0.1-1-2.5-6.1-2.1-13c0.2-4.1,0.5-8.2,0.8-12.2c0.3-3.7,0.7-7.2,1.1-10.6
		c0.4-3.1,0.7-6.1,1.2-9.3c0.6-4.5,1.5-9,2.3-13.4c0.7-3.5,0.3-0.4,0.2,0.4c-0.3,4-1.1,12.7-1.8,21.8c-0.5,6.7-2,20-1.7,26.4
		c0.3,5.6,1.9,8,1.8,8.8c-0.3,10.8,0.8,15.2,2.7,19.3c0,0,1.1-3.8,2-8.7c-0.2,0.3-0.5,0.8-1.1,1c-1.4-3.5-2.1-9.7-1.2-16
		c0.2-1.1-1.5-2.5-1.4-7.7c0.2-8,1.2-15.9,2.2-23.8c0.3-2.6,0.7-5.2,1.1-7.7c0.2-1.6,0.5-3.1,0.7-4.7c0.3-2.5,0.8-5,1.4-7.5
		c0.1-0.4,0.2-0.8,0.2-1.1c0,0-0.1,1.8-0.2,4.2c-0.9,10.7-3.3,38-3.3,40.2c-0.1,5.4,1.4,7,1.2,7.9c-0.3,3.8-0.2,11,0.3,12.7
		c0.5-1.6,0.8-4.5,0.8-4.5s1.5-11.1,3.3-26.8c0.3-2.4,0.5-4.8,0.8-7.2c0.2-2.3,0.5-4.6,0.7-7c0.2-2.8,0.5-5.6,0.8-8.4
		c0.1-1.2,0.2-2.4,0.3-3.7c0.7-7.4,1.4-15.8,2-23.2c0,0,1-12,1.2-15.6c-0.3-0.2-0.6-0.4-0.6-0.4s-1.4,14.8-5.3,20.1
		c-1.1-1-2.4-6.5-2.2-8.4c-0.9,2.9-4.5,6.9-4.5,6.9s-1.2-2.9-1.1-7.8c-1.2,1.8-2.2,3.1-4.1,4.1c-0.7-1.6-1.6-3.6-1.5-8.2
		c-0.7,0.8-1.7,1.9-3.4,2.9c-0.5-1.1-3.1-5.3,1.7-20.8c-1.9,14.3-0.8,16-0.4,17.1c0.8-0.4,1.6-0.9,2.2-1.4c0.2-2.6,0.7-5.9,1.5-10.2
		c-0.7,11.4,0.2,15,1.1,17.2C922.2,171.2,923.8,169.1,926,164.1 M891,169c1.1-14.7,3.7-23.6,5.7-31.2C888.9,146.3,890.1,166,891,169
		 M892.5,136.9c2.5-7.4,0.4-11.1-1.1-11.9C891.4,128.4,892.3,130,892.5,136.9 M898.8,143c1.9-6.8,3-10.9,3-16.4
		C900.1,128.5,898.5,135.8,898.8,143 M905.5,128.5c0.6-2.4,0.7-5.7,0.3-8.2c-1.1,2.5-2.4,8-2.1,12.9
		C904.3,131.7,905.1,130.2,905.5,128.5 M887.6,184.1c0-0.1,0-0.3,0.1-0.4c0,0,0.1-0.1,0.1-0.1s0.1-0.1,0.1-0.1
		c0.2,0,0.5,0.2,0.9,0.5c0.3,0.2,0.6,0.4,1,0.6c-0.6-1.3-0.7-3.2-0.8-5.4c-0.1-2.2-0.2-4.5-0.9-6.7c0,0-0.1-0.2-0.2-0.3
		c-0.3,1.1-1.1,2.1-2,3.1c-1.1,1.5-2.3,3-2.7,5.1l-0.1,0.4l-0.3-0.3c0.6,0.5-1.6-2-1.7-2c-0.9,3.2-6.4,10.2-7.7,11.7l0,0
		c-0.2,0.2-2.3,3.4-3.1,11.2c-0.8,7.4,0,11.9,0,11.9l2-2.1c0,0,0.1,2.1-0.2,4.4c-0.2,1.8-0.8,3.3-0.8,3.3s3.9,0.6,6.9-3l0.5,1.4
		c0.5,1.4,0.9,3.1-0.2,3.9c-0.2,0.1-2.1,1.8-1.8,3.4c0.1,0.6,0.4,1.1,1.1,1.6l0.1,0.1v0.1c0.1,0.9,0.8,1.4,1.2,1.6
		c-0.2-0.8-0.1-1.2,0.1-1.5c0.4-1.1,1.2-1.3,1.7-1.4c0.4,0,0.9,0.1,0.9,0.1s0.5,4.5,0.9,6.4c0.3,1.6,0.8,3.7,1,6.1
		c0.1,0.5,0.1,1.1,0.2,1.5c0.2,1.5,1.1,1.6,1.9,1.8c0.4,0.1,1.5,0,1.9-0.1h0.1l-0.1,0.1c-1.2,0.4-1.1,0.8-1.1,0.9
		c0.1,0.7,0.5,1.5,0.1,2.9l0.2,0.2c1.8-0.9,1.8-2.6,1.5-4V241l0.1-0.1c1.4-0.8,1-3.5-0.9-7.6c-0.9-1.9-1.3-5.1-0.7-5.4
		c0.1,0,0.1-0.1,0.1-0.1c0.3-0.1,0.7,0,1.6,1.3c0.7,0.9,1.2,1.7,2.1,2.7c0.8,0.9,1.3,1.8,1.2,2.6c0,0.3-0.1,0.5-0.2,0.6
		c-0.1,0.1-0.3,0.2-0.6,0.2c-0.4,0-0.9,0-1.2-0.1c0.4,0.4,2.1,2.3,2.5,1.7c1.2-1.4,0.1,0.9,2.2,1.1c1.4,0.1,2.4-0.8,2.4-2.5
		c0-0.6-0.1-1-0.2-1.5c-0.3-1.6-1.5-3.1-2.1-3.8l-0.5-0.5c-3.6-3.9-3.3-4.8-3.1-5.2c0.3-0.6,0.7-0.8,1.6-0.8c1.4,0,3,0.2,3,0.2
		c1.5,0.3,3.8,0.6,3.8,1.4c0,0.1-0.2,0.4-0.3,0.4c-0.5,0.2-1.3,0.5-1.5,0.3c0.1,0.2,0.7,0.6,1.4,0.9c0.6,0.3,3.1,1,3.8-0.2l0.2-0.5
		c0.4,0,1.7-0.2,1.9-1c0.2-0.8-0.8-1.8-1.8-2.4c-0.8-0.4-3.3-1.4-5.3-2c-0.8-0.2-1.8-0.4-2.6-0.6l-4.3-1.1c-0.1,0-2.4-0.8-3.2-1.1
		c-0.4-0.2-0.8-0.4-0.9-0.4c-0.7-0.4-1.3-0.8-1.8-1.6c-0.5-0.6-0.9-2.4-1.5-4.3c0.5,0.3,1.8,1.2,3.4,1.4c-0.1-0.6-0.2-2.8-0.1-3.9
		c0.7-7.1,0.8-11.2,0.8-11.2s1.2,1.2,1.4,1.5c0.2-1.2-0.2-4.2-0.4-7.2v-0.1C888.9,190.3,888.3,187,887.6,184.1 M892.8,218l3.4,0.9
		c0.5,0.1,1.1,0.3,1.6,0.4c0.6-1.6,0.8-3.2,0.8-4.8c-0.1-1.8,4.2,2.1,7,4.9c1.2,1.2,1.4,0.6,0.7-0.2c-2.8-3.9-8.4-7.6-10-8.5
		c-2.7-1.6-4.1-1.2-3.1,0.2C894.2,212.4,893.9,215.1,892.8,218 M897.8,245.6c3.2,4,8.2,11.4,10.1,13.4c4.2,4.4,6,4.8,9.1,5
		c-1-3-2.1-5.8-7-13.6c-2.6-4.1-6.8-10.6-11.2-15.5c0,0.8-0.1,1.5-0.3,2.2c-0.1,0.2-0.2,0.4-0.2,0.5c-0.3,0.5-0.7,0.9-1.1,1.3
		c-0.7,0.5-1.6,0.7-2.4,0.6c-0.9-0.1-1.6-0.4-2.1-1c-0.5,0.1-1-0.1-1.5-0.4c0.2,1.5-0.1,2.6-0.8,3.4c0,0.9-0.2,2.8-1.7,4.2
		c0.1,0.2,0.2,0.4,0.2,0.4c1.1,1.9,0.6,2.8,0.1,3.4c-0.4,0.5-5.5,6.1-6.6,7.1c-1.4,1.2-2.8-0.2-2.8-0.2l-0.8-0.7
		c0,0-1.3,1.3-2.3,2.3c0.1,0.1,0.2,0.2,0.3,0.2l0,0c1.7,1.5,3.6,2.6,5.7,3.5c1.8,0.8,7.2,2.8,10.8,4.2c-0.8-2.6-1.8-5.7-2.9-8.7
		c0.9,1.3,3.5,5.8,5.7,9.9c-0.2-0.1,0.3,0.1,0.1,0.1c2.9,1.3,6.7,3.2,9.6,5c-0.2-1-0.4-1.7-0.4-1.7s-2.7-2.8-4.5-5.3
		c-3.7-5.3-6.1-10.8-7.2-14.4c4.1,6.2,5.2,8,6.8,10.3c5.2,7,10.8,10.1,13,10.1c-0.8-3.9-2.1-4.8-2.1-4.8s-2.6-2.2-5.4-5.9
		c0.7,0.9,1.3,1.8-0.1-0.2c-1.1-1.5-0.7-0.9-0.1-0.1C903.3,257.1,900.4,252.2,897.8,245.6 M883.5,280.2c7.1,0.9,22.3,0.7,27.8-1.4
		c-2.1-1.6-10.7-7.2-24-12.6c-2.7-1.2-6.2-2.4-8.7-4.2c-1.5-1.1-2.5-1.8-4-3.2c-4.4-4-15.9-16-17.9-18.2l-7.6,7
		c0,0,20.2,19.7,25.3,22.5c6.5,3.5,25.1,7.8,25.1,7.8s-14.3-1.1-25.2-5.5c-6.5-2.6-27.2-23-27.2-23l-5,4.6
		c2.5,2.8,8.1,9.1,17.1,16.4C865.5,275.6,873.1,278.9,883.5,280.2 M861.5,275.6c0.1,3.9,3.2,7.8,4,8.4c0,0,1.2-1.5,1.8-5.2
		C864.6,277.7,862.8,276.5,861.5,275.6 M827,250.8c-1.2,3.7-3.5,9.1-7.2,14.4c-1.8,2.6-4.5,5.3-4.5,5.3s-0.1,0.5-0.3,1.2l-0.5,0.3
		l3-1.6c0.5-0.2,1-0.5,1.5-0.8c2-1.1,4.2-2.1,6.4-3c2.2-3.9,4.7-8.5,5.5-9.7c-0.2,0.9-0.8,3.5-3.1,8.7l1.7-0.6
		c3.4-1.4,6.4-2.4,7.8-3.1c2.4-1.1,3.5-2,4.4-2.6c0.2-0.1,0.5-0.5,0.9-0.9c0.1,0.1-2.4-2.5-2.4-2.5l-0.8,0.7c0,0-1.4,1.4-2.8,0.2
		c-1.1-1-6.1-6.6-6.6-7.1c-0.5-0.6-1.1-1.6,0.1-3.4c0,0,0-0.1,0.1-0.1c-1.6-1.4-1.8-3.4-1.8-4.4c-0.7-0.8-1-1.9-0.8-3.4
		c-0.5,0.3-1,0.5-1.5,0.4c-0.5,0.5-1.2,0.9-2.1,1c-0.2,0-0.2,0-0.3,0c-0.9,0-1.7-0.2-2.2-0.7c-0.7-0.6-0.7-0.5-1.2-1.6
		c0-0.1-0.1-0.1-0.1-0.2c-2.9,3.1-5.6,7-9.5,13.1c-4.8,7.7-6,10.5-7,13.4c3.2-0.2,5-0.7,9.1-5c2-2,7-9.5,10.1-13.4
		c-2.7,6.6-5.6,11.6-8,14.9c-2.8,3.9-5.7,6.2-5.7,6.2s-1.2,0.8-2,4.7c2.2-0.1,7.7-3.1,13-10.1C821.8,258.8,822.9,257,827,250.8
		 M824.1,229.8c-1.5,1.6-2.7,3.4-2.7,5.8c0.1,1.6,1.1,2.6,2.4,2.5c2.1-0.2,1.1-2.5,2.2-1.1c0.5,0.6,2.1-1.3,2.5-1.7
		c-0.9,0.1-2.2,0.3-2-1.1c0.2-1,0.9-1.8,1.5-2.6c0.6-0.7,2.3-4,3.5-3.6c0.5,0.4,0.2,3.5-0.7,5.4c-1.9,4.1-2.2,6.8-0.9,7.6l0.1,0.1
		v0.1c-0.2,1.4-0.2,3.1,1.6,4l0.2-0.2c-0.4-1.4,0-2.2,0.1-2.9c0-0.2,0.1-0.6-1.1-0.9l-0.1-0.1h0.1c0.5,0.1,1.5,0.1,1.9,0.1
		c0.8-0.1,1.7-0.3,1.9-1.8c0.1-0.5,0.1-1.1,0.2-1.5c0.2-2.3,0.7-4.4,1-6.1c0.4-1.8,0.9-6.4,0.9-6.4s0.5-0.1,0.9-0.1
		c0.5,0.1,1.3,0.3,1.7,1.4c0.1,0.3,0.2,0.8,0.1,1.5c0.5-0.2,1.1-0.7,1.2-1.6v-0.1l0.1-0.1c0.7-0.5,1-1,1.1-1.6
		c0.2-1.6-1.6-3.2-1.8-3.4c-1.1-0.9-0.8-2.5-0.2-3.9l0.7-1.7c0.6,0.7,1.3,1.4,2.2,1.9c2.6,1.8,5.2,1.4,5.2,1.4s-0.6-1.5-0.8-3.3
		c-0.2-2.4-0.2-4.4-0.2-4.4l2,2.1c0,0,1.2-3.9,0.4-11.3c-0.9-8.6-2.7-11.9-3.1-13.1c-0.6-1.9-1.7-3.8-1.7-3.8s-0.2,1-1.5,2.2
		c-1.7-2.1-4.5-6.1-5.3-8.8c-0.4,0.8-1.1,1.5-1.7,2l-0.3,0.3l-0.1-0.4c-0.3-2.1-1.5-3.6-2.7-5.1c-0.8-1.1-1.5-2.1-2-3.1
		c-0.7,2.2-0.8,4.7-0.9,6.9c-0.1,2.2-0.2,4.1-0.8,5.4c0.4-0.2,0.8-0.4,1-0.6c0.5-0.3,0.7-0.5,0.9-0.5h0.2l0.1,0.1
		c0.1,0.1,0.1,0.2,0.1,0.4c-0.7,2.9-1.2,6.2-1.4,8.3c-0.2,3,0,5.6,0.2,6.8c0.2-0.2,2.2-1.3,2.2-1.3s-1.3,4.2-0.7,11.4
		c0.1,1.1,0,3.2-0.1,3.9c1.4-0.2,2.5-0.8,3.1-1.2c-0.5,1.9-0.9,3.7-1.4,4.3c-1.8,2.4-5.5,3-8.2,3.7c-3.4,0.9-6.8,1.6-9.9,3.2
		c-1.1,0.5-2.1,1.6-1.8,2.4c0.2,0.8,1.5,1,1.9,1l0.2,0.5c0.8,1.2,3.2,0.5,3.8,0.2c0.7-0.4,1.2-0.7,1.4-0.9c-0.1,0.2-0.9-0.1-1.5-0.3
		c-0.2-0.1-0.3-0.3-0.3-0.4c-0.2-1.4,5.9-1.6,6.8-1.6c0.9,0,1.2,0.2,1.6,0.8C827.4,225,827.7,225.9,824.1,229.8 M825.9,210.6
		c0.9-1.5-0.4-1.9-3.1-0.2c-1.6,1-7.1,4.6-10,8.5c-0.7,0.9-0.5,1.5,0.7,0.2c2.8-2.8,7.1-6.7,7-4.9c-0.1,1.6,0.2,3.3,0.8,4.9
		c0.5-0.1,0.9-0.2,1.3-0.3l3.7-0.9C825.1,215,824.8,212.3,825.9,210.6 M819.8,154.7c2.4,3.4,7,14.2,6.9,21.7
		c2.9-7.4-1.8-22.1-6.2-30.3c-0.1,2.4-0.6,3.1-1.2,4.1c-0.8-9.4-6.7-16.3-7.8-22.8c-0.2,1.2-0.3,1.9-0.7,2.9c-2.2-3.7-4-8-5.3-13.4
		c-0.3,0.4-1.1,2-1.1,3.9c-3-8.1-0.1-11.4,0.7-11.9c2.2-1.3,4.9,0.8,7,3.1c3.1,3.5,6.4,10.3,16.7,10.5c1.7,0,2.4-0.4,1.5-0.5
		c0.1,0,0.1,0,0,0c-8.7-1.6-10.2-5.1-17.4-12.9c-4.5-4.9-9-7.7-14.3-1.5c-10.3,12.1-13.6,22.4-15.5,30.8c-1.1,4.8-1.8,14.9-0.5,19.9
		c1.2-0.4,1.3-0.8,1.3-0.8s1.4,13.9,3.7,17.3c0.7-1.5,1.7-5.1,1.7-8.4c1.3,4.1,2.5,6.3,4.3,8.6c0.9-3.5,0.9-6.7,0.5-10.4
		c2.1,4.9,3.7,7.1,4.8,7.8c0.9-2.2,1.8-5.8,1.1-17.2c0.8,4.3,1.3,7.6,1.5,10.2c0.6,0.5,1.4,1.1,2.2,1.4c0.4-1.2,1.5-2.8-0.4-17.1
		c4.8,15.5,2.1,19.7,1.7,20.8c-1.6-0.9-2.7-2.1-3.4-2.9c0.1,4.6-0.8,6.5-1.5,8.2c-1.8-0.9-2.9-2.3-4.1-4.1c0.2,4.8-1.1,7.8-1.1,7.8
		s-3.6-3.9-4.5-6.9c0.1,1.8-1.2,7.4-2.2,8.4c-4-5.2-5.3-20.1-5.3-20.1s-0.3,0.2-0.6,0.4c0.2,3.6,0.7,9.2,1.2,15.6v0.1
		c0.7,7.4,1.4,15.7,2,23.2c1.5,17.8,3.5,35.5,5.9,53.2c0,0,0.3,2.9,0.8,4.5c0.5-1.8,0.7-8.9,0.3-12.7c-0.1-0.9,1.4-2.6,1.2-7.9
		c0-2.2-2.5-29.4-3.3-40.1c-0.1-1.3-0.3-4.2-0.3-4.2c0.1,0.4,0.2,0.7,0.2,1.1c0.8,4.1,1.5,8.1,2.1,12.2c0.3,2.4,0.7,5,1.1,7.7
		c1.1,7.9,2.1,15.9,2.2,23.8c0.1,5.1-1.5,6.5-1.4,7.7c0.9,6.4,0.2,12.5-1.2,16c-0.5-0.2-0.9-0.7-1.1-1c0.9,4.8,2,8.7,2,8.7
		c1.9-4.1,3-8.4,2.7-19.3c-0.1-0.8,1.6-3.3,1.8-8.8c0.1-1.6-0.2-6.9-0.7-13.4c-0.8-11.6-1.8-23.2-2.7-34.8c-0.1-0.5-0.2-1.9-0.2-2
		c0.1,0.5,0.2,1.1,0.3,1.6c3.2,14.9,4.5,30.4,5.3,45.5c0.3,6.8-2.2,12-2.1,13c0.3,3.4,0.3,3.2,0.2,6.2c-0.1,3.6-0.3,4.1-0.3,4.1
		c1.2-2.6,4.9-11.6,3.7-39.3c0-0.6-0.1-1.4-0.1-2.1c-1-19.3-2.5-32-2.5-32c1.8,5.4,3.4,17,4.4,30.5c0.1-0.2,0.2-0.4,0.4-0.7
		c2-5.1,2.2-10.3,2-15.7c-0.7-10.1-1.8-18.4-1.8-18.4s0.2,0.8,0.3,0.8c0.3,1.1,1.2,4.1,2.2,9.4c0.7,3.6,1.2,7.2,1.5,10.9
		c0.1,0.5,0.1,1,0.1,1.5c3.8-5.7,2.2-17.3,0.3-29.2c1.7,3.8,4.8,14.6,4,22.7c5.8-5.4,2.7-16.2,0.5-28.6c3.3,7.4,5.7,16.4,4.9,22.3
		c4.7-6.1,3-14.2-1.2-30c2.5,4.2,6.1,14.2,6.3,20.3C826.4,176.4,822.8,164.4,819.8,154.7 M871.9,189.8c0-0.1,2.5-2.4,3.4-10.2
		c0.5,0.6,1.4,1.2,1.7,2.2c1.6-1.9,4.7-12.4,5.1-16c1.1,0.5,0.1,0.2,1.3,0.8c0.8-1.5,2.7-7.5,3.4-15.7c0.4,0.1,1.1,0.1,1.4,0.5
		c0.5-3.8,1.1-9.9,1.2-14.1c0.2-3.7,0.1-11.2-1.5-15.5c-1.5-4.3-2.3-6.6-4.8-10.6c0,0-0.9,0.4-1.4,1.1c-0.7-2.1-2.6-7.1-3.5-9
		c-2.4-4.6-3.5-7.6-6-9.1c1.1,0.1,1.5,0.3,3,0.2c-1.6-1.5-2.2-2.5-4-3.9c0.6-0.4,1.7-0.4,3.4-0.1c-2.4-2.2-3.2-5.6-9.5-8
		c1.1-0.2,2,0.2,3.5,0.1c-0.8-1.2-2.7-3.2-5.8-4.2c-6.4-1.2-15.3-1.5-19.4,3.4c-0.3,0.3-1.4,0.6-2.4,0.9c-0.7,0.2-1,0.5-1.2,0.6
		c-0.7,0.5-0.8,1.2,0.5,3.2c-1.8-0.2-2.2-2-2.6-1.8c-0.7,0.4-1.2,0.9-1.9,1.9c-0.6,0.9-1.1,2.8-1,3.6c0.2,0.2,1.7,0.8,2-0.9
		c0.1-0.6,2.9-0.9,3.9-0.9c1.4,0,2.7,0.4,4.5,0.2c-0.7,0.2-2.6,0.8-3.4,1c-0.8,0.2-0.9,1.1-0.1,1.1c0.8,0.1,1.2-0.3,2-0.5
		c0.3,0.2,0,1.1,0.3,1.6c5.2-1.2,5.5,4.4,11.1,3.3c-2.6-2-4.8-5.4-6.8-6.4c5.4,0.8,8.4,5.7,14.3,6c-0.2-0.6-0.2-0.6-0.7-1.6
		c2,0,3.4,1.5,4,1.5c-0.8,0.8-2.4,1.5-4.7,1.8c0.4,0.8,2.6,0.9,3.4,1.1c-1.2,1.1-2.5,1.6-5.2,1.1c-0.9,0.8-2.1,2.6-5.9,4.9
		c0.1-0.9,0.1-0.9,0.2-1.8c-2.5,1.5-4.2,4.1-6.1,4.8c0.5-0.9,1-2.6,1.4-3.4c-6.6,6-13,11.7-15.3,16.1c-2.7,4.8-3.5,9.9-3.2,18.1
		c0.2,4.4,2.1,16.9,2.5,19.4c0.5-0.2,0.9-0.4,1.4-0.6c1.6,9.1,6.4,22.1,8.8,26.2c0.5-1,0.7-1.5,1.5-1.9c0.4,2.5,1.7,5.2,3.7,7
		c-0.1-1.6,0.7-2.6,0.8-3.2c0.5,1.8,0.2,7.3,3.4,10.4c-0.2-1.5,0.3-2.8,0.8-4.8c0.5,1.8,0.7,4,1.5,5.8c1,2.1,2.2,4.2,3.4,4.7
		c-0.1-4.4,0.5-4.1,0.7-5.9c0.1,0.4,1.7,1.9,2.5,7.4c3.2-2.5,4.5-10.6,4.5-10.6s0.9,0.8,1.6,3.1c2.8-2.9,3.7-6.8,4.5-9.7
		C872.1,186.8,872.1,188.9,871.9,189.8 M875.1,232.7c3.9-0.1,4.9,0,6.4-0.2c-0.1-0.5-0.2-0.9-0.2-1.2c-0.1-0.3-0.1-0.6-0.1-0.9
		c0,0-0.1,0-0.1,0c-1.4,0.3-3.9,1.1-7.3,0.5c-1.7-0.4-1.7-0.4-3-0.8c-1.2-0.4-3,1.6-4.5,3.1c-1.2,1.3-2.9,3.2-3.6,3.9
		c-0.1,0.1-0.1,0.3,0,0.4c1.3,1.2,17.3,15.8,18.3,16.7c0.2,0.2,0.4,0.2,0.8-0.1c0.7-0.7,1.8-1.8,2.8-2.9c0,0-15.7-14.8-16-15.1
		c-0.2-0.2-0.3-0.5-0.2-0.7c0.1-0.1,0.8-0.8,0.9-1c0.1-0.1,0.5-0.2,0.7,0.1c0.2,0.2,5.2,4.8,5.2,4.8l6.8,6.1l4.2,3.8
		c0.6-0.6,0.5-0.5,0.7-0.7c0.7-0.7,0.5-1.2-1.7-3.2c-0.6-0.6-11-11-11-11C873.1,233.1,873.8,232.7,875.1,232.7 M850.6,236.1
		c-0.2,0.2-16,15.1-16,15.1c1,1,2.1,2.1,2.8,2.9c0.3,0.3,0.5,0.3,0.8,0.1c1-0.9,16.9-15.4,18.3-16.7c0.1-0.1,0.2-0.3,0-0.4
		c-0.7-0.8-2.4-2.6-3.6-3.9c-1.5-1.5-3.3-3.5-4.5-3.1c-1.3,0.4-1.4,0.4-3,0.8c-3.4,0.6-6-0.2-7.3-0.5c-0.1,0-0.2-0.1-0.3-0.1
		c-0.1,0.4-0.1,0.8-0.1,1.1c-0.1,0.4-0.1,0.7-0.2,1.1c1.7,0.4,2.5,0.2,6.7,0.3c1.2,0,2,0.4,0.9,1.6c0,0-10.4,10.4-11,11
		c-2.2,2.1-2.3,2.5-1.7,3.2c0.2,0.2,0.1,0.1,0.7,0.7l4.2-3.8l6.8-6.1c0,0,5-4.6,5.2-4.9c0.2-0.2,0.6-0.2,0.7-0.1
		c0.1,0.1,0.8,0.8,0.9,0.9C850.8,235.5,850.8,235.8,850.6,236.1 M852.1,198.8c0,0,0-0.9-0.6-2.1c-0.3-0.6-1.4-1.5-1.9-2.1
		c-0.4-0.5-0.5-0.8-0.5-0.8c-0.1,0.6,0.1,2,0.3,2.6c0.2,0.6,0.7,1.3,1.4,1.8C851.6,198.7,852.1,198.8,852.1,198.8 M851.9,229.1
		c0,0,1.2,1.1,1.4,1.4c0.2-1.6,1.1-7,0.7-7.6C852.2,226.4,852,228.8,851.9,229.1 M845.6,228.7c0.6-0.2,2.1-0.9,3-1.1
		c0.2-0.1,0.5-0.1,0.6-0.1c0.5-1.6,1.2-4.1,1.8-5.2C850.4,222.1,846.4,227.6,845.6,228.7 M857.3,234.5c-0.1-2.2-0.2-4.5-0.3-5.5
		c-0.7,0.9-1.1,2.4-1.4,3.7C855.7,233,857.2,234.4,857.3,234.5 M858.3,220.3c0,0-0.4-2.7-2.4-3.7C856,218.6,858.3,220.3,858.3,220.3
		 M860,215.7C860,215.7,860,215.7,860,215.7L860,215.7c0,0,0.3-0.8,1.5-1.6c0.7-0.5,5.2-3.2,6.1-4.4c0.8-1.2,1.2-2.8,1.2-2.8
		s-0.8,1.3-2.6,2.3c-1.5,0.9-5,3.1-5.7,4.1c-0.3,0.5-0.4,1-0.5,1.4c-0.1-0.3-0.1-0.6-0.3-1c-1.1-2.2-4.3-3.2-6.2-5.4
		c-1.2-1.5-1.3-2.1-1.3-2.1c-0.1,1.5,0.2,2.6,0.8,3.5c0.5,0.8,2.2,2.1,4.3,3.5C859.5,214.7,860,215.7,860,215.7 M857.9,207.7
		c0-3.5-3.9-3.9-4.8-7.5C852.7,205.1,856.1,205.2,857.9,207.7 M859.7,221.8c0,0,0.5-0.2,1.6-0.9c1-0.6,1.8-1.2,2.4-2.2
		c0.5-1,0.4-1.9,0.3-2.5c0,0-0.2,0.9-1.5,2.1c-0.6,0.5-1.4,1.2-1.8,1.8C860,221,859.7,221.8,859.7,221.8 M863.1,223.9
		c0.3,2.1,0.7,7.1,0.7,8.7l0,0c0.6-0.6,1.2-1.2,1.8-1.8C865.5,230,864.8,226.1,863.1,223.9 M859.9,236.8c0.1-0.1,1.3-1.5,1.9-2.2
		c0.1,0,0.1-0.1,0.1-0.1c-0.3-2.7-1-6.1-1.9-7.4C859.8,228.4,859.9,233.1,859.9,236.8 M859.9,238.3c0,1.2,0.1,2.1,0.1,2.6
		c0.1-0.1,1.2-1.4,1.2-1.4S860.2,238.6,859.9,238.3 M860.8,242.4c2.2,2.3,5.2,5.4,7.1,7.4c1.3-1.2,2.1-2,2.1-2l-7.6-7
		C862,241.2,861.5,241.7,860.8,242.4 M869.8,251.6c1.7,1.6,3.5,3.5,5,4.9c0.9-0.9,1.6-1.7,2.1-2.4l-5-4.6
		C871.8,249.6,871.1,250.3,869.8,251.6 M871.2,228c-0.8-1.1-2.9-3.8-4.7-5.5c1.2,2.9,1.8,4.8,2,5.5c0.1-0.1,0.2-0.1,0.3-0.2
		c0.3-0.1,0.7-0.2,0.9-0.2s0.7,0.1,1.1,0.2C870.8,227.8,871.1,227.9,871.2,228 M869.4,199.2c-1,1.6-1.8,2.5-3.1,3.6
		c0.4-1.2,0.5-2.4,0.5-2.5c-0.6,1.2-2,2.9-3,3.9c-2.3,2.3-2.7,4.5-2.7,4.5s0.6-0.8,3.4-2.4C867.4,204.5,868.5,201.9,869.4,199.2
		 M833.7,168.3c0,2.8,2,6.6,4.6,8.1C836.8,172.2,835.5,170.9,833.7,168.3 M891.2,117.5c1.1,0.1,2.1-0.1,3.1-0.7
		c0.9-0.5,1.1-0.9,1.3-1.2c6.6-9.6,18.8-24.9,28-37C904.8,60.1,878,58.8,871,59.3c-1.7,0.1-3.5,1.4-1.5,4.1
		c-1.5,0.7-7.2,0.2-9.4-1.8c-2.1,2-7.9,2.5-9.4,1.8c2.1-2.7,0.2-4-1.4-4.1c-7.1-0.5-35.3,2.2-52.3,18.9c9.4,12.4,29,38.3,29.4,38.9
		c0.3,0.5,1.4,1.1,2.5,1.1c0.2,0,0.3,0,0.5,0c1.1-0.1,2-0.7,3-1.9c2-2.2,3-3.5,5-5.5c3.8-3.9,7.5-7,8.1-7.5c1.7-1.5,2.2-2.7,2.2-3.9
		c-0.1-1.4-1.2-1.9-1.9-2.8c-0.1,0.1-0.2,0.3-0.3,0.5c-0.7-0.5-1.4-2.7-1.4-2.7l-0.3,1c0,0-1.5-3.5-3.7-3.2c-3.1,0.4-5.2-0.9-5.4-1
		c-0.2-0.1-0.3,1-0.2,2.2c-0.1,0-0.1,0-0.1-0.1c-2.2-1.8-2.8-6.5,1.4-9.6c2.5-1.9,3-1.8,5-2.7c0.8-0.4,1.5-1.2,1.7-1.4
		c1.4-1.6,4-2.5,5.5-2.9c1.9-0.5,6.4-1.1,11-0.9c2.5,0.1,5,0.7,6.7,1.4c1.4,0.5,5.2,3.4,7.4,6.2c1.4,1.9,3.8,7.1,5.2,10.4
		c2.9,7,2.5,6.2,4.5,10.9c2.2,5.3,3.6,8.2,5.7,11.2C888.9,117,889.7,117.5,891.2,117.5 M924.9,76.7c0.7-0.8,1.3-1.7,1.9-2.5
		c-8.6-7.6-21.3-15.2-35.3-18.3c-9.4-2.1-16.9-2.2-21.7-2.2c-3.9,0.1-6.4,1.5-6.4,4c-2.4-0.4-3.1-3.5-3.4-4.1
		c-0.2,1.3-1.4,3.8-3.4,4.1c0-2.4-2.5-3.9-6.4-4c-4.7-0.1-12.3,0.1-21.7,2.2c-14.2,3.1-26.5,10.1-35,17.7c0.7,0.8,1.2,1.7,1.9,2.5
		c7.7-7.2,17.9-13,28.9-16.2c9.1-2.7,20.2-3.6,25.3-3.4c4.5,0.2,5.2,2.8,4.7,4.2c2.1,0.2,5.1-1.5,5.7-2.8c0.5,0.9,3.2,2.9,5.7,2.8
		c-0.5-1.4,0.1-4,4.7-4.2c5.1-0.2,16.3,0.7,25.3,3.4C906.6,63.1,917.2,69.6,924.9,76.7 M930,67.5c0.9,3.4,2,7.1,4.8,9.3
		c0.4,0.3,0.8,0.6,1.3,0.8l0.1,0.1c-0.1-6.4,2.1-9.8,3.8-13.6l0,0c0,0,0,0,0-0.1c2.4,0.4,5.5,1.2,11.8,0.1c-6-4.1-4.7-8.6-9.2-13.6
		c-0.5-0.5-1-1.1-1.7-1.6c-1.6-1.1-2.8-1.5-3.7-1.5c-1.1-0.1-1.8,0.5-2.1,0.9c-0.6,0.7-6.8,7.4-11,12C928,60.1,929,63.6,930,67.5
		 M934.2,45.2c-4.2-4.1-10.9-8.7-18.9-12.3c-20.9-9.2-47.5-9.2-55.1-9.2l0,0l0,0c-7.6,0-34.1,0.1-55.1,9.2
		c-8,3.5-14.7,8.1-18.9,12.3c0,0,9.5,10.6,11.9,13.5c1.3,1.5,1.7,2.8,0.9,5.1c14.6-9.8,31.1-14.6,60.5-14.8h1.3
		c29,0.3,46,5.2,60.4,14.9c-0.8-2.3-0.3-3.5,0.9-5.1C924.7,55.8,934.2,45.2,934.2,45.2 M785,48.2L785,48.2c-0.6-0.7-2.1-2-5.7,0.7
		c-6.5,5.6-4.4,10.7-11.1,15.2c2.4,0.4,4.3,0.6,5.9,0.6c1.1,0,2-0.1,2.8-0.2c1.2-0.1,2.2-0.3,3.1-0.5l0,0c1.7,3.8,3.8,7.2,3.8,13.6
		c7.8-4.1,4.6-17.5,11.9-17.3C791.7,55.7,785.7,49,785,48.2 M790.1,75.2c5.7,7.6,10,13.4,10.9,14.6c2,2.7,8.8,11,8.8,9.9
		c-0.1-0.7-4.2-6.5-6.9-10.1c-3.8-5.2-7.9-10.6-11.8-15.9C790.7,74.2,790.4,74.7,790.1,75.2 M818.4,126.9c0,5.6,1.1,9.7,3,16.4
		C821.7,136.2,820.2,128.9,818.4,126.9 M814.5,120.6c-0.4,2.6-0.3,5.8,0.2,8.2c0.4,1.6,1.2,3.2,1.9,4.7
		C816.8,128.5,815.5,123.1,814.5,120.6 M829.2,169.3c1-3.1,2.1-22.7-5.7-31.2C825.6,145.8,828.1,154.7,829.2,169.3 M807.8,278.9
		c5.5,2.1,20.7,2.3,27.8,1.4c9.1-1.1,16-3.9,21.9-8c-1.5-1.3-3.4-3-5.3-4.8c-3.1,2.5-5.8,4.4-7.5,5.1c-10.8,4.4-25.2,5.5-25.2,5.5
		s18.6-4.2,25.1-7.8c1.2-0.6,3.4-2.3,5.8-4.4c-2.4-2.3-4.8-4.7-6.5-6.4c-1.2,1.1-2.1,1.8-3.4,2.7c-2.4,1.7-6,3-8.7,4.2
		C818.5,271.7,809.9,277.2,807.8,278.9 M852.2,278.9c0.5,1.8,1.5,4.1,2.2,5.2c0,0,3.5-2.8,4.5-9.4c-0.7,0.5-1.8,1.4-2.7,2
		C854.7,277.6,853.3,278.4,852.2,278.9 M920.2,89.3c0.8-1.1,4.8-6.4,10.1-13.5c-0.3-0.5-0.8-0.9-1.1-1.4c-3.7,4.9-7.4,9.9-11,14.7
		c-2.7,3.6-6.8,9.4-6.9,10.1C911.3,100.2,918.2,92,920.2,89.3 M951,54c-0.6,0.8-2,2.5-2,2.5c1.7,3,3.4,6.1,8.1,8.6
		C955.3,61.3,953.3,57.6,951,54 M946.6,51.4c0.1,0.2,0.7,1.2,0.9,1.5c10.8-14.5,20.8-27.7,20.8-27.7s-4.2,3-10.3,5.8
		c0.6,3.2-1.4,7.3-2.2,8.3C955.4,39.8,951.8,44.5,946.6,51.4 M773.7,47.3c0.5,0.7,1.1,1.4,1.7,2.2c8.1-10.4,18.9-17.8,31.9-22.6
		c-1-1.5-2.5-5,1.3-8.7l0,0c5.7,0.7,7.1,4.1,7.4,5.8c10.1-2.8,22.2-4.4,35.6-4.9c0.5-9.3,7-11.5,7-11.5s0.1-1.8,1.5-2.4l0,0
		c1.4,0.6,1.5,2.4,1.5,2.4s6.5,2.2,7,11.5c13.4,0.5,25.5,2.2,35.6,4.9c0.3-1.8,1.8-5.1,7.4-5.8l0,0c3.8,3.7,2.4,7.1,1.3,8.7
		c13,4.9,24.2,12.6,32.2,22.9c0.6-0.8,1.1-1.5,1.7-2.2c-7.5-9.4-18.2-16.9-29.5-21.6c1.2-3.7,0-6.8-2.2-9c0-1.5-0.9-2.8-1.8-3.3l0,0
		c-1.1-0.1-2.7,0.4-3.8,1.5c-3.2,0.5-6.5,2.2-8.2,5.7c-8.4-2-17.9-3.4-30-4c-0.3-5.5-3.5-9-7.5-11c-0.8-1.9-2.5-3-4-3.4
		c-1.4,0.4-3.1,1.4-4,3.4c-4,2-7.2,5.4-7.5,11c-12.1,0.6-21.6,2-30,4c-1.8-3.5-5-5.2-8.2-5.7c-1.1-1.1-2.7-1.6-3.8-1.5l0,0
		c-0.9,0.5-1.8,1.8-1.8,3.3c-2.2,2.2-3.4,5.3-2.2,9C791.4,30.6,781.2,37.9,773.7,47.3 M773,52.4c0.3-0.6,0.7-1.1,0.9-1.4
		c-5-6.4-8.2-10.8-8.5-11.2c-0.8-1-2.8-5.1-2.2-8.3c-6.1-2.8-10.3-5.8-10.3-5.8S762.4,38.4,773,52.4 M762.9,65.3
		c0.9-0.5,4.1-2.5,6-5.2c0.9-1.4,1.7-2.7,2.3-3.9c-0.1-0.1-2.1-2.7-2.1-2.7C766.8,57.3,764.8,61.3,762.9,65.3 M745.9,144.3
		c2,1.6,11.7,9.9,27.1,18.7c0.3-9.2,0.7-42.4,20.5-77.8c-2.2-3-3.2-4.3-5.4-7.2c-1.7,1.7-3.7,2.9-6.8,3.8c0.1-7-1.4-10.9-3.4-15
		c-2.8,0.1-7.6,0.2-15.2-1.4C752.8,86.9,747.7,111.6,745.9,144.3 M836.3,294.8l0.1-0.3c0.5-1.5,3.1-7.7,4.4-10.8
		c-0.2-0.5-0.3-1.1-0.5-1.6c-1.8,0.3-3.5,0.5-5.3,0.7c-1.2,0.1-18.9,2.8-31.7-3.2c1.5-1.1,4.5-3.5,8.4-6c0.1-0.3,0.1-0.5,0.1-0.8
		c-3.1,1.7-6,2-8.3,2c-0.2-2,0.3-4.7,1.4-7.6c-2.9,0.6-5.1-0.1-5.1-0.1s2-6.2,6.1-13.7c3.9-7,9.4-14,14-19.8
		c0.5-2.3,2.3-4.2,2.5-4.4c0.1-0.1,0.7-0.7,0.8-0.8c-0.5-0.5-1.1-0.9-1.5-1.2c-0.5,0.5-0.9,0.8-1.2,1c-1.5,0.6-2.4,0.9-3.1,0.9
		c-1.7,0.1-2.6-0.2-3.1-1.1l-0.1-0.2c-1.2-0.4-2-1-2.4-2c-0.1-0.2-0.1-0.4-0.1-0.6c-0.9,0.3-1.5,0.4-2.4-0.4c-1.1-1,0.4-5.9,5.8-11
		c3.8-3.6,7.3-5.7,10.6-7.1c2.5-1.1,4,1.1,2.8,2.5c-1.5,1.8-2.7,4.9-1.1,8.2c1.5-0.5,2.2-0.8,2.4-0.9c0.6-0.2,1.3-0.4,2.1-1.5
		c0.1-0.1,0.2-0.3,0.2-0.5l-2.2,0.2c1.1-2.8-0.7-9.8,0.5-14.3c-0.3,0.2-1.1,0.8-1.5,0.9c-0.8-4.1-0.7-10.6-0.4-13.7
		c-0.1-0.8-1.2-2.2-2.8-3.8c-1.2,3.2-3.5,7.1-7.2,11.7c-2.8,3.5-8,6.7-10.7,18v0.1c-0.4,1.8-1.1,3.5-1.9,5.1
		c-1.7,3.6-1.6,5.7-1.6,5.7v-0.1c0.2,7.1-0.1,21.9-1.9,30.1c-1.5,7.2-4.1,10.9-4.1,10.9l-0.4-0.4c-0.7,2.5-1.8,6.8-4.7,10.1
		c0,0-2.4-4.8-6.8-41.6c-4.8-40.4-7.2-82.7-7.2-82.7l0,0c-0.5-7.5,1.2-16.2,3.4-22.6c4-10.2,10.7-20.1,14.9-24.1
		c2.6-2.5,5.5-3.1,8.3-2.6c-0.8-1.1-1.7-2.2-1.7-2.2c-2.8-3.7-6-7.7-8.7-11.4c-19.8,34.8-19.3,76.4-19.3,76.7v4.4l-3.5-1.8
		c-15.6-8.8-22.3-14.1-27.4-18.3c-0.2,4.2-0.7,18.5-0.7,18.5c0,0.2,0,3.2,0,8.7c0,16.6,3,57.4,16.5,85.4c1.9,3.5,7,12.9,16.1,21.4
		c7,6.5,15,11.2,24,14c0.5,0.2,1.5,0.5,2.1,0.7C814,301,825.3,300.3,836.3,294.8 M835.6,306.4c2.1-1.7,5.2-3,9.3-1.3
		c0.2-4.9,1-12.2,2.1-18.6c-1.6,1.6-3,2.4-3.1,2.3c-0.2,0-0.5-0.3-0.8-0.7C839.9,295.6,835.6,306.2,835.6,306.4 M874.9,309.9
		c0.2-5.1-1.9-19-3.1-26.8c-0.1-0.2-0.3-0.4-0.4-0.6c-0.2-0.4-0.5-0.7-0.8-1.1c-0.5,1.6-1,3.2-1.8,4.9c-0.9,2-2.3,4-2.5,4
		s-4-2.6-6.3-7.8c-2.4,5.1-6,7.6-6.2,7.7c-0.3,0-1.7-2-2.5-4c-0.4-0.9-0.7-1.8-1.1-2.6c-1.2,8.2-3,21.5-2.8,26.4
		c-7.7-5.1-12.3,0-10.7,3.5c0.2,0.3,0.3,0.6,0.5,0.8c0.9,1.2,2.1,1.9,3.8,2c2.5,0.2,5.7,0.4,9.4,2.2c3.4,1.6,7.1,4.2,10.8,8.8
		c3.7-4.7,7.4-7.2,10.7-8.8c3.7-1.7,7-2,9.4-2.2c1.7-0.1,2.9-0.9,3.8-2c0.2-0.2,0.3-0.5,0.5-0.8
		C887.2,309.9,882.6,304.9,874.9,309.9 M886.6,306.4c-0.1-0.1-4.7-12-7.5-19.3c-0.7,0.9-1.4,1.6-1.5,1.6c-0.1,0-1.2-0.6-2.5-1.8
		c1.1,5.7,2,12.8,2.3,18.2C881.4,303.4,884.6,304.6,886.6,306.4 M975.2,167.9c-0.1-5.5-0.4-14.7-0.6-18.9
		c-5.2,4.2-10.2,8.6-26.5,17.9l-4.2,2.3v-3.1c0-0.4,1.2-41.8-19-77.6c-1.3,1.7-5.5,7.1-9.8,12.6c2.6-0.3,5.2,0.4,7.5,2.7
		c4.2,4.1,11,13.9,14.9,24.1c2.1,6.4,3.8,15.1,3.4,22.6l0,0c0,0-2.4,42.2-7.2,82.7c-4.4,36.7-6.8,41.6-6.8,41.6
		c-2.8-3.4-4-7.7-4.7-10.1l-0.4,0.4c0,0-2.6-3.7-4.1-10.9c-1.8-8.2-2.1-23-1.9-30.1v0.1c0,0,0.1-2.1-1.6-5.7
		c-0.8-1.7-1.4-3.4-1.9-5.1v-0.1c-2.7-11.3-7.8-14.5-10.7-18c-3.4-4.2-6-8.6-7.5-12.3c-0.1,0.1-0.2,0.1-0.3,0.2
		c-1.9,1.8-3.3,3.7-3.4,4.7c0.7,6.6,1.2,11.3,0.3,14.7c-0.4-0.2-1.1-0.9-1.4-1.1c0.5,4.4-1.6,9.4-0.3,13.4l-2.6-0.4
		c0.1,0.3,0.2,0.5,0.3,0.6c0.3,0.5,0.7,0.8,1.3,1.1c0.1,0.1,0.7,0.3,0.8,0.4c0.2,0.1,0.9,0.4,2.7,0.9c1.5-3.3,0.3-6.4-1.1-8.2
		c-1.2-1.5,0.2-3.7,2.8-2.5c3.3,1.5,6.8,3.5,10.6,7.1c5.4,5.1,7,10.1,5.8,11c-0.9,0.8-1.5,0.6-2.7,0.2c0,0.2,0,0.4-0.1,0.6
		c-0.3,1-1.1,1.6-2.3,2l-0.1,0.2c-0.6,0.8-1.5,1.1-3.1,1.1c-1.4,0-3-0.8-3.1-0.9c-0.3-0.1-0.7-0.4-1.1-0.8c-0.3,0.2-0.7,0.5-0.9,0.8
		c4.2,5.7,12.4,15.2,18.3,25.6c4.2,7.4,6.1,13.7,6.1,13.7s-2.2,0.7-5.1,0.1c1.1,3,1.6,5.6,1.4,7.6c-2.2,0.1-5.2-0.2-8.3-2
		c0.1,0.5,0.2,0.9,0.2,1.5c2.7,1.9,5.5,4.1,6.8,5c-12.8,6-31.4,3.2-31.7,3.2c-0.9-0.1-1.7-0.2-2.4-0.4c-0.1,0.4-0.3,0.8-0.5,1.2
		c1.2,3,4.2,9.9,4.8,11.3c8.1,3.7,15.7,6.1,27.4,4.2c0,0,2-0.2,7-1.9c5.1-1.7,14.7-7.3,22-14.2c9.1-8.6,14.7-17.6,16.5-21.2
		c14.2-27.6,16.5-68.7,16.5-85.4C975.2,171.1,975.2,168.2,975.2,167.9"/>
</g>
</svg>
