<?xml version="1.0" encoding="utf-8"?>
<!-- Generator: Adobe Illustrator 24.2.3, SVG Export Plug-In . SVG Version: 6.00 Build 0)  -->
<svg version="1.1" id="Layer_1" xmlns="http://www.w3.org/2000/svg" xmlns:xlink="http://www.w3.org/1999/xlink" x="0px" y="0px"
	 viewBox="0 0 219.6 68" style="enable-background:new 0 0 219.6 68;" xml:space="preserve">
<style type="text/css">
	.st0{opacity:0;fill:none;}
	.st1{fill:#FFFFFF;}
	.st2{fill:#EA0029;}
</style>
<rect x="-18.8" y="-18.9" class="st0" width="257" height="105.9"/>
<g>
	<g>
		<path class="st1" d="M219.5,33.9c0.1-12.8-2.7-20-5.1-23.5c0.8-1.1,1.3-1.8,1.4-1.8c0.2-0.2,0.7-0.6,1.5-0.8
			c0.2-1.7,0.9-3.7,0.9-3.7s-1.7,1.2-3.3,1.9c0.1,0.9-0.1,1.4-0.3,1.7c0,0-0.4,0.6-1.1,1.4c-1.1-1.2-2.3-2.4-4.1-3.4
			C209,5.5,208.5,5.2,208,5c0-0.7-0.2-1.3-0.7-1.8c0-0.4-0.4-0.9-0.8-1l0,0c-0.4-0.1-1,0.1-1.4,0.4c-0.7,0.1-1.3,0.5-1.8,1
			c-1.5-0.3-3.2-0.6-5.1-0.7c-0.2-0.9-0.8-1.6-1.6-2c-0.2-0.4-0.8-0.8-1.3-0.9l0,0h0c0,0,0,0,0,0s0,0,0,0c-0.5,0-1.1,0.4-1.3,0.9
			c-0.8,0.4-1.4,1.1-1.6,2c-1.9,0.1-3.6,0.4-5.1,0.7c-0.5-0.5-1.1-0.9-1.8-1c-0.3-0.3-0.9-0.5-1.3-0.4l0,0c-0.4,0.2-0.7,0.6-0.8,1
			c-0.5,0.5-0.7,1.1-0.7,1.8c-0.5,0.2-1,0.5-1.4,0.7c-1.8,1.1-3,2-4.1,3.4c-0.6-0.8-0.9-1.3-1-1.3c-0.2-0.3-0.4-0.8-0.3-1.7
			c-1.6-0.7-3.3-1.9-3.3-1.9s0.6,2,0.9,3.7c0.9,0.1,1.3,0.5,1.5,0.8c0,0,0.5,0.6,1.2,1.6c-2.4,3.5-5.3,10.7-5.2,23.6
			c0,1.2-0.5,12.4,3.1,19.9c0.4,0.8,1.5,2.8,3.5,4.7c1.6,1.6,3.6,2.6,5.8,3.2c0.1,0,0.2,0.1,0.3,0.1c2.7,0.7,5.1,0.3,6-0.2l-0.1,0.3
			c0,0.1-0.1,0.2-0.1,0.3c-0.5,1.4-0.2,2.8,1.7,3c0.5,0.1,1,0.1,1.7,0.4c0.5,0.2,1,0.6,1.5,1.1c0.2,0.2,0.7,0.9,1,1.3l0,0l0,0v0
			c0.2-0.5,0.7-1.1,1-1.3c0.6-0.6,1.1-0.9,1.5-1.1c0.6-0.3,1.2-0.3,1.7-0.4c1.9-0.2,2.2-1.6,1.7-3c0-0.1-0.1-0.2-0.1-0.3
			c0-0.1-0.1-0.3-0.1-0.3c1.3,0.8,5.3,1.3,9.1-1.1c2.6-1.7,4.5-3.5,6.1-6.6C220,46.3,219.6,34.9,219.5,33.9z M202.6,23.6
			c-0.1,0.1-0.1,0.1-0.3,0.2c-0.2,0.1-0.4,0.2-0.6,0.1c-0.3,0-0.5-0.1-0.6-0.3c-0.4-0.6-0.7-1.2-1.2-2.3c-0.4-0.9-0.3-0.8-0.9-2.2
			c-0.3-0.7-0.8-1.8-1.1-2.1c-0.4-0.6-1.2-1.2-1.5-1.3c-0.3-0.1-0.8-0.3-1.4-0.3c-0.9-0.1-1.9,0.1-2.2,0.2c-0.3,0.1-0.8,0.3-1.1,0.6
			c0,0-0.2,0.2-0.3,0.3c-0.4,0.2-0.5,0.2-1,0.6c-0.8,0.6-0.7,1.6-0.3,2c0,0,0,0,0,0c0-0.2,0-0.5,0.1-0.5c0,0,0.5,0.3,1.1,0.2
			c0.5-0.1,0.8,0.6,0.8,0.6l0.1-0.2c0,0,0.1,0.4,0.3,0.5c0,0,0.1-0.1,0.1-0.1c0.1,0.2,0.4,0.3,0.4,0.6c0,0.3-0.1,0.5-0.4,0.8
			c-0.1,0.1-0.9,0.7-1.7,1.5c-0.4,0.4-0.6,0.7-1,1.1c-0.2,0.2-0.4,0.4-0.6,0.4c0,0-0.1,0-0.1,0c-0.2,0-0.4-0.1-0.5-0.2
			c-0.1-0.1-4.1-5.4-6-7.9c3.5-3.4,9.2-3.9,10.7-3.8c0.3,0,0.7,0.3,0.3,0.8c0.3,0.1,1.5,0,1.9-0.4c0.4,0.4,1.6,0.5,1.9,0.4
			c-0.4-0.6,0-0.8,0.3-0.8c1.4-0.1,6.9,0.2,10.7,3.9C206.5,18.5,204,21.6,202.6,23.6z"/>
		<g>
			<path class="st2" d="M218.8,30.4c-1.1,0.9-2.1,1.7-5.4,3.7l-0.9,0.5l0-0.6c0-0.1,0.2-8.5-3.9-15.8c-0.3,0.3-1.1,1.4-2,2.6
				c0.5-0.1,1.1,0.1,1.5,0.6c0.9,0.8,2.2,2.8,3,4.9c0.4,1.3,0.8,3.1,0.7,4.6l0,0c0,0-0.5,8.6-1.5,16.9c-0.9,7.5-1.4,8.5-1.4,8.5
				c-0.6-0.7-0.8-1.6-0.9-2.1l-0.1,0.1c0,0-0.5-0.8-0.8-2.2c-0.4-1.7-0.4-4.7-0.4-6.1l0,0c0,0,0-0.4-0.3-1.2c-0.2-0.3-0.3-0.7-0.4-1
				c0,0,0,0,0,0c-0.5-2.3-1.6-3-2.2-3.7c-0.7-0.9-1.2-1.8-1.5-2.5c0,0,0,0-0.1,0c-0.4,0.4-0.7,0.7-0.7,0.9c0.1,1.3,0.3,2.3,0.1,3
				c-0.1,0-0.2-0.2-0.3-0.2c0.1,0.9-0.3,1.9-0.1,2.7l-0.5-0.1c0,0.1,0,0.1,0.1,0.1c0.1,0.1,0.1,0.2,0.3,0.2c0,0,0.1,0.1,0.2,0.1
				c0,0,0.2,0.1,0.5,0.2c0.3-0.7,0.1-1.3-0.2-1.7c-0.3-0.3,0.1-0.7,0.6-0.5c0.7,0.3,1.4,0.7,2.2,1.4c1.1,1,1.4,2.1,1.2,2.3
				c-0.2,0.2-0.3,0.1-0.5,0c0,0,0,0.1,0,0.1c-0.1,0.2-0.2,0.3-0.5,0.4l0,0c-0.1,0.2-0.3,0.2-0.6,0.2c-0.3,0-0.6-0.2-0.6-0.2
				c-0.1,0-0.1-0.1-0.2-0.2c-0.1,0-0.1,0.1-0.2,0.2c0.9,1.2,2.5,3.1,3.7,5.2c0.9,1.5,1.2,2.8,1.2,2.8s-0.5,0.1-1.1,0
				c0.2,0.6,0.3,1.1,0.3,1.6c-0.5,0-1.1,0-1.7-0.4c0,0.1,0,0.2,0.1,0.3c0.5,0.4,1.1,0.8,1.4,1c-2.6,1.2-6.4,0.7-6.5,0.7
				c-0.2,0-0.3,0-0.5-0.1c0,0.1-0.1,0.2-0.1,0.2c0.3,0.6,0.8,2,1,2.3c1.7,0.8,3.2,1.3,5.6,0.9c0,0,0.4,0,1.4-0.4
				c1-0.3,3-1.5,4.5-2.9c1.9-1.8,3-3.6,3.4-4.3c2.9-5.6,3.4-14,3.4-17.4c0-1.1,0-1.7,0-1.8C218.9,33.1,218.8,31.3,218.8,30.4z"/>
			<path class="st2" d="M190.6,60.1c0.1-0.3,0.6-1.6,0.9-2.2c0-0.1-0.1-0.2-0.1-0.3c-0.4,0.1-0.7,0.1-1.1,0.2
				c-0.2,0-3.8,0.6-6.5-0.6c0.3-0.2,0.9-0.7,1.7-1.2c0-0.1,0-0.1,0-0.2c-0.6,0.4-1.2,0.4-1.7,0.4c0-0.4,0.1-0.9,0.3-1.6
				c-0.6,0.1-1.1,0-1.1,0s0.4-1.3,1.2-2.8c0.8-1.4,1.9-2.9,2.9-4c0.1-0.5,0.5-0.9,0.5-0.9c0,0,0.1-0.1,0.2-0.2
				c-0.1-0.1-0.2-0.2-0.3-0.3c-0.1,0.1-0.2,0.2-0.3,0.2c-0.3,0.1-0.5,0.2-0.6,0.2c-0.3,0-0.5-0.1-0.6-0.2l0,0
				c-0.2-0.1-0.4-0.2-0.5-0.4c0,0,0-0.1,0-0.1c-0.2,0.1-0.3,0.1-0.5-0.1c-0.2-0.2,0.1-1.2,1.2-2.2c0.8-0.7,1.5-1.2,2.2-1.4
				c0.5-0.2,0.8,0.2,0.6,0.5c-0.3,0.4-0.5,1-0.2,1.7c0.3-0.1,0.4-0.2,0.5-0.2c0.1,0,0.3-0.1,0.4-0.3c0,0,0-0.1,0.1-0.1l-0.5,0.1
				c0.2-0.6-0.1-2,0.1-2.9c-0.1,0-0.2,0.2-0.3,0.2c-0.2-0.8-0.1-2.2-0.1-2.8c0-0.2-0.2-0.5-0.6-0.8c-0.3,0.7-0.7,1.5-1.5,2.4
				c-0.6,0.7-1.6,1.4-2.2,3.7c0,0,0,0,0,0c-0.1,0.4-0.2,0.7-0.4,1c-0.4,0.7-0.3,1.2-0.3,1.2l0,0c0,1.5,0,4.5-0.4,6.1
				c-0.3,1.5-0.8,2.2-0.8,2.2l-0.1-0.1c-0.1,0.5-0.4,1.4-0.9,2.1c0,0-0.5-1-1.4-8.5c-1-8.2-1.5-16.9-1.5-16.9l0,0
				c-0.1-1.5,0.2-3.3,0.7-4.6c0.8-2.1,2.2-4.1,3-4.9c0.5-0.5,1.1-0.6,1.7-0.5c-0.2-0.2-0.3-0.5-0.3-0.5c-0.6-0.8-1.2-1.6-1.8-2.3
				c-4,7.1-3.9,15.6-3.9,15.6l0,0.9l-0.7-0.4c-3.2-1.8-4.5-2.9-5.6-3.7c0,0.9-0.1,3.8-0.1,3.8c0,0.1,0,0.7,0,1.8
				c0,3.4,0.6,11.7,3.4,17.4c0.4,0.7,1.4,2.6,3.3,4.4c1.4,1.3,3.1,2.3,4.9,2.9c0.1,0,0.3,0.1,0.4,0.1
				C186,61.4,188.3,61.3,190.6,60.1L190.6,60.1z"/>
			<path class="st2" d="M192.3,62.2c0-1,0.2-2.5,0.4-3.8c-0.3,0.3-0.6,0.5-0.6,0.5c0,0-0.1-0.1-0.2-0.1c-0.6,1.5-1.5,3.7-1.5,3.7
				C190.8,62.1,191.5,61.9,192.3,62.2z"/>
			<path class="st2" d="M198.4,63.2c0-1-0.4-3.9-0.6-5.5c0,0-0.1-0.1-0.1-0.1c-0.1-0.1-0.1-0.1-0.2-0.2c-0.1,0.3-0.2,0.7-0.4,1
				c-0.2,0.4-0.5,0.8-0.5,0.8c0,0-0.8-0.5-1.3-1.6c-0.5,1-1.2,1.6-1.3,1.6c-0.1,0-0.3-0.4-0.5-0.8c-0.1-0.2-0.2-0.4-0.2-0.5
				c-0.2,1.7-0.6,4.4-0.6,5.4c-1.6-1-2.5,0-2.2,0.7c0,0.1,0.1,0.1,0.1,0.2c0.2,0.2,0.4,0.4,0.8,0.4c0.5,0,1.2,0.1,1.9,0.4
				c0.7,0.3,1.4,0.9,2.2,1.8c0.8-0.9,1.5-1.5,2.2-1.8c0.8-0.4,1.4-0.4,1.9-0.4c0.3,0,0.6-0.2,0.8-0.4c0,0,0.1-0.1,0.1-0.2
				C201,63.2,200,62.2,198.4,63.2z"/>
			<path class="st2" d="M199,58.9c0,0-0.2-0.1-0.5-0.4c0.2,1.2,0.4,2.6,0.5,3.7c0.8-0.3,1.5-0.1,1.9,0.3c0,0-1-2.5-1.5-3.9
				C199.2,58.7,199,58.9,199,58.9z"/>
		</g>
		<g>
			<path d="M193.1,27.6L193.1,27.6C193,27.6,193.1,27.6,193.1,27.6"/>
		</g>
		<g>
			<polyline points="192.2,28 192.2,28 192.2,28 			"/>
		</g>
		<path d="M206.3,32.2c-0.1,0.6-0.3,0.8-0.8,1.1c-0.3-0.8-0.4-1.5,0.8-3.9c-0.8,2.4-0.5,3.2-0.5,3.2S206.1,32.4,206.3,32.2z
			 M205,30.5c0,0-0.3-0.5,0.4-2.6c-1.3,2-0.7,3.4-0.7,3.4s0.7-0.3,0.9-1.1C205.4,30.4,205,30.5,205,30.5z M209.7,26.9
			c-0.2,2.1-0.4,2.5-0.6,2.9c-0.2-0.1-0.3-0.6-0.3-0.6c-0.1,0.4,0,1,0.4,1.3C209.6,30,209.9,28.8,209.7,26.9z M209.3,25.5
			c-0.3,2.4-0.7,2.9-1,3.3c-0.2-0.1-0.4-0.7-0.4-0.7c-0.1,0.4,0,1.1,0.3,1.4C208.8,28.9,209.4,27.7,209.3,25.5z M207.6,27.8
			c-0.2-0.6-0.2-1.3-0.2-1.3c-0.3,0.9-0.2,1.7,0.1,2.1c0.5-0.6,1.3-2.3,1.2-3.9C208.4,26.6,207.8,27.4,207.6,27.8z M206.7,26.5
			c-0.2-0.7-0.1-1.7-0.1-1.7c-0.4,0.9-0.4,2.1-0.1,2.5c0.6-0.5,1.4-2,1.5-3.7C207.5,25.6,207,26.1,206.7,26.5z M209.6,30.4
			c0,0.5,0.4,0.8,0.4,0.8s0.7-1,0.4-2.7c-0.1,1.6-0.5,2.1-0.5,2.1S209.6,30.6,209.6,30.4z M210.4,31.2c0,0.4,0.4,0.7,0.4,0.7
			s0.6-0.9,0.3-2.4c-0.1,1.4-0.4,1.9-0.4,1.9S210.4,31.3,210.4,31.2z M181.7,29.9c-0.2-0.4-0.4-0.8-0.6-2.9
			c-0.1,1.9,0.2,3.1,0.6,3.6c0.3-0.3,0.4-0.9,0.4-1.3C182.1,29.3,181.9,29.8,181.7,29.9z M182.5,28.9c-0.3-0.4-0.6-0.9-1-3.3
			c-0.1,2.1,0.5,3.4,1,4c0.3-0.4,0.4-1,0.3-1.4C182.8,28.2,182.7,28.7,182.5,28.9z M183.3,27.9c-0.3-0.4-0.8-1.2-1.2-3.2
			c-0.1,1.6,0.7,3.4,1.2,3.9c0.3-0.4,0.4-1.1,0.1-2.1C183.5,26.6,183.5,27.2,183.3,27.9z M184.1,26.5c-0.3-0.4-0.8-0.9-1.3-2.8
			c0.1,1.6,0.9,3.1,1.5,3.7c0.3-0.4,0.3-1.6-0.1-2.5C184.2,24.9,184.3,25.9,184.1,26.5z M180.9,30.8c0,0-0.4-0.5-0.5-2.1
			c-0.3,1.7,0.4,2.7,0.4,2.7s0.4-0.3,0.4-0.8C181.2,30.6,180.9,30.8,180.9,30.8z M180.2,31.5c0,0-0.3-0.5-0.4-1.9
			c-0.3,1.5,0.3,2.4,0.3,2.4s0.4-0.3,0.4-0.7C180.4,31.3,180.2,31.5,180.2,31.5z M185,32.6c0,0-0.3-0.1-0.5-0.4
			c0.1,0.6,0.3,0.8,0.8,1.1c0.3-0.8,0.4-1.5-0.8-3.9C185.4,31.8,185,32.6,185,32.6z M185.8,30.5c0,0-0.4-0.1-0.6-0.3
			c0.2,0.7,0.9,1.1,0.9,1.1s0.6-1.4-0.7-3.4C186.1,30,185.8,30.5,185.8,30.5z M191.7,40.7c0.1-1.1-0.5-2-0.6-2.5
			c-0.1,0.1-0.1,0.5-0.1,0.5c-0.4-0.4-0.5-1.1-0.6-1.4c-0.1,0.7-0.4,1.1-0.4,1.5c0.2,0,0.3-0.1,0.5-0.2
			C190.7,39.5,191.4,39.7,191.7,40.7z M199.6,38.8c0,0,0-0.4-0.1-0.5c-0.1,0.4-0.7,1.4-0.5,2.5c0.3-1,1-1.2,1.2-2.1
			c0.2,0.1,0.3,0.2,0.5,0.2c-0.1-0.4-0.4-0.7-0.4-1.5C200.1,37.6,200,38.4,199.6,38.8z M193.8,37.7c-0.1-0.4-0.3-1.6-0.8-2.1
			C192.8,36.5,193.4,37.3,193.8,37.7z M196.7,38.9c0.2-0.5,0.7-1,0.6-2.6C196.9,36.8,196.7,38.3,196.7,38.9z M195.8,39.5
			c0.2-0.6,0.2-1.5,0-1.8C195.5,38.4,195.5,39,195.8,39.5z M195.1,37.6c0.2-0.7,0.2-1.6-0.1-2C194.7,36.3,194.7,37,195.1,37.6z
			 M200.2,31c-0.4,0.6-0.6,2-0.7,2.4C199.7,33.2,200.5,31.3,200.2,31z M200.3,28.8c0,0,0.7-1.3,0.3-2
			C200.1,26.9,200.3,28.8,200.3,28.8z M198.1,31.9c0,0,1.2-1.1,1.1-2.5c-0.3,0.9-1.1,1.3-1.1,1.3c0,0-0.4-0.3-0.6-0.9
			C197.3,31.3,198.1,31.9,198.1,31.9z M200.4,30.3c0.3-0.5,0.7-1.2,0.4-1.7C200.6,29.1,200.5,29.7,200.4,30.3z M196.8,35.8
			c0.2-0.5,0.7-1.3,0.6-2.3C196.9,33.8,196.7,35.2,196.8,35.8z M198.5,34.3c0.7-0.8,1.1-1.8,0.8-2.8
			C198.6,32.4,198.6,33.4,198.5,34.3z M197,31.3c-0.2,0.7-0.5,1.1-1,1.6c-0.2-0.2-0.4-0.4-0.7-1c-0.1,1.1,0.5,1.8,0.9,2
			C196.4,33.8,197.1,32.7,197,31.3z M194,34.2c-0.1,0-0.8-0.7-1-1.1c0.1,0.6,1,1.9,1.4,2.1c0.1-0.2,0.6-1.2,0.2-2.8
			C194.3,33.4,194.1,33.9,194,34.2z M189.9,26.5c-0.1-0.6,0.6-1.1,0.4-2C189.6,25.3,189.7,26.1,189.9,26.5z M191.3,33.1
			c0.4,0.7,0.7,1,1,1.3c-0.5-0.7-0.9-2.1-1.3-2.5C190.9,32.1,191.1,32.8,191.3,33.1z M191,30.1c-0.3,1.1,0.9,2.2,0.9,2.2
			C191.8,32.4,191.8,31,191,30.1z M191.8,28c0,0.5,0,0.9-0.1,1.5c-0.3-0.1-0.5-0.3-0.7-0.5c0.2,0.6,1,1.4,1.1,1.6
			C192.1,29.6,192.2,28.6,191.8,28z M191.3,25c0.3-1.1,1-1.8,1.2-2.4C191.3,23.4,191.1,24.7,191.3,25z M190.3,30
			c-0.2-1-0.1-1.6-0.6-2.5C189.6,28.6,190.2,29.9,190.3,30z M193.1,26.3c-0.8,1,0.4,2.1,0.4,2.2C193.5,28.4,193.6,26.6,193.1,26.3z
			 M193.7,23.7c-1.1,0.9-0.6,1.6-0.4,2.1C193.5,24.9,193.6,24.7,193.7,23.7z M194.3,31.3c0.2-0.4,0.7-1.2,0.5-2.6
			c-0.1,1-0.7,1.5-0.7,1.5c0,0-0.4-0.2-0.7-0.8C193.5,30.6,194,31,194.3,31.3z M200.1,23.8c-0.1,0.6,0.7,2.1,0.7,2.2
			C200.8,25.9,201.2,24.7,200.1,23.8z M198.6,21.3c-0.1,0.5,0.8,1.4,0.8,1.4C199.4,22.7,199.5,21.6,198.6,21.3z M199.9,25.4
			c-0.3,1.2-0.8,1.7-0.8,1.7c0,0-0.4-0.3-0.8-0.8c0,1,0.8,1.9,0.8,1.9C199.1,28.2,200.1,27.4,199.9,25.4z M197.5,23.2
			c-0.5,0.5,0,1.5,0.2,2.4C197.9,25.1,198.2,23.7,197.5,23.2z M197.8,21.8c0-0.4-0.1-1.2-1.1-1.3C196.7,21,197.5,21.3,197.8,21.8z
			 M196.8,20c0.2,0.2,0.9,0.4,1.3,0.8C198.1,20.1,197.4,19.7,196.8,20z M195.8,22.8c-0.7,0.7-0.3,1.4-0.3,1.4
			C195.5,24.1,196.4,23.2,195.8,22.8z M196.8,29.9c0,0,0.9-0.8,1-2.5c-0.5,0.8-1,1.3-1,1.3c0,0-0.5-0.3-0.9-0.8
			C195.9,29,196.8,30,196.8,29.9z M195.5,25.3c-0.8,1.2,0,2.4,0,2.4C195.5,27.7,196.1,26.1,195.5,25.3z M195.8,17.1
			c0.2,0.2,0.9,0.5,1.3,0.9C197,17.3,196.5,17,195.8,17.1z M196.1,17.7c-0.4-0.5-0.9-0.6-1.2-0.7C195.3,17.4,195.6,17.8,196.1,17.7z
			 M197.5,18.9c0-0.1-0.3-0.6-1-0.7c0.2,0.2,0.3,0.5,0.4,0.6c-0.1,0.1-0.5,0.1-0.6,0.1C196.5,19.1,197,19.1,197.5,18.9z M191.4,17.2
			c-0.1,0-0.1,0.2,0.1,0.2c0.2,0,0.2-0.2,0.2-0.2S191.5,17.2,191.4,17.2z M197.3,5.6c-0.2-0.2-0.4-0.3-0.6-0.4
			c-0.2,0.1-0.4,0.3-0.6,0.4c0.2,0.1,0.3,0.3,0.6,0.4C197,5.9,197.1,5.8,197.3,5.6z M193.7,16.7c0,0,0.1,0.1,0,0.4s-0.1,0.5-0.5,0.5
			c-0.4,0.1-0.7-0.1-0.8-0.5c0-0.1,0-0.2,0.1-0.3c-0.1,0-0.1,0.1-0.2,0.3c-0.1,0.1-0.2,0.1-0.4,0.2c0-0.2,0.2-0.6,0.5-0.7
			c0.4-0.2,1.8-0.2,2.8,0.3c-0.4-0.1-0.7,0-1-0.1C193.9,16.7,193.7,16.7,193.7,16.7z M193.5,16.7c0,0-0.4,0-0.4,0
			c0,0.1,0.2,0.2,0.3,0.2c0,0,0.1,0,0.1-0.1C193.6,16.8,193.6,16.8,193.5,16.7z M198.3,8.4c-2.8-0.2-8.2,0.1-10.9,0.9
			c0,0-0.3-0.7-0.5-0.9c-0.7-0.8-1,0.1-1,0.2c0.9,0.1,1.1,0.5,1.1,0.5c-0.2,0.4-0.4,0.5-0.9,0.9c-0.2,0.1-0.7,0.5-1.5,0.5
			c-1.7,0.1-1.2-1.7-0.2-2.4c-0.1,0.2-0.7,1.1-0.4,1.5c0.4,0.5,2,0.1,2.4-0.4C186.1,9,185.7,9,185.1,9c0-0.3,0.2-1,1-1.7
			c0.3,0.1,1.1,0.5,1.4,1.2c2.5-0.7,7-0.8,7.2-0.9c-0.1-0.4-0.2-2-0.2-2.1c0-0.3,0.2-0.4,0.3-0.5c0.2,0.3,0.4,0.5,0.8,0.6
			c-0.2,0.2-0.3,0.3-0.5,0.4c0,0.3,0.1,0.9,0.1,1.1c0.4-0.2,1-0.4,1.6-0.6c0.2-0.1,0.5-0.1,0.7-0.1c0.2,0,0.5,0.2,0.7,0.3
			c0.1,0.1,0.3,0.3,0.3,0.5C198.4,7.8,198.4,8.2,198.3,8.4z M197.7,7.4c-0.3-0.6-1.6-0.1-2.5,0.3c0.5,0,0.9,0,1.4,0
			c0.2,0,0.7,0,1.1,0C197.7,7.6,197.8,7.5,197.7,7.4z M186.1,10.4c-0.2-0.1-0.3-0.1-0.5-0.2c-0.1,0.2-0.3,0.4-0.3,0.6
			c0.2,0.1,0.4,0.1,0.7,0.2c0.1-0.2,0.2-0.3,0.3-0.4c0.2,0.1,0.3,0.1,0.5,0.2c0.1-0.2,0.2-0.3,0.4-0.6c-0.3-0.1-0.4-0.1-0.7-0.2
			C186.2,10.1,186.1,10.3,186.1,10.4z M206.6,8.3c0.6,0,1.1,0.1,1.3-0.2c-0.3-0.1-0.7-0.2-0.8-0.4c0.1-0.1,0.4,0,0.5,0.1
			c0.1-0.1,0.1-0.1,0.2-0.2c-0.4-0.3-0.9-0.1-1,0.2c0.1,0.1,0.3,0.1,0.3,0.2C207,8.1,206.7,8.3,206.6,8.3z M206.3,9.3
			c-0.2,0.5-0.4,1-0.7,1.5c0.2,0.1,0.4-0.1,0.5-0.2c0.7-0.4,1.2-1.6,1.4-2.3c0,0-0.4,0.1-0.6,0.2C206.6,8.8,206.5,8.9,206.3,9.3z
			 M201.2,9.6c0.2,0.2,0.3,0.3,0.5,0.5c0.3-0.1,0.4-0.2,0.7-0.3c-0.2-0.2-0.3-0.3-0.5-0.5C201.6,9.3,201.3,9.5,201.2,9.6z
			 M205.8,9.1c-0.1,0.4-0.4,0.6-0.6,0.8c-1-0.4-3.1-0.9-4.2-1c-0.3,0.3-0.8,0.8-1.3,0.9c-0.7-0.1-1.2-0.3-1.7-0.5c0.3,0,0.4,0,0.6,0
			c0.7,0,1.3-0.2,1.8-0.5c-1-0.2-1.2-0.4-0.8-1.1c0.2-0.3,0.6-0.8,1.1-0.7c0.4,0.1,0.5,0.7,0.5,1.2c1.2,0.1,2.7,0.5,3.8,0.9
			c0.1-0.3-0.1-0.5-0.3-0.7c0.2-0.2,0.4-0.4,0.6-0.5C205.7,8,205.9,8.7,205.8,9.1z M200.2,7.6c0,0-0.2,0.1-0.3,0.3
			c0.1,0.1,0.3,0.2,0.5,0.2c0,0,0.1,0,0.1,0C200.7,7.8,200.5,7.5,200.2,7.6z M187.7,9.9c0.2,0.1,0.4,0.2,0.7,0.3
			c0.2-0.2,0.3-0.3,0.5-0.5c-0.3-0.1-0.4-0.2-0.7-0.3C188,9.6,187.8,9.8,187.7,9.9z M216.4,53.8c-1.5,3-3.5,4.9-6.1,6.6
			c-3.8,2.4-7.8,1.8-9.1,1.1c0,0,0.1,0.3,0.1,0.3c0,0.1,0.1,0.2,0.1,0.3c0.5,1.4,0.2,2.8-1.7,3c-0.5,0.1-1,0.1-1.7,0.4
			c-0.5,0.2-1,0.6-1.5,1.1c-0.2,0.2-0.7,0.9-1,1.3v0l0,0l0,0c-0.2-0.5-0.7-1.1-1-1.3c-0.6-0.6-1.1-0.9-1.5-1.1
			c-0.6-0.3-1.2-0.3-1.7-0.4c-1.9-0.2-2.2-1.6-1.7-3c0-0.1,0.1-0.2,0.1-0.3l0.1-0.3c-0.9,0.6-3.3,1-6,0.2c-0.1,0-0.2-0.1-0.3-0.1
			c-2.2-0.6-4.2-1.7-5.8-3.2c-2-1.9-3.1-3.9-3.5-4.7c-3.6-7.5-3.1-18.7-3.1-19.9c-0.1-12.9,2.7-20.1,5.2-23.6
			c-0.7-1-1.2-1.6-1.2-1.6c-0.2-0.2-0.7-0.6-1.5-0.8c-0.2-1.7-0.9-3.7-0.9-3.7s1.7,1.2,3.3,1.9c-0.1,0.8,0.1,1.4,0.3,1.7
			c0,0,0.4,0.5,1,1.3c1.1-1.4,2.2-2.3,4.1-3.4c0.4-0.2,0.9-0.5,1.4-0.7c0-0.7,0.2-1.3,0.7-1.8c0-0.4,0.4-0.9,0.8-1l0,0
			c0.4-0.1,1,0.1,1.3,0.4c0.7,0.1,1.3,0.5,1.8,1c1.5-0.3,3.2-0.6,5.1-0.7c0.2-0.9,0.8-1.6,1.6-2c0.2-0.4,0.8-0.8,1.3-0.9
			c0,0,0,0,0,0s0,0,0,0h0c0.5,0,1.1,0.4,1.3,0.9c0.8,0.4,1.4,1.1,1.6,2c1.9,0.1,3.6,0.4,5.1,0.7c0.5-0.5,1.1-0.9,1.8-1
			c0.3-0.3,0.9-0.5,1.4-0.4l0,0c0.4,0.1,0.7,0.6,0.8,1c0.5,0.5,0.7,1.1,0.7,1.8c0.5,0.2,1,0.5,1.4,0.7c1.8,1,3.1,2.2,4.1,3.4
			c0.6-0.9,1-1.4,1.1-1.4c0.2-0.3,0.4-0.8,0.3-1.7c1.6-0.7,3.3-1.9,3.3-1.9s-0.6,2-0.9,3.7c-0.9,0.1-1.3,0.5-1.5,0.8
			c0,0-0.5,0.7-1.4,1.8c2.4,3.5,5.3,10.7,5.1,23.5C219.6,34.9,220,46.3,216.4,53.8z M215.3,13.4c-1.5,0.3-2.5,0.3-3.1,0.3
			c-0.4,0.8-0.7,1.6-0.7,3.1c-0.6-0.2-1-0.4-1.3-0.7c-0.4,0.6-0.7,0.9-1.1,1.5c4,7.2,4,13.9,4.1,15.8c3.1-1.8,5.1-3.5,5.5-3.8
			C218.3,22.8,217.3,17.7,215.3,13.4z M208.8,33.5c-0.1,0.8-0.1,1.4,0.1,2.1c0.4-0.5,0.6-0.9,0.9-1.8c0,0.7,0.2,1.4,0.3,1.7
			c0.5-0.7,0.8-3.5,0.8-3.5s0,0.1,0.3,0.2c0.3-1,0.1-3.1-0.1-4.1c-0.4-1.7-1-3.8-3.1-6.3c-1.1-1.3-2-0.7-2.9,0.3
			c-1.5,1.6-1.8,2.3-3.5,2.6c0,0,0,0,0,0c-0.2,0,0,0.1,0.3,0.1c2.1,0,2.8-1.4,3.4-2.1c0.4-0.5,1-0.9,1.4-0.6
			c0.2,0.1,0.7,0.8,0.2,2.4c0-0.4-0.1-0.7-0.2-0.8c-0.3,1.1-0.6,2-1.1,2.7c-0.1-0.2-0.1-0.4-0.1-0.6c-0.2,1.3-1.4,2.7-1.6,4.7
			c-0.1-0.2-0.2-0.3-0.2-0.8c-0.9,1.7-1.8,4.7-1.3,6.2c0-1.5,0.9-3.7,1.4-4.4c-0.6,2-1.3,4.4-0.7,5.9c0-1.3,0.8-3.3,1.3-4.2
			c-0.9,3.2-1.2,4.9-0.3,6.1c-0.2-1.2,0.3-3,1-4.5c-0.4,2.5-1.1,4.7,0.1,5.8c-0.2-1.7,0.5-3.8,0.8-4.6c-0.4,2.4-0.7,4.8,0.1,6
			c0-0.8,0.2-1.7,0.3-2.5c0.2-1.1,0.5-2.1,0.5-2.1s-0.2,1.7-0.4,3.8c0,0.3,0,0.7,0,1c0,0.4,0,0.9,0.1,1.3c0.1,0.4,0.2,0.7,0.4,1
			c0.2-2.8,0.5-5.1,0.9-6.2c0,0-0.3,2.6-0.5,6.5c0,0.1,0,0.3,0,0.4c-0.3,5.7,0.5,7.5,0.7,8c0,0-0.1-0.1-0.1-0.8c0-0.6,0-0.6,0-1.3
			c0-0.2-0.5-1.2-0.4-2.6c0-0.8,0.1-1.7,0.2-2.5c0.1-0.7,0.1-1.5,0.2-2.2c0.1-0.6,0.1-1.2,0.2-1.9c0.1-0.9,0.3-1.8,0.5-2.7
			c0.1-0.7,0.1-0.1,0,0.1c-0.1,0.8-0.2,2.6-0.4,4.4c-0.1,1.4-0.4,4.1-0.3,5.4c0.1,1.1,0.4,1.6,0.4,1.8c-0.1,2.2,0.2,3.1,0.5,3.9
			c0,0,0.2-0.8,0.4-1.8c0,0.1-0.1,0.2-0.2,0.2c-0.3-0.7-0.4-2-0.2-3.3c0-0.2-0.3-0.5-0.3-1.6c0-1.6,0.3-3.2,0.5-4.9
			c0.1-0.5,0.1-1.1,0.2-1.6c0-0.3,0.1-0.6,0.1-1c0.1-0.5,0.2-1,0.3-1.5c0-0.1,0-0.2,0-0.2c0,0,0,0.4-0.1,0.9
			c-0.2,2.2-0.7,7.7-0.7,8.2c0,1.1,0.3,1.4,0.3,1.6c-0.1,0.8,0,2.2,0.1,2.6c0.1-0.3,0.2-0.9,0.2-0.9s0.3-2.3,0.7-5.5
			c0.1-0.5,0.1-1,0.2-1.5c0-0.5,0.1-0.9,0.1-1.4c0.1-0.6,0.1-1.1,0.2-1.7c0-0.2,0-0.5,0.1-0.7c0.1-1.5,0.3-3.2,0.4-4.7
			c0,0,0.2-2.4,0.2-3.2c-0.1-0.1-0.1-0.1-0.1-0.1s-0.3,3-1.1,4.1c-0.2-0.2-0.5-1.3-0.5-1.7c-0.2,0.6-0.9,1.4-0.9,1.4
			s-0.3-0.6-0.2-1.6c-0.2,0.4-0.5,0.6-0.8,0.8c-0.2-0.3-0.3-0.7-0.3-1.7c-0.1,0.2-0.4,0.4-0.7,0.6c-0.1-0.2-0.6-1.1,0.3-4.2
			c-0.4,2.9-0.2,3.3-0.1,3.5c0.2-0.1,0.3-0.2,0.4-0.3c0-0.5,0.1-1.2,0.3-2.1c-0.1,2.3,0,3,0.2,3.5C208.1,34.9,208.4,34.5,208.8,33.5
			z M201.7,34.5c0.2-3,0.7-4.8,1.2-6.4C201.3,29.8,201.5,33.9,201.7,34.5z M202,27.9c0.5-1.5,0.1-2.3-0.2-2.4
			C201.8,26.2,202,26.5,202,27.9z M203.3,29.2c0.4-1.4,0.6-2.2,0.6-3.4C203.6,26.2,203.3,27.7,203.3,29.2z M204.7,26.2
			c0.1-0.5,0.1-1.2,0.1-1.7c-0.2,0.5-0.5,1.6-0.4,2.6C204.4,26.9,204.6,26.6,204.7,26.2z M201,37.6C201,37.5,201,37.5,201,37.6
			C201.1,37.5,201.1,37.5,201,37.6C201.1,37.5,201.1,37.5,201,37.6c0.1-0.1,0.2-0.1,0.3,0c0.1,0,0.1,0.1,0.2,0.1
			c-0.1-0.3-0.1-0.7-0.2-1.1c0-0.4,0-0.9-0.2-1.4c0,0,0,0,0-0.1c-0.1,0.2-0.2,0.4-0.4,0.6c-0.2,0.3-0.5,0.6-0.5,1l0,0.1l-0.1-0.1
			c0.1,0.1-0.3-0.4-0.3-0.4c-0.2,0.7-1.3,2.1-1.6,2.4v0c0,0-0.5,0.7-0.6,2.3c-0.2,1.5,0,2.4,0,2.4l0.4-0.4c0,0,0,0.4,0,0.9
			c0,0.4-0.2,0.7-0.2,0.7s0.8,0.1,1.4-0.6l0.1,0.3c0.1,0.3,0.2,0.6-0.1,0.8c0,0-0.4,0.4-0.4,0.7c0,0.1,0.1,0.2,0.2,0.3l0,0l0,0
			c0,0.2,0.2,0.3,0.2,0.3c0-0.2,0-0.2,0-0.3c0.1-0.2,0.2-0.3,0.3-0.3c0.1,0,0.2,0,0.2,0s0.1,0.9,0.2,1.3c0.1,0.3,0.2,0.8,0.2,1.2
			c0,0.1,0,0.2,0,0.3c0,0.3,0.2,0.3,0.4,0.4c0.1,0,0.3,0,0.4,0l0,0l0,0c-0.2,0.1-0.2,0.2-0.2,0.2c0,0.1,0.1,0.3,0,0.6l0,0
			c0.4-0.2,0.4-0.5,0.3-0.8l0,0l0,0c0.3-0.2,0.2-0.7-0.2-1.5c-0.2-0.4-0.3-1-0.1-1.1c0,0,0,0,0,0c0.1,0,0.1,0,0.3,0.3
			c0.1,0.2,0.3,0.3,0.4,0.5c0.2,0.2,0.3,0.4,0.3,0.5c0,0.1,0,0.1,0,0.1c0,0-0.1,0-0.1,0c-0.1,0-0.2,0-0.3,0c0.1,0.1,0.4,0.5,0.5,0.4
			c0.2-0.3,0,0.2,0.5,0.2c0.3,0,0.5-0.2,0.5-0.5c0-0.1,0-0.2,0-0.3c-0.1-0.3-0.3-0.6-0.4-0.8l-0.1-0.1c-0.7-0.8-0.7-1-0.6-1.1
			c0.1-0.1,0.1-0.2,0.3-0.2c0.3,0,0.6,0,0.6,0c0.3,0.1,0.8,0.1,0.8,0.3c0,0,0,0.1-0.1,0.1c-0.1,0-0.3,0.1-0.3,0.1
			c0,0,0.1,0.1,0.3,0.2c0.1,0.1,0.6,0.2,0.8,0l0.1-0.1c0.1,0,0.3,0,0.4-0.2c0-0.2-0.2-0.4-0.4-0.5c-0.2-0.1-0.7-0.3-1.1-0.4
			c-0.2,0-0.4-0.1-0.5-0.1l-0.9-0.2c0,0-0.5-0.2-0.7-0.2c-0.1,0-0.2-0.1-0.2-0.1c-0.1-0.1-0.3-0.2-0.4-0.3c-0.1-0.1-0.2-0.5-0.3-0.9
			c0.1,0.1,0.4,0.2,0.7,0.3c0-0.1-0.1-0.6,0-0.8c0.1-1.4,0.2-2.3,0.2-2.3s0.3,0.3,0.3,0.3c0-0.2,0-0.9-0.1-1.5c0,0,0,0,0,0
			C201.3,38.8,201.2,38.1,201,37.6z M202.1,44.5l0.7,0.2c0.1,0,0.2,0.1,0.3,0.1c0.1-0.3,0.2-0.7,0.2-1c0-0.4,0.8,0.4,1.4,1
			c0.2,0.2,0.3,0.1,0.1-0.1c-0.6-0.8-1.7-1.5-2-1.7c-0.5-0.3-0.8-0.3-0.6,0C202.4,43.3,202.3,43.9,202.1,44.5z M203.1,50.1
			c0.6,0.8,1.7,2.3,2.1,2.7c0.8,0.9,1.2,1,1.9,1c-0.2-0.6-0.4-1.2-1.4-2.8c-0.5-0.8-1.4-2.2-2.3-3.2c0,0.2,0,0.3-0.1,0.5
			c0,0,0,0.1,0,0.1c-0.1,0.1-0.1,0.2-0.2,0.3c-0.1,0.1-0.3,0.1-0.5,0.1c-0.2,0-0.3-0.1-0.4-0.2c-0.1,0-0.2,0-0.3-0.1
			c0,0.3,0,0.5-0.2,0.7c0,0.2,0,0.6-0.3,0.9c0,0,0,0.1,0,0.1c0.2,0.4,0.1,0.6,0,0.7c-0.1,0.1-1.1,1.2-1.3,1.5c-0.3,0.2-0.6,0-0.6,0
			l-0.2-0.1c0,0-0.3,0.3-0.5,0.5c0,0,0,0,0.1,0.1c0,0,0,0,0,0c0.3,0.3,0.7,0.5,1.2,0.7c0.4,0.2,1.5,0.6,2.2,0.9
			c-0.2-0.5-0.4-1.2-0.6-1.8c0.2,0.3,0.7,1.2,1.2,2c0,0,0.1,0,0,0c0.6,0.3,1.4,0.7,2,1c0-0.2-0.1-0.3-0.1-0.3s-0.5-0.6-0.9-1.1
			c-0.8-1.1-1.2-2.2-1.5-2.9c0.8,1.3,1.1,1.6,1.4,2.1c1.1,1.4,2.2,2.1,2.6,2.1c-0.2-0.8-0.4-1-0.4-1s-0.5-0.4-1.1-1.2
			c0.1,0.2,0.3,0.4,0,0c-0.2-0.3-0.1-0.2,0,0C204.2,52.4,203.6,51.4,203.1,50.1z M200.2,57.2c1.4,0.2,4.5,0.1,5.7-0.3
			c-0.4-0.3-2.2-1.5-4.9-2.6c-0.6-0.2-1.3-0.5-1.8-0.8c-0.3-0.2-0.5-0.4-0.8-0.6c-0.9-0.8-3.2-3.3-3.7-3.7l-1.6,1.4
			c0,0,4.1,4,5.2,4.6c1.3,0.7,5.1,1.6,5.1,1.6s-2.9-0.2-5.1-1.1c-1.3-0.5-5.6-4.7-5.6-4.7l-1,0.9c0.5,0.6,1.7,1.8,3.5,3.3
			C196.5,56.2,198.1,56.9,200.2,57.2z M195.7,56.2c0,0.8,0.6,1.6,0.8,1.7c0,0,0.2-0.3,0.4-1.1C196.3,56.6,196,56.4,195.7,56.2z
			 M188.7,51.1c-0.2,0.8-0.7,1.9-1.5,2.9c-0.4,0.5-0.9,1.1-0.9,1.1s0,0.1-0.1,0.3l-0.1,0.1l0.6-0.3c0.1-0.1,0.2-0.1,0.3-0.2
			c0.4-0.2,0.9-0.4,1.3-0.6c0.4-0.8,1-1.7,1.1-2c-0.1,0.2-0.2,0.7-0.6,1.8l0.3-0.1c0.7-0.3,1.3-0.5,1.6-0.6c0.5-0.2,0.7-0.4,0.9-0.5
			c0,0,0.1-0.1,0.2-0.2c0,0-0.5-0.5-0.5-0.5l-0.2,0.1c0,0-0.3,0.3-0.6,0c-0.2-0.2-1.3-1.3-1.3-1.5c-0.1-0.1-0.2-0.3,0-0.7
			c0,0,0,0,0,0c-0.3-0.3-0.4-0.7-0.4-0.9c-0.1-0.2-0.2-0.4-0.2-0.7c-0.1,0.1-0.2,0.1-0.3,0.1c-0.1,0.1-0.3,0.2-0.4,0.2
			c0,0,0,0-0.1,0c-0.2,0-0.3,0-0.5-0.1c-0.1-0.1-0.1-0.1-0.3-0.3c0,0,0,0,0,0c-0.6,0.6-1.1,1.4-1.9,2.7c-1,1.6-1.2,2.1-1.4,2.7
			c0.6,0,1-0.1,1.9-1c0.4-0.4,1.4-1.9,2.1-2.7c-0.5,1.3-1.1,2.4-1.6,3c-0.6,0.8-1.2,1.3-1.2,1.3s-0.2,0.2-0.4,1
			c0.4,0,1.6-0.6,2.6-2.1C187.6,52.8,187.8,52.4,188.7,51.1z M188.1,46.9c-0.3,0.3-0.6,0.7-0.6,1.2c0,0.3,0.2,0.5,0.5,0.5
			c0.4,0,0.2-0.5,0.5-0.2c0.1,0.1,0.4-0.3,0.5-0.4c-0.2,0-0.5,0.1-0.4-0.2c0-0.2,0.2-0.4,0.3-0.5c0.1-0.1,0.5-0.8,0.7-0.7
			c0.1,0.1,0,0.7-0.1,1.1c-0.4,0.8-0.5,1.4-0.2,1.5l0,0l0,0c0,0.3,0,0.6,0.3,0.8l0,0c-0.1-0.3,0-0.5,0-0.6c0,0,0-0.1-0.2-0.2l0,0
			l0,0c0.1,0,0.3,0,0.4,0c0.2,0,0.3-0.1,0.4-0.4c0-0.1,0-0.2,0-0.3c0.1-0.5,0.1-0.9,0.2-1.2c0.1-0.4,0.2-1.3,0.2-1.3s0.1,0,0.2,0
			c0.1,0,0.3,0.1,0.3,0.3c0,0.1,0,0.2,0,0.3c0.1,0,0.2-0.1,0.2-0.3l0,0l0,0c0.1-0.1,0.2-0.2,0.2-0.3c0.1-0.3-0.3-0.7-0.4-0.7
			c-0.2-0.2-0.2-0.5-0.1-0.8l0.1-0.3c0.1,0.1,0.3,0.3,0.4,0.4c0.5,0.4,1.1,0.3,1.1,0.3s-0.1-0.3-0.2-0.7c-0.1-0.5,0-0.9,0-0.9
			l0.4,0.4c0,0,0.2-0.8,0.1-2.3c-0.2-1.7-0.5-2.4-0.6-2.7c-0.1-0.4-0.3-0.8-0.3-0.8s0,0.2-0.3,0.5c-0.3-0.4-0.9-1.2-1.1-1.8
			c-0.1,0.2-0.2,0.3-0.3,0.4l-0.1,0.1l0-0.1c-0.1-0.4-0.3-0.7-0.5-1c-0.2-0.2-0.3-0.4-0.4-0.6c-0.1,0.5-0.2,1-0.2,1.4
			c0,0.4-0.1,0.8-0.2,1.1c0.1,0,0.2-0.1,0.2-0.1c0.1-0.1,0.2-0.1,0.2-0.1l0,0l0,0c0,0,0,0,0,0.1c-0.1,0.6-0.3,1.3-0.3,1.7
			c0,0.6,0,1.1,0,1.4c0,0,0.5-0.3,0.5-0.3s-0.3,0.9-0.1,2.3c0,0.2,0,0.7,0,0.8c0.3,0,0.5-0.2,0.6-0.2c-0.1,0.4-0.2,0.7-0.3,0.9
			c-0.4,0.5-1.1,0.6-1.7,0.8c-0.7,0.2-1.4,0.3-2,0.6c-0.2,0.1-0.4,0.3-0.4,0.5c0.1,0.2,0.3,0.2,0.4,0.2l0.1,0.1
			c0.2,0.2,0.7,0.1,0.8,0c0.1-0.1,0.2-0.2,0.3-0.2c0,0-0.2,0-0.3-0.1c0,0-0.1-0.1-0.1-0.1c0-0.3,1.2-0.3,1.4-0.3
			c0.2,0,0.3,0,0.3,0.2C188.8,45.9,188.8,46.1,188.1,46.9z M188.4,43c0.2-0.3-0.1-0.4-0.6,0c-0.3,0.2-1.5,0.9-2,1.7
			c-0.1,0.2-0.1,0.3,0.1,0.1c0.6-0.6,1.4-1.4,1.4-1c0,0.3,0,0.7,0.2,1c0.1,0,0.2,0,0.3-0.1l0.7-0.2C188.3,43.9,188.2,43.3,188.4,43z
			 M187.2,31.6c0.5,0.7,1.4,2.9,1.4,4.4c0.6-1.5-0.4-4.5-1.3-6.2c0,0.5-0.1,0.6-0.2,0.8c-0.2-1.9-1.4-3.3-1.6-4.7
			c0,0.2-0.1,0.4-0.1,0.6c-0.4-0.8-0.8-1.6-1.1-2.7c-0.1,0.1-0.2,0.4-0.2,0.8c-0.6-1.7,0-2.3,0.2-2.4c0.5-0.3,1,0.2,1.4,0.6
			c0.6,0.7,1.3,2.1,3.4,2.1c0.3,0,0.5-0.1,0.3-0.1c0,0,0,0,0,0c-1.8-0.3-2.1-1-3.5-2.6c-0.9-1-1.8-1.6-2.9-0.3
			c-2.1,2.5-2.8,4.6-3.1,6.3c-0.2,1-0.4,3-0.1,4.1c0.2-0.1,0.3-0.2,0.3-0.2s0.3,2.8,0.8,3.5c0.1-0.3,0.3-1,0.3-1.7
			c0.3,0.8,0.5,1.3,0.9,1.8c0.2-0.7,0.2-1.4,0.1-2.1c0.4,1,0.7,1.4,1,1.6c0.2-0.4,0.4-1.2,0.2-3.5c0.2,0.9,0.3,1.5,0.3,2.1
			c0.1,0.1,0.3,0.2,0.4,0.3c0.1-0.2,0.3-0.6-0.1-3.5c1,3.2,0.4,4,0.3,4.2c-0.3-0.2-0.5-0.4-0.7-0.6c0,0.9-0.2,1.3-0.3,1.7
			c-0.4-0.2-0.6-0.5-0.8-0.8c0,1-0.2,1.6-0.2,1.6s-0.7-0.8-0.9-1.4c0,0.4-0.2,1.5-0.5,1.7c-0.8-1.1-1.1-4.1-1.1-4.1s-0.1,0-0.1,0.1
			c0,0.7,0.1,1.9,0.2,3.2c0,0,0,0,0,0c0.1,1.5,0.3,3.2,0.4,4.7c0.3,3.6,0.7,7.2,1.2,10.8c0,0,0.1,0.6,0.2,0.9
			c0.1-0.4,0.1-1.8,0.1-2.6c0-0.2,0.3-0.5,0.3-1.6c0-0.4-0.5-6-0.7-8.2c0-0.3-0.1-0.9-0.1-0.9c0,0.1,0,0.1,0,0.2
			c0.2,0.8,0.3,1.7,0.4,2.5c0.1,0.5,0.1,1,0.2,1.6c0.2,1.6,0.4,3.2,0.5,4.9c0,1-0.3,1.3-0.3,1.6c0.2,1.3,0,2.5-0.2,3.3
			c-0.1,0-0.2-0.1-0.2-0.2c0.2,1,0.4,1.8,0.4,1.8c0.4-0.8,0.6-1.7,0.5-3.9c0-0.2,0.3-0.7,0.4-1.8c0-0.3,0-1.4-0.1-2.7
			c-0.2-2.4-0.4-4.7-0.6-7.1c0-0.1,0-0.4,0-0.4c0,0.1,0.1,0.2,0.1,0.3c0.7,3,0.9,6.2,1.1,9.3c0.1,1.4-0.5,2.4-0.4,2.6
			c0.1,0.7,0.1,0.7,0,1.3c0,0.7-0.1,0.8-0.1,0.8c0.2-0.5,1-2.4,0.7-8c0-0.1,0-0.3,0-0.4c-0.2-3.9-0.5-6.5-0.5-6.5
			c0.4,1.1,0.7,3.5,0.9,6.2c0,0,0.1-0.1,0.1-0.1c0.4-1.1,0.5-2.1,0.4-3.2c-0.1-2.1-0.4-3.8-0.4-3.8c0,0,0,0.2,0.1,0.2
			c0.1,0.2,0.3,0.8,0.5,1.9c0.1,0.7,0.2,1.5,0.3,2.2c0,0.1,0,0.2,0,0.3l0,0c0.8-1.2,0.4-3.5,0.1-6c0.3,0.8,1,3,0.8,4.6
			c1.2-1.1,0.5-3.3,0.1-5.8c0.7,1.5,1.2,3.3,1,4.5c1-1.2,0.6-2.9-0.3-6.1c0.5,0.9,1.2,2.9,1.3,4.2C188.5,36,187.8,33.5,187.2,31.6z
			 M197.8,38.7c0,0,0.5-0.5,0.7-2.1c0.1,0.1,0.3,0.2,0.3,0.5c0.3-0.4,1-2.5,1-3.3c0.2,0.1,0,0,0.3,0.2c0.2-0.3,0.5-1.5,0.7-3.2
			c0.1,0,0.2,0,0.3,0.1c0.1-0.8,0.2-2,0.3-2.9c0-0.7,0-2.3-0.3-3.2c-0.3-0.9-0.5-1.3-1-2.2c0,0-0.2,0.1-0.3,0.2
			c-0.1-0.4-0.5-1.5-0.7-1.8c-0.5-0.9-0.7-1.6-1.2-1.9c0.2,0,0.3,0.1,0.6,0.1c-0.3-0.3-0.5-0.5-0.8-0.8c0.1-0.1,0.3-0.1,0.7,0
			c-0.5-0.5-0.7-1.1-1.9-1.6c0.2,0,0.4,0,0.7,0c-0.2-0.2-0.6-0.7-1.2-0.9c-1.3-0.3-3.1-0.3-4,0.7c-0.1,0.1-0.3,0.1-0.5,0.2
			c-0.1,0.1-0.2,0.1-0.2,0.1c-0.1,0.1-0.2,0.3,0.1,0.7c-0.4-0.1-0.5-0.4-0.5-0.4c-0.1,0.1-0.3,0.2-0.4,0.4c-0.1,0.2-0.2,0.6-0.2,0.7
			c0,0,0.3,0.2,0.4-0.2c0-0.1,0.6-0.2,0.8-0.2c0.3,0,0.6,0.1,0.9,0.1c-0.1,0-0.5,0.2-0.7,0.2c-0.2,0-0.2,0.2,0,0.2
			c0.2,0,0.2-0.1,0.4-0.1c0.1,0,0,0.2,0.1,0.3c1.1-0.2,1.1,0.9,2.3,0.7c-0.5-0.4-1-1.1-1.4-1.3c1.1,0.2,1.7,1.2,2.9,1.2
			c0-0.1,0-0.1-0.1-0.3c0.4,0,0.7,0.3,0.8,0.3c-0.2,0.2-0.5,0.3-1,0.4c0.1,0.2,0.5,0.2,0.7,0.2c-0.2,0.2-0.5,0.3-1.1,0.2
			c-0.2,0.2-0.4,0.5-1.2,1c0-0.2,0-0.2,0-0.4c-0.5,0.3-0.9,0.8-1.2,1c0.1-0.2,0.2-0.5,0.3-0.7c-1.3,1.2-2.6,2.4-3.1,3.3
			c-0.5,1-0.7,2-0.6,3.7c0.1,0.9,0.4,3.5,0.5,4c0.1,0,0.2-0.1,0.3-0.1c0.3,1.9,1.3,4.5,1.8,5.4c0.1-0.2,0.1-0.3,0.3-0.4
			c0.1,0.5,0.3,1.1,0.8,1.4c0-0.3,0.1-0.5,0.2-0.7c0.1,0.4,0,1.5,0.7,2.1c0-0.3,0.1-0.6,0.2-1c0.1,0.4,0.1,0.8,0.3,1.2
			c0.2,0.4,0.5,0.9,0.7,1c0-0.9,0.1-0.8,0.1-1.2c0,0.1,0.3,0.4,0.5,1.5c0.7-0.5,0.9-2.2,0.9-2.2c0,0,0.2,0.2,0.3,0.6
			c0.6-0.6,0.7-1.4,0.9-2C197.9,38.1,197.9,38.5,197.8,38.7z M198.5,47.5c0.8,0,1,0,1.3-0.1c0-0.1,0-0.2-0.1-0.3c0-0.1,0-0.1,0-0.2
			c0,0,0,0,0,0c-0.3,0.1-0.8,0.2-1.5,0.1c-0.3-0.1-0.4-0.1-0.6-0.2c-0.2-0.1-0.6,0.3-0.9,0.6c-0.3,0.3-0.6,0.6-0.7,0.8
			c0,0,0,0.1,0,0.1c0.3,0.2,3.5,3.2,3.7,3.4c0.1,0,0.1,0.1,0.2,0c0.1-0.1,0.4-0.4,0.6-0.6c0,0-3.2-3-3.3-3.1c0,0-0.1-0.1,0-0.1
			c0,0,0.2-0.2,0.2-0.2c0,0,0.1,0,0.1,0c0,0.1,1.1,1,1.1,1l1.4,1.2l0.9,0.8c0.1-0.1,0.1-0.1,0.1-0.1c0.1-0.1,0.1-0.2-0.3-0.7
			c-0.1-0.1-2.3-2.2-2.3-2.2C198.1,47.6,198.2,47.5,198.5,47.5z M193.5,48.2c-0.1,0-3.3,3.1-3.3,3.1c0.2,0.2,0.4,0.4,0.6,0.6
			c0.1,0.1,0.1,0.1,0.2,0c0.2-0.2,3.5-3.2,3.7-3.4c0,0,0-0.1,0-0.1c-0.1-0.2-0.5-0.5-0.7-0.8c-0.3-0.3-0.7-0.7-0.9-0.6
			c-0.3,0.1-0.3,0.1-0.6,0.2c-0.7,0.1-1.2,0-1.5-0.1c0,0,0,0-0.1,0c0,0.1,0,0.2,0,0.2c0,0.1,0,0.1,0,0.2c0.3,0.1,0.5,0.1,1.4,0.1
			c0.3,0,0.4,0.1,0.2,0.3c0,0-2.1,2.1-2.2,2.2c-0.4,0.4-0.5,0.5-0.3,0.7c0,0,0,0,0.1,0.1l0.9-0.8l1.4-1.2c0,0,1-0.9,1.1-1
			c0-0.1,0.1,0,0.1,0c0,0,0.2,0.2,0.2,0.2C193.5,48,193.5,48.1,193.5,48.2z M193.8,40.6c0,0,0-0.2-0.1-0.4c-0.1-0.1-0.3-0.3-0.4-0.4
			c-0.1-0.1-0.1-0.2-0.1-0.2c0,0.1,0,0.4,0.1,0.5c0,0.1,0.1,0.3,0.3,0.4C193.7,40.5,193.8,40.6,193.8,40.6z M193.8,46.7
			c0,0,0.2,0.2,0.3,0.3c0-0.3,0.2-1.4,0.1-1.5C193.8,46.2,193.8,46.7,193.8,46.7z M192.5,46.7c0.1,0,0.4-0.2,0.6-0.2
			c0,0,0.1,0,0.1,0l0,0c0.1-0.3,0.2-0.8,0.4-1.1C193.4,45.3,192.6,46.4,192.5,46.7z M194.8,47.8c0-0.4,0-0.9-0.1-1.1
			c-0.1,0.2-0.2,0.5-0.3,0.8C194.5,47.5,194.8,47.8,194.8,47.8z M195.1,44.9c0,0-0.1-0.6-0.5-0.7C194.6,44.6,195.1,44.9,195.1,44.9z
			 M195.4,44C195.4,44,195.4,44,195.4,44C195.4,44,195.4,44,195.4,44c0,0,0.1-0.2,0.3-0.3c0.2-0.1,1.1-0.7,1.2-0.9
			c0.2-0.2,0.2-0.6,0.2-0.6s-0.2,0.3-0.5,0.5c-0.3,0.2-1,0.6-1.2,0.8c-0.1,0.1-0.1,0.2-0.1,0.3c0-0.1,0-0.1-0.1-0.2
			c-0.2-0.5-0.9-0.6-1.3-1.1c-0.3-0.3-0.3-0.4-0.3-0.4c0,0.3,0.1,0.5,0.2,0.7c0.1,0.2,0.4,0.4,0.9,0.7C195.3,43.8,195.4,44,195.4,44
			z M195,42.4c0-0.7-0.8-0.8-1-1.5C193.9,41.8,194.6,41.9,195,42.4z M195.3,45.2c0,0,0.1,0,0.3-0.2c0.2-0.1,0.4-0.3,0.5-0.4
			c0.1-0.2,0.1-0.4,0.1-0.5c0,0,0,0.2-0.3,0.4c-0.1,0.1-0.3,0.3-0.4,0.4C195.4,45.1,195.3,45.2,195.3,45.2z M196,45.7
			c0.1,0.4,0.1,1.4,0.1,1.8c0,0,0,0,0,0c0.1-0.1,0.2-0.2,0.4-0.4C196.5,46.9,196.4,46.1,196,45.7z M195.4,48.3c0,0,0.3-0.3,0.4-0.4
			c0,0,0,0,0,0c-0.1-0.6-0.2-1.3-0.4-1.5C195.4,46.6,195.4,47.6,195.4,48.3z M195.4,48.6c0,0.2,0,0.4,0,0.5c0,0,0.3-0.3,0.3-0.3
			S195.4,48.7,195.4,48.6z M195.5,49.5c0.5,0.5,1.1,1.1,1.5,1.5c0.3-0.3,0.4-0.4,0.4-0.4l-1.6-1.4C195.8,49.2,195.7,49.3,195.5,49.5
			z M197.4,51.3c0.3,0.3,0.7,0.7,1,1c0.2-0.2,0.3-0.4,0.4-0.5l-1-0.9C197.8,50.9,197.7,51.1,197.4,51.3z M197.7,46.5
			c-0.2-0.2-0.6-0.8-1-1.1c0.3,0.6,0.4,1,0.4,1.1l0,0c0,0,0,0,0.1,0c0.1,0,0.1,0,0.2,0C197.5,46.4,197.5,46.5,197.7,46.5
			C197.6,46.5,197.7,46.5,197.7,46.5z M197.3,40.6c-0.2,0.3-0.4,0.5-0.6,0.7c0.1-0.2,0.1-0.5,0.1-0.5c-0.1,0.2-0.4,0.6-0.6,0.8
			c-0.5,0.5-0.6,0.9-0.6,0.9s0.1-0.2,0.7-0.5C196.9,41.7,197.1,41.2,197.3,40.6z M190,34.3c0,0.6,0.4,1.3,0.9,1.7
			C190.7,35.1,190.4,34.9,190,34.3z M201.8,24c0.2,0,0.4,0,0.6-0.1c0.2-0.1,0.2-0.2,0.3-0.2c1.3-1.9,3.8-5.1,5.7-7.5
			c-3.8-3.8-9.3-4-10.7-3.9c-0.3,0-0.7,0.3-0.3,0.8c-0.3,0.1-1.5,0-1.9-0.4c-0.4,0.4-1.6,0.5-1.9,0.4c0.4-0.6,0-0.8-0.3-0.8
			c-1.4-0.1-7.2,0.5-10.7,3.8c1.9,2.5,5.9,7.8,6,7.9c0.1,0.1,0.3,0.2,0.5,0.2c0,0,0.1,0,0.1,0c0.2,0,0.4-0.2,0.6-0.4
			c0.4-0.5,0.6-0.7,1-1.1c0.8-0.8,1.5-1.4,1.7-1.5c0.3-0.3,0.4-0.6,0.4-0.8c0-0.3-0.2-0.4-0.4-0.6c0,0,0,0.1-0.1,0.1
			c-0.1-0.1-0.3-0.5-0.3-0.5l-0.1,0.2c0,0-0.3-0.7-0.8-0.6c-0.6,0.1-1.1-0.2-1.1-0.2c0,0-0.1,0.2-0.1,0.5c0,0,0,0,0,0
			c-0.4-0.4-0.6-1.3,0.3-2c0.5-0.4,0.6-0.4,1-0.6c0.2-0.1,0.3-0.2,0.3-0.3c0.3-0.3,0.8-0.5,1.1-0.6c0.4-0.1,1.3-0.2,2.2-0.2
			c0.5,0,1,0.1,1.4,0.3c0.3,0.1,1.1,0.7,1.5,1.3c0.3,0.4,0.8,1.5,1.1,2.1c0.6,1.4,0.5,1.3,0.9,2.2c0.5,1.1,0.7,1.7,1.2,2.3
			C201.3,23.9,201.5,24,201.8,24z M208.6,15.7c0.1-0.2,0.3-0.3,0.4-0.5c-1.8-1.5-4.3-3.1-7.2-3.7c-1.9-0.4-3.5-0.5-4.4-0.4
			c-0.8,0-1.3,0.3-1.3,0.8c-0.5-0.1-0.6-0.7-0.7-0.8c0,0.3-0.3,0.8-0.7,0.8c0-0.5-0.5-0.8-1.3-0.8c-1,0-2.5,0-4.4,0.4
			c-2.9,0.6-5.4,2.1-7.1,3.6c0.1,0.2,0.3,0.3,0.4,0.5c1.6-1.5,3.7-2.6,5.9-3.3c1.8-0.5,4.1-0.7,5.2-0.7c0.9,0,1.1,0.6,1,0.9
			c0.4,0,1-0.3,1.2-0.6c0.1,0.2,0.7,0.6,1.2,0.6c-0.1-0.3,0-0.8,1-0.9c1,0,3.3,0.1,5.2,0.7C204.9,12.9,207.1,14.2,208.6,15.7z
			 M209.7,13.8c0.2,0.7,0.4,1.4,1,1.9c0.1,0.1,0.2,0.1,0.3,0.2l0,0c0-1.3,0.4-2,0.8-2.8c0,0,0,0,0,0c0,0,0,0,0,0
			c0.5,0.1,1.1,0.2,2.4,0c-1.2-0.8-1-1.8-1.9-2.8c-0.1-0.1-0.2-0.2-0.3-0.3c-0.3-0.2-0.6-0.3-0.7-0.3c-0.2,0-0.4,0.1-0.4,0.2
			c-0.1,0.1-1.4,1.5-2.2,2.5C209.3,12.3,209.5,13,209.7,13.8z M210.5,9.2c-0.9-0.8-2.2-1.8-3.9-2.5c-4.3-1.9-9.7-1.9-11.2-1.9
			c0,0,0,0,0,0c0,0,0,0,0,0c-1.5,0-7,0-11.2,1.9c-1.6,0.7-3,1.7-3.9,2.5c0,0,1.9,2.2,2.4,2.8c0.3,0.3,0.3,0.6,0.2,1
			c3-2,6.3-3,12.4-3l0.3,0c5.9,0.1,9.4,1.1,12.3,3c-0.2-0.5-0.1-0.7,0.2-1C208.6,11.4,210.5,9.2,210.5,9.2z M180.1,9.8
			C180.1,9.8,180.1,9.8,180.1,9.8c-0.1-0.1-0.4-0.4-1.2,0.1c-1.3,1.1-0.9,2.2-2.3,3.1c0.5,0.1,0.9,0.1,1.2,0.1c0.2,0,0.4,0,0.6,0
			c0.2,0,0.5-0.1,0.6-0.1c0,0,0,0,0,0c0.3,0.8,0.8,1.5,0.8,2.8c1.6-0.8,0.9-3.6,2.4-3.5C181.5,11.4,180.3,10,180.1,9.8z M181.1,15.3
			c1.2,1.6,2,2.7,2.2,3c0.4,0.6,1.8,2.2,1.8,2c0-0.1-0.9-1.3-1.4-2.1c-0.8-1.1-1.6-2.2-2.4-3.2C181.3,15.1,181.2,15.2,181.1,15.3z
			 M186.9,25.9c0,1.1,0.2,2,0.6,3.4C187.6,27.8,187.3,26.3,186.9,25.9z M186.1,24.6c-0.1,0.5-0.1,1.2,0.1,1.7c0.1,0.3,0.2,0.7,0.4,1
			C186.6,26.2,186.3,25.1,186.1,24.6z M189.1,34.5c0.2-0.6,0.4-4.6-1.2-6.4C188.4,29.7,188.9,31.6,189.1,34.5z M184.8,56.9
			c1.1,0.4,4.2,0.5,5.7,0.3c1.8-0.2,3.3-0.8,4.5-1.6c-0.3-0.3-0.7-0.6-1.1-1c-0.6,0.5-1.2,0.9-1.5,1c-2.2,0.9-5.1,1.1-5.1,1.1
			s3.8-0.9,5.1-1.6c0.2-0.1,0.7-0.5,1.2-0.9c-0.5-0.5-1-0.9-1.3-1.3c-0.2,0.2-0.4,0.4-0.7,0.6c-0.5,0.4-1.2,0.6-1.8,0.8
			C186.9,55.4,185.2,56.5,184.8,56.9z M193.8,56.9c0.1,0.4,0.3,0.8,0.4,1.1c0,0,0.7-0.6,0.9-1.9c-0.1,0.1-0.4,0.3-0.5,0.4
			C194.3,56.6,194,56.8,193.8,56.9z M207.7,18.2c0.2-0.2,1-1.3,2.1-2.8c-0.1-0.1-0.2-0.2-0.2-0.3c-0.7,1-1.5,2-2.2,3
			c-0.5,0.7-1.4,1.9-1.4,2.1C205.9,20.5,207.3,18.8,207.7,18.2z M214,11c-0.1,0.2-0.4,0.5-0.4,0.5c0.3,0.6,0.7,1.2,1.7,1.8
			C214.8,12.5,214.4,11.8,214,11z M213.1,10.5c0,0,0.1,0.3,0.2,0.3c2.2-2.9,4.2-5.6,4.2-5.6s-0.9,0.6-2.1,1.2
			c0.1,0.7-0.3,1.5-0.5,1.7C214.9,8.1,214.1,9.1,213.1,10.5z M177.8,9.7c0.1,0.1,0.2,0.3,0.3,0.4c1.6-2.1,3.8-3.6,6.5-4.6
			c-0.2-0.3-0.5-1,0.3-1.8c0,0,0,0,0,0c1.2,0.1,1.4,0.8,1.5,1.2c2.1-0.6,4.5-0.9,7.3-1c0.1-1.9,1.4-2.3,1.4-2.3s0-0.4,0.3-0.5
			c0,0,0,0,0,0c0.3,0.1,0.3,0.5,0.3,0.5s1.3,0.5,1.4,2.3c2.7,0.1,5.2,0.4,7.3,1c0.1-0.4,0.4-1.1,1.5-1.2c0,0,0,0,0,0
			c0.8,0.8,0.5,1.5,0.3,1.8c2.7,1,4.9,2.6,6.6,4.7c0.1-0.2,0.2-0.3,0.3-0.5c-1.5-1.9-3.7-3.4-6-4.4c0.2-0.7,0-1.4-0.4-1.8
			c0-0.3-0.2-0.6-0.4-0.7c0,0,0,0,0,0c-0.2,0-0.6,0.1-0.8,0.3c-0.7,0.1-1.3,0.4-1.7,1.2c-1.7-0.4-3.6-0.7-6.1-0.8
			c-0.1-1.1-0.7-1.8-1.5-2.2c-0.2-0.4-0.5-0.6-0.8-0.7c-0.3,0.1-0.6,0.3-0.8,0.7c-0.8,0.4-1.5,1.1-1.5,2.2c-2.5,0.1-4.4,0.4-6.1,0.8
			c-0.4-0.7-1-1.1-1.7-1.2c-0.2-0.2-0.6-0.3-0.8-0.3h0c-0.2,0.1-0.4,0.4-0.4,0.7c-0.4,0.4-0.7,1.1-0.4,1.8
			C181.4,6.3,179.3,7.7,177.8,9.7z M177.7,10.7c0.1-0.1,0.1-0.2,0.2-0.3c-1-1.3-1.7-2.2-1.7-2.3c-0.2-0.2-0.6-1-0.5-1.7
			c-1.2-0.6-2.1-1.2-2.1-1.2S175.5,7.8,177.7,10.7z M175.6,13.3c0.2-0.1,0.8-0.5,1.2-1.1c0.2-0.3,0.3-0.5,0.5-0.8
			c0,0-0.4-0.5-0.4-0.5C176.4,11.7,176,12.5,175.6,13.3z M172.1,29.5c0.4,0.3,2.4,2,5.5,3.8c0.1-1.9,0.1-8.6,4.2-15.9
			c-0.5-0.6-0.7-0.9-1.1-1.5c-0.3,0.3-0.8,0.6-1.4,0.8c0-1.4-0.3-2.2-0.7-3.1c-0.6,0-1.6,0-3.1-0.3
			C173.5,17.7,172.5,22.8,172.1,29.5z M190.6,60.1L190.6,60.1c0.1-0.4,0.7-1.6,0.9-2.3c0-0.1-0.1-0.2-0.1-0.3
			c-0.4,0.1-0.7,0.1-1.1,0.2c-0.2,0-3.8,0.6-6.5-0.6c0.3-0.2,0.9-0.7,1.7-1.2c0-0.1,0-0.1,0-0.2c-0.6,0.4-1.2,0.4-1.7,0.4
			c0-0.4,0.1-0.9,0.3-1.6c-0.6,0.1-1.1,0-1.1,0s0.4-1.3,1.2-2.8c0.8-1.4,1.9-2.9,2.9-4c0.1-0.5,0.5-0.9,0.5-0.9c0,0,0.1-0.1,0.2-0.2
			c-0.1-0.1-0.2-0.2-0.3-0.3c-0.1,0.1-0.2,0.2-0.3,0.2c-0.3,0.1-0.5,0.2-0.6,0.2c-0.3,0-0.5-0.1-0.6-0.2l0,0
			c-0.2-0.1-0.4-0.2-0.5-0.4c0,0,0-0.1,0-0.1c-0.2,0.1-0.3,0.1-0.5-0.1c-0.2-0.2,0.1-1.2,1.2-2.2c0.8-0.7,1.5-1.2,2.2-1.4
			c0.5-0.2,0.8,0.2,0.6,0.5c-0.3,0.4-0.5,1-0.2,1.7c0.3-0.1,0.4-0.2,0.5-0.2c0.1,0,0.3-0.1,0.4-0.3c0,0,0-0.1,0.1-0.1l-0.5,0.1
			c0.2-0.6-0.1-2,0.1-2.9c-0.1,0-0.2,0.2-0.3,0.2c-0.2-0.8-0.1-2.2-0.1-2.8c0-0.2-0.2-0.5-0.6-0.8c-0.3,0.7-0.7,1.5-1.5,2.4
			c-0.6,0.7-1.6,1.4-2.2,3.7c0,0,0,0,0,0c-0.1,0.4-0.2,0.7-0.4,1c-0.4,0.7-0.3,1.2-0.3,1.2l0,0c0,1.5,0,4.5-0.4,6.1
			c-0.3,1.5-0.8,2.2-0.8,2.2l-0.1-0.1c-0.1,0.5-0.4,1.4-0.9,2.1c0,0-0.5-1-1.4-8.5c-1-8.2-1.5-16.9-1.5-16.9l0,0
			c-0.1-1.5,0.2-3.3,0.7-4.6c0.8-2.1,2.2-4.1,3-4.9c0.5-0.5,1.1-0.6,1.7-0.5c-0.2-0.2-0.3-0.5-0.3-0.5c-0.6-0.8-1.2-1.6-1.8-2.3
			c-4,7.1-3.9,15.6-3.9,15.6l0,0.9l-0.7-0.4c-3.2-1.8-4.5-2.9-5.6-3.7c0,0.9-0.1,3.8-0.1,3.8c0,0.1,0,0.7,0,1.8
			c0,3.4,0.6,11.7,3.4,17.4c0.4,0.7,1.4,2.6,3.3,4.4c1.4,1.3,3.1,2.3,4.9,2.9c0.1,0,0.3,0.1,0.4,0.1C186,61.4,188.3,61.3,190.6,60.1
			z M190.4,62.5c0.4-0.4,1.1-0.6,1.9-0.3c0-1,0.2-2.5,0.4-3.8c-0.3,0.3-0.6,0.5-0.6,0.5c0,0-0.1-0.1-0.2-0.1
			C191.3,60.3,190.4,62.5,190.4,62.5z M198.4,63.2c0-1-0.4-3.9-0.6-5.5c0,0-0.1-0.1-0.1-0.1c-0.1-0.1-0.1-0.1-0.2-0.2
			c-0.1,0.3-0.2,0.7-0.4,1c-0.2,0.4-0.5,0.8-0.5,0.8c0,0-0.8-0.5-1.3-1.6c-0.5,1-1.2,1.6-1.3,1.6c-0.1,0-0.3-0.4-0.5-0.8
			c-0.1-0.2-0.2-0.4-0.2-0.5c-0.2,1.7-0.6,4.4-0.6,5.4c-1.6-1-2.5,0-2.2,0.7c0,0.1,0.1,0.1,0.1,0.2c0.2,0.2,0.4,0.4,0.8,0.4
			c0.5,0,1.2,0.1,1.9,0.4c0.7,0.3,1.4,0.9,2.2,1.8c0.8-0.9,1.5-1.5,2.2-1.8c0.8-0.4,1.4-0.4,1.9-0.4c0.3,0,0.6-0.2,0.8-0.4
			c0,0,0.1-0.1,0.1-0.2C201,63.2,200,62.2,198.4,63.2z M200.8,62.5c0,0-1-2.5-1.5-3.9c-0.1,0.2-0.3,0.3-0.3,0.3c0,0-0.2-0.1-0.5-0.4
			c0.2,1.2,0.4,2.6,0.5,3.7C199.8,61.9,200.4,62.1,200.8,62.5z M218.9,34.2c0-1.1-0.1-3-0.1-3.9c-1.1,0.9-2.1,1.7-5.4,3.7l-0.9,0.5
			l0-0.6c0-0.1,0.2-8.5-3.9-15.8c-0.3,0.3-1.1,1.4-2,2.6c0.5-0.1,1.1,0.1,1.5,0.6c0.9,0.8,2.2,2.8,3,4.9c0.4,1.3,0.8,3.1,0.7,4.6
			l0,0c0,0-0.5,8.6-1.5,16.9c-0.9,7.5-1.4,8.5-1.4,8.5c-0.6-0.7-0.8-1.6-0.9-2.1l-0.1,0.1c0,0-0.5-0.8-0.8-2.2
			c-0.4-1.7-0.4-4.7-0.4-6.1l0,0c0,0,0-0.4-0.3-1.2c-0.2-0.3-0.3-0.7-0.4-1c0,0,0,0,0,0c-0.5-2.3-1.6-3-2.2-3.7
			c-0.7-0.9-1.2-1.8-1.5-2.5c0,0,0,0-0.1,0c-0.4,0.4-0.7,0.7-0.7,0.9c0.1,1.3,0.3,2.3,0.1,3c-0.1,0-0.2-0.2-0.3-0.2
			c0.1,0.9-0.3,1.9-0.1,2.7l-0.5-0.1c0,0.1,0,0.1,0.1,0.1c0.1,0.1,0.1,0.2,0.3,0.2c0,0,0.1,0.1,0.2,0.1c0,0,0.2,0.1,0.5,0.2
			c0.3-0.7,0.1-1.3-0.2-1.7c-0.3-0.3,0.1-0.7,0.6-0.5c0.7,0.3,1.4,0.7,2.2,1.4c1.1,1,1.4,2.1,1.2,2.3c-0.2,0.2-0.3,0.1-0.5,0
			c0,0,0,0.1,0,0.1c-0.1,0.2-0.2,0.3-0.5,0.4l0,0c-0.1,0.2-0.3,0.2-0.6,0.2c-0.3,0-0.6-0.2-0.6-0.2c-0.1,0-0.1-0.1-0.2-0.2
			c-0.1,0-0.1,0.1-0.2,0.2c0.9,1.2,2.5,3.1,3.7,5.2c0.9,1.5,1.2,2.8,1.2,2.8s-0.5,0.1-1.1,0c0.2,0.6,0.3,1.1,0.3,1.6
			c-0.5,0-1.1,0-1.7-0.4c0,0.1,0,0.2,0.1,0.3c0.5,0.4,1.1,0.8,1.4,1c-2.6,1.2-6.4,0.7-6.5,0.7c-0.2,0-0.3,0-0.5-0.1
			c0,0.1-0.1,0.2-0.1,0.2c0.3,0.6,0.8,2,1,2.3c1.7,0.8,3.2,1.3,5.6,0.9c0,0,0.4,0,1.4-0.4c1-0.3,3-1.5,4.5-2.9
			c1.9-1.8,3-3.6,3.4-4.3c2.9-5.6,3.4-14,3.4-17.4C218.9,34.9,218.9,34.3,218.9,34.2z"/>
	</g>
	<g>
		<g>
			<path d="M0,31.9h2.9c1.2,0,2.1,0.4,2.5,1.4c0.4,0.8,0.4,2.7,0.4,3c0,2-0.2,3.2-0.6,3.8c-0.5,0.8-1.5,1.2-3.1,1.2H0V31.9z
				 M1.2,40.3h1.1c1.7,0,2.3-0.6,2.3-2.8v-1.9C4.6,33.7,4,33,2.8,33H1.2V40.3z"/>
			<path d="M7.8,41.3v-9.4h4.8v1H9v3h3.4v1H9v3.2h3.7v1H7.8z"/>
			<path d="M14.4,41.3v-9.4h2.8c1.3,0,2.6,0.5,2.6,2.7c0,2.1-1.7,2.6-2.6,2.6h-1.6v4.1H14.4z M15.6,36.1h1.3c0.5,0,1.7-0.1,1.7-1.6
				c0-1.4-1.1-1.6-1.3-1.6h-1.7V36.1z"/>
			<path d="M22.9,31.9h1.5l3.1,9.4h-1.3l-0.7-2.2h-3.6l-0.7,2.2h-1.2L22.9,31.9z M23.6,33L23.6,33l-1.5,5h3L23.6,33z"/>
			<path d="M29.8,37v4.3h-1.2v-9.4h3.2c1.7,0,2.2,1.2,2.2,2.3c0,1.1-0.6,2-1.7,2.1v0c1.1,0.2,1.5,0.5,1.5,2.4c0,0.4,0.1,1.9,0.3,2.5
				H33c-0.3-0.6-0.3-1.9-0.4-3.1c-0.1-1.1-1-1.2-1.4-1.2H29.8z M29.8,36h1.8c0.9,0,1.3-0.7,1.3-1.6c0-0.7-0.3-1.4-1.3-1.4h-1.8V36z"
				/>
			<path d="M41,31.9v1h-2.5v8.3h-1.2V33h-2.5v-1H41z"/>
			<path d="M43.3,41.3h-1.1v-9.4h1.9l2.4,7.9h0l2.4-7.9h2v9.4h-1.2V33h0l-2.6,8.3h-1.1L43.4,33h0V41.3z"/>
			<path d="M53,41.3v-9.4h4.8v1h-3.6v3h3.4v1h-3.4v3.2h3.7v1H53z"/>
			<path d="M65.9,31.9v9.4h-1.6l-3.7-8.1h0v8.1h-1.1v-9.4h1.7l3.7,8h0v-8H65.9z"/>
			<path d="M73.2,31.9v1h-2.5v8.3h-1.2V33h-2.5v-1H73.2z"/>
			<path d="M77.2,37.9v-3.1c0-1.9,1-3.1,3-3.1c2,0,3,1.2,3,3.1v3.1c0,2.6-1,3.6-3,3.6C78.1,41.5,77.2,40.5,77.2,37.9z M81.8,37.9
				v-3.2c0-2-1.4-2-1.7-2c-0.4,0-1.7,0.1-1.7,2v3.2c0,2.1,0.6,2.6,1.7,2.6C81.2,40.5,81.8,40,81.8,37.9z"/>
			<path d="M85,41.3v-9.4h4.7v1h-3.5v3h3.3v1h-3.3v4.3H85z"/>
			<path d="M97.7,34.5c0-0.5,0-1.1-0.3-1.4s-0.8-0.4-1.1-0.4c-1,0-1.4,0.6-1.4,0.7c0,0.1-0.3,0.3-0.3,2v2.5c0,2.3,0.8,2.6,1.7,2.6
				c0.4,0,1.5-0.1,1.5-2h1.2c0.1,3-2,3-2.7,3c-1.2,0-3-0.1-3-3.7v-2.7c0-2.7,1.2-3.4,3-3.4c1.9,0,2.6,1,2.5,2.8H97.7z"/>
			<path d="M100.7,37.9v-3.1c0-1.9,1-3.1,3-3.1c2,0,3,1.2,3,3.1v3.1c0,2.6-1,3.6-3,3.6C101.6,41.5,100.7,40.5,100.7,37.9z
				 M105.4,37.9v-3.2c0-2-1.4-2-1.7-2s-1.7,0.1-1.7,2v3.2c0,2.1,0.6,2.6,1.7,2.6C104.8,40.5,105.4,40,105.4,37.9z"/>
			<path d="M109.7,41.3h-1.1v-9.4h1.9l2.4,7.9h0l2.4-7.9h2v9.4h-1.2V33h0l-2.6,8.3h-1.1l-2.6-8.3h0V41.3z"/>
			<path d="M120.5,41.3h-1.1v-9.4h1.9l2.4,7.9h0l2.4-7.9h2v9.4h-1.2V33h0l-2.6,8.3h-1.1l-2.6-8.3h0V41.3z"/>
			<path d="M130,31.9h1.2v6c0,2.1,0.6,2.6,1.8,2.6c1.1,0,1.8-0.5,1.8-2.6v-6h1.2v6c0,2.6-1,3.6-3,3.6c-2,0-3-1-3-3.6V31.9z"/>
			<path d="M144.4,31.9v9.4h-1.6l-3.7-8.1h0v8.1H138v-9.4h1.7l3.7,8h0v-8H144.4z"/>
			<path d="M147.9,41.3h-1.2v-9.4h1.2V41.3z"/>
			<path d="M155.3,31.9v1h-2.5v8.3h-1.2V33h-2.5v-1H155.3z"/>
			<path d="M160.6,31.9h1.2l-2.6,5.8v3.6h-1.2v-3.6l-2.5-5.8h1.3l1.8,4.5L160.6,31.9z"/>
		</g>
		<g>
			<path d="M82.3,47.5h2.9c1.2,0,2.1,0.4,2.5,1.4c0.4,0.8,0.4,2.7,0.4,3c0,2-0.2,3.2-0.6,3.8c-0.5,0.8-1.5,1.2-3.1,1.2h-2.2V47.5z
				 M83.4,55.9h1.1c1.7,0,2.3-0.6,2.3-2.8v-1.9c0-1.9-0.6-2.6-1.8-2.6h-1.6V55.9z"/>
			<path d="M90.1,56.9v-9.4h4.8v1h-3.6v3h3.4v1h-3.4v3.2H95v1H90.1z"/>
			<path d="M99.8,56.9h-1.4l-2.7-9.4h1.3l2.1,8.3h0l2.2-8.3h1.2L99.8,56.9z"/>
			<path d="M103.7,56.9v-9.4h4.8v1h-3.6v3h3.4v1h-3.4v3.2h3.7v1H103.7z"/>
			<path d="M110.1,56.9v-9.4h1.2v8.3h3.4v1H110.1z"/>
			<path d="M115.7,53.5v-3.1c0-1.9,1-3.1,3-3.1c2,0,3,1.2,3,3.1v3.1c0,2.6-1,3.6-3,3.6C116.7,57.1,115.7,56.1,115.7,53.5z
				 M120.4,53.5v-3.2c0-2-1.4-2-1.7-2s-1.7,0.1-1.7,2v3.2c0,2.1,0.6,2.6,1.7,2.6C119.8,56.1,120.4,55.6,120.4,53.5z"/>
			<path d="M123.8,56.9v-9.4h2.8c1.3,0,2.6,0.5,2.6,2.7c0,2.1-1.7,2.6-2.6,2.6H125v4.1H123.8z M125,51.7h1.3c0.5,0,1.7-0.1,1.7-1.6
				c0-1.4-1.1-1.6-1.3-1.6H125V51.7z"/>
			<path d="M131.9,56.9h-1.1v-9.4h1.9l2.4,7.9h0l2.4-7.9h2v9.4h-1.2v-8.3h0l-2.6,8.3h-1.1l-2.6-8.3h0V56.9z"/>
			<path d="M141.5,56.9v-9.4h4.8v1h-3.6v3h3.4v1h-3.4v3.2h3.7v1H141.5z"/>
			<path d="M154.5,47.5v9.4h-1.6l-3.7-8.1h0v8.1H148v-9.4h1.7l3.7,8h0v-8H154.5z"/>
			<path d="M161.8,47.5v1h-2.5v8.3h-1.2v-8.3h-2.5v-1H161.8z"/>
		</g>
		<g>
			<path d="M3.6,21.6c-0.2-0.4-0.4-0.8-0.7-1.2c-0.3-0.4-0.6-0.7-0.9-1c-0.3-0.3-0.7-0.5-1-0.8c-0.3-0.2-0.7-0.4-1-0.6
				c0.1-0.6,0.3-1.1,0.6-1.5c0.3-0.4,0.6-0.8,1-1C2.1,15.3,2.5,15.1,3,15c0.5-0.1,0.9-0.2,1.4-0.2C5,14.8,5.5,14.9,6,15
				c0.5,0.2,0.9,0.4,1.2,0.7s0.7,0.6,0.9,1c0.2,0.4,0.4,0.8,0.6,1.3c-0.2,0.1-0.5,0.3-0.9,0.5c-0.3,0.2-0.7,0.5-1,0.8s-0.7,0.6-1,1
				c-0.3,0.4-0.5,0.7-0.7,1.1h4.1v1.1H4.4c-0.4,0.8-0.6,1.7-0.6,2.6c0,0.3,0,0.6,0.1,0.9c0.1,0.3,0.2,0.6,0.4,0.9s0.4,0.5,0.7,0.8
				c0.3,0.2,0.7,0.4,1.2,0.5L6,29.4c-1.1-0.3-1.9-0.8-2.5-1.5c-0.6-0.7-0.9-1.7-0.9-2.8c0-0.7,0.1-1.3,0.3-1.9
				C3.2,22.6,3.4,22.1,3.6,21.6z M1.5,17.5c0.2,0.1,0.4,0.3,0.6,0.5c0.2,0.2,0.5,0.4,0.8,0.6c0.3,0.2,0.5,0.5,0.8,0.8
				c0.3,0.3,0.5,0.6,0.7,1c0.2-0.3,0.4-0.7,0.7-1c0.3-0.3,0.5-0.6,0.8-0.8c0.3-0.2,0.5-0.5,0.8-0.6c0.2-0.2,0.5-0.3,0.6-0.5
				c-0.1-0.1-0.2-0.3-0.4-0.5s-0.4-0.4-0.6-0.5c-0.2-0.2-0.5-0.3-0.8-0.4s-0.7-0.2-1.1-0.2c-0.6,0-1.2,0.1-1.7,0.4S1.7,17,1.5,17.5z
				"/>
			<path d="M13.2,22.5h-4c-0.2,0-0.4-0.1-0.5-0.2c-0.1-0.1-0.2-0.3-0.2-0.4c0-0.1,0.1-0.2,0.2-0.4c0.1-0.1,0.3-0.2,0.5-0.2h4V22.5z"
				/>
			<path d="M19.4,15.1v6.3h1v1.1h-7.1c-0.2,0-0.4-0.1-0.5-0.2c-0.1-0.1-0.2-0.3-0.2-0.4c0-0.1,0.1-0.2,0.2-0.4
				c0.1-0.1,0.3-0.2,0.5-0.2h1.6c-0.2-0.2-0.4-0.5-0.5-0.9c-0.1-0.3-0.2-0.8-0.2-1.3c0-0.8,0.2-1.4,0.6-1.9c0.4-0.5,0.9-0.9,1.5-1.3
				c0.6-0.3,1.2-0.6,1.8-0.7C18.6,15.2,19,15.1,19.4,15.1z M18.2,16.5c-0.3,0.1-0.6,0.2-0.9,0.3c-0.3,0.1-0.7,0.3-1,0.6
				c-0.3,0.2-0.6,0.5-0.8,0.8c-0.2,0.3-0.3,0.7-0.3,1.1c0,0.8,0.3,1.4,0.8,1.7c0.5,0.3,1.3,0.4,2.2,0.5V16.5z"/>
			<path d="M24.3,22.5h-4c-0.2,0-0.4-0.1-0.5-0.2c-0.1-0.1-0.2-0.3-0.2-0.4c0-0.1,0.1-0.2,0.2-0.4c0.1-0.1,0.3-0.2,0.5-0.2h4V22.5z"
				/>
			<path d="M24.3,22.5c-0.2,0-0.4-0.1-0.5-0.2c-0.1-0.1-0.2-0.3-0.2-0.4c0-0.1,0.1-0.2,0.2-0.4c0.1-0.1,0.3-0.2,0.5-0.2h3v-5.6h1.1
				v5.6h1v1.1H24.3z M25.6,14.2c-0.2,0-0.4-0.1-0.5-0.2c-0.1-0.1-0.2-0.3-0.2-0.5c0-0.2,0.1-0.4,0.2-0.5c0.1-0.1,0.3-0.2,0.5-0.2
				s0.4,0.1,0.5,0.2c0.1,0.1,0.2,0.3,0.2,0.5c0,0.2-0.1,0.4-0.2,0.5C26,14.1,25.8,14.2,25.6,14.2z M27.9,14.2
				c-0.2,0-0.4-0.1-0.5-0.2c-0.1-0.1-0.2-0.3-0.2-0.5c0-0.2,0.1-0.4,0.2-0.5c0.1-0.1,0.3-0.2,0.5-0.2c0.2,0,0.4,0.1,0.5,0.2
				s0.2,0.3,0.2,0.5c0,0.2-0.1,0.4-0.2,0.5S28.1,14.2,27.9,14.2z"/>
			<path d="M33.4,22.5h-4c-0.2,0-0.4-0.1-0.5-0.2c-0.1-0.1-0.2-0.3-0.2-0.4c0-0.1,0.1-0.2,0.2-0.4c0.1-0.1,0.3-0.2,0.5-0.2h4V22.5z"
				/>
			<path d="M33.4,22.5c-0.2,0-0.4-0.1-0.5-0.2c-0.1-0.1-0.2-0.3-0.2-0.4c0-0.1,0.1-0.2,0.2-0.4c0.1-0.1,0.3-0.2,0.5-0.2h5.8
				c-0.1-0.3-0.3-0.7-0.3-1.2s-0.1-1.1-0.2-1.8c0-0.5-0.1-1-0.3-1.3c-0.1-0.3-0.3-0.5-0.5-0.7c-0.2-0.2-0.4-0.3-0.6-0.3
				c-0.2,0-0.4-0.1-0.7-0.1c-0.5,0-1,0.2-1.6,0.5l-0.7-0.9c0.3-0.2,0.6-0.4,1-0.5s0.8-0.2,1.3-0.2c1.9,0,3,1.1,3.1,3.4
				c0,0.6,0.1,1,0.1,1.4c0,0.3,0.1,0.6,0.2,0.8c0.1,0.2,0.1,0.4,0.2,0.5c0.1,0.1,0.1,0.2,0.2,0.2c0.1,0.1,0.3,0.2,0.4,0.2
				c0.2,0,0.4,0,0.7,0v1.1H33.4z M38.1,24.7c0,0.2-0.1,0.4-0.2,0.5s-0.3,0.2-0.5,0.2c-0.2,0-0.4-0.1-0.5-0.2
				c-0.1-0.1-0.2-0.3-0.2-0.5c0-0.2,0.1-0.4,0.2-0.5C37,24,37.1,24,37.3,24c0.2,0,0.4,0.1,0.5,0.2S38.1,24.5,38.1,24.7z"/>
			<path d="M45.5,22.5h-4c-0.2,0-0.4-0.1-0.5-0.2c-0.1-0.1-0.2-0.3-0.2-0.4c0-0.1,0.1-0.2,0.2-0.4c0.1-0.1,0.3-0.2,0.5-0.2h4V22.5z"
				/>
			<path d="M51.6,15.1v6.3h1v1.1h-7.1c-0.2,0-0.4-0.1-0.5-0.2c-0.1-0.1-0.2-0.3-0.2-0.4c0-0.1,0.1-0.2,0.2-0.4
				c0.1-0.1,0.3-0.2,0.5-0.2H47c-0.2-0.2-0.4-0.5-0.5-0.9c-0.1-0.3-0.2-0.8-0.2-1.3c0-0.8,0.2-1.4,0.6-1.9c0.4-0.5,0.9-0.9,1.5-1.3
				c0.6-0.3,1.2-0.6,1.8-0.7C50.8,15.2,51.3,15.1,51.6,15.1z M50.5,16.5c-0.3,0.1-0.6,0.2-0.9,0.3c-0.3,0.1-0.7,0.3-1,0.6
				c-0.3,0.2-0.6,0.5-0.8,0.8c-0.2,0.3-0.3,0.7-0.3,1.1c0,0.8,0.3,1.4,0.8,1.7c0.5,0.3,1.3,0.4,2.2,0.5V16.5z"/>
			<path d="M56.6,22.5h-4c-0.2,0-0.4-0.1-0.5-0.2c-0.1-0.1-0.2-0.3-0.2-0.4c0-0.1,0.1-0.2,0.2-0.4c0.1-0.1,0.3-0.2,0.5-0.2h4V22.5z"
				/>
			<path d="M57.6,10.9h1.1v11.6h-2.1c-0.2,0-0.4-0.1-0.5-0.2c-0.1-0.1-0.2-0.3-0.2-0.4c0-0.1,0.1-0.2,0.2-0.4
				c0.1-0.1,0.3-0.2,0.5-0.2h1V10.9z"/>
			<path d="M60.4,11h1.1v11.5h-1.1V11z"/>
			<path d="M71.5,21.1c0,0.2,0.1,0.3,0.3,0.3h0.7v1.1h-0.9c-0.4,0-0.7-0.1-0.9-0.4c-0.2-0.2-0.3-0.6-0.3-1.1l0-4.8
				c-0.3,0.1-0.6,0.3-0.9,0.5c-0.4,0.2-0.7,0.4-1,0.7s-0.6,0.6-0.8,1c-0.2,0.4-0.3,0.8-0.3,1.3c0,0.6,0.2,1.1,0.6,1.4s1,0.4,1.9,0.5
				l-0.1,1.1c-0.7,0-1.4-0.2-1.8-0.4c-0.5-0.2-0.8-0.5-1.1-0.7s-0.4-0.6-0.5-0.9c-0.1-0.3-0.1-0.6-0.1-1c0-0.8,0.2-1.5,0.6-2.1
				c0.4-0.6,0.9-1.1,1.5-1.5c0.6-0.4,1.2-0.7,1.8-1s1.1-0.4,1.5-0.5V21.1z M69,12.7c0,0.2-0.1,0.4-0.2,0.5c-0.1,0.1-0.3,0.2-0.5,0.2
				c-0.2,0-0.4-0.1-0.5-0.2s-0.2-0.3-0.2-0.5c0-0.2,0.1-0.4,0.2-0.5S68,12,68.2,12c0.2,0,0.4,0.1,0.5,0.2C68.9,12.4,69,12.5,69,12.7
				z M71.5,12.7c0,0.2-0.1,0.4-0.2,0.5s-0.3,0.2-0.5,0.2c-0.2,0-0.4-0.1-0.5-0.2c-0.1-0.1-0.2-0.3-0.2-0.5c0-0.2,0.1-0.4,0.2-0.5
				c0.1-0.1,0.3-0.2,0.5-0.2c0.2,0,0.4,0.1,0.5,0.2S71.5,12.5,71.5,12.7z"/>
			<path d="M76.5,22.5h-4c-0.2,0-0.4-0.1-0.5-0.2c-0.1-0.1-0.2-0.3-0.2-0.4c0-0.1,0.1-0.2,0.2-0.4c0.1-0.1,0.3-0.2,0.5-0.2h4V22.5z"
				/>
			<path d="M76.5,22.5c-0.2,0-0.4-0.1-0.5-0.2c-0.1-0.1-0.2-0.3-0.2-0.4c0-0.1,0.1-0.2,0.2-0.4c0.1-0.1,0.3-0.2,0.5-0.2h3v-5.6h1.1
				v5.6h1v1.1H76.5z M77.7,25.7c-0.2,0-0.4-0.1-0.5-0.2c-0.1-0.1-0.2-0.3-0.2-0.5s0.1-0.4,0.2-0.5c0.1-0.1,0.3-0.2,0.5-0.2
				s0.4,0.1,0.5,0.2c0.1,0.1,0.2,0.3,0.2,0.5s-0.1,0.4-0.2,0.5C78.1,25.6,78,25.7,77.7,25.7z M80,25.7c-0.2,0-0.4-0.1-0.5-0.2
				c-0.1-0.1-0.2-0.3-0.2-0.5s0.1-0.4,0.2-0.5c0.1-0.1,0.3-0.2,0.5-0.2c0.2,0,0.4,0.1,0.5,0.2c0.1,0.1,0.2,0.3,0.2,0.5
				s-0.1,0.4-0.2,0.5S80.2,25.7,80,25.7z"/>
			<path d="M85.6,22.5h-4c-0.2,0-0.4-0.1-0.5-0.2c-0.1-0.1-0.2-0.3-0.2-0.4c0-0.1,0.1-0.2,0.2-0.4c0.1-0.1,0.3-0.2,0.5-0.2h4V22.5z"
				/>
			<path d="M89.5,22.5h-4c-0.2,0-0.4-0.1-0.5-0.2c-0.1-0.1-0.2-0.3-0.2-0.4c0-0.1,0.1-0.2,0.2-0.4c0.1-0.1,0.3-0.2,0.5-0.2h4V22.5z"
				/>
			<path d="M95.7,15.1v6.3h1v1.1h-7.1c-0.2,0-0.4-0.1-0.5-0.2c-0.1-0.1-0.2-0.3-0.2-0.4c0-0.1,0.1-0.2,0.2-0.4
				c0.1-0.1,0.3-0.2,0.5-0.2h1.6c-0.2-0.2-0.4-0.5-0.5-0.9c-0.1-0.3-0.2-0.8-0.2-1.3c0-0.8,0.2-1.4,0.6-1.9c0.4-0.5,0.9-0.9,1.5-1.3
				c0.6-0.3,1.2-0.6,1.8-0.7C94.9,15.2,95.3,15.1,95.7,15.1z M94.5,16.5c-0.3,0.1-0.6,0.2-0.9,0.3c-0.3,0.1-0.7,0.3-1,0.6
				c-0.3,0.2-0.6,0.5-0.8,0.8c-0.2,0.3-0.3,0.7-0.3,1.1c0,0.8,0.3,1.4,0.8,1.7c0.5,0.3,1.3,0.4,2.2,0.5V16.5z"/>
			<path d="M100.6,22.5h-4c-0.2,0-0.4-0.1-0.5-0.2c-0.1-0.1-0.2-0.3-0.2-0.4c0-0.1,0.1-0.2,0.2-0.4c0.1-0.1,0.3-0.2,0.5-0.2h4V22.5z
				"/>
			<path d="M104.6,22.5h-4c-0.2,0-0.4-0.1-0.5-0.2c-0.1-0.1-0.2-0.3-0.2-0.4c0-0.1,0.1-0.2,0.2-0.4c0.1-0.1,0.3-0.2,0.5-0.2h4V22.5z
				"/>
			<path d="M104.6,22.5c-0.2,0-0.4-0.1-0.5-0.2c-0.1-0.1-0.2-0.3-0.2-0.4c0-0.1,0.1-0.2,0.2-0.4c0.1-0.1,0.3-0.2,0.5-0.2h1.3v-5.6
				h1.1v5.6h1v1.1H104.6z M106.5,14.2c-0.2,0-0.4-0.1-0.5-0.2c-0.1-0.1-0.2-0.3-0.2-0.5s0.1-0.4,0.2-0.5c0.1-0.1,0.3-0.2,0.5-0.2
				c0.2,0,0.4,0.1,0.5,0.2c0.1,0.1,0.2,0.3,0.2,0.5s-0.1,0.4-0.2,0.5C106.9,14.1,106.7,14.2,106.5,14.2z"/>
			<path d="M110,22.5h-2c-0.2,0-0.4-0.1-0.5-0.2c-0.1-0.1-0.2-0.3-0.2-0.4c0-0.1,0.1-0.2,0.2-0.4c0.1-0.1,0.3-0.2,0.5-0.2h2V22.5z"
				/>
			<path d="M114,22.5h-4c-0.2,0-0.4-0.1-0.5-0.2c-0.1-0.1-0.2-0.3-0.2-0.4c0-0.1,0.1-0.2,0.2-0.4c0.1-0.1,0.3-0.2,0.5-0.2h4V22.5z"
				/>
			<path d="M114,22.5c-0.2,0-0.4-0.1-0.5-0.2c-0.1-0.1-0.2-0.3-0.2-0.4c0-0.1,0.1-0.2,0.2-0.4c0.1-0.1,0.3-0.2,0.5-0.2h3v-5.6h1.1
				v6.8H114z M115.2,14.2c-0.2,0-0.4-0.1-0.5-0.2c-0.1-0.1-0.2-0.3-0.2-0.5c0-0.2,0.1-0.4,0.2-0.5c0.1-0.1,0.3-0.2,0.5-0.2
				s0.4,0.1,0.5,0.2c0.1,0.1,0.2,0.3,0.2,0.5c0,0.2-0.1,0.4-0.2,0.5C115.6,14.1,115.4,14.2,115.2,14.2z M117.5,14.2
				c-0.2,0-0.4-0.1-0.5-0.2c-0.1-0.1-0.2-0.3-0.2-0.5c0-0.2,0.1-0.4,0.2-0.5c0.1-0.1,0.3-0.2,0.5-0.2c0.2,0,0.4,0.1,0.5,0.2
				s0.2,0.3,0.2,0.5c0,0.2-0.1,0.4-0.2,0.5S117.7,14.2,117.5,14.2z"/>
			<path d="M128,22.5h-1.2c-0.4,0-0.8-0.1-1.3-0.2s-0.9-0.3-1.3-0.5c-0.4-0.2-0.8-0.5-1.1-0.9s-0.4-0.9-0.4-1.4c0-0.5,0.1-1,0.3-1.4
				c0.2-0.4,0.5-0.8,0.8-1.2s0.7-0.6,1.1-0.9s0.8-0.5,1.2-0.7s0.8-0.3,1.1-0.4c0.3-0.1,0.6-0.2,0.8-0.2V22.5z M126.8,21.3v-5.1
				c-0.3,0.1-0.6,0.3-0.9,0.5c-0.4,0.2-0.7,0.4-1,0.7s-0.6,0.6-0.8,0.9c-0.2,0.4-0.3,0.7-0.3,1.2c0,0.3,0.1,0.6,0.3,0.9
				c0.2,0.2,0.4,0.4,0.7,0.6c0.3,0.1,0.6,0.2,0.9,0.3s0.7,0.1,0.9,0.1H126.8z M125.7,12.7c0,0.2-0.1,0.4-0.2,0.5s-0.3,0.2-0.5,0.2
				c-0.2,0-0.4-0.1-0.5-0.2c-0.1-0.1-0.2-0.3-0.2-0.5c0-0.2,0.1-0.4,0.2-0.5c0.1-0.1,0.3-0.2,0.5-0.2c0.2,0,0.4,0.1,0.5,0.2
				S125.7,12.5,125.7,12.7z M128.1,12.7c0,0.2-0.1,0.4-0.2,0.5c-0.1,0.1-0.3,0.2-0.5,0.2s-0.4-0.1-0.5-0.2c-0.1-0.1-0.2-0.3-0.2-0.5
				c0-0.2,0.1-0.4,0.2-0.5c0.1-0.1,0.3-0.2,0.5-0.2s0.4,0.1,0.5,0.2C128.1,12.4,128.1,12.5,128.1,12.7z"/>
			<path d="M131.1,23c0,0.5,0,1-0.1,1.5c-0.1,0.5-0.2,1-0.4,1.4c-0.2,0.4-0.5,0.7-0.9,1c-0.4,0.3-0.9,0.4-1.6,0.4v-1.1
				c0.4,0,0.8-0.1,1-0.3c0.2-0.2,0.4-0.4,0.6-0.7c0.1-0.3,0.2-0.6,0.2-1c0-0.4,0-0.7,0-1.1v-7.3h1.1v5.6h1v1.1h-1V23z"/>
			<path d="M136,22.5h-4c-0.2,0-0.4-0.1-0.5-0.2c-0.1-0.1-0.2-0.3-0.2-0.4c0-0.1,0.1-0.2,0.2-0.4c0.1-0.1,0.3-0.2,0.5-0.2h4V22.5z"
				/>
			<path d="M140,22.5h-4c-0.2,0-0.4-0.1-0.5-0.2c-0.1-0.1-0.2-0.3-0.2-0.4c0-0.1,0.1-0.2,0.2-0.4c0.1-0.1,0.3-0.2,0.5-0.2h4V22.5z"
				/>
			<path d="M143.9,22.5h-4c-0.2,0-0.4-0.1-0.5-0.2c-0.1-0.1-0.2-0.3-0.2-0.4c0-0.1,0.1-0.2,0.2-0.4c0.1-0.1,0.3-0.2,0.5-0.2h4V22.5z
				"/>
			<path d="M147.9,22.5h-4c-0.2,0-0.4-0.1-0.5-0.2c-0.1-0.1-0.2-0.3-0.2-0.4c0-0.1,0.1-0.2,0.2-0.4c0.1-0.1,0.3-0.2,0.5-0.2h4V22.5z
				"/>
			<path d="M150.1,15.8h1.1v6.8h-3.3c-0.2,0-0.4-0.1-0.5-0.2c-0.1-0.1-0.2-0.3-0.2-0.4c0-0.1,0.1-0.2,0.2-0.4
				c0.1-0.1,0.3-0.2,0.5-0.2h2.2V15.8z M151.5,13c-0.3-0.1-0.7-0.2-0.9-0.2c-0.2,0-0.3,0-0.5,0.1c-0.1,0.1-0.2,0.2-0.2,0.4
				c0,0.3,0.1,0.5,0.3,0.6c0.2,0.1,0.5,0.2,0.8,0.2h0.5v0.6h-2.9v-0.6h0.9c-0.1,0-0.1-0.1-0.2-0.3c-0.1-0.2-0.1-0.3-0.1-0.5
				c0-0.4,0.1-0.7,0.4-0.8c0.2-0.2,0.5-0.2,0.8-0.2c0.4,0,0.8,0.1,1.2,0.2L151.5,13z"/>
			<path d="M153,11h1.1v11.5H153V11z"/>
			<path d="M155.6,16c0.3-0.2,0.7-0.5,1.1-0.7s1-0.3,1.6-0.3c0.6,0,1.1,0.1,1.5,0.4c0.4,0.2,0.8,0.6,1.1,1c0.3,0.4,0.5,0.8,0.6,1.4
				s0.2,1,0.2,1.6c0,0.4,0,0.8-0.1,1.1c-0.1,0.4-0.1,0.7-0.2,1c-0.1,0.3-0.2,0.5-0.3,0.8c-0.1,0.2-0.2,0.4-0.2,0.5h-5.5v-1.1h4.7
				c0.1-0.2,0.2-0.5,0.3-0.9c0.1-0.4,0.2-0.8,0.2-1.3c0-0.4-0.1-0.8-0.2-1.2c-0.1-0.4-0.3-0.7-0.5-1c-0.2-0.3-0.4-0.5-0.7-0.7
				c-0.3-0.2-0.6-0.3-1-0.3c-0.3,0-0.6,0.1-0.9,0.2c-0.3,0.1-0.7,0.3-1.1,0.6L155.6,16z"/>
		</g>
	</g>
</g>
</svg>
